<?xml version="1.0" encoding="UTF-8" standalone="no"?>
<!-- Created with Inkscape (http://www.inkscape.org/) -->

<svg
   xmlns:dc="http://purl.org/dc/elements/1.1/"
   xmlns:cc="http://creativecommons.org/ns#"
   xmlns:rdf="http://www.w3.org/1999/02/22-rdf-syntax-ns#"
   xmlns:svg="http://www.w3.org/2000/svg"
   xmlns="http://www.w3.org/2000/svg"
   xmlns:xlink="http://www.w3.org/1999/xlink"
   xmlns:sodipodi="http://sodipodi.sourceforge.net/DTD/sodipodi-0.dtd"
   xmlns:inkscape="http://www.inkscape.org/namespaces/inkscape"
   width="48"
   height="48"
   id="svg3347"
   sodipodi:version="0.32"
   inkscape:version="0.91 r13725"
   sodipodi:docname="anjuta.svg"
   inkscape:output_extension="org.inkscape.output.svg.inkscape"
   version="1.1">
  <defs
     id="defs3349">
    <linearGradient
       inkscape:collect="always"
       xlink:href="#linearGradient3935"
       id="linearGradient3961"
       x1="-8.9269485"
       y1="-26.204216"
       x2="55.073051"
       y2="-26.204216"
       gradientUnits="userSpaceOnUse"
       gradientTransform="matrix(0.625,0,0,0.625,20.652394,2.173419)" />
    <linearGradient
       id="linearGradient3935">
      <stop
         id="stop3937"
         offset="0"
         style="stop-color:#db50c8;stop-opacity:1" />
      <stop
         id="stop3939"
         offset="1"
         style="stop-color:#981fe7;stop-opacity:1" />
    </linearGradient>
    <linearGradient
       id="linearGradient4569">
      <stop
         id="stop4571"
         offset="0"
         style="stop-color:#ffffff;stop-opacity:1;" />
      <stop
         id="stop4573"
         offset="1"
         style="stop-color:#ffffff;stop-opacity:0.75539571;" />
    </linearGradient>
    <linearGradient
       id="linearGradient3816">
      <stop
         id="stop3818"
         offset="0"
         style="stop-color:#e5f5d9;stop-opacity:1;" />
      <stop
         id="stop3820"
         offset="1"
         style="stop-color:#ffffff;stop-opacity:1;" />
    </linearGradient>
    <linearGradient
       id="linearGradient3816-3">
      <stop
         style="stop-color:#e5f5d9;stop-opacity:1;"
         offset="0"
         id="stop3818-8" />
      <stop
         style="stop-color:#ffffff;stop-opacity:1;"
         offset="1"
         id="stop3820-2" />
    </linearGradient>
    <linearGradient
       id="linearGradient4508">
      <stop
         style="stop-color:#e5f5d9;stop-opacity:1;"
         offset="0"
         id="stop4510" />
      <stop
         style="stop-color:#ffffff;stop-opacity:1;"
         offset="1"
         id="stop4512" />
    </linearGradient>
    <linearGradient
       id="linearGradient6691">
      <stop
         id="stop6693"
         offset="0"
         style="stop-color:#68a0ed;stop-opacity:1;" />
      <stop
         id="stop6695"
         offset="1"
         style="stop-color:#2572cd;stop-opacity:0;" />
    </linearGradient>
    <linearGradient
       id="linearGradient6679">
      <stop
         id="stop6681"
         offset="0"
         style="stop-color:#000000;stop-opacity:1;" />
      <stop
         style="stop-color:#002251;stop-opacity:1;"
         offset="0.5"
         id="stop6703" />
      <stop
         id="stop6683"
         offset="1"
         style="stop-color:#0060e7;stop-opacity:1;" />
    </linearGradient>
    <linearGradient
       id="linearGradient6560">
      <stop
         style="stop-color:#171818;stop-opacity:1;"
         offset="0"
         id="stop6562" />
      <stop
         id="stop6566"
         offset="0.5"
         style="stop-color:#1d1d1d;stop-opacity:1;" />
      <stop
         style="stop-color:#181818;stop-opacity:1;"
         offset="1"
         id="stop6568" />
    </linearGradient>
    <linearGradient
       id="linearGradient4007-5">
      <stop
         style="stop-color:#313232;stop-opacity:1;"
         offset="0"
         id="stop4009-2" />
      <stop
         style="stop-color:#29292b;stop-opacity:1;"
         offset="1"
         id="stop4011-7" />
    </linearGradient>
    <linearGradient
       id="linearGradient5260">
      <stop
         style="stop-color:#313232;stop-opacity:1;"
         offset="0"
         id="stop5262" />
      <stop
         style="stop-color:#29292b;stop-opacity:1;"
         offset="1"
         id="stop5264" />
    </linearGradient>
    <linearGradient
       id="linearGradient5269">
      <stop
         style="stop-color:#313232;stop-opacity:1;"
         offset="0"
         id="stop5271" />
      <stop
         style="stop-color:#29292b;stop-opacity:1;"
         offset="1"
         id="stop5273" />
    </linearGradient>
    <linearGradient
       id="linearGradient4601">
      <stop
         id="stop4603"
         offset="0"
         style="stop-color:#171818;stop-opacity:1;" />
      <stop
         style="stop-color:#232424;stop-opacity:1;"
         offset="0.25"
         id="stop6558" />
      <stop
         style="stop-color:#303030;stop-opacity:1;"
         offset="0.5"
         id="stop4607" />
      <stop
         id="stop4605"
         offset="1"
         style="stop-color:#181818;stop-opacity:1;" />
    </linearGradient>
    <linearGradient
       id="linearGradient6228">
      <stop
         id="stop6230"
         offset="0"
         style="stop-color:#8a8a8a;stop-opacity:1;" />
      <stop
         style="stop-color:#e5e5e5;stop-opacity:1;"
         offset="0.5"
         id="stop6236" />
      <stop
         id="stop6232"
         offset="1"
         style="stop-color:#696969;stop-opacity:1;" />
    </linearGradient>
    <linearGradient
       id="linearGradient4015">
      <stop
         id="stop4017"
         offset="0"
         style="stop-color:#2e2e2e;stop-opacity:1;" />
      <stop
         id="stop4019"
         offset="1"
         style="stop-color:#111111;stop-opacity:1;" />
    </linearGradient>
    <linearGradient
       id="linearGradient5291">
      <stop
         id="stop5293"
         offset="0"
         style="stop-color:#8a8a8a;stop-opacity:1;" />
      <stop
         style="stop-color:#e5e5e5;stop-opacity:1;"
         offset="0.5"
         id="stop5295" />
      <stop
         id="stop5297"
         offset="1"
         style="stop-color:#696969;stop-opacity:1;" />
    </linearGradient>
    <linearGradient
       id="linearGradient5300">
      <stop
         id="stop5302"
         offset="0"
         style="stop-color:#8a8a8a;stop-opacity:1;" />
      <stop
         style="stop-color:#e5e5e5;stop-opacity:1;"
         offset="0.5"
         id="stop5304" />
      <stop
         id="stop5306"
         offset="1"
         style="stop-color:#696969;stop-opacity:1;" />
    </linearGradient>
    <linearGradient
       id="linearGradient5309">
      <stop
         id="stop5311"
         offset="0"
         style="stop-color:#8a8a8a;stop-opacity:1;" />
      <stop
         style="stop-color:#e5e5e5;stop-opacity:1;"
         offset="0.5"
         id="stop5313" />
      <stop
         id="stop5315"
         offset="1"
         style="stop-color:#696969;stop-opacity:1;" />
    </linearGradient>
    <linearGradient
       id="linearGradient5318">
      <stop
         id="stop5320"
         offset="0"
         style="stop-color:#8a8a8a;stop-opacity:1;" />
      <stop
         style="stop-color:#e5e5e5;stop-opacity:1;"
         offset="0.5"
         id="stop5322" />
      <stop
         id="stop5324"
         offset="1"
         style="stop-color:#696969;stop-opacity:1;" />
    </linearGradient>
  </defs>
  <sodipodi:namedview
     id="base"
     pagecolor="#ffffff"
     bordercolor="#666666"
     borderopacity="1.0"
     inkscape:pageopacity="0.0"
     inkscape:pageshadow="2"
     inkscape:zoom="5.2375"
     inkscape:cx="-41.599684"
     inkscape:cy="29.293619"
     inkscape:current-layer="g3443"
     showgrid="true"
     inkscape:document-units="px"
     inkscape:grid-bbox="true"
     inkscape:window-width="1366"
     inkscape:window-height="700"
     inkscape:window-x="0"
     inkscape:window-y="0"
     inkscape:window-maximized="1"
     showguides="true"
     inkscape:guide-bbox="true"
     inkscape:showpageshadow="false">
    <inkscape:grid
       type="xygrid"
       id="grid3778"
       empspacing="5"
       visible="true"
       enabled="false"
       snapvisiblegridlinesonly="true" />
  </sodipodi:namedview>
  <metadata
     id="metadata3352">
    <rdf:RDF>
      <cc:Work
         rdf:about="">
        <dc:format>image/svg+xml</dc:format>
        <dc:type
           rdf:resource="http://purl.org/dc/dcmitype/StillImage" />
        <dc:title />
      </cc:Work>
    </rdf:RDF>
  </metadata>
  <g
     id="layer1"
     inkscape:label="Layer 1"
     inkscape:groupmode="layer"
     transform="translate(0,-16)">
    <g
       id="g3443"
       inkscape:label="Layer 1"
       transform="translate(5.7957838,8.9269487)">
      <g
         id="g5541"
         transform="matrix(2.9464106,0,0,2.9464106,-23.963863,-75.735585)" />
      <g
         id="g4202"
         transform="matrix(1.125,0,0,1.125,2.2244732,-8.3841316)">
        <rect
           transform="matrix(0,1,-1,0,0,0)"
           style="fill:url(#linearGradient3961);fill-opacity:1;stroke:none"
           id="rect2383"
           width="40"
           height="40"
           x="15.073051"
           y="-34.204216"
           ry="9.375" />
      </g>
      <path
         style="fill:#f3f3f3;fill-opacity:1;stroke-width:5.18013954"
         d="m -17.015998,157.66464 c 0.209411,1.08688 0.448216,2.11194 0.730836,3.05977 0.295588,0.99134 0.633594,1.90929 1.019403,2.75867 0.38581,0.8494 0.819222,1.62996 1.305623,2.34777 0.486401,0.7178 1.025847,1.37243 1.623205,1.96902 0.59736,0.5966 1.252686,1.13511 1.971372,1.62085 0.7186863,0.48575 1.5005235,0.9188 2.3509036,1.30406 0.850381,0.38526 1.7693586,0.72269 2.7618026,1.01784 0.9924441,0.29514 2.0584076,0.54838 3.2032828,0.76377 1.14487523,0.21537 2.36845468,0.3935 3.6761295,0.53949 1.3076749,0.14598 2.6995005,0.25965 4.180343,0.3466 2.9616854,0.17393 6.2798735,0.23995 9.9964385,0.23995 l 23.187536,0 c 1.098244,-3.71745 1.414898,-8.21725 -1.471865,-11.9929 -4.744917,-6.21924 -16.456811,-24.76551 -6.103879,-30.61036 0,0 7.658953,10.04422 15.808613,11.00172 4e-6,0 3.330211,8.77763 10.697475,4.37324 2.628911,-1.42715 3.707522,-7.43623 1.05469,-11.26833 l -2.088993,-3.06057 c 0,0 -5.495431,-17.22886 -10.420669,-22.20734 0,0 -0.109743,-8.08532 1.594978,-12.099543 0,0 -3.213454,0.354215 -4.161526,2.078024 0,0 -0.950271,-5.286296 0,-6.237198 0,0 -7.758494,5.059302 -8.32383,8.315997 0,0 -22.103128,-6.60234 -37.4544944,8.3152 0,0 10.4022475,-0.76876 12.4853534,0 0,0 -21.453048,12.26891 -24.938558,24.86171 l 0,0.0651 c 0.05599,-0.0411 6.4003582,-4.69963 8.2901128,-4.13957 -2.4799203,5.34811 -5.4013008,13.3161 -7.9450818,21.3675 0.02589,0.34233 -1.408613,2.68001 -3.029201,5.26954 z"
         id="path1850"
         inkscape:connector-curvature="0" />
      <path
         inkscape:connector-curvature="0"
         style="fill:#f3f3f3;fill-opacity:1;stroke:none"
         d="m 23.610055,53.573051 c 0.160529,-0.715909 0.332503,-1.441568 0.279297,-2.201172 -0.03519,-0.502463 -0.131594,-1.005285 -0.30664,-1.498047 -0.175047,-0.492762 -0.42946,-0.975434 -0.78125,-1.435547 -0.578231,-0.757896 -1.368771,-1.89061 -2.150391,-3.208984 -0.78162,-1.318374 -1.554885,-2.820763 -2.097656,-4.318359 -0.271386,-0.748798 -0.484528,-1.496632 -0.613281,-2.21875 -0.128754,-0.722118 -0.172674,-1.418626 -0.103516,-2.066407 0.06916,-0.647781 0.251869,-1.24765 0.574219,-1.773437 0.322349,-0.525787 0.785195,-0.977849 1.416015,-1.333985 0,0 0.933365,1.223497 2.363282,2.50586 0.714958,0.641181 1.554243,1.297623 2.46289,1.822266 0.908648,0.524642 1.885762,0.918472 2.878906,1.035156 1e-6,0 0.40699,1.067837 1.261719,1.86914 0.427365,0.400652 0.96585,0.734771 1.623047,0.833985 0.657197,0.09921 1.43228,-0.03553 2.330078,-0.572266 0.320368,-0.173917 0.593442,-0.487049 0.802734,-0.888672 0.209293,-0.401622 0.35493,-0.891598 0.419922,-1.417969 0.06499,-0.52637 0.05003,-1.090512 -0.0625,-1.638671 -0.112532,-0.54816 -0.323201,-1.079884 -0.646484,-1.546875 l -1.017578,-1.492188 c 0,0 -0.668879,-2.099042 -1.638672,-4.501953 -0.484897,-1.201455 -1.046016,-2.47882 -1.634766,-3.607422 -0.588749,-1.128601 -1.206435,-2.110103 -1.80664,-2.716797 0,0 -0.01237,-0.984948 0.07813,-2.214844 0.0905,-1.229895 0.28373,-2.703268 0.699219,-3.68164 0,0 -0.390475,0.04321 -0.839844,0.191406 -0.449369,0.148201 -0.95643,0.400175 -1.1875,0.820313 0,0 -0.115927,-0.643559 -0.173828,-1.345703 -0.0579,-0.702145 -0.05778,-1.4616 0.173828,-1.69336 0,0 -0.94586,0.616663 -1.925782,1.431641 -0.48996,0.407489 -0.989506,0.863916 -1.382812,1.318359 -0.393306,0.454444 -0.681106,0.905863 -0.75,1.302734 0,0 -0.673774,-0.200572 -1.800781,-0.388671 -1.127007,-0.1881 -2.707014,-0.362731 -4.521485,-0.310547 -0.907235,0.02609 -1.872454,0.108906 -2.86914,0.27539 -0.996687,0.166485 -2.025446,0.414966 -3.0566408,0.775391 -1.031195,0.360425 -2.065411,0.83154 -3.076172,1.439453 -1.0107599,0.607913 -1.9982099,1.352769 -2.9335934,2.261719 0,0 1.2694845,-0.09378 2.6640624,-0.140625 1.394578,-0.04684 2.91612,-0.04674 3.423828,0.140625 0,0 -2.614692,1.495384 -5.4414059,3.757812 -1.4133574,1.131214 -2.8803083,2.455022 -4.09960951,3.878907 -0.6096506,0.711942 -1.15692399,1.448225 -1.60546869,2.199218 -0.4485448,0.750994 -0.7993411,1.515904 -1.0117188,2.283204 l 0,0.0332 c 0.013647,-0.01001 0.7938448,-0.583058 1.68554689,-1.119141 0.8917021,-0.536083 1.89488571,-1.036892 2.35546871,-0.900391 -1.20884361,2.606951 -2.63112,6.491339 -3.8710937,10.416016 0.012295,0.162531 -0.6730862,1.279283 -1.4375,2.501953 1.4238756,4.137096 5.2287715,7.138675 9.8613231,7.138675 l 17.4902337,0 z"
         id="path4210" />
    </g>
  </g>
</svg>
