<?xml version="1.0" encoding="UTF-8" standalone="no"?>
<!-- Created with Inkscape (http://www.inkscape.org/) -->

<svg
   xmlns:dc="http://purl.org/dc/elements/1.1/"
   xmlns:cc="http://creativecommons.org/ns#"
   xmlns:rdf="http://www.w3.org/1999/02/22-rdf-syntax-ns#"
   xmlns:svg="http://www.w3.org/2000/svg"
   xmlns="http://www.w3.org/2000/svg"
   xmlns:xlink="http://www.w3.org/1999/xlink"
   xmlns:sodipodi="http://sodipodi.sourceforge.net/DTD/sodipodi-0.dtd"
   xmlns:inkscape="http://www.inkscape.org/namespaces/inkscape"
   width="48"
   height="48"
   id="svg3347"
   sodipodi:version="0.32"
   inkscape:version="0.91 r13725"
   sodipodi:docname="firefox.svg"
   inkscape:output_extension="org.inkscape.output.svg.inkscape"
   version="1.1">
  <defs
     id="defs3349">
    <linearGradient
       id="linearGradient3935">
      <stop
         id="stop3937"
         offset="0"
         style="stop-color:#f48b0b;stop-opacity:1" />
      <stop
         id="stop3939"
         offset="1"
         style="stop-color:#ffba6b;stop-opacity:1" />
    </linearGradient>
    <linearGradient
       id="linearGradient4569">
      <stop
         id="stop4571"
         offset="0"
         style="stop-color:#ffffff;stop-opacity:1;" />
      <stop
         id="stop4573"
         offset="1"
         style="stop-color:#ffffff;stop-opacity:0.75539571;" />
    </linearGradient>
    <linearGradient
       id="linearGradient3816">
      <stop
         id="stop3818"
         offset="0"
         style="stop-color:#e5f5d9;stop-opacity:1;" />
      <stop
         id="stop3820"
         offset="1"
         style="stop-color:#ffffff;stop-opacity:1;" />
    </linearGradient>
    <linearGradient
       id="linearGradient3816-3">
      <stop
         style="stop-color:#e5f5d9;stop-opacity:1;"
         offset="0"
         id="stop3818-8" />
      <stop
         style="stop-color:#ffffff;stop-opacity:1;"
         offset="1"
         id="stop3820-2" />
    </linearGradient>
    <linearGradient
       id="linearGradient4508">
      <stop
         style="stop-color:#e5f5d9;stop-opacity:1;"
         offset="0"
         id="stop4510" />
      <stop
         style="stop-color:#ffffff;stop-opacity:1;"
         offset="1"
         id="stop4512" />
    </linearGradient>
    <linearGradient
       id="linearGradient6691">
      <stop
         id="stop6693"
         offset="0"
         style="stop-color:#68a0ed;stop-opacity:1;" />
      <stop
         id="stop6695"
         offset="1"
         style="stop-color:#2572cd;stop-opacity:0;" />
    </linearGradient>
    <linearGradient
       id="linearGradient6679">
      <stop
         id="stop6681"
         offset="0"
         style="stop-color:#000000;stop-opacity:1;" />
      <stop
         style="stop-color:#002251;stop-opacity:1;"
         offset="0.5"
         id="stop6703" />
      <stop
         id="stop6683"
         offset="1"
         style="stop-color:#0060e7;stop-opacity:1;" />
    </linearGradient>
    <linearGradient
       id="linearGradient6560">
      <stop
         style="stop-color:#171818;stop-opacity:1;"
         offset="0"
         id="stop6562" />
      <stop
         id="stop6566"
         offset="0.5"
         style="stop-color:#1d1d1d;stop-opacity:1;" />
      <stop
         style="stop-color:#181818;stop-opacity:1;"
         offset="1"
         id="stop6568" />
    </linearGradient>
    <linearGradient
       id="linearGradient4007-5">
      <stop
         style="stop-color:#313232;stop-opacity:1;"
         offset="0"
         id="stop4009-2" />
      <stop
         style="stop-color:#29292b;stop-opacity:1;"
         offset="1"
         id="stop4011-7" />
    </linearGradient>
    <linearGradient
       id="linearGradient5260">
      <stop
         style="stop-color:#313232;stop-opacity:1;"
         offset="0"
         id="stop5262" />
      <stop
         style="stop-color:#29292b;stop-opacity:1;"
         offset="1"
         id="stop5264" />
    </linearGradient>
    <linearGradient
       id="linearGradient5269">
      <stop
         style="stop-color:#313232;stop-opacity:1;"
         offset="0"
         id="stop5271" />
      <stop
         style="stop-color:#29292b;stop-opacity:1;"
         offset="1"
         id="stop5273" />
    </linearGradient>
    <linearGradient
       id="linearGradient4601">
      <stop
         id="stop4603"
         offset="0"
         style="stop-color:#171818;stop-opacity:1;" />
      <stop
         style="stop-color:#232424;stop-opacity:1;"
         offset="0.25"
         id="stop6558" />
      <stop
         style="stop-color:#303030;stop-opacity:1;"
         offset="0.5"
         id="stop4607" />
      <stop
         id="stop4605"
         offset="1"
         style="stop-color:#181818;stop-opacity:1;" />
    </linearGradient>
    <linearGradient
       id="linearGradient6228">
      <stop
         id="stop6230"
         offset="0"
         style="stop-color:#8a8a8a;stop-opacity:1;" />
      <stop
         style="stop-color:#e5e5e5;stop-opacity:1;"
         offset="0.5"
         id="stop6236" />
      <stop
         id="stop6232"
         offset="1"
         style="stop-color:#696969;stop-opacity:1;" />
    </linearGradient>
    <linearGradient
       id="linearGradient4015">
      <stop
         id="stop4017"
         offset="0"
         style="stop-color:#2e2e2e;stop-opacity:1;" />
      <stop
         id="stop4019"
         offset="1"
         style="stop-color:#111111;stop-opacity:1;" />
    </linearGradient>
    <linearGradient
       id="linearGradient5291">
      <stop
         id="stop5293"
         offset="0"
         style="stop-color:#8a8a8a;stop-opacity:1;" />
      <stop
         style="stop-color:#e5e5e5;stop-opacity:1;"
         offset="0.5"
         id="stop5295" />
      <stop
         id="stop5297"
         offset="1"
         style="stop-color:#696969;stop-opacity:1;" />
    </linearGradient>
    <linearGradient
       id="linearGradient5300">
      <stop
         id="stop5302"
         offset="0"
         style="stop-color:#8a8a8a;stop-opacity:1;" />
      <stop
         style="stop-color:#e5e5e5;stop-opacity:1;"
         offset="0.5"
         id="stop5304" />
      <stop
         id="stop5306"
         offset="1"
         style="stop-color:#696969;stop-opacity:1;" />
    </linearGradient>
    <linearGradient
       id="linearGradient5309">
      <stop
         id="stop5311"
         offset="0"
         style="stop-color:#8a8a8a;stop-opacity:1;" />
      <stop
         style="stop-color:#e5e5e5;stop-opacity:1;"
         offset="0.5"
         id="stop5313" />
      <stop
         id="stop5315"
         offset="1"
         style="stop-color:#696969;stop-opacity:1;" />
    </linearGradient>
    <linearGradient
       id="linearGradient5318">
      <stop
         id="stop5320"
         offset="0"
         style="stop-color:#8a8a8a;stop-opacity:1;" />
      <stop
         style="stop-color:#e5e5e5;stop-opacity:1;"
         offset="0.5"
         id="stop5322" />
      <stop
         id="stop5324"
         offset="1"
         style="stop-color:#696969;stop-opacity:1;" />
    </linearGradient>
    <linearGradient
       gradientTransform="translate(-41.650041,-970.72853)"
       xlink:href="#linearGradient4198"
       id="linearGradient4204"
       x1="24"
       y1="1032.3621"
       x2="24"
       y2="1018.362"
       gradientUnits="userSpaceOnUse" />
    <linearGradient
       id="linearGradient4198">
      <stop
         style="stop-color:#272b2d;stop-opacity:1;"
         offset="0"
         id="stop12" />
      <stop
         style="stop-color:#3e4447;stop-opacity:1"
         offset="1"
         id="stop14" />
    </linearGradient>
    <radialGradient
       xlink:href="#linearGradient4185"
       id="radialGradient4191"
       cx="24"
       cy="1025.3621"
       fx="24"
       fy="1025.3621"
       r="2"
       gradientTransform="matrix(1,0,0,0.9998745,-41.650041,-970.59983)"
       gradientUnits="userSpaceOnUse" />
    <linearGradient
       id="linearGradient4185">
      <stop
         style="stop-color:#acacac;stop-opacity:1"
         offset="0"
         id="stop17" />
      <stop
         style="stop-color:#cbcbcb;stop-opacity:1"
         offset="1"
         id="stop19" />
    </linearGradient>
    <radialGradient
       gradientUnits="userSpaceOnUse"
       gradientTransform="matrix(0.0825304,0,0,0.0825304,624.04791,714.63317)"
       r="791.229"
       cy="-7921.6079"
       cx="-7529.6689"
       id="radialGradient4656">
      <stop
         id="stop4658"
         stop-color="#00ccda"
         offset="0" />
      <stop
         id="stop4660"
         stop-color="#0083ff"
         offset="0.22" />
      <stop
         id="stop4662"
         stop-color="#007af9"
         offset="0.261" />
      <stop
         id="stop4664"
         stop-color="#0060e8"
         offset="0.33" />
      <stop
         id="stop4666"
         stop-color="#005fe7"
         offset="0.333" />
      <stop
         id="stop4668"
         stop-color="#2639ad"
         offset="0.64254749" />
      <stop
         id="stop4670"
         stop-color="#401e84"
         offset="0.71905321" />
      <stop
         id="stop4672"
         stop-color="#4a1475"
         offset="0.837237" />
    </radialGradient>
    <radialGradient
       inkscape:collect="always"
       xlink:href="#radialGradient4656"
       id="radialGradient4252"
       cx="25.507042"
       cy="-20.302794"
       fx="25.507042"
       fy="-20.302794"
       r="20"
       gradientUnits="userSpaceOnUse"
       gradientTransform="matrix(0,-1.9008216,1.9361015,0,61.096635,21.403097)" />
    <linearGradient
       id="linearGradient2867-449-88-871-390-598-476-591-434-148-57-177-8-3-3-6-4-8-8-8">
      <stop
         id="stop3750-1-0-7-6-6-1-3-9"
         style="stop-color:#ffee55;stop-opacity:1"
         offset="0" />
      <stop
         offset="0.42583728"
         style="stop-color:#feeb46;stop-opacity:1"
         id="stop1654" />
      <stop
         id="stop3752-3-7-4-0-32-8-923-0"
         style="stop-color:#fc8f36;stop-opacity:1"
         offset="0.50877196" />
      <stop
         offset="0.58839363"
         style="stop-color:#ef6422;stop-opacity:1;"
         id="stop1062" />
      <stop
         id="stop3754-1-8-5-2-7-6-7-1"
         style="stop-color:#e23a0e;stop-opacity:1"
         offset="0.6680153" />
      <stop
         offset="0.93725348"
         style="stop-color:#b8017a;stop-opacity:0.97254902"
         id="stop1658" />
      <stop
         id="stop3756-1-6-2-6-6-1-96-6"
         style="stop-color:#b8017a;stop-opacity:1"
         offset="1" />
    </linearGradient>
    <radialGradient
       inkscape:collect="always"
       xlink:href="#linearGradient2867-449-88-871-390-598-476-591-434-148-57-177-8-3-3-6-4-8-8-8"
       id="radialGradient4292"
       cx="23.167204"
       cy="29.250074"
       fx="23.167204"
       fy="29.250074"
       r="22.5"
       gradientUnits="userSpaceOnUse"
       gradientTransform="matrix(1.7976664,-1.674212e-8,1.9745279e-8,2.1201273,-14.520892,-34.805773)" />
    <linearGradient
       gradientTransform="matrix(0.13711382,0.01163126,-0.01248071,0.1277817,42.15471,8.1805327)"
       id="5-5"
       x1="-226.75"
       x2="-170.39"
       gradientUnits="userSpaceOnUse">
      <stop
         stop-color="#de4000"
         id="stop4645-3" />
      <stop
         offset="1"
         stop-color="#fab600"
         id="stop4647-5" />
    </linearGradient>
    <linearGradient
       inkscape:collect="always"
       xlink:href="#linearGradient3578"
       id="linearGradient3580"
       x1="96.103058"
       y1="65.319656"
       x2="103.02177"
       y2="96.216209"
       gradientUnits="userSpaceOnUse"
       gradientTransform="matrix(0.50734096,0,0,0.50809537,-16.247356,0.13145778)" />
    <linearGradient
       inkscape:collect="always"
       id="linearGradient3578">
      <stop
         style="stop-color:#ffa200;stop-opacity:1"
         offset="0"
         id="stop3574" />
      <stop
         style="stop-color:#dca21c;stop-opacity:0"
         offset="1"
         id="stop3576" />
    </linearGradient>
    <linearGradient
       gradientTransform="matrix(0.511122,0,0,0.45946658,-16.550875,4.4963607)"
       inkscape:collect="always"
       xlink:href="#linearGradient1050"
       id="linearGradient1044-9"
       x1="82.970337"
       y1="30.088341"
       x2="107.64773"
       y2="73.270157"
       gradientUnits="userSpaceOnUse" />
    <linearGradient
       gradientUnits="userSpaceOnUse"
       y2="82.480003"
       x2="-268.98999"
       y1="120.49"
       x1="-335.91"
       id="linearGradient1050"
       gradientTransform="matrix(0.29580808,0.0057254,-0.0057254,0.29580808,-23.568013,1.3300176)">
      <stop
         id="stop1046"
         stop-color="#ec3a00"
         style="stop-color:#fee246;stop-opacity:1" />
      <stop
         style="stop-color:#f59b00;stop-opacity:0.50588238"
         stop-color="#ec3a00"
         id="stop1060"
         offset="0.69732404" />
      <stop
         id="stop1048"
         stop-opacity=".016"
         stop-color="#ffb900"
         offset="1" />
    </linearGradient>
    <linearGradient
       gradientTransform="matrix(0.5028026,0,0,0.5028026,-16.024951,2.6365827)"
       inkscape:collect="always"
       xlink:href="#linearGradient1056"
       id="linearGradient1058"
       x1="96.495438"
       y1="22.963938"
       x2="106.13371"
       y2="21.463837"
       gradientUnits="userSpaceOnUse" />
    <linearGradient
       inkscape:collect="always"
       id="linearGradient1056">
      <stop
         style="stop-color:#ffa200;stop-opacity:1;"
         offset="0"
         id="stop1052" />
      <stop
         style="stop-color:#fffd00;stop-opacity:0"
         offset="1"
         id="stop1054" />
    </linearGradient>
    <linearGradient
       y2="298.31403"
       x2="-181.74777"
       y1="208.63644"
       x1="-258.12738"
       gradientTransform="matrix(0.13567118,0,0,0.17228194,39.115016,-3.1859355)"
       gradientUnits="userSpaceOnUse"
       id="linearGradient1652"
       xlink:href="#6-3"
       inkscape:collect="always" />
    <linearGradient
       id="6-3"
       x1="-258.12738"
       y1="208.63644"
       x2="-181.74777"
       y2="298.31403"
       gradientUnits="userSpaceOnUse"
       gradientTransform="matrix(0.28446436,0,0,0.36122683,111.0341,-12.577201)">
      <stop
         stop-color="#f24d00"
         id="stop4655-6"
         style="stop-color:#961725;stop-opacity:1" />
      <stop
         style="stop-color:#f06824;stop-opacity:1"
         id="stop963"
         stop-color="#f24d00"
         offset="0.19558652" />
      <stop
         id="stop3440"
         stop-color="#f24d00"
         offset="0.54072613"
         style="stop-color:#f06723;stop-opacity:1" />
      <stop
         offset="1"
         stop-color="#ffb000"
         id="stop4657-7" />
    </linearGradient>
    <radialGradient
       inkscape:collect="always"
       xlink:href="#6-3"
       id="radialGradient1652-7"
       cx="71.144119"
       cy="56.087315"
       fx="71.144119"
       fy="56.087315"
       r="54.180992"
       gradientTransform="matrix(0.83638619,-2.6090083e-4,5.2884073e-8,0.85328506,-31.643251,-20.778882)"
       gradientUnits="userSpaceOnUse" />
    <radialGradient
       inkscape:collect="always"
       xlink:href="#4-6"
       id="radialGradient959"
       cx="19.076206"
       cy="29.851841"
       fx="19.076206"
       fy="29.851841"
       r="5.9122481"
       gradientTransform="matrix(1.0631067,1.6821855,-2.3497412,1.5304755,43.281585,-62.642846)"
       gradientUnits="userSpaceOnUse" />
    <linearGradient
       gradientTransform="matrix(0.3011864,0.00583817,-0.0058295,0.30163426,118.4786,-1.6058194)"
       id="4-6"
       x1="-316.30048"
       y1="93.99012"
       x2="-308.03195"
       y2="120.68974"
       gradientUnits="userSpaceOnUse">
      <stop
         stop-color="#ec3a00"
         id="stop4650-2"
         style="stop-color:#c00e62;stop-opacity:0.91588783" />
      <stop
         style="stop-color:#d63540;stop-opacity:0.95686275;"
         id="stop957"
         stop-color="#ec3a00"
         offset="0.3302111" />
      <stop
         offset="1"
         stop-color="#ffb900"
         stop-opacity=".016"
         id="stop4652-9"
         style="stop-color:#7a5240;stop-opacity:1" />
    </linearGradient>
  </defs>
  <sodipodi:namedview
     id="base"
     pagecolor="#ffffff"
     bordercolor="#666666"
     borderopacity="1.0"
     inkscape:pageopacity="0.0"
     inkscape:pageshadow="2"
     inkscape:zoom="3.7034718"
     inkscape:cx="-69.997226"
     inkscape:cy="39.589611"
     inkscape:current-layer="g3443"
     showgrid="true"
     inkscape:document-units="px"
     inkscape:grid-bbox="true"
     inkscape:window-width="1366"
     inkscape:window-height="703"
     inkscape:window-x="0"
     inkscape:window-y="0"
     inkscape:window-maximized="1"
     showguides="true"
     inkscape:guide-bbox="true"
     inkscape:showpageshadow="false">
    <inkscape:grid
       type="xygrid"
       id="grid3778"
       empspacing="5"
       visible="true"
       enabled="false"
       snapvisiblegridlinesonly="true" />
  </sodipodi:namedview>
  <metadata
     id="metadata3352">
    <rdf:RDF>
      <cc:Work
         rdf:about="">
        <dc:format>image/svg+xml</dc:format>
        <dc:type
           rdf:resource="http://purl.org/dc/dcmitype/StillImage" />
        <dc:title />
      </cc:Work>
    </rdf:RDF>
  </metadata>
  <g
     id="layer1"
     inkscape:label="Layer 1"
     inkscape:groupmode="layer"
     transform="translate(0,-16)">
    <g
       id="g3443"
       inkscape:label="Layer 1"
       transform="translate(5.7957838,8.9269487)">
      <g
         id="g5541"
         transform="matrix(2.9464106,0,0,2.9464106,-23.963863,-75.735585)" />
      <g
         id="g4211"
         transform="matrix(1.125,0,0,1.125,-2.2755268,-3.8841316)">
        <rect
           transform="matrix(0,1,-1,0,0,0)"
           style="fill:url(#radialGradient4252);fill-opacity:1;stroke:none"
           id="rect2383"
           width="40"
           height="40"
           x="11.073051"
           y="-38.204216"
           ry="9.375" />
        <g
           transform="matrix(0.90341705,0,0,0.90341705,6.064422,6.2613565)"
           id="g4234" />
      </g>
      <path
         inkscape:connector-curvature="0"
         style="fill:url(#radialGradient4292);fill-opacity:1;stroke:none"
         d="m 24.924919,8.5730513 c -0.253701,0.3886223 -0.402596,0.387516 -0.673828,0.8964844 -0.759751,1.4256783 -1.517338,3.1890893 -1.871094,4.5390623 -0.331201,1.263904 -0.472972,2.471916 -0.419922,3.636719 0.05305,1.164803 0.300238,2.2876 0.748047,3.378906 0.447809,1.091306 1.096146,2.1519 1.949219,3.195312 0.853073,1.043412 1.910844,2.068722 3.179687,3.089844 1.698787,1.367125 2.862374,2.356533 3.716797,3.191406 0.854424,0.834874 1.400506,1.51492 1.869141,2.265625 0.568524,0.910718 0.890594,1.528011 0.939453,1.734375 0.04886,0.206365 -0.175323,0.0019 -0.701172,-0.728515 -0.591626,-0.82184 -1.643947,-1.875461 -2.546875,-2.642578 -0.902928,-0.767118 -1.656956,-1.246953 -1.652344,-0.923829 0.0015,0.104897 0.170805,0.727032 0.376954,1.382813 0.271231,0.862809 0.393072,2.078162 0.36914,3.316406 -0.02393,1.238245 -0.193589,2.499696 -0.5,3.457031 -0.270935,0.846502 -0.634406,1.641576 -1.078125,2.378907 -0.443719,0.73733 -0.96745,1.41751 -1.554687,2.033203 -0.587238,0.615693 -1.237962,1.166848 -1.939453,1.648437 -0.701491,0.48159 -1.453755,0.893496 -2.240235,1.228516 -0.786479,0.33502 -1.607016,0.593547 -2.449218,0.769531 -0.842203,0.175984 -1.705558,0.268956 -2.574219,0.273438 -0.868662,0.0045 -1.743521,-0.08028 -2.609375,-0.259766 -0.865855,-0.179486 -1.722858,-0.454158 -2.556641,-0.830078 -0.66175,-0.298359 -1.747448,-1.064898 -2.634765,-1.789062 -0.8873179,-0.724165 -1.5751599,-1.406149 -1.4394539,-1.53711 0.05063,-0.04886 0.536561,0.03095 1.080078,0.175781 0.5435239,0.144835 1.9645459,0.217199 3.1582039,0.16211 0.996311,-0.04597 1.588785,-0.09546 2.208984,-0.267578 0.620199,-0.172114 1.267902,-0.46756 2.376953,-1.00586 1.581338,-0.767542 2.602057,-1.124242 2.955078,-1.035156 0.412176,0.104019 0.723222,0.0885 0.931641,-0.04297 0.208419,-0.131469 0.314453,-0.380125 0.314453,-0.74414 0,-0.312862 -0.124156,-0.622222 -0.34375,-0.910157 -0.219594,-0.287934 -0.534511,-0.553916 -0.914063,-0.78125 -0.759103,-0.454667 -1.7792,-0.751781 -2.820312,-0.75 -0.733644,0.0014 -1.888805,0.164344 -2.568359,0.363282 -0.976042,0.285733 -1.896999,0.405035 -2.716797,0.359375 -0.819798,-0.04566 -1.539513,-0.256634 -2.117188,-0.628907 -0.7765589,-0.500448 -1.4163899,-1.002905 -1.9160149,-1.5 -0.499626,-0.497094 -0.858324,-0.988124 -1.074219,-1.466797 -0.215896,-0.478672 -0.289476,-0.943492 -0.214844,-1.388671 0.07463,-0.44518 0.297966,-0.870961 0.669922,-1.267579 0.320196,-0.341418 0.613257,-0.512934 0.935547,-0.517578 0.32229,-0.0046 0.673936,0.157751 1.109375,0.488282 0.4579849,0.347651 0.7488249,0.443101 0.9335939,0.214843 0.184768,-0.228257 0.261636,-0.780737 0.291015,-1.730468 l 0.04883,-1.550782 2.496094,-1.214843 c 1.24915,-0.60761 2.064493,-1.075662 2.603516,-1.541016 0.539022,-0.465354 0.802465,-0.927871 0.949219,-1.525391 0.06772,-0.275725 0.08022,-0.444692 -0.0078,-0.572265 -0.08804,-0.127574 -0.277295,-0.215095 -0.613281,-0.328125 -0.427354,-0.143765 -1.483845,-0.33467 -2.347656,-0.425781 -0.863801,-0.09112 -1.864481,-0.310609 -2.22461,-0.486329 -0.371135,-0.181084 -0.743114,-0.514477 -1.021484,-0.880859 -0.278371,-0.366382 -0.462891,-0.764877 -0.462891,-1.072266 0,-0.358322 0.389136,-1.054262 0.935547,-1.78125 0.546411,-0.726987 1.249643,-1.485307 1.880859,-1.966796 l 1.214829,-0.927734 -1.109375,-0.160156 c -0.751079,-0.108693 -1.648605,-0.01005 -2.542969,0.251953 -0.8943629,0.262006 -1.7864109,0.688596 -2.5273429,1.234375 -0.78783,0.580331 -1.310948,0.806304 -1.589844,0.689453 -0.228547,-0.09576 -1.660847,-0.239868 -3.1835939,-0.320312 L 0.639763,17.280082 -0.2957839,15.944145 c -0.6139063,-0.876275 -0.9940997,-1.74912 -1.1074219,-2.537109 l -0.1738281,-1.201172 -0.033203,0.03711 c -0.5894323,0.674585 -1.0946986,1.415799 -1.4980469,2.226563 -0.1373314,0.231998 -0.2669998,0.449414 -0.3945312,0.701172 -0.4927093,1.221917 -0.7929688,2.546756 -0.7929688,3.949218 l 0,23.90625 c 0,5.842969 4.7039062,10.546875 10.546875,10.546875 l 23.9062498,0 c 4.304862,0 7.958964,-2.574829 9.601563,-6.255859 0.09761,-0.254998 0.163672,-0.489443 0.232421,-0.736329 0.403137,-1.120027 0.712891,-2.292392 0.712891,-3.554687 l 0,-19.419922 C 39.809864,21.850227 38.354717,19.61579 36.510857,17.401176 35.76798,16.508924 35.23335,15.779352 34.811638,15.047661 34.389925,14.315969 34.081194,13.583136 33.79406,12.688286 l -0.396485,-1.236329 -0.36914,1.273438 c -0.203095,0.701344 -0.439267,1.275391 -0.523438,1.275391 -0.08417,0 -1.293932,-1.074514 -2.689453,-2.388672 -1.543887,-1.453871 -2.176155,-2.2870699 -2.605469,-3.0390627 l -2.285156,0 z"
         id="rect2383-7" />
      <path
         sodipodi:nodetypes="cccc"
         d="m 11.334202,28.383692 c 1.130916,-0.928988 6.78619,-2.517923 5.478375,-5.090873 -2.094805,-0.708046 -5.183562,0.178002 -6.472823,-2.748865 -1.5367776,3.990083 -0.5451399,6.147706 0.66787,7.940986"
         id="path4690"
         style="opacity:0.65;fill:url(#5-5);fill-rule:evenodd;stroke-width:0.22273532"
         inkscape:connector-curvature="0" />
      <path
         sodipodi:nodetypes="ccccsscsssccssssscc"
         inkscape:connector-curvature="0"
         id="path3572"
         d="m 29.814257,29.935512 1.957458,1.692739 c 0,0 1.245474,1.247603 1.8906,2.147692 0.942298,1.346419 0.664442,0.68054 0.664442,0.68054 0.175912,0.425298 -0.146891,-0.167213 0.387322,0.715851 0.498812,0.824535 0.502344,1.022299 0.711155,1.580442 0.647523,1.73079 1.324086,3.98981 1.327217,4.51346 0.473208,1.877238 -0.644884,4.616968 -0.645717,4.619673 -0.552402,1.791306 -1.510925,3.49643 -1.860217,3.855868 -0.349292,0.359432 -0.819001,1.314898 -1.28516,1.861817 -0.708536,0.831323 -2.200032,2.299877 -2.200032,2.299877 l -3.08741,2.598147 c 0,0 -3.640131,-5.699241 -3.080311,-6.203412 0.559824,-0.504166 4.490143,-1.924467 5.646719,-3.481341 0.961982,-1.29492 2.040167,-2.599461 2.493733,-4.148219 0.472169,-1.612273 0.396377,-3.377385 0.144232,-5.038484 -0.227769,-1.500553 -1.364773,-3.970063 -1.474977,-4.307105 -0.184733,-0.564986 -2.013689,-3.387545 -2.013689,-3.387545 z"
         style="fill:url(#linearGradient3580);fill-opacity:1;stroke:none;stroke-width:0.61157978px;stroke-linecap:butt;stroke-linejoin:miter;stroke-opacity:1" />
      <path
         sodipodi:nodetypes="csscsszssccccscccczcczzcsssssscssscc"
         inkscape:connector-curvature="0"
         id="path1036"
         d="m 25.966878,8.2266047 c 0,0 -1.763729,3.1216103 -2.24584,4.8035123 -0.389153,1.357623 -0.581806,2.782162 -0.497363,4.182072 0.08144,1.350109 0.652249,3.560021 0.962018,3.963018 0.379039,0.402996 1.308483,1.999959 2.1684,2.854261 1.561202,1.55101 3.53427,2.722452 5.343545,4.037739 0.915429,0.665483 1.789443,1.18669 2.787937,1.949249 0.998499,0.762558 2.255508,1.645745 3.175154,2.645413 1.086401,1.180928 2.085212,2.472884 2.710501,3.898505 0.913125,2.08186 1.429057,6.589457 1.429057,6.589457 l -0.267414,0.548329 -0.31227,1.022001 -2.708002,1.93455 c 0,0 -1.591887,-6.848673 -2.323278,-8.77163 -0.731397,-1.922962 -1.457563,-2.893868 -1.457563,-2.893868 l -1.159161,-1.892389 -1.250416,-1.449188 -1.583385,-1.356602 c 0,0 -1.640322,-1.33068 -2.363018,-1.863297 -0.722696,-0.532612 -2.486343,-1.954354 -2.486343,-1.954354 L 24.49547,25.073711 c 0,0 -1.07603,-1.366605 -1.435533,-1.936799 -0.359502,-0.570195 -0.532042,-0.932655 -0.755975,-1.459785 -0.223932,-0.527132 -0.524666,-1.706417 -0.524666,-1.706417 0,0 -0.12202,-0.684135 -0.1629,-1.405927 -0.01994,-0.351763 -0.03224,-0.551732 0.0075,-1.161243 0.02034,-0.311807 0.09343,-0.670653 0.143763,-1.024464 0.05314,-0.373618 0.15582,-0.810792 0.24816,-1.137762 0.05414,-0.191691 0.07969,-0.278587 0.122132,-0.440027 0.09632,-0.366375 0.326699,-0.878909 0.496893,-1.299904 0.18821,-0.465555 0.612539,-1.390511 0.612539,-1.390511 0,0 0.967242,-1.922453 1.635288,-2.7704097 0.108271,-0.1374241 0.234621,-0.3460144 0.393499,-0.5339578 0.114265,-0.1351705 0.190126,-0.2168003 0.294727,-0.3183434 0.17605,-0.1709026 0.395977,-0.2615564 0.395977,-0.2615564 z"
         style="opacity:0.35;fill:url(#linearGradient1044-9);fill-opacity:1;stroke:none;stroke-width:0.79443508px;stroke-linecap:butt;stroke-linejoin:miter;stroke-opacity:1" />
      <path
         sodipodi:nodetypes="cccccccc"
         inkscape:connector-curvature="0"
         id="path3459"
         d="m 33.407243,11.448763 -0.914047,2.734148 1.892684,1.271389 1.353645,1.173163 -0.969212,-1.510495 -0.41335,-0.867957 -0.465683,-1.323532 z"
         style="fill:url(#linearGradient1058);fill-opacity:1;stroke:none;stroke-width:0.80948049px;stroke-linecap:butt;stroke-linejoin:miter;stroke-opacity:1" />
      <path
         sodipodi:nodetypes="ccssc"
         inkscape:connector-curvature="0"
         id="path3544"
         d="m 40.639758,43.718636 -3.559018,4.602141 c 0,0 0.936415,-0.487202 1.505877,-0.895488 0.510986,-0.366364 0.990524,-0.774274 1.301763,-1.365771 0.419195,-0.796677 0.700031,-2.070612 0.700031,-2.070612"
         style="opacity:0.8;fill:#de3518;fill-opacity:1;stroke:none;stroke-width:0.80948049px;stroke-linecap:butt;stroke-linejoin:miter;stroke-opacity:1" />
      <path
         sodipodi:nodetypes="ccccccsscsc"
         d="m 7.9510309,31.075967 c -6.4145392,0.802555 -5.564511,4.500085 -5.1097451,8.839159 l 1.642982,-1.723671 c 1.1525267,4.220353 7.9563042,3.545402 11.7287712,2.068752 1.718145,-0.672724 3.143625,-0.350972 3.808285,-0.008 1.907742,0.715335 1.430808,-1.192405 1.430808,-1.192405 -1.430808,-2.384678 -5.246293,-2.182335 -6.625709,-1.51267 -0.851821,0.413526 -2.388391,0.538852 -3.79912,0.07183 C 9.2386565,37.026774 7.620997,35.2443 6.9112883,33.576666 6.822065,33.407233 6.8741132,33.015031 6.9009176,32.843587 6.9751687,32.366466 7.1441954,31.905743 7.9511658,31.07606"
         id="path4692"
         style="opacity:0.45;fill:url(#linearGradient1652);fill-rule:evenodd;stroke-width:0.25358549"
         inkscape:connector-curvature="0" />
      <path
         inkscape:connector-curvature="0"
         id="path860-9"
         d="m 4.5308082,38.105424 -1.0113194,1.060752 4.2781503,3.685048 c 0,0 0.7538431,0.12837 1.4656607,0.250932 -0.3798746,-0.377331 -0.6162317,-0.674518 -0.5341782,-0.755638 0.050987,-0.05044 0.5408265,0.03019 1.0883128,0.179641 0.5474756,0.149434 1.9789416,0.225065 3.1812906,0.168235 2.007119,-0.09488 2.386076,-0.202623 4.620328,-1.313579 1.59285,-0.79203 2.620392,-1.161228 2.975982,-1.069299 0.251944,0.06513 0.462028,0.07969 0.63873,0.05513 -0.212267,0.01926 -0.488675,-0.02336 -0.849736,-0.158737 -0.678199,-0.349841 -2.132473,-0.677875 -3.885603,0.0086 -3.84932,1.50674 -10.7916135,2.195292 -11.9676178,-2.11103 z m 16.8512338,2.231758 c -0.0384,0.01054 -0.07758,0.02036 -0.121662,0.02566 0.0419,-0.007 0.08424,-0.01338 0.121662,-0.02566 z"
         style="opacity:0.75800003;fill:url(#radialGradient1652-7);fill-opacity:1;stroke-width:0.41150698" />
      <path
         sodipodi:nodetypes="cccc"
         d="m -4.0284748,21.340185 c 1.0367521,-2.623312 2.4021512,-3.159715 5.031145,-3.956092 -1.67483219,-1.287402 -2.4350647,-3.269931 -2.7848457,-4.751565 -1.5946465,2.479047 -2.630099,5.503217 -2.2463772,8.706948"
         id="path4688"
         style="fill:url(#radialGradient959);fill-opacity:1;fill-rule:evenodd;stroke-width:0.23949572"
         inkscape:connector-curvature="0" />
    </g>
  </g>
</svg>
