<?xml version="1.0" encoding="UTF-8" standalone="no"?>
<!-- Created with Inkscape (http://www.inkscape.org/) -->

<svg
   xmlns:dc="http://purl.org/dc/elements/1.1/"
   xmlns:cc="http://creativecommons.org/ns#"
   xmlns:rdf="http://www.w3.org/1999/02/22-rdf-syntax-ns#"
   xmlns:svg="http://www.w3.org/2000/svg"
   xmlns="http://www.w3.org/2000/svg"
   xmlns:sodipodi="http://sodipodi.sourceforge.net/DTD/sodipodi-0.dtd"
   xmlns:inkscape="http://www.inkscape.org/namespaces/inkscape"
   width="48"
   height="48"
   id="svg3347"
   sodipodi:version="0.32"
   inkscape:version="0.91 r13725"
   sodipodi:docname="muondiscover.svg"
   inkscape:output_extension="org.inkscape.output.svg.inkscape"
   version="1.1">
  <defs
     id="defs3349">
    <linearGradient
       id="linearGradient3935">
      <stop
         id="stop3937"
         offset="0"
         style="stop-color:#f34f17;stop-opacity:1" />
      <stop
         id="stop3939"
         offset="1"
         style="stop-color:#f37e40;stop-opacity:1" />
    </linearGradient>
    <linearGradient
       id="linearGradient4569">
      <stop
         id="stop4571"
         offset="0"
         style="stop-color:#ffffff;stop-opacity:1;" />
      <stop
         id="stop4573"
         offset="1"
         style="stop-color:#ffffff;stop-opacity:0.75539571;" />
    </linearGradient>
    <linearGradient
       id="linearGradient3816">
      <stop
         id="stop3818"
         offset="0"
         style="stop-color:#e5f5d9;stop-opacity:1;" />
      <stop
         id="stop3820"
         offset="1"
         style="stop-color:#ffffff;stop-opacity:1;" />
    </linearGradient>
    <linearGradient
       id="linearGradient3816-3">
      <stop
         style="stop-color:#e5f5d9;stop-opacity:1;"
         offset="0"
         id="stop3818-8" />
      <stop
         style="stop-color:#ffffff;stop-opacity:1;"
         offset="1"
         id="stop3820-2" />
    </linearGradient>
    <linearGradient
       id="linearGradient4508">
      <stop
         style="stop-color:#e5f5d9;stop-opacity:1;"
         offset="0"
         id="stop4510" />
      <stop
         style="stop-color:#ffffff;stop-opacity:1;"
         offset="1"
         id="stop4512" />
    </linearGradient>
    <linearGradient
       id="linearGradient6691">
      <stop
         id="stop6693"
         offset="0"
         style="stop-color:#68a0ed;stop-opacity:1;" />
      <stop
         id="stop6695"
         offset="1"
         style="stop-color:#2572cd;stop-opacity:0;" />
    </linearGradient>
    <linearGradient
       id="linearGradient6679">
      <stop
         id="stop6681"
         offset="0"
         style="stop-color:#000000;stop-opacity:1;" />
      <stop
         style="stop-color:#002251;stop-opacity:1;"
         offset="0.5"
         id="stop6703" />
      <stop
         id="stop6683"
         offset="1"
         style="stop-color:#0060e7;stop-opacity:1;" />
    </linearGradient>
    <linearGradient
       id="linearGradient6560">
      <stop
         style="stop-color:#171818;stop-opacity:1;"
         offset="0"
         id="stop6562" />
      <stop
         id="stop6566"
         offset="0.5"
         style="stop-color:#1d1d1d;stop-opacity:1;" />
      <stop
         style="stop-color:#181818;stop-opacity:1;"
         offset="1"
         id="stop6568" />
    </linearGradient>
    <linearGradient
       id="linearGradient4007-5">
      <stop
         style="stop-color:#313232;stop-opacity:1;"
         offset="0"
         id="stop4009-2" />
      <stop
         style="stop-color:#29292b;stop-opacity:1;"
         offset="1"
         id="stop4011-7" />
    </linearGradient>
    <linearGradient
       id="linearGradient5260">
      <stop
         style="stop-color:#313232;stop-opacity:1;"
         offset="0"
         id="stop5262" />
      <stop
         style="stop-color:#29292b;stop-opacity:1;"
         offset="1"
         id="stop5264" />
    </linearGradient>
    <linearGradient
       id="linearGradient5269">
      <stop
         style="stop-color:#313232;stop-opacity:1;"
         offset="0"
         id="stop5271" />
      <stop
         style="stop-color:#29292b;stop-opacity:1;"
         offset="1"
         id="stop5273" />
    </linearGradient>
    <linearGradient
       id="linearGradient4601">
      <stop
         id="stop4603"
         offset="0"
         style="stop-color:#171818;stop-opacity:1;" />
      <stop
         style="stop-color:#232424;stop-opacity:1;"
         offset="0.25"
         id="stop6558" />
      <stop
         style="stop-color:#303030;stop-opacity:1;"
         offset="0.5"
         id="stop4607" />
      <stop
         id="stop4605"
         offset="1"
         style="stop-color:#181818;stop-opacity:1;" />
    </linearGradient>
    <linearGradient
       id="linearGradient6228">
      <stop
         id="stop6230"
         offset="0"
         style="stop-color:#8a8a8a;stop-opacity:1;" />
      <stop
         style="stop-color:#e5e5e5;stop-opacity:1;"
         offset="0.5"
         id="stop6236" />
      <stop
         id="stop6232"
         offset="1"
         style="stop-color:#696969;stop-opacity:1;" />
    </linearGradient>
    <linearGradient
       id="linearGradient4015">
      <stop
         id="stop4017"
         offset="0"
         style="stop-color:#2e2e2e;stop-opacity:1;" />
      <stop
         id="stop4019"
         offset="1"
         style="stop-color:#111111;stop-opacity:1;" />
    </linearGradient>
    <linearGradient
       id="linearGradient5291">
      <stop
         id="stop5293"
         offset="0"
         style="stop-color:#8a8a8a;stop-opacity:1;" />
      <stop
         style="stop-color:#e5e5e5;stop-opacity:1;"
         offset="0.5"
         id="stop5295" />
      <stop
         id="stop5297"
         offset="1"
         style="stop-color:#696969;stop-opacity:1;" />
    </linearGradient>
    <linearGradient
       id="linearGradient5300">
      <stop
         id="stop5302"
         offset="0"
         style="stop-color:#8a8a8a;stop-opacity:1;" />
      <stop
         style="stop-color:#e5e5e5;stop-opacity:1;"
         offset="0.5"
         id="stop5304" />
      <stop
         id="stop5306"
         offset="1"
         style="stop-color:#696969;stop-opacity:1;" />
    </linearGradient>
    <linearGradient
       id="linearGradient5309">
      <stop
         id="stop5311"
         offset="0"
         style="stop-color:#8a8a8a;stop-opacity:1;" />
      <stop
         style="stop-color:#e5e5e5;stop-opacity:1;"
         offset="0.5"
         id="stop5313" />
      <stop
         id="stop5315"
         offset="1"
         style="stop-color:#696969;stop-opacity:1;" />
    </linearGradient>
    <linearGradient
       id="linearGradient5318">
      <stop
         id="stop5320"
         offset="0"
         style="stop-color:#8a8a8a;stop-opacity:1;" />
      <stop
         style="stop-color:#e5e5e5;stop-opacity:1;"
         offset="0.5"
         id="stop5322" />
      <stop
         id="stop5324"
         offset="1"
         style="stop-color:#696969;stop-opacity:1;" />
    </linearGradient>
    <radialGradient
       gradientTransform="matrix(0.33775008,0,0,0.33775008,-163.68902,-18.811003)"
       id="cb"
       r="99"
       cy="78.099998"
       cx="127.5"
       fx="127.5"
       fy="78.099998"
       gradientUnits="userSpaceOnUse">
      <stop
         offset="0"
         stop-color="#F6F0EE"
         id="stop24" />
      <stop
         offset="1"
         stop-color="#ddd"
         id="stop26" />
    </radialGradient>
  </defs>
  <sodipodi:namedview
     id="base"
     pagecolor="#ffffff"
     bordercolor="#666666"
     borderopacity="1.0"
     inkscape:pageopacity="0.0"
     inkscape:pageshadow="2"
     inkscape:zoom="5.2375"
     inkscape:cx="-30.569973"
     inkscape:cy="23.104496"
     inkscape:current-layer="g3443"
     showgrid="true"
     inkscape:document-units="px"
     inkscape:grid-bbox="true"
     inkscape:window-width="1366"
     inkscape:window-height="703"
     inkscape:window-x="0"
     inkscape:window-y="0"
     inkscape:window-maximized="1"
     showguides="true"
     inkscape:guide-bbox="true"
     inkscape:showpageshadow="false">
    <inkscape:grid
       type="xygrid"
       id="grid3778"
       empspacing="5"
       visible="true"
       enabled="false"
       snapvisiblegridlinesonly="true" />
  </sodipodi:namedview>
  <metadata
     id="metadata3352">
    <rdf:RDF>
      <cc:Work
         rdf:about="">
        <dc:format>image/svg+xml</dc:format>
        <dc:type
           rdf:resource="http://purl.org/dc/dcmitype/StillImage" />
        <dc:title />
      </cc:Work>
    </rdf:RDF>
  </metadata>
  <g
     id="layer1"
     inkscape:label="Layer 1"
     inkscape:groupmode="layer"
     transform="translate(0,-16)">
    <g
       id="g3443"
       inkscape:label="Layer 1"
       transform="translate(5.7957838,8.9269487)">
      <g
         id="g5541"
         transform="matrix(2.9464106,0,0,2.9464106,-23.963863,-75.735585)" />
      <g
         id="g4207"
         transform="matrix(1.125,0,0,1.125,-2.2755268,-3.8841316)">
        <rect
           transform="matrix(0,1,-1,0,0,0)"
           style="fill:#f7f7f7;fill-opacity:1;stroke:none"
           id="rect2383"
           width="40"
           height="40"
           x="11.073051"
           y="-38.204216"
           ry="9.375" />
        <g
           transform="matrix(1.1925809,0,0,1.1925809,59.160911,-0.14263535)"
           id="g4217">
          <path
             style="fill:#00002b;fill-opacity:0.46875;stroke-width:0.94361043"
             inkscape:connector-curvature="0"
             d="m -38.779318,17.379045 c -0.629394,0 -1.136092,0.5067 -1.136092,1.1361 0,0.6294 0.506698,1.1361 1.136092,1.1361 0.629397,0 1.136093,-0.5067 1.136093,-1.1361 0,-0.6294 -0.506696,-1.1361 -1.136093,-1.1361 m 7.952643,0 -2.272185,2.2722 3.408276,3.4083 -3.408276,3.4082 2.272185,2.2722 5.680458,-5.6804 z m -10.792872,6.8166 c -0.944093,0 -1.704142,0.7599 -1.704142,1.704 0,0.9442 0.760049,1.7042 1.704142,1.7042 0.94409,0 1.704137,-0.76 1.704137,-1.7042 0,-0.9441 -0.760047,-1.704 -1.704137,-1.704 m 5.112412,6.8164 c -1.258789,0 -2.272183,1.0135 -2.272183,2.2722 0,1.2588 1.013394,2.2722 2.272183,2.2722 1.25879,0 2.272185,-1.0134 2.272185,-2.2722 0,-1.2587 -1.013395,-2.2722 -2.272185,-2.2722"
             id="path4164" />
          <path
             style="fill:#1fd4f8;fill-opacity:1;stroke-width:0.94361043"
             inkscape:connector-curvature="0"
             d="m -38.034631,18.074245 c -0.629394,0 -1.136093,0.5066 -1.136093,1.1361 0,0.6294 0.506699,1.136 1.136093,1.136 0.629396,0 1.136092,-0.5066 1.136092,-1.136 0,-0.6295 -0.506696,-1.1361 -1.136092,-1.1361 m 7.952643,0 -2.272185,2.2721 3.408277,3.4083 -3.408277,3.4082 2.272185,2.2723 5.680458,-5.6805 z m -10.792872,6.8165 c -0.944093,0 -1.704142,0.76 -1.704142,1.7041 0,0.9442 0.760049,1.7041 1.704142,1.7041 0.944091,0 1.704136,-0.7599 1.704136,-1.7041 0,-0.9441 -0.760045,-1.7041 -1.704136,-1.7041 m 5.112411,6.8165 c -1.258789,0 -2.272182,1.0135 -2.272182,2.2722 0,1.2588 1.013393,2.2721 2.272182,2.2721 1.25879,0 2.272187,-1.0133 2.272187,-2.2721 0,-1.2587 -1.013397,-2.2722 -2.272187,-2.2722"
             id="path4166" />
          <path
             id="path4215"
             d="m -38.580734,17.627445 c -0.629395,0 -1.136092,0.5066 -1.136092,1.136 0,0.6295 0.506697,1.1361 1.136092,1.1361 0.629396,0 1.136093,-0.5066 1.136093,-1.1361 0,-0.6294 -0.506697,-1.136 -1.136093,-1.136 m 7.952643,0 -2.272186,2.2721 3.408277,3.4083 -3.408277,3.4082 2.272186,2.2722 5.680457,-5.6804 z m -10.792873,6.8164 c -0.944092,0 -1.704141,0.7601 -1.704141,1.7042 0,0.9441 0.760049,1.7041 1.704141,1.7041 0.944092,0 1.704138,-0.76 1.704138,-1.7041 0,-0.9441 -0.760046,-1.7042 -1.704138,-1.7042 m 5.112413,6.8166 c -1.258789,0 -2.272183,1.0133 -2.272183,2.2722 0,1.2588 1.013394,2.2721 2.272183,2.2721 1.25879,0 2.272185,-1.0133 2.272185,-2.2721 0,-1.2589 -1.013395,-2.2722 -2.272185,-2.2722"
             inkscape:connector-curvature="0"
             style="fill:#1faff8;fill-opacity:1;stroke-width:0.94361043" />
        </g>
      </g>
    </g>
  </g>
</svg>
