<?xml version="1.0" encoding="UTF-8" standalone="no"?>
<!-- Created with Inkscape (http://www.inkscape.org/) -->

<svg
   xmlns:dc="http://purl.org/dc/elements/1.1/"
   xmlns:cc="http://creativecommons.org/ns#"
   xmlns:rdf="http://www.w3.org/1999/02/22-rdf-syntax-ns#"
   xmlns:svg="http://www.w3.org/2000/svg"
   xmlns="http://www.w3.org/2000/svg"
   xmlns:xlink="http://www.w3.org/1999/xlink"
   xmlns:sodipodi="http://sodipodi.sourceforge.net/DTD/sodipodi-0.dtd"
   xmlns:inkscape="http://www.inkscape.org/namespaces/inkscape"
   id="svg4511"
   height="48px"
   width="48px"
   version="1.1"
   inkscape:version="0.91 r13725"
   sodipodi:docname="cdrom_unmount.svg">
  <sodipodi:namedview
     pagecolor="#ffffff"
     bordercolor="#666666"
     borderopacity="1"
     objecttolerance="10"
     gridtolerance="10"
     guidetolerance="10"
     inkscape:pageopacity="0"
     inkscape:pageshadow="2"
     inkscape:window-width="1366"
     inkscape:window-height="703"
     id="namedview213"
     showgrid="false"
     inkscape:zoom="4.9166667"
     inkscape:cx="24"
     inkscape:cy="32.135593"
     inkscape:window-x="0"
     inkscape:window-y="0"
     inkscape:window-maximized="1"
     inkscape:current-layer="svg4511" />
  <defs
     id="defs4513">
    <filter
       id="filter3174"
       color-interpolation-filters="sRGB">
      <feGaussianBlur
         id="feGaussianBlur3176"
         stdDeviation="1.71" />
    </filter>
    <linearGradient
       id="linearGradient3254"
       y2="7.0165"
       gradientUnits="userSpaceOnUse"
       x2="45.448"
       gradientTransform="matrix(1.0059,0,0,0.99417,-175.86,-30.712)"
       y1="92.54"
       x1="45.448">
      <stop
         id="stop3750"
         offset="0" />
      <stop
         id="stop3752"
         style="stop-opacity:.58824"
         offset="1" />
    </linearGradient>
    <filter
       id="filter3174-7"
       color-interpolation-filters="sRGB">
      <feGaussianBlur
         id="feGaussianBlur3176-58"
         stdDeviation="1.71" />
    </filter>
    <linearGradient
       id="linearGradient8374"
       y2="7.0165"
       gradientUnits="userSpaceOnUse"
       x2="45.448"
       gradientTransform="matrix(1.0059,0,0,0.99417,108.29,-24.643)"
       y1="92.54"
       x1="45.448">
      <stop
         id="stop3750-50"
         offset="0" />
      <stop
         id="stop3752-42"
         style="stop-opacity:.58824"
         offset="1" />
    </linearGradient>
    <filter
       id="filter3174-41"
       color-interpolation-filters="sRGB">
      <feGaussianBlur
         id="feGaussianBlur3176-9"
         stdDeviation="1.71" />
    </filter>
    <linearGradient
       id="ButtonShadow-6"
       x1="45.448"
       gradientUnits="userSpaceOnUse"
       y1="92.54"
       gradientTransform="scale(1.0059 .99417)"
       x2="45.448"
       y2="7.0165">
      <stop
         id="stop3750-9"
         offset="0" />
      <stop
         id="stop3752-33"
         style="stop-opacity:.58824"
         offset="1" />
    </linearGradient>
    <filter
       id="filter3174-57"
       color-interpolation-filters="sRGB">
      <feGaussianBlur
         id="feGaussianBlur3176-42"
         stdDeviation="1.71" />
    </filter>
    <filter
       id="filter3174-76"
       color-interpolation-filters="sRGB">
      <feGaussianBlur
         id="feGaussianBlur3176-51"
         stdDeviation="1.71" />
    </filter>
    <filter
       id="filter3174-3"
       color-interpolation-filters="sRGB">
      <feGaussianBlur
         id="feGaussianBlur3176-47"
         stdDeviation="1.71" />
    </filter>
    <filter
       id="filter3174-65"
       color-interpolation-filters="sRGB">
      <feGaussianBlur
         id="feGaussianBlur3176-0"
         stdDeviation="1.71" />
    </filter>
    <linearGradient
       id="linearGradient10848"
       y2="-23.714"
       gradientUnits="userSpaceOnUse"
       x2="46.689"
       y1="-23.714"
       x1="2">
      <stop
         id="stop4329"
         style="stop-color:#f0f0f0"
         offset="0" />
      <stop
         id="stop4331"
         style="stop-color:#b4b4b4"
         offset="1" />
    </linearGradient>
    <linearGradient
       id="linearGradient10968"
       y2="7.0165"
       gradientUnits="userSpaceOnUse"
       x2="45.448"
       gradientTransform="matrix(1.0059,0,0,0.99417,88.061,-64.071)"
       y1="92.54"
       x1="45.448">
      <stop
         id="stop3750-53"
         offset="0" />
      <stop
         id="stop3752-85"
         style="stop-opacity:.58824"
         offset="1" />
    </linearGradient>
    <linearGradient
       id="linearGradient4327-0">
      <stop
         id="stop4329-1"
         style="stop-color:#f0f0f0"
         offset="0" />
      <stop
         id="stop4331-2"
         style="stop-color:#b4b4b4"
         offset="1" />
    </linearGradient>
    <linearGradient
       id="linearGradient11027"
       y2="-23.714"
       xlink:href="#linearGradient4327-0"
       gradientUnits="userSpaceOnUse"
       y1="-23.714"
       gradientTransform="translate(0.084022,0.11383)"
       x2="46.689"
       x1="2" />
    <linearGradient
       id="linearGradient11061"
       y2="-23.714"
       gradientUnits="userSpaceOnUse"
       y1="-23.714"
       gradientTransform="translate(.037143 -2.7143)"
       x2="46.689"
       x1="2">
      <stop
         id="stop4629"
         style="stop-color:#5e89d8"
         offset="0" />
      <stop
         id="stop4633"
         style="stop-color:#5e89d8"
         offset="1" />
    </linearGradient>
    <linearGradient
       id="linearGradient11086"
       y2="-24.286"
       gradientUnits="userSpaceOnUse"
       x2="46.327"
       gradientTransform="translate(.39955)"
       y1="-24.286"
       x1="1.5305">
      <stop
         id="stop3226"
         style="stop-color:#4d6490"
         offset="0" />
      <stop
         id="stop3228"
         style="stop-color:#4d6490"
         offset="1" />
    </linearGradient>
    <linearGradient
       id="linearGradient11109"
       y2="-23.714"
       xlink:href="#linearGradient4327-0"
       gradientUnits="userSpaceOnUse"
       y1="-23.714"
       gradientTransform="matrix(0.99897235,0,0,1.0938143,0.38155677,0.7754453)"
       x2="46.689"
       x1="2" />
    <linearGradient
       id="linearGradient11134"
       y2="-21.458"
       xlink:href="#linearGradient4327-0"
       gradientUnits="userSpaceOnUse"
       x2="46.773"
       y1="-21.458"
       x1="1.9769" />
    <linearGradient
       id="linearGradient11142"
       y2="-23.714"
       xlink:href="#linearGradient4327-0"
       gradientUnits="userSpaceOnUse"
       x2="46.689"
       y1="-23.714"
       x1="2" />
    <linearGradient
       id="linearGradient11150"
       y2="-19.535"
       gradientUnits="userSpaceOnUse"
       x2="47.046"
       y1="-19.535"
       x1="2.7547"
       gradientTransform="matrix(0.99897235,0,0,1.0938143,0.02517338,0.09432714)">
      <stop
         id="stop3599"
         style="stop-color:#dcdcdc"
         offset="0" />
      <stop
         id="stop3601"
         style="stop-color:#f5f5f5"
         offset="1" />
    </linearGradient>
    <filter
       id="filter3174-34"
       color-interpolation-filters="sRGB">
      <feGaussianBlur
         id="feGaussianBlur3176-01"
         stdDeviation="1.71" />
    </filter>
    <linearGradient
       id="linearGradient4603"
       y2="7.0165"
       gradientUnits="userSpaceOnUse"
       x2="45.448"
       gradientTransform="matrix(1.0059,0,0,0.99417,-25.979,57.897)"
       y1="92.54"
       x1="45.448">
      <stop
         id="stop3750-96"
         offset="0" />
      <stop
         id="stop3752-39"
         style="stop-opacity:.58824"
         offset="1" />
    </linearGradient>
    <filter
       id="filter3174-2"
       color-interpolation-filters="sRGB">
      <feGaussianBlur
         id="feGaussianBlur3176-44"
         stdDeviation="1.71" />
    </filter>
    <filter
       id="filter4180-8"
       height="3.8298"
       width="1.2289"
       color-interpolation-filters="sRGB"
       y="-1.4149"
       x="-.11445">
      <feGaussianBlur
         id="feGaussianBlur4182-1"
         stdDeviation="3.5372897" />
    </filter>
    <radialGradient
       id="radialGradient4138-7"
       cx="48"
       gradientUnits="userSpaceOnUse"
       cy="84"
       r="30"
       gradientTransform="matrix(1.0667 0 0 .066667 -3.2 77.4)">
      <stop
         id="stop3315-1"
         style="stop-color:#4dbeff"
         offset="0" />
      <stop
         id="stop4186-5"
         style="stop-color:#1379ff;stop-opacity:.65041"
         offset=".67213" />
      <stop
         id="stop3317-6"
         style="stop-color:#06f;stop-opacity:0"
         offset="1" />
    </radialGradient>
    <filter
       id="filter3174-1"
       color-interpolation-filters="sRGB">
      <feGaussianBlur
         id="feGaussianBlur3176-512"
         stdDeviation="1.71" />
    </filter>
    <filter
       id="filter4180-5"
       height="3.8298"
       width="1.2289"
       color-interpolation-filters="sRGB"
       y="-1.4149"
       x="-.11445">
      <feGaussianBlur
         id="feGaussianBlur4182-16"
         stdDeviation="3.5372897" />
    </filter>
    <filter
       id="filter3174-10"
       color-interpolation-filters="sRGB">
      <feGaussianBlur
         id="feGaussianBlur3176-017"
         stdDeviation="1.71" />
    </filter>
    <filter
       id="filter3174-93"
       color-interpolation-filters="sRGB">
      <feGaussianBlur
         id="feGaussianBlur3176-3"
         stdDeviation="1.71" />
    </filter>
    <filter
       id="filter4180-7"
       height="3.8298"
       width="1.2289"
       color-interpolation-filters="sRGB"
       y="-1.4149"
       x="-.11445">
      <feGaussianBlur
         id="feGaussianBlur4182-6"
         stdDeviation="3.5372897" />
    </filter>
    <filter
       id="filter3174-19"
       color-interpolation-filters="sRGB">
      <feGaussianBlur
         id="feGaussianBlur3176-19"
         stdDeviation="1.71" />
    </filter>
    <filter
       id="filter3407"
       height="1.2629"
       width="1.2208"
       color-interpolation-filters="sRGB"
       y="-.13143"
       x="-.1104">
      <feGaussianBlur
         id="feGaussianBlur3409"
         stdDeviation="2.3" />
    </filter>
    <clipPath
       id="clipPath3403">
      <path
         id="path3405"
         d="m-72.688 6.9062v67.5h82.344v-67.5h-82.344zm40.688 13.094c13.248 0 24 8.96 24 20s-10.752 20-24 20-24-8.96-24-20 10.752-20 24-20zm5.7188 2.25-2.8438 8.9062c1.8843 0.42334 3.5657 1.2266 4.9062 2.3438l7.844-6.5c-2.867-2.3892-5.9898-3.8755-9.9062-4.75zm-5.719 10.25c-4.968 0-9 3.36-9 7.5s4.032 7.5 9 7.5 9-3.36 9-7.5-4.032-7.5-9-7.5zm0 2.5c3.312 0 6 2.24 6 5-0.000001 2.76-2.688 5-6 5-3.312-0.000001-6-2.24-6-5s2.688-5 6-5zm0 1.6562c-2.208 0-4 1.5038-4 3.3438s1.792 3.3437 4 3.3438c2.208 0 4-1.5038 4-3.3438s-1.792-3.3438-4-3.3438zm-7.781 9.844-7.781 6.5c2.867 2.3892 5.9898 3.8755 9.9062 4.75l2.8438-8.9062c-1.901-0.418-3.586-1.222-4.938-2.344h-0.03125z"
         style="fill:#fff" />
    </clipPath>
    <linearGradient
       id="linearGradient3908"
       x1="5"
       gradientUnits="userSpaceOnUse"
       y1="64"
       gradientTransform="matrix(-0.5273,0.5273,-0.5273,-0.5273,123.49,79)"
       x2="123"
       y2="64">
      <stop
         id="stop3249"
         style="stop-color:#fff;stop-opacity:0"
         offset="0" />
      <stop
         id="stop3255"
         style="stop-color:#ffdc4f;stop-opacity:0"
         offset="0.3" />
      <stop
         id="stop3295"
         style="stop-color:#f685af;stop-opacity:.43922"
         offset=".5" />
      <stop
         id="stop3257"
         style="stop-color:#ffdc4f;stop-opacity:0"
         offset="0.7" />
      <stop
         id="stop3253"
         style="stop-color:#fff;stop-opacity:0"
         offset="1" />
    </linearGradient>
    <filter
       id="filter3174-31"
       color-interpolation-filters="sRGB">
      <feGaussianBlur
         id="feGaussianBlur3176-76"
         stdDeviation="1.71" />
    </filter>
    <linearGradient
       id="linearGradient13399"
       x1="69.649"
       xlink:href="#ButtonShadow-6"
       gradientUnits="userSpaceOnUse"
       y1="89.131"
       gradientTransform="matrix(1.8663,0,0,2.2236,160.55,-78.137)"
       x2="69.016"
       y2="34.714" />
    <filter
       id="filter3222"
       color-interpolation-filters="sRGB">
      <feGaussianBlur
         id="feGaussianBlur3224"
         stdDeviation="1.27575" />
    </filter>
    <radialGradient
       id="radialGradient2924"
       cx="59.894"
       gradientUnits="userSpaceOnUse"
       cy="61.922"
       r="33.714"
       gradientTransform="matrix(1,0,0,0.83754,0,10.06)">
      <stop
         id="stop3344"
         style="stop-opacity:0"
         offset="0" />
      <stop
         id="stop3350"
         style="stop-opacity:0"
         offset="0.85" />
      <stop
         id="stop2810"
         style="stop-opacity:.65625"
         offset="1" />
    </radialGradient>
    <linearGradient
       id="linearGradient2926"
       x1="26.18"
       gradientUnits="userSpaceOnUse"
       y1="61.922"
       x2="93.608"
       y2="61.922">
      <stop
         id="stop3332"
         style="stop-color:#fff;stop-opacity:.20312"
         offset="0" />
      <stop
         id="stop3334"
         style="stop-color:#fff;stop-opacity:.67969"
         offset="1" />
    </linearGradient>
    <linearGradient
       id="linearGradient2928"
       x1="25.22"
       gradientUnits="userSpaceOnUse"
       y1="61.922"
       x2="94.568"
       y2="61.922">
      <stop
         id="stop3364"
         style="stop-color:#4d4d4d"
         offset="0" />
      <stop
         id="stop3366"
         style="stop-color:#fff"
         offset="1" />
    </linearGradient>
    <linearGradient
       id="linearGradient13393"
       x1="73.016"
       gradientUnits="userSpaceOnUse"
       y1="89.131"
       gradientTransform="matrix(1.3461,0,0,1.617,-24.621,-21.393)"
       x2="73.016"
       y2="34.607">
      <stop
         id="stop2788"
         style="stop-color:#d5aed1"
         offset="0" />
      <stop
         id="stop2790"
         style="stop-color:#f9ecd2"
         offset="1" />
    </linearGradient>
    <linearGradient
       id="linearGradient13390"
       x1="5"
       gradientUnits="userSpaceOnUse"
       y1="64"
       gradientTransform="matrix(0.5273,0.5273,-0.5273,0.5273,56,11.506)"
       x2="123"
       y2="64">
      <stop
         id="stop3235"
         style="stop-color:#fff;stop-opacity:0"
         offset="0" />
      <stop
         id="stop3297"
         style="stop-color:#fff;stop-opacity:0"
         offset="0.3" />
      <stop
         id="stop3241"
         style="stop-color:#fff"
         offset=".5" />
      <stop
         id="stop3299"
         style="stop-color:#fff;stop-opacity:0"
         offset="0.7" />
      <stop
         id="stop3237"
         style="stop-color:#fff;stop-opacity:0"
         offset="1" />
    </linearGradient>
    <linearGradient
       id="linearGradient13387"
       x1="5"
       xlink:href="#linearGradient3265"
       gradientUnits="userSpaceOnUse"
       y1="64"
       gradientTransform="matrix(-0.38603,0.63801,-0.63801,-0.38603,121.54,62.873)"
       x2="123"
       y2="64" />
    <linearGradient
       id="linearGradient3265">
      <stop
         id="stop3267"
         style="stop-color:#fff;stop-opacity:0"
         offset="0" />
      <stop
         id="stop3269"
         style="stop-color:#add8e4;stop-opacity:0"
         offset="0.35" />
      <stop
         id="stop3271"
         style="stop-color:#a3d2e0;stop-opacity:.45098"
         offset=".5" />
      <stop
         id="stop3273"
         style="stop-color:#add8e4;stop-opacity:0"
         offset="0.65" />
      <stop
         id="stop3882"
         style="stop-color:#fff;stop-opacity:0"
         offset="1" />
    </linearGradient>
    <linearGradient
       id="linearGradient13384"
       x1="5"
       xlink:href="#linearGradient3265"
       gradientUnits="userSpaceOnUse"
       y1="64"
       gradientTransform="matrix(-0.65332,0.35952,-0.35952,-0.65332,120.82,97.803)"
       x2="123"
       y2="64" />
    <linearGradient
       id="linearGradient13921"
       x1="50.875"
       gradientUnits="userSpaceOnUse"
       y1="34.75"
       x2="50.875"
       y2="79.819">
      <stop
         id="stop13372"
         style="stop-color:#fff"
         offset="0" />
      <stop
         id="stop13374"
         style="stop-color:#fff;stop-opacity:0"
         offset="1" />
    </linearGradient>
    <linearGradient
       id="linearGradient12520"
       y2="7.0165"
       xlink:href="#ButtonShadow-6"
       gradientUnits="userSpaceOnUse"
       x2="45.448"
       gradientTransform="scale(1.0059,0.99417)"
       y1="92.54"
       x1="45.448" />
    <linearGradient
       id="linearGradient12562"
       y2="19.987"
       gradientUnits="userSpaceOnUse"
       x2="52.929"
       gradientTransform="translate(0 0.0000025)"
       y1="60"
       x1="52.929">
      <stop
         id="stop3769-84"
         style="stop-color:#4d4d4d;stop-opacity:.70732"
         offset="0" />
      <stop
         id="stop3771-13"
         style="stop-color:#4d4d4d;stop-opacity:.25203"
         offset="1" />
    </linearGradient>
    <linearGradient
       id="linearGradient12683"
       y2="85.982"
       gradientUnits="userSpaceOnUse"
       x2="71.672"
       gradientTransform="matrix(.5 0 0 .5 -1.5714 2.1786)"
       y1="89"
       x1="71.672">
      <stop
         id="stop3450-67-4"
         offset="0" />
      <stop
         id="stop3452-12-8"
         style="stop-opacity:0"
         offset="1" />
    </linearGradient>
    <linearGradient
       id="linearGradient12693"
       y2="84.029"
       gradientUnits="userSpaceOnUse"
       x2="46.178"
       gradientTransform="matrix(.5 0 0 .5 1.0715 2.1786)"
       y1="80"
       x1="46.178">
      <stop
         id="stop4227-3-1"
         offset="0" />
      <stop
         id="stop4229-6-4"
         style="stop-color:#484848"
         offset="1" />
    </linearGradient>
    <clipPath
       id="clipPath2862">
      <path
         id="path2864"
         d="m0 0v96h96v-96h-96zm12 6h72c3.324 0 6 2.676 6 6v72c0 3.324-2.676 6-6 6h-72c-3.324 0-6-2.676-6-6v-72c0-3.324 2.676-6 6-6z"
         style="fill:#f0f" />
    </clipPath>
    <clipPath
       id="clipPath3613-39">
      <rect
         id="rect3615-63"
         style="fill:#fff"
         rx="6"
         ry="6"
         height="84"
         width="84"
         y="6"
         x="6" />
    </clipPath>
    <linearGradient
       id="linearGradient3613-48"
       x1="48"
       gradientUnits="userSpaceOnUse"
       y1="20.221"
       x2="48"
       y2="138.66">
      <stop
         id="stop3739-06"
         style="stop-color:#fff"
         offset="0" />
      <stop
         id="stop3741-44"
         style="stop-color:#fff;stop-opacity:0"
         offset="1" />
    </linearGradient>
    <filter
       id="filter3794-7"
       height="1.384"
       width="1.384"
       color-interpolation-filters="sRGB"
       y="-.192"
       x="-.192">
      <feGaussianBlur
         id="feGaussianBlur3796-18"
         stdDeviation="5.28" />
    </filter>
    <filter
       id="filter3174-30"
       color-interpolation-filters="sRGB">
      <feGaussianBlur
         id="feGaussianBlur3176-33"
         stdDeviation="1.71" />
    </filter>
    <linearGradient
       id="linearGradient12713"
       y2="30.571"
       gradientUnits="userSpaceOnUse"
       x2="34.733"
       gradientTransform="translate(-.42857 1.7143)"
       y1="30.571"
       x1="12.267">
      <stop
         id="stop4129"
         style="stop-color:#a4a4a4"
         offset="0" />
      <stop
         id="stop4131"
         style="stop-color:#bfbfbf"
         offset="1" />
    </linearGradient>
    <linearGradient
       inkscape:collect="always"
       xlink:href="#ButtonShadow-6"
       id="linearGradient4373"
       gradientUnits="userSpaceOnUse"
       gradientTransform="scale(1.0059,0.99417)"
       x1="45.448"
       y1="92.54"
       x2="45.448"
       y2="7.0165" />
    <linearGradient
       inkscape:collect="always"
       xlink:href="#ButtonShadow-6"
       id="linearGradient4375"
       gradientUnits="userSpaceOnUse"
       gradientTransform="scale(1.0059,0.99417)"
       x1="45.448"
       y1="92.54"
       x2="45.448"
       y2="7.0165" />
    <linearGradient
       inkscape:collect="always"
       xlink:href="#ButtonShadow-6"
       id="linearGradient4377"
       gradientUnits="userSpaceOnUse"
       gradientTransform="scale(1.0059,0.99417)"
       x1="45.448"
       y1="92.54"
       x2="45.448"
       y2="7.0165" />
    <linearGradient
       inkscape:collect="always"
       xlink:href="#ButtonShadow-6"
       id="linearGradient4379"
       gradientUnits="userSpaceOnUse"
       gradientTransform="scale(1.0059,0.99417)"
       x1="45.448"
       y1="92.54"
       x2="45.448"
       y2="7.0165" />
    <linearGradient
       inkscape:collect="always"
       xlink:href="#ButtonShadow-6"
       id="linearGradient4381"
       gradientUnits="userSpaceOnUse"
       gradientTransform="scale(1.0059,0.99417)"
       x1="45.448"
       y1="92.54"
       x2="45.448"
       y2="7.0165" />
    <linearGradient
       inkscape:collect="always"
       xlink:href="#ButtonShadow-6"
       id="linearGradient4383"
       gradientUnits="userSpaceOnUse"
       gradientTransform="scale(1.0059,0.99417)"
       x1="45.448"
       y1="92.54"
       x2="45.448"
       y2="7.0165" />
    <radialGradient
       inkscape:collect="always"
       xlink:href="#radialGradient4138-7"
       id="radialGradient4385"
       gradientUnits="userSpaceOnUse"
       gradientTransform="matrix(1.0667,0,0,0.066667,-3.2,77.4)"
       cx="48"
       cy="84"
       r="30" />
    <linearGradient
       inkscape:collect="always"
       xlink:href="#ButtonShadow-6"
       id="linearGradient4387"
       gradientUnits="userSpaceOnUse"
       gradientTransform="scale(1.0059,0.99417)"
       x1="45.448"
       y1="92.54"
       x2="45.448"
       y2="7.0165" />
    <radialGradient
       inkscape:collect="always"
       xlink:href="#radialGradient4138-7"
       id="radialGradient4389"
       gradientUnits="userSpaceOnUse"
       gradientTransform="matrix(1.0667,0,0,0.066667,-3.2,77.4)"
       cx="48"
       cy="84"
       r="30" />
    <linearGradient
       inkscape:collect="always"
       xlink:href="#ButtonShadow-6"
       id="linearGradient4391"
       gradientUnits="userSpaceOnUse"
       gradientTransform="scale(1.0059,0.99417)"
       x1="45.448"
       y1="92.54"
       x2="45.448"
       y2="7.0165" />
    <linearGradient
       inkscape:collect="always"
       xlink:href="#ButtonShadow-6"
       id="linearGradient4393"
       gradientUnits="userSpaceOnUse"
       gradientTransform="scale(1.0059,0.99417)"
       x1="45.448"
       y1="92.54"
       x2="45.448"
       y2="7.0165" />
    <radialGradient
       inkscape:collect="always"
       xlink:href="#radialGradient4138-7"
       id="radialGradient4395"
       gradientUnits="userSpaceOnUse"
       gradientTransform="matrix(1.0667,0,0,0.066667,-3.2,77.4)"
       cx="48"
       cy="84"
       r="30" />
    <linearGradient
       inkscape:collect="always"
       xlink:href="#ButtonShadow-6"
       id="linearGradient4397"
       gradientUnits="userSpaceOnUse"
       gradientTransform="scale(1.0059,0.99417)"
       x1="45.448"
       y1="92.54"
       x2="45.448"
       y2="7.0165" />
  </defs>
  <metadata
     id="metadata4516">
    <rdf:RDF>
      <cc:Work
         rdf:about="">
        <dc:format>image/svg+xml</dc:format>
        <dc:type
           rdf:resource="http://purl.org/dc/dcmitype/StillImage" />
        <dc:title></dc:title>
      </cc:Work>
    </rdf:RDF>
  </metadata>
  <g
     id="layer1"
     transform="matrix(0.99665038,0,0,1.1012323,-0.41404661,0.65057242)">
    <rect
       id="rect3745"
       style="display:none;opacity:0.9;fill:url(#linearGradient3254);filter:url(#filter3174)"
       rx="6"
       ry="6"
       height="85"
       width="86"
       y="-23.712"
       x="-170.86" />
    <rect
       id="rect3745-1"
       style="display:none;opacity:0.9;fill:url(#linearGradient8374);filter:url(#filter3174-7)"
       rx="6"
       ry="6"
       height="85"
       width="86"
       y="-17.643"
       x="113.29" />
    <g
       id="layer2"
       style="display:none"
       transform="translate(-111.44,-124.36)">
      <rect
         id="rect3745-9"
         style="opacity:0.9;fill:url(#linearGradient4373);filter:url(#filter3174-41)"
         rx="6"
         ry="6"
         height="85"
         width="86"
         y="7"
         x="5" />
    </g>
    <g
       id="layer2-7"
       style="display:none"
       transform="translate(-218.05,-238.16)">
      <rect
         id="rect3745-2"
         style="opacity:0.9;fill:url(#linearGradient4375);filter:url(#filter3174-57)"
         rx="6"
         ry="6"
         height="85"
         width="86"
         y="7"
         x="5" />
    </g>
    <g
       id="layer2-1"
       style="display:none"
       transform="translate(-106.2,-48.076)">
      <path
         id="rect3745-24"
         style="opacity:0.9;fill:url(#linearGradient4377);filter:url(#filter3174-76)"
         d="M 11,7 C 7.676,7 5,9.676 5,13 l 0,73 c 0,3.324 2.676,6 6,6 l 74,0 c 3.324,0 6,-2.676 6,-6 L 91,13 C 91,9.676 88.324,7 85,7 l -5,0 0,2.5 c 1.4703,0.7406 2.5,2.2424 2.5,4 0,2.484 -2.016,4.5 -4.5,4.5 -2.484,0 -4.5,-2.016 -4.5,-4.5 0,-1.7576 1.0297,-3.2594 2.5,-4 L 76,7 68,7 68,9.5 c 1.4703,0.7406 2.5,2.2424 2.5,4 0,2.484 -2.016,4.5 -4.5,4.5 -2.484,0 -4.5,-2.016 -4.5,-4.5 0,-1.7576 1.0297,-3.2594 2.5,-4 L 64,7 56,7 56,9.5 c 1.4703,0.7406 2.5,2.2424 2.5,4 0,2.484 -2.016,4.5 -4.5,4.5 -2.484,0 -4.5,-2.016 -4.5,-4.5 0,-1.7576 1.0297,-3.2594 2.5,-4 L 52,7 44,7 44,9.5 c 1.4703,0.7406 2.5,2.2424 2.5,4 0,2.484 -2.016,4.5 -4.5,4.5 -2.484,0 -4.5,-2.016 -4.5,-4.5 0,-1.7576 1.0297,-3.2594 2.5,-4 L 40,7 32,7 32,9.5 c 1.4703,0.7406 2.5,2.2424 2.5,4 0,2.484 -2.016,4.5 -4.5,4.5 -2.484,0 -4.5,-2.016 -4.5,-4.5 0,-1.7576 1.0297,-3.2594 2.5,-4 L 28,7 20,7 20,9.5 c 1.4703,0.7406 2.5,2.2424 2.5,4 0,2.484 -2.016,4.5 -4.5,4.5 -2.484,0 -4.5,-2.016 -4.5,-4.5 0,-1.7576 1.0297,-3.2594 2.5,-4 L 16,7 11,7 Z"
         inkscape:connector-curvature="0" />
    </g>
    <g
       id="layer2-0"
       style="display:none"
       transform="translate(28.835,-121.51)">
      <rect
         id="rect3745-5"
         style="opacity:0.9;fill:url(#linearGradient4379);filter:url(#filter3174-3)"
         rx="6"
         ry="6"
         height="85"
         width="86"
         y="7"
         x="5" />
    </g>
    <rect
       id="rect3745-19"
       style="display:none;opacity:0.9;fill:url(#linearGradient10968);filter:url(#filter3174-65)"
       rx="6"
       ry="6"
       height="85"
       width="86"
       y="-57.070999"
       x="93.060997" />
    <rect
       id="rect810-4"
       style="fill:url(#linearGradient11027);stroke:url(#linearGradient11134)"
       transform="scale(1,-1)"
       ry="10.607"
       height="39.403"
       width="43.796001"
       y="-41.159"
       x="2.4769001" />
    <rect
       id="rect810-4-8"
       style="fill:url(#linearGradient11109);stroke:url(#linearGradient11150);stroke-width:1.04531825"
       transform="scale(1,-1)"
       ry="11.602089"
       height="39.785309"
       width="44.05368"
       y="-41.054966"
       x="2.469259" />
    <rect
       id="rect3745-51"
       style="display:none;opacity:0.9;fill:url(#linearGradient4603);filter:url(#filter3174-34)"
       rx="6"
       ry="6"
       height="85"
       width="86"
       y="64.897003"
       x="-20.979" />
    <g
       id="layer2-3"
       style="display:none"
       transform="translate(-13.859,48.458)">
      <rect
         id="rect3745-7"
         style="opacity:0.9;fill:url(#linearGradient4381);filter:url(#filter3174-2)"
         rx="6"
         ry="6"
         height="85"
         width="86"
         y="7"
         x="5" />
    </g>
    <g
       id="layer2-75"
       style="display:none"
       transform="translate(-10.286,84.214)">
      <rect
         id="rect3745-20"
         style="opacity:0.9;fill:url(#linearGradient4383);filter:url(#filter3174-1)"
         rx="6"
         ry="6"
         height="85"
         width="86"
         y="7"
         x="5" />
    </g>
    <g
       id="layer5-3"
       style="display:none"
       transform="translate(-10.286,84.214)">
      <rect
         id="rect3323"
         style="display:inline;opacity:0.6;fill:#0066ff;filter:url(#filter4180-8)"
         rx="6.7435002"
         ry="6"
         height="6"
         width="74.179001"
         y="80"
         x="10.911" />
      <rect
         id="rect3311"
         style="display:inline;fill:url(#radialGradient4385)"
         rx="5.8182001"
         ry="4"
         height="4"
         width="64"
         y="81"
         x="16" />
    </g>
    <g
       id="layer2-37"
       style="display:none"
       transform="translate(22.857,122.64)">
      <rect
         id="rect3745-6"
         style="opacity:0.9;fill:url(#linearGradient4387);filter:url(#filter3174-10)"
         rx="6"
         ry="6"
         height="85"
         width="86"
         y="7"
         x="5" />
    </g>
    <g
       id="layer5-2"
       style="display:none"
       transform="translate(22.857,122.64)">
      <rect
         id="rect3323-7"
         style="display:inline;opacity:0.6;fill:#0066ff;filter:url(#filter4180-5)"
         rx="6.7435002"
         ry="6"
         height="6"
         width="74.179001"
         y="80"
         x="10.911" />
      <rect
         id="rect3311-0"
         style="display:inline;fill:url(#radialGradient4389)"
         rx="5.8182001"
         ry="4"
         height="4"
         width="64"
         y="81"
         x="16" />
    </g>
    <g
       id="layer2-17"
       style="display:none"
       transform="translate(15.342,112.14)">
      <rect
         id="rect3745-4"
         style="opacity:0.9;fill:url(#linearGradient4391);filter:url(#filter3174-93)"
         rx="6"
         ry="6"
         height="85"
         width="86"
         y="7"
         x="5" />
    </g>
    <g
       id="layer2-19"
       style="display:none"
       transform="translate(119.69,80.928)">
      <rect
         id="rect3745-72"
         style="opacity:0.9;fill:url(#linearGradient4393);filter:url(#filter3174-19)"
         rx="6"
         ry="6"
         height="85"
         width="86"
         y="7"
         x="5" />
    </g>
    <g
       id="layer5-4"
       style="display:none"
       transform="translate(119.69,80.928)">
      <rect
         id="rect3323-5"
         style="display:inline;opacity:0.6;fill:#0066ff;filter:url(#filter4180-7)"
         rx="6.7435002"
         ry="6"
         height="6"
         width="74.179001"
         y="80"
         x="10.911" />
      <rect
         id="rect3311-1"
         style="display:inline;fill:url(#radialGradient4395)"
         rx="5.8182001"
         ry="4"
         height="4"
         width="64"
         y="81"
         x="16" />
    </g>
    <g
       id="layer2-4"
       style="display:none"
       transform="translate(194.03,83.353)">
      <rect
         id="rect3745-3"
         style="opacity:0.9;fill:url(#linearGradient12520);filter:url(#filter3174-31)"
         rx="6"
         ry="6"
         height="85"
         width="86"
         y="7"
         x="5" />
    </g>
    <g
       id="layer4-5"
       transform="matrix(0.5,0,0,0.5,-0.56446,-2.1071)" />
    <g
       id="layer5-02"
       style="display:none"
       transform="translate(194.03,83.353)">
      <g
         id="g3836"
         style="display:inline"
         transform="matrix(0.70718,0,0,0.70718,23.398,-22.712)">
        <path
           id="path3185"
           style="display:inline;opacity:0.6;fill:url(#linearGradient13399);fill-rule:evenodd;filter:url(#filter3222)"
           transform="matrix(0.7418,0,0,0.7562,-146.02,35.217)"
           d="m 272.33,-0.94868 c -33.672,0 -61,27.104 -61,60.5 0,33.396 27.328,60.5 61,60.5 33.672,0 61,-27.104 61,-60.5 0,-33.396 -27.328,-60.5 -61,-60.5 z m 0,40 c 11.316,-10e-7 20.5,9.184 20.5,20.5 0,11.316 -9.184,20.5 -20.5,20.5 -11.316,0 -20.5,-9.184 -20.5,-20.5 0,-11.316 9.184,-20.5 20.5,-20.5 z"
           inkscape:connector-curvature="0" />
        <path
           id="path3307"
           style="display:inline;opacity:0.3;fill:#ffffff;fill-rule:evenodd"
           d="m 56,58.416 c -11.216,0 -20.321,9.105 -20.321,20.321 0,11.216 9.105,20.321 20.321,20.321 11.216,0 20.321,-9.105 20.321,-20.321 C 76.321,67.521 67.216,58.416 56,58.416 Z m 0,14.355 c 3.293,0 5.9657,2.6726 5.9657,5.9657 0,3.293 -2.6726,5.9657 -5.9657,5.9657 -3.293,0 -5.9657,-2.6726 -5.9657,-5.9657 0,-3.293 2.6726,-5.9657 5.9657,-5.9657 z"
           inkscape:connector-curvature="0" />
        <path
           id="path3328"
           style="display:inline;opacity:0.5;fill:url(#radialGradient2924);fill-rule:evenodd;stroke:url(#linearGradient2926);stroke-width:3.42729998;stroke-linecap:round"
           transform="matrix(0,0.37644,-0.45222,0,84.002,56.19)"
           d="m 92.58,61.922 a 32.686,27.208 0 1 1 -65.371,0 32.686,27.208 0 1 1 65.371,0 z"
           inkscape:connector-curvature="0" />
        <path
           id="path3352"
           style="display:inline;opacity:0.6;fill:none;stroke:url(#linearGradient2928);stroke-width:7.53999996;stroke-linecap:round"
           transform="matrix(0,0.17111,-0.20555,0,68.728,68.488)"
           d="m 92.58,61.922 a 32.686,27.208 0 1 1 -65.371,0 32.686,27.208 0 1 1 65.371,0 z"
           inkscape:connector-curvature="0" />
        <path
           id="path3170"
           style="display:inline;fill:url(#linearGradient13393);fill-rule:evenodd"
           d="m 56,34.74 c -24.286,0 -43.997,19.711 -43.997,43.997 0,24.286 19.711,43.997 43.997,43.997 24.286,0 43.997,-19.711 43.997,-43.997 C 99.997,54.451 80.286,34.74 56,34.74 Z m 0,28.337 c 8.6442,-10e-7 15.66,7.0156 15.66,15.66 0,8.6442 -7.0156,15.66 -15.66,15.66 -8.6442,-2e-6 -15.66,-7.0156 -15.66,-15.66 0,-8.6442 7.0156,-15.66 15.66,-15.66 z"
           inkscape:connector-curvature="0" />
        <path
           id="path3230"
           style="display:inline;opacity:0.6;fill:url(#linearGradient13390);fill-rule:evenodd"
           d="m 87.11,47.89 c -17.173,-17.173 -45.048,-17.173 -62.221,0 -17.173,17.173 -17.173,45.048 -1e-6,62.221 17.172999,17.173 45.048,17.173 62.221,0 17.173001,-17.173 17.173001,-45.048 0,-62.221 z M 67.073,67.927 c 6.1124,6.1124 6.1124,16.034 -7e-6,22.146 -6.1124,6.1124 -16.034,6.1124 -22.146,0 -6.1124,-6.1124 -6.1124,-16.034 0,-22.146 6.1124,-6.1124 16.034,-6.1124 22.146,10e-7 z"
           inkscape:connector-curvature="0" />
        <path
           id="path3259"
           style="display:inline;opacity:0.6;fill:url(#linearGradient13387);fill-rule:evenodd"
           d="M 93.643,101.78 C 106.21,80.997 99.555,53.93 78.776,41.357 57.997,28.785 30.93,35.445 18.357,56.224 5.785,77.003 12.445,104.07 33.224,116.64 54.003,129.22 81.07,122.55 93.643,101.78 Z M 69.398,87.107 c -4.4749,7.3958 -14.109,9.7664 -21.505,5.2916 -7.3958,-4.4749 -9.7664,-14.109 -5.2916,-21.505 4.4749,-7.3958 14.109,-9.7664 21.505,-5.2916 7.3958,4.4749 9.7664,14.109 5.2915,21.505 z"
           inkscape:connector-curvature="0" />
        <path
           id="path3231"
           style="display:inline;opacity:0.6;fill:url(#linearGradient13384);fill-rule:evenodd"
           d="M 77.212,117.55 C 98.489,105.84 106.25,79.066 94.546,57.788 82.837,36.511 56.066,28.745 34.788,40.454 13.511,52.163 5.745,78.934 17.454,100.21 c 11.709,21.277 38.48,29.043 59.757,17.334 z M 63.55,92.72 c -7.573,4.167 -17.102,1.403 -21.27,-6.17 -4.167,-7.573 -1.403,-17.102 6.17,-21.27 7.5733,-4.1675 17.102,-1.4034 21.27,6.1698 4.1675,7.5733 1.4034,17.102 -6.1699,21.27 z"
           inkscape:connector-curvature="0" />
        <path
           id="path3243"
           style="display:inline;fill:url(#linearGradient3908);fill-rule:evenodd"
           d="m 87.11,110.11 c 17.173,-17.173 17.173,-45.048 0,-62.221 -17.173,-17.173 -45.048,-17.173 -62.221,0 -17.173,17.173 -17.173,45.048 -1e-6,62.221 17.172999,17.173 45.048,17.173 62.221,1e-5 z M 67.073,90.073 c -6.1124,6.1124 -16.034,6.1124 -22.146,-3e-6 -6.1124,-6.1124 -6.1124,-16.034 2e-6,-22.146 6.1124,-6.1124 16.034,-6.1124 22.146,0 6.1124,6.1124 6.1124,16.034 0,22.146 z"
           inkscape:connector-curvature="0" />
        <path
           id="path3304"
           style="display:inline;opacity:0.15;fill:none;stroke:#000000;stroke-width:9.0479002;stroke-linecap:round"
           transform="matrix(0.57037,0,0,0.68518,21.839,36.309)"
           d="m 92.58,61.922 a 32.686,27.208 0 1 1 -65.371,0 32.686,27.208 0 1 1 65.371,0 z"
           inkscape:connector-curvature="0" />
        <path
           id="path13401"
           style="display:inline;opacity:0.8;fill:url(#linearGradient13921);fill-rule:evenodd"
           d="m 56,34.75 c -24.286,-10e-7 -44,19.714 -44,44 0,21.988 16.168,40.214 37.25,43.469 C 28.723,118.969 13,101.149 13,79.718 c 0,-23.736 19.264,-43 43,-43 23.736,0 43,19.264 43,43 0,21.435 -15.723,39.253 -36.25,42.5 21.082,-3.26 37.25,-21.48 37.25,-43.47 -3e-6,-24.286 -19.714,-44 -44,-44 z M 41.688,85.062 c 2.1695,5.8155 7.7437,9.9687 14.312,9.9688 6.5688,0 12.143,-4.1532 14.312,-9.9688 -2.4327,5.4945 -7.9201,9.3438 -14.312,9.3438 -6.3924,0 -11.88,-3.8492 -14.312,-9.3438 z"
           inkscape:connector-curvature="0" />
      </g>
    </g>
    <g
       id="g12689"
       transform="matrix(0.87053,0,0,1,3.1741,-0.39957)" />
    <g
       id="layer2-2"
       style="display:none"
       transform="translate(-43.873,119.73)">
      <rect
         id="rect3745-0"
         style="opacity:0.9;fill:url(#linearGradient4397);filter:url(#filter3174-30)"
         clip-path="url(#clipPath2862)"
         rx="6"
         ry="6"
         height="85"
         width="86"
         y="7"
         x="5" />
    </g>
    <g
       id="layer5-1"
       style="display:none"
       transform="translate(-43.873,119.73)">
      <rect
         id="rect3171-3"
         style="opacity:0.1;fill:url(#linearGradient3613-48);stroke:#ffffff;stroke-width:0.5;stroke-linecap:round;filter:url(#filter3794-7)"
         clip-path="url(#clipPath3613-39)"
         rx="12"
         ry="12"
         height="66"
         width="66"
         y="15"
         x="15" />
    </g>
  </g>
  <g
     id="g5359"
     transform="matrix(0.9448819,0,0,1.0123737,-6.5433703,-242.90539)">
    <g
       style="opacity:0.9"
       id="g4660"
       transform="matrix(0.59531254,0,0,0.59531254,-5.7749286,261.55842)">
      <g
         id="g4560"
         transform="matrix(1.1,0,0,1.1,-5.5864645,-1.1704478)">
        <g
           id="g4573">
          <path
             sodipodi:nodetypes="ccccccccccc"
             inkscape:connector-curvature="0"
             id="path4562"
             d="m 62.592271,-20.297665 -13.157865,13.1578704 7.894719,0 0,23.6841596 -7.894719,0 13.157865,13.15786 13.157864,-13.15786 -7.894718,0 0,-23.6841596 7.894718,0 z"
             style="opacity:0.5;fill:#ffffff;fill-opacity:1;stroke:none;stroke-width:1.31578648" />
          <path
             style="fill:#000000;fill-opacity:0.2;stroke:none;stroke-width:1.31578648"
             d="m 63.928618,-9.9816899 c -15.760206,0 -18.42101,2.65092 -18.42101,5.92104 0,2.88789 2.075123,5.29038 13.425134,5.81315 l 1.048517,7.34472 7.894718,0 1.048517,-7.34472 c 11.350011,-0.52277 13.425134,-2.92526 13.425134,-5.81315 0,-3.27012 -2.660804,-5.92104 -18.42101,-5.92104 z"
             id="path3762-1"
             inkscape:connector-curvature="0" />
          <path
             style="fill:#424242;fill-opacity:1;stroke:none;stroke-width:1.31578648"
             d="m 62.592271,-21.20693 -13.157865,13.1578701 7.894719,0 0,23.6841599 -7.894719,0 13.157865,13.15786 13.157864,-13.15786 -7.894718,0 0,-23.6841599 7.894718,0 z"
             id="path2985"
             inkscape:connector-curvature="0"
             sodipodi:nodetypes="ccccccccccc" />
          <path
             style="fill:#b3b3b3;fill-opacity:1;stroke:none;stroke-width:1.31578648"
             d="m 57.329125,-1.4701299 1.315786,9.21051 7.89472,0 1.315786,-9.21051 z"
             id="path3762"
             inkscape:connector-curvature="0" />
          <path
             style="opacity:0.3;fill:#000000;fill-opacity:1;stroke:none;stroke-width:1.31578648"
             d="m 62.592327,-21.20704 -13.158021,13.1580201 1.264056,0 11.893965,-11.8939701 11.893721,11.8939701 1.264054,0 z m -13.158021,36.84202 1.264056,1.26405 6.630856,0 0,-1.26405 z m 18.421132,0 0,1.26405 6.63061,0 1.264054,-1.26405 z"
             id="path2985-8"
             inkscape:connector-curvature="0" />
          <path
             style="fill:#d41a1a;fill-opacity:1;stroke:none;stroke-width:1.31578648"
             d="m 81.013282,-5.4174899 c 0,3.27013 -2.640038,5.92104003 -18.421011,5.92104003 -15.780974,0 -18.421011,-2.65091003 -18.421011,-5.92104003 0,-3.27012 2.660804,-5.9210401 18.421011,-5.9210401 15.760206,0 18.421011,2.6509201 18.421011,5.9210401 z"
             id="path3757"
             inkscape:connector-curvature="0"
             sodipodi:nodetypes="szszs" />
          <path
             style="opacity:0.2;fill:#000000;fill-opacity:1;stroke:none;stroke-width:1.31578648"
             d="m 58.459174,6.4402501 0.185737,1.30013 7.89472,0 0.188732,-1.32118 z"
             id="path3852"
             inkscape:connector-curvature="0" />
          <path
             style="opacity:0.3;fill:#ffffff;fill-opacity:1;stroke:none;stroke-width:1.31578648"
             d="m 62.592327,-11.33852 c -15.760205,0 -18.421131,2.6509301 -18.421131,5.9210601 0,0.21392 0.01224,0.42496 0.03777,0.63301 0.365882,-2.97332 3.650863,-5.2900201 18.383357,-5.2900201 14.7325,0 18.017477,2.3167001 18.383358,5.2900201 0.02553,-0.20805 0.03753,-0.41909 0.03753,-0.63301 0,-3.27013 -2.660679,-5.9210601 -18.420884,-5.9210601 z"
             id="path3757-2"
             inkscape:connector-curvature="0" />
          <path
             style="opacity:0.3;fill:#000000;fill-opacity:1;stroke:none;stroke-width:1.31578648"
             d="m 44.185764,-5.7964299 c -0.0087,0.12544 -0.01457,0.25152 -0.01457,0.37897 0,3.27012 2.640157,5.92106003 18.421131,5.92106003 15.780975,0 18.420885,-2.65094003 18.420885,-5.92106003 0,-0.12703 -0.0057,-0.2527 -0.01432,-0.37774 -0.2141,3.09251 -3.24345,5.54036003 -18.406565,5.54036003 -15.165123,0 -18.193184,-2.44850003 -18.406563,-5.54159003 z"
             id="path3757-3"
             inkscape:connector-curvature="0" />
        </g>
      </g>
    </g>
  </g>
</svg>
