<?xml version="1.0" encoding="UTF-8" standalone="no"?>
<svg
   xmlns:dc="http://purl.org/dc/elements/1.1/"
   xmlns:cc="http://creativecommons.org/ns#"
   xmlns:rdf="http://www.w3.org/1999/02/22-rdf-syntax-ns#"
   xmlns:svg="http://www.w3.org/2000/svg"
   xmlns="http://www.w3.org/2000/svg"
   xmlns:sodipodi="http://sodipodi.sourceforge.net/DTD/sodipodi-0.dtd"
   xmlns:inkscape="http://www.inkscape.org/namespaces/inkscape"
   viewBox="0 0 16 16"
   id="svg2"
   version="1.1"
   inkscape:version="0.91 r13725"
   sodipodi:docname="preferences-desktop-icons.svg">
  <metadata
     id="metadata10">
    <rdf:RDF>
      <cc:Work
         rdf:about="">
        <dc:format>image/svg+xml</dc:format>
        <dc:type
           rdf:resource="http://purl.org/dc/dcmitype/StillImage" />
        <dc:title />
      </cc:Work>
    </rdf:RDF>
  </metadata>
  <sodipodi:namedview
     pagecolor="#ffffff"
     bordercolor="#666666"
     borderopacity="1"
     objecttolerance="10"
     gridtolerance="10"
     guidetolerance="10"
     inkscape:pageopacity="0"
     inkscape:pageshadow="2"
     inkscape:window-width="1366"
     inkscape:window-height="700"
     id="namedview8"
     showgrid="false"
     inkscape:zoom="20.85965"
     inkscape:cx="-6.8028447"
     inkscape:cy="7.8832417"
     inkscape:window-x="0"
     inkscape:window-y="0"
     inkscape:window-maximized="1"
     inkscape:current-layer="svg2" />
  <defs
     id="defs3051">
    <style
       type="text/css"
       id="current-color-scheme">
      .ColorScheme-Text {
        color:#f2f2f2;
      }
      </style>
  </defs>
  <path
     style="color:#f2f2f2;fill:currentColor;fill-opacity:1;stroke:none"
     d="M 2 2 L 2 14 L 14 14 L 14 2 L 2 2 z M 3 3 L 13 3 L 13 12 L 13 13 L 3 13 L 3 12 L 3 3 z M 3.5078125 3.5429688 L 3.5078125 5.5429688 L 5.5078125 5.5429688 L 5.5078125 3.5429688 L 3.5078125 3.5429688 z M 6.2890625 3.5429688 L 6.2890625 5.5429688 L 8.2890625 5.5429688 L 8.2890625 3.5429688 L 6.2890625 3.5429688 z M 3.5078125 6.4570312 L 3.5078125 8.4570312 L 5.5078125 8.4570312 L 5.5078125 6.4570312 L 3.5078125 6.4570312 z M 6.2890625 6.4570312 L 6.2890625 8.4570312 L 8.2890625 8.4570312 L 8.2890625 6.4570312 L 6.2890625 6.4570312 z M 3.5078125 9.3046875 L 3.5078125 11.304688 L 5.5078125 11.304688 L 5.5078125 9.3046875 L 3.5078125 9.3046875 z "
     id="path6" />
</svg>
