<?xml version="1.0" encoding="UTF-8" standalone="no"?>
<svg
   xmlns:dc="http://purl.org/dc/elements/1.1/"
   xmlns:cc="http://creativecommons.org/ns#"
   xmlns:rdf="http://www.w3.org/1999/02/22-rdf-syntax-ns#"
   xmlns:svg="http://www.w3.org/2000/svg"
   xmlns="http://www.w3.org/2000/svg"
   xmlns:sodipodi="http://sodipodi.sourceforge.net/DTD/sodipodi-0.dtd"
   xmlns:inkscape="http://www.inkscape.org/namespaces/inkscape"
   viewBox="0 0 22 22"
   id="svg2"
   version="1.1"
   inkscape:version="0.91 r13725"
   sodipodi:docname="folder-sound.svg">
  <metadata
     id="metadata9">
    <rdf:RDF>
      <cc:Work
         rdf:about="">
        <dc:format>image/svg+xml</dc:format>
        <dc:type
           rdf:resource="http://purl.org/dc/dcmitype/StillImage" />
        <dc:title></dc:title>
      </cc:Work>
    </rdf:RDF>
  </metadata>
  <sodipodi:namedview
     pagecolor="#ffffff"
     bordercolor="#666666"
     borderopacity="1"
     objecttolerance="10"
     gridtolerance="10"
     guidetolerance="10"
     inkscape:pageopacity="0"
     inkscape:pageshadow="2"
     inkscape:window-width="1366"
     inkscape:window-height="700"
     id="namedview7"
     showgrid="false"
     inkscape:zoom="10.727273"
     inkscape:cx="11"
     inkscape:cy="11"
     inkscape:window-x="0"
     inkscape:window-y="0"
     inkscape:window-maximized="1"
     inkscape:current-layer="svg2" />
  <defs
     id="defs3051">
    <style
       type="text/css"
       id="current-color-scheme">
      .ColorScheme-Text {
        color:#f2f2f2;
      }
      </style>
  </defs>
  <g
     id="layer4"
     transform="matrix(1.0692499,0,0,1.0692499,-524.89203,-189.5058)"
     style="fill:#f2f2f2;fill-opacity:1">
    <path
       inkscape:connector-curvature="0"
       d="m 505.51367,180.04102 c -0.11528,-0.008 -0.25052,0.002 -0.41015,0.0156 l -7.20899,1.125 c -0.81332,0.0828 -0.90176,0.46246 -0.89453,0.93554 l 0,9.51953 c -0.41338,-0.27155 -0.85577,-0.46484 -1.44531,-0.46484 -0.75911,0 -1.21229,0.29098 -1.48633,0.67383 -0.27403,0.38285 -0.36524,0.86524 -0.36524,1.23828 0,0.44983 0.15511,0.92907 0.48829,1.29492 0.33318,0.36585 0.84551,0.62304 1.58203,0.62305 0.83169,0 1.41537,-0.23199 1.74609,-0.68555 0.26039,-0.35711 0.40565,-0.83534 0.45703,-1.42383 0.007,-0.0714 0.0111,-0.14515 0.0156,-0.2207 0.004,-0.0599 0.003,-0.1018 0.004,-0.17188 l 0.004,0 0,-7.70312 c 0.0221,-0.61938 0.58398,-0.71094 0.58398,-0.71094 l 5.85352,-0.91406 c 0.56193,-0.17179 0.5625,0.52343 0.5625,0.52343 l 0,6.94141 c -0.41338,-0.27156 -0.85577,-0.46484 -1.44531,-0.46485 -0.75911,0 -1.21229,0.29098 -1.48633,0.67383 -0.27403,0.38285 -0.36524,0.86525 -0.36524,1.23828 0,0.44983 0.15511,0.92907 0.48829,1.29493 0.33318,0.36585 0.84551,0.62303 1.58203,0.62304 0.83169,0 1.41537,-0.23198 1.74609,-0.68554 0.26039,-0.35711 0.40565,-0.83535 0.45703,-1.42383 0.007,-0.0714 0.0111,-0.14515 0.0156,-0.22071 0.004,-0.0599 0.003,-0.1018 0.004,-0.17187 l 0.004,0 0,-10.56836 c 0.0119,-0.68564 -0.14049,-0.86619 -0.48633,-0.89062 z"
       id="path7618"
       style="color:#000000;font-style:normal;font-variant:normal;font-weight:normal;font-stretch:normal;font-size:medium;line-height:normal;font-family:sans-serif;text-indent:0;text-align:start;text-decoration:none;text-decoration-line:none;text-decoration-style:solid;text-decoration-color:#000000;letter-spacing:normal;word-spacing:normal;text-transform:none;direction:ltr;writing-mode:lr-tb;baseline-shift:baseline;text-anchor:start;white-space:normal;clip-rule:nonzero;display:inline;overflow:visible;visibility:visible;opacity:1;isolation:auto;mix-blend-mode:normal;color-interpolation:sRGB;color-interpolation-filters:linearRGB;solid-color:#000000;solid-opacity:1;fill:#f2f2f2;fill-opacity:1;fill-rule:evenodd;stroke:none;stroke-width:1px;stroke-linecap:butt;stroke-linejoin:round;stroke-miterlimit:4;stroke-dasharray:none;stroke-dashoffset:0;stroke-opacity:1;color-rendering:auto;image-rendering:auto;shape-rendering:auto;text-rendering:auto;enable-background:accumulate" />
  </g>
</svg>
