<?xml version="1.0" encoding="UTF-8" standalone="no"?>
<svg
   xmlns:dc="http://purl.org/dc/elements/1.1/"
   xmlns:cc="http://creativecommons.org/ns#"
   xmlns:rdf="http://www.w3.org/1999/02/22-rdf-syntax-ns#"
   xmlns:svg="http://www.w3.org/2000/svg"
   xmlns="http://www.w3.org/2000/svg"
   xmlns:sodipodi="http://sodipodi.sourceforge.net/DTD/sodipodi-0.dtd"
   xmlns:inkscape="http://www.inkscape.org/namespaces/inkscape"
   viewBox="0 0 22 22"
   id="svg2"
   version="1.1"
   inkscape:version="0.91 r13725"
   sodipodi:docname="folder-download.svg">
  <metadata
     id="metadata9">
    <rdf:RDF>
      <cc:Work
         rdf:about="">
        <dc:format>image/svg+xml</dc:format>
        <dc:type
           rdf:resource="http://purl.org/dc/dcmitype/StillImage" />
        <dc:title></dc:title>
      </cc:Work>
    </rdf:RDF>
  </metadata>
  <sodipodi:namedview
     pagecolor="#ffffff"
     bordercolor="#666666"
     borderopacity="1"
     objecttolerance="10"
     gridtolerance="10"
     guidetolerance="10"
     inkscape:pageopacity="0"
     inkscape:pageshadow="2"
     inkscape:window-width="1366"
     inkscape:window-height="700"
     id="namedview7"
     showgrid="false"
     inkscape:zoom="16"
     inkscape:cx="17.818527"
     inkscape:cy="9.9163888"
     inkscape:window-x="0"
     inkscape:window-y="0"
     inkscape:window-maximized="1"
     inkscape:current-layer="svg2" />
  <defs
     id="defs3051">
    <style
       type="text/css"
       id="current-color-scheme">
      .ColorScheme-Text {
        color:#f2f2f2;
      }
      </style>
  </defs>
  <path
     style="color:#f2f2f2;fill:currentColor;fill-opacity:1;stroke:none"
     d="M 8 3 L 8 9.8164062 L 5.0019531 9.8164062 L 5.0019531 10.814453 L 5.0019531 10.816406 L 5 10.816406 L 11 17 L 17 10.816406 L 16.996094 10.8125 C 16.991332 10.407896 16.988189 10.296257 16.982422 9.8164062 L 14 9.8164062 L 14 3 L 13 3 L 9 3 L 8 3 z M 9 4 L 13 4 L 13 9.8164062 L 12.996094 9.8164062 L 12.996094 10.816406 L 15.414062 10.816406 L 11 15.367188 L 6.5859375 10.816406 L 9.015625 10.816406 C 9.010845 10.407892 9.0097313 10.298139 9.0039062 9.8164062 L 9 9.8164062 L 9 4 z M 4 17 L 4 19 L 5 19 L 17 19 L 18 19 L 18 17 L 17 17 L 17 18 L 5 18 L 5 17 L 4 17 z "
     id="rect4161" />
</svg>
