<?xml version="1.0" encoding="UTF-8" standalone="no"?>
<!-- Created with Inkscape (http://www.inkscape.org/) -->

<svg
   xmlns:dc="http://purl.org/dc/elements/1.1/"
   xmlns:cc="http://creativecommons.org/ns#"
   xmlns:rdf="http://www.w3.org/1999/02/22-rdf-syntax-ns#"
   xmlns:svg="http://www.w3.org/2000/svg"
   xmlns="http://www.w3.org/2000/svg"
   xmlns:xlink="http://www.w3.org/1999/xlink"
   xmlns:sodipodi="http://sodipodi.sourceforge.net/DTD/sodipodi-0.dtd"
   xmlns:inkscape="http://www.inkscape.org/namespaces/inkscape"
   width="48"
   height="48"
   id="svg3347"
   sodipodi:version="0.32"
   inkscape:version="0.91 r13725"
   sodipodi:docname="acrored.svg"
   inkscape:output_extension="org.inkscape.output.svg.inkscape"
   version="1.1">
  <defs
     id="defs3349">
    <linearGradient
       inkscape:collect="always"
       xlink:href="#linearGradient3935"
       id="linearGradient3961"
       x1="-11.918717"
       y1="-1.0019798"
       x2="57.788513"
       y2="-51.32222"
       gradientUnits="userSpaceOnUse"
       gradientTransform="matrix(0.625,0,0,0.625,20.652394,2.173419)" />
    <linearGradient
       id="linearGradient3935">
      <stop
         id="stop3937"
         offset="0"
         style="stop-color:#ad0d0d;stop-opacity:1" />
      <stop
         id="stop3939"
         offset="1"
         style="stop-color:#e02f11;stop-opacity:1" />
    </linearGradient>
    <linearGradient
       id="linearGradient4569">
      <stop
         id="stop4571"
         offset="0"
         style="stop-color:#ffffff;stop-opacity:1;" />
      <stop
         id="stop4573"
         offset="1"
         style="stop-color:#ffffff;stop-opacity:0.75539571;" />
    </linearGradient>
    <linearGradient
       id="linearGradient3816">
      <stop
         id="stop3818"
         offset="0"
         style="stop-color:#e5f5d9;stop-opacity:1;" />
      <stop
         id="stop3820"
         offset="1"
         style="stop-color:#ffffff;stop-opacity:1;" />
    </linearGradient>
    <linearGradient
       id="linearGradient3816-3">
      <stop
         style="stop-color:#e5f5d9;stop-opacity:1;"
         offset="0"
         id="stop3818-8" />
      <stop
         style="stop-color:#ffffff;stop-opacity:1;"
         offset="1"
         id="stop3820-2" />
    </linearGradient>
    <linearGradient
       id="linearGradient4508">
      <stop
         style="stop-color:#e5f5d9;stop-opacity:1;"
         offset="0"
         id="stop4510" />
      <stop
         style="stop-color:#ffffff;stop-opacity:1;"
         offset="1"
         id="stop4512" />
    </linearGradient>
    <linearGradient
       id="linearGradient6691">
      <stop
         id="stop6693"
         offset="0"
         style="stop-color:#68a0ed;stop-opacity:1;" />
      <stop
         id="stop6695"
         offset="1"
         style="stop-color:#2572cd;stop-opacity:0;" />
    </linearGradient>
    <linearGradient
       id="linearGradient6679">
      <stop
         id="stop6681"
         offset="0"
         style="stop-color:#000000;stop-opacity:1;" />
      <stop
         style="stop-color:#002251;stop-opacity:1;"
         offset="0.5"
         id="stop6703" />
      <stop
         id="stop6683"
         offset="1"
         style="stop-color:#0060e7;stop-opacity:1;" />
    </linearGradient>
    <linearGradient
       id="linearGradient6560">
      <stop
         style="stop-color:#171818;stop-opacity:1;"
         offset="0"
         id="stop6562" />
      <stop
         id="stop6566"
         offset="0.5"
         style="stop-color:#1d1d1d;stop-opacity:1;" />
      <stop
         style="stop-color:#181818;stop-opacity:1;"
         offset="1"
         id="stop6568" />
    </linearGradient>
    <linearGradient
       id="linearGradient4007-5">
      <stop
         style="stop-color:#313232;stop-opacity:1;"
         offset="0"
         id="stop4009-2" />
      <stop
         style="stop-color:#29292b;stop-opacity:1;"
         offset="1"
         id="stop4011-7" />
    </linearGradient>
    <linearGradient
       id="linearGradient5260">
      <stop
         style="stop-color:#313232;stop-opacity:1;"
         offset="0"
         id="stop5262" />
      <stop
         style="stop-color:#29292b;stop-opacity:1;"
         offset="1"
         id="stop5264" />
    </linearGradient>
    <linearGradient
       id="linearGradient5269">
      <stop
         style="stop-color:#313232;stop-opacity:1;"
         offset="0"
         id="stop5271" />
      <stop
         style="stop-color:#29292b;stop-opacity:1;"
         offset="1"
         id="stop5273" />
    </linearGradient>
    <linearGradient
       id="linearGradient4601">
      <stop
         id="stop4603"
         offset="0"
         style="stop-color:#171818;stop-opacity:1;" />
      <stop
         style="stop-color:#232424;stop-opacity:1;"
         offset="0.25"
         id="stop6558" />
      <stop
         style="stop-color:#303030;stop-opacity:1;"
         offset="0.5"
         id="stop4607" />
      <stop
         id="stop4605"
         offset="1"
         style="stop-color:#181818;stop-opacity:1;" />
    </linearGradient>
    <linearGradient
       id="linearGradient6228">
      <stop
         id="stop6230"
         offset="0"
         style="stop-color:#8a8a8a;stop-opacity:1;" />
      <stop
         style="stop-color:#e5e5e5;stop-opacity:1;"
         offset="0.5"
         id="stop6236" />
      <stop
         id="stop6232"
         offset="1"
         style="stop-color:#696969;stop-opacity:1;" />
    </linearGradient>
    <linearGradient
       id="linearGradient4015">
      <stop
         id="stop4017"
         offset="0"
         style="stop-color:#2e2e2e;stop-opacity:1;" />
      <stop
         id="stop4019"
         offset="1"
         style="stop-color:#111111;stop-opacity:1;" />
    </linearGradient>
    <linearGradient
       id="linearGradient5291">
      <stop
         id="stop5293"
         offset="0"
         style="stop-color:#8a8a8a;stop-opacity:1;" />
      <stop
         style="stop-color:#e5e5e5;stop-opacity:1;"
         offset="0.5"
         id="stop5295" />
      <stop
         id="stop5297"
         offset="1"
         style="stop-color:#696969;stop-opacity:1;" />
    </linearGradient>
    <linearGradient
       id="linearGradient5300">
      <stop
         id="stop5302"
         offset="0"
         style="stop-color:#8a8a8a;stop-opacity:1;" />
      <stop
         style="stop-color:#e5e5e5;stop-opacity:1;"
         offset="0.5"
         id="stop5304" />
      <stop
         id="stop5306"
         offset="1"
         style="stop-color:#696969;stop-opacity:1;" />
    </linearGradient>
    <linearGradient
       id="linearGradient5309">
      <stop
         id="stop5311"
         offset="0"
         style="stop-color:#8a8a8a;stop-opacity:1;" />
      <stop
         style="stop-color:#e5e5e5;stop-opacity:1;"
         offset="0.5"
         id="stop5313" />
      <stop
         id="stop5315"
         offset="1"
         style="stop-color:#696969;stop-opacity:1;" />
    </linearGradient>
    <linearGradient
       id="linearGradient5318">
      <stop
         id="stop5320"
         offset="0"
         style="stop-color:#8a8a8a;stop-opacity:1;" />
      <stop
         style="stop-color:#e5e5e5;stop-opacity:1;"
         offset="0.5"
         id="stop5322" />
      <stop
         id="stop5324"
         offset="1"
         style="stop-color:#696969;stop-opacity:1;" />
    </linearGradient>
    <filter
       inkscape:collect="always"
       style="color-interpolation-filters:sRGB"
       id="filter1065"
       x="-0.048000082"
       width="1.0960002"
       y="-0.047999918"
       height="1.0959998">
      <feGaussianBlur
         inkscape:collect="always"
         stdDeviation="0.95250159"
         id="feGaussianBlur1067" />
    </filter>
  </defs>
  <sodipodi:namedview
     id="base"
     pagecolor="#ffffff"
     bordercolor="#666666"
     borderopacity="1.0"
     inkscape:pageopacity="0.0"
     inkscape:pageshadow="2"
     inkscape:zoom="5.2375"
     inkscape:cx="-29.23313"
     inkscape:cy="16.655643"
     inkscape:current-layer="g3443"
     showgrid="true"
     inkscape:document-units="px"
     inkscape:grid-bbox="true"
     inkscape:window-width="1366"
     inkscape:window-height="703"
     inkscape:window-x="0"
     inkscape:window-y="0"
     inkscape:window-maximized="1"
     showguides="true"
     inkscape:guide-bbox="true"
     inkscape:showpageshadow="false">
    <inkscape:grid
       type="xygrid"
       id="grid3778"
       empspacing="5"
       visible="true"
       enabled="false"
       snapvisiblegridlinesonly="true" />
  </sodipodi:namedview>
  <metadata
     id="metadata3352">
    <rdf:RDF>
      <cc:Work
         rdf:about="">
        <dc:format>image/svg+xml</dc:format>
        <dc:type
           rdf:resource="http://purl.org/dc/dcmitype/StillImage" />
        <dc:title />
      </cc:Work>
    </rdf:RDF>
  </metadata>
  <g
     id="layer1"
     inkscape:label="Layer 1"
     inkscape:groupmode="layer"
     transform="translate(0,-16)">
    <g
       id="g3443"
       inkscape:label="Layer 1"
       transform="translate(5.7957838,8.9269487)">
      <g
         id="g5541"
         transform="matrix(2.9464106,0,0,2.9464106,-23.963863,-75.735585)" />
      <g
         id="g4865"
         transform="translate(0,-0.01533382)">
        <g
           transform="matrix(1.125,0,0,1.125,2.2244732,-8.3841316)"
           id="g4202">
          <rect
             ry="9.375"
             y="-34.204216"
             x="15.073051"
             height="40"
             width="40"
             id="rect2383"
             style="fill:url(#linearGradient3961);fill-opacity:1;stroke:none"
             transform="matrix(0,1,-1,0,0,0)" />
        </g>
        <g
           transform="matrix(1.5371179,0,0,1.677623,-32.539794,-386.07904)"
           id="g2416">
          <path
             transform="matrix(0.11753647,0,0,0.11753647,17.716223,233.84448)"
             id="path2441"
             d="M 128,240.28516 C 117.24908,200.22304 35.393054,135.48005 5.6757812,128.70703 l 0,26.37695 c 32.4434948,3.32376 78.9631758,40.7792 102.0273388,85.20118 z"
             style="color:#000000;display:inline;overflow:visible;visibility:visible;opacity:0.2;fill:#ffffff;fill-opacity:1;fill-rule:nonzero;stroke:none;stroke-width:2.25107431;marker:none;enable-background:accumulate"
             inkscape:connector-curvature="0" />
          <path
             sodipodi:nodetypes="csssccscsccsssssscccc"
             transform="matrix(0.11753647,0,0,0.11753647,17.716223,233.84448)"
             id="path2437"
             d="m 204.38867,13.90625 c -1.15003,-0.157338 -2.18576,-0.363321 -3.39258,-0.498047 -3.25706,-0.363609 -6.72373,-0.646692 -10.41211,-0.863281 -7.37676,-0.433179 -15.64147,-0.597656 -24.89843,-0.597656 l -27.84766,0 C 66.944543,72.524723 24.0746,85.506294 5.8789062,88.097656 5.83729,90.996289 5.6757812,93.369933 5.6757812,96.490234 l 0,15.517576 C 18.708298,109.81025 43.563971,103.92992 70.587891,87.003906 109.11788,62.871141 155.17969,17.056641 155.17969,17.056641 142.54657,41.83729 138.86911,127.28865 138.625,240.28516 l 27.06055,0 c 9.25696,0 17.38957,-0.13421 24.8654,-0.17403 3.69589,-0.0197 7.4853,0.16603 10.97354,-0.0765 3.27175,-0.22752 5.87535,-0.92833 8.72692,-1.46478 2.85158,-0.53645 5.96897,-1.80269 8.44088,-2.5378 2.47191,-0.7351 4.36454,-1.90843 6.48261,-2.868 1.98809,-0.90069 3.63256,-2.04937 5.33096,-3.16987 0.0325,-0.35437 0.20312,-0.65768 0.20312,-1.02148 -14.97115,-30.87731 -24.75451,-75.51723 -32.0996,-115.38477 -5.96774,-45.285925 2.0262,-84.394745 5.77929,-99.68164 z"
             style="color:#000000;display:inline;overflow:visible;visibility:visible;opacity:0.2;fill:#f7d2d4;fill-opacity:1;fill-rule:nonzero;stroke:none;stroke-width:2.25107431;marker:none;enable-background:accumulate"
             inkscape:connector-curvature="0" />
          <path
             transform="matrix(0.11753647,0,0,0.11753647,17.716223,233.84448)"
             id="path2425"
             d="m 153.3457,240.28516 12.33985,0 c 4.81002,0 8.64852,-0.20699 12.9375,-0.31055 17.93953,-26.33434 51.47114,-64.98825 71.70117,-86.43164 l 0,-27.42774 c -28.27951,28.16603 -73.9215,74.47745 -96.97852,114.16993 z"
             style="opacity:0.05;fill:#f1f1f1;fill-opacity:1;fill-rule:evenodd;stroke:none;stroke-width:2.25107431"
             inkscape:connector-curvature="0" />
          <path
             transform="matrix(0.11753647,0,0,0.11753647,17.716223,233.84448)"
             id="path2421"
             d="m 250.32422,107.85156 0,-11.361326 c 0,-9.248329 -0.16557,-17.505574 -0.59961,-24.875 -0.21702,-3.684712 -0.50097,-7.146679 -0.86523,-10.40039 -0.36427,-3.253712 -0.80837,-6.297958 -1.34571,-9.146485 -0.53733,-2.848527 -1.16806,-5.501544 -1.90429,-7.970703 -0.73624,-2.469159 -1.57812,-4.755486 -2.53907,-6.871094 -0.96095,-2.115607 -2.04046,-4.059783 -3.25195,-5.847656 -1.21149,-1.787872 -2.55511,-3.418343 -4.04297,-4.904297 -1.48786,-1.485953 -3.1201,-2.827257 -4.91016,-4.037109 -1.79005,-1.209852 -3.73739,-2.288481 -5.85546,-3.248047 -2.11807,-0.959566 -4.407,-1.800059 -6.87891,-2.535156 -0.69101,-0.205492 -1.51052,-0.342009 -2.23047,-0.53125 l -7.2793,3.919922 C 178.4901,38.399171 81.293325,93.447892 5.859375,88.90625 5.8257037,91.544598 5.6757812,93.670562 5.6757812,96.490234 l 0,44.505856 C 27.713647,144.289 198.69645,167.66286 250.32422,107.85156 Z"
             style="opacity:0.05;fill:#f1f1f1;fill-opacity:1;fill-rule:evenodd;stroke:none;stroke-width:2.25107431"
             inkscape:connector-curvature="0" />
        </g>
        <g
           transform="translate(136.64858,-120.46136)"
           id="g4229">
          <path
             transform="matrix(0.76632744,0,0,0.7663274,-143.06079,-49.730111)"
             style="display:inline;opacity:0.3;fill:#0f0000;fill-opacity:1;fill-rule:nonzero;stroke:none;stroke-width:0.72159094;filter:url(#filter1065);enable-background:new"
             id="path1051"
             inkscape:connector-curvature="0"
             d="m 31.121724,238.82283 c -0.821118,0 -0.98308,0.0385 -1.313389,0.31527 -0.657603,0.55119 -1.032356,2.24722 -1.028562,4.71311 0.0038,2.5496 0.353017,4.97616 1.155149,8.13368 l 0.506371,1.97039 -0.474721,1.48169 c -1.507797,4.81827 -3.693826,9.83267 -6.915087,15.84178 -4.881952,9.10704 -8.654826,13.88797 -11.28251,14.31275 -0.42279,0.0685 -0.44307,0.0507 -0.44307,-0.25227 -1e-6,-1.53701 2.914383,-5.38031 6.155534,-8.11792 1.65564,-1.39844 -0.271036,-0.46383 -2.500192,1.21374 -2.246408,1.69056 -4.107209,3.88258 -4.683902,5.51703 -0.4100728,1.16223 -0.3233297,1.57317 0.427247,1.95461 1.341084,0.68152 2.023548,0.70833 3.1648,0.14182 2.21844,-1.10116 5.152271,-4.58605 8.418366,-9.99373 1.05903,-1.75343 1.391348,-2.19104 1.66152,-2.19104 0.09521,0 1.096039,-0.27745 2.215358,-0.61476 4.473673,-1.3482 9.845506,-2.43638 15.111918,-3.07377 l 1.756463,-0.22063 0.886143,0.44134 c 2.307772,1.15771 5.523372,2.28102 7.880352,2.74277 1.59412,0.3123 3.66997,0.36985 4.367424,0.126 0.43946,-0.15354 1.354963,-0.69628 1.354974,-0.87461 -1.788885,0.83897 -4.485225,-0.19772 -6.513597,-0.79626 -1.337368,-0.42133 -4.280533,-1.57203 -4.446545,-1.73394 3.563485,-0.68972 10.247765,-0.8427 10.966032,1.6236 0.210436,0 0.156355,-0.99005 -0.07912,-1.38714 -0.441042,-0.74373 -1.719057,-1.34416 -3.5604,-1.68664 -1.490803,-0.27728 -5.023321,-0.35489 -7.785407,-0.17345 l -2.452722,0.15764 -0.88614,-0.53593 c -5.081228,-3.07804 -7.772329,-6.55039 -10.206479,-13.14631 -0.365284,-0.98983 -0.389859,-1.12562 -0.269018,-1.7497 0.425492,-2.19723 0.820354,-9.62098 0.522192,-9.80455 -0.543052,2.43261 -0.982221,4.86575 -1.53493,7.06181 -0.114165,0 -0.448686,-1.71175 -0.712081,-3.70429 -0.28657,-2.16791 -0.18251,-5.10072 0.205719,-6.10029 0.155564,-0.40052 0.358471,-0.76552 0.458896,-0.80389 0.995092,0.28541 1.548924,1.07351 1.693169,2.28562 0.14119,0 0.177435,-0.23154 0.205719,-0.97729 0.06218,-1.64002 -0.377336,-2.09648 -2.025473,-2.09648 z m 0.3956,18.09586 c 0.0564,-0.0191 0.08847,0.10395 0.158237,0.29951 0.08588,0.24082 0.56665,1.22733 1.060209,2.19104 2.123649,4.14653 4.475342,6.86599 7.864528,9.09524 0.171706,0.11291 0.277794,0.24163 0.237355,0.28372 -0.04044,0.042 -0.730314,0.19063 -1.519105,0.33101 -5.37898,0.95781 -12.07564,2.97275 -15.333455,4.60279 -0.05182,0.0272 -0.09494,-0.0245 -0.09494,-0.11048 0,-0.0854 0.320231,-0.75251 0.727901,-1.4817 3.070639,-5.49243 5.13397,-9.93158 6.297951,-13.58768 0.369253,-1.1598 0.507323,-1.59366 0.601311,-1.62357 z" />
          <path
             d="m -119.21136,133.28637 c -0.62925,0 -0.75336,0.0295 -1.00649,0.2416 -0.50394,0.42239 -0.79112,1.7221 -0.78821,3.61178 0.003,1.95383 0.27052,3.81337 0.88522,6.23306 l 0.38805,1.50997 -0.36379,1.13546 c -1.15547,3.69237 -2.83069,7.53504 -5.29923,12.13999 -3.74117,6.97897 -6.63243,10.64273 -8.64609,10.96825 -0.324,0.0525 -0.33954,0.0389 -0.33954,-0.19332 0,-1.17785 2.23337,-4.12308 4.71715,-6.22099 1.26877,-1.07166 -0.2077,-0.35544 -1.91596,0.93013 -1.72148,1.29552 -3.14747,2.97532 -3.5894,4.22785 -0.31425,0.89065 -0.24778,1.20556 0.32741,1.49787 1.02771,0.52227 1.5507,0.54281 2.42527,0.10868 1.70005,-0.84385 3.94833,-3.51442 6.45123,-7.65847 0.81156,-1.3437 1.06622,-1.67905 1.27326,-1.67905 0.073,0 0.83993,-0.21262 1.69769,-0.47111 3.4283,-1.03316 7.54488,-1.86707 11.58068,-2.35552 l 1.34603,-0.16907 0.67907,0.33821 c 1.76851,0.88719 4.23271,1.74801 6.03893,2.10186 1.22162,0.23932 2.8124,0.28343 3.34688,0.0966 0.33677,-0.11766 1.038346,-0.53358 1.038354,-0.67024 -1.370874,0.64292 -3.437154,-0.15152 -4.991544,-0.6102 -1.02487,-0.32287 -3.28029,-1.20469 -3.40751,-1.32876 2.73079,-0.52855 7.853139,-0.64579 8.403567,1.24421 0.161263,0 0.11982,-0.75871 -0.06063,-1.06301 -0.337982,-0.56994 -1.317367,-1.03006 -2.728437,-1.29251 -1.14244,-0.21249 -3.8495,-0.27197 -5.96617,-0.13292 l -1.87959,0.1208 -0.67907,-0.4107 c -3.89388,-2.35878 -5.95615,-5.01974 -7.8215,-10.07438 -0.27993,-0.75853 -0.29876,-0.86259 -0.20616,-1.34084 0.32607,-1.6838 0.62866,-7.37282 0.40017,-7.51349 -0.41616,1.86417 -0.7527,3.72875 -1.17626,5.41165 -0.0875,0 -0.34384,-1.31176 -0.54569,-2.83869 -0.2196,-1.66133 -0.13986,-3.90883 0.15765,-4.67482 0.11921,-0.30693 0.27471,-0.58664 0.35167,-0.61605 0.76256,0.21872 1.18698,0.82266 1.29752,1.75154 0.1082,0 0.13597,-0.17744 0.15765,-0.74893 0.0477,-1.25679 -0.28917,-1.60659 -1.55218,-1.60659 z m 0.30316,13.86735 c 0.0432,-0.0146 0.0678,0.0797 0.12126,0.22952 0.0658,0.18455 0.43424,0.94054 0.81247,1.67906 1.62741,3.1776 3.42957,5.26159 6.0268,6.96993 0.13158,0.0865 0.21288,0.18517 0.18189,0.21742 -0.031,0.0322 -0.55966,0.14608 -1.16413,0.25366 -4.12206,0.734 -9.25389,2.2781 -11.75045,3.52725 -0.0397,0.0208 -0.0728,-0.0188 -0.0728,-0.0847 0,-0.0654 0.2454,-0.57667 0.55781,-1.13546 2.35311,-4.209 3.9343,-7.61085 4.82629,-10.41262 0.28297,-0.88878 0.38878,-1.22126 0.4608,-1.24418 z"
             inkscape:connector-curvature="0"
             id="rect3364"
             style="display:inline;fill:#dbdbdb;fill-opacity:1;fill-rule:nonzero;stroke:none;stroke-width:0.72159094;enable-background:new" />
        </g>
      </g>
    </g>
  </g>
</svg>
