<?xml version="1.0" encoding="UTF-8" standalone="no"?>
<!-- Created with Inkscape (http://www.inkscape.org/) -->

<svg
   xmlns:dc="http://purl.org/dc/elements/1.1/"
   xmlns:cc="http://creativecommons.org/ns#"
   xmlns:rdf="http://www.w3.org/1999/02/22-rdf-syntax-ns#"
   xmlns:svg="http://www.w3.org/2000/svg"
   xmlns="http://www.w3.org/2000/svg"
   xmlns:xlink="http://www.w3.org/1999/xlink"
   xmlns:sodipodi="http://sodipodi.sourceforge.net/DTD/sodipodi-0.dtd"
   xmlns:inkscape="http://www.inkscape.org/namespaces/inkscape"
   width="48"
   height="48"
   id="svg3347"
   sodipodi:version="0.32"
   inkscape:version="0.91 r13725"
   sodipodi:docname="amoroq.svg"
   inkscape:output_extension="org.inkscape.output.svg.inkscape"
   version="1.1">
  <defs
     id="defs3349">
    <linearGradient
       id="linearGradient3935">
      <stop
         id="stop3937"
         offset="0"
         style="stop-color:#197cf1;stop-opacity:1" />
      <stop
         id="stop3939"
         offset="1"
         style="stop-color:#20bcfa;stop-opacity:1" />
    </linearGradient>
    <linearGradient
       id="linearGradient4569">
      <stop
         id="stop4571"
         offset="0"
         style="stop-color:#ffffff;stop-opacity:1;" />
      <stop
         id="stop4573"
         offset="1"
         style="stop-color:#ffffff;stop-opacity:0.75539571;" />
    </linearGradient>
    <linearGradient
       id="linearGradient3816">
      <stop
         id="stop3818"
         offset="0"
         style="stop-color:#e5f5d9;stop-opacity:1;" />
      <stop
         id="stop3820"
         offset="1"
         style="stop-color:#ffffff;stop-opacity:1;" />
    </linearGradient>
    <linearGradient
       id="linearGradient3816-3">
      <stop
         style="stop-color:#e5f5d9;stop-opacity:1;"
         offset="0"
         id="stop3818-8" />
      <stop
         style="stop-color:#ffffff;stop-opacity:1;"
         offset="1"
         id="stop3820-2" />
    </linearGradient>
    <linearGradient
       id="linearGradient4508">
      <stop
         style="stop-color:#e5f5d9;stop-opacity:1;"
         offset="0"
         id="stop4510" />
      <stop
         style="stop-color:#ffffff;stop-opacity:1;"
         offset="1"
         id="stop4512" />
    </linearGradient>
    <linearGradient
       id="linearGradient6691">
      <stop
         id="stop6693"
         offset="0"
         style="stop-color:#68a0ed;stop-opacity:1;" />
      <stop
         id="stop6695"
         offset="1"
         style="stop-color:#2572cd;stop-opacity:0;" />
    </linearGradient>
    <linearGradient
       id="linearGradient6679">
      <stop
         id="stop6681"
         offset="0"
         style="stop-color:#000000;stop-opacity:1;" />
      <stop
         style="stop-color:#002251;stop-opacity:1;"
         offset="0.5"
         id="stop6703" />
      <stop
         id="stop6683"
         offset="1"
         style="stop-color:#0060e7;stop-opacity:1;" />
    </linearGradient>
    <linearGradient
       id="linearGradient6560">
      <stop
         style="stop-color:#171818;stop-opacity:1;"
         offset="0"
         id="stop6562" />
      <stop
         id="stop6566"
         offset="0.5"
         style="stop-color:#1d1d1d;stop-opacity:1;" />
      <stop
         style="stop-color:#181818;stop-opacity:1;"
         offset="1"
         id="stop6568" />
    </linearGradient>
    <linearGradient
       id="linearGradient4007-5">
      <stop
         style="stop-color:#313232;stop-opacity:1;"
         offset="0"
         id="stop4009-2" />
      <stop
         style="stop-color:#29292b;stop-opacity:1;"
         offset="1"
         id="stop4011-7" />
    </linearGradient>
    <linearGradient
       id="linearGradient5260">
      <stop
         style="stop-color:#313232;stop-opacity:1;"
         offset="0"
         id="stop5262" />
      <stop
         style="stop-color:#29292b;stop-opacity:1;"
         offset="1"
         id="stop5264" />
    </linearGradient>
    <linearGradient
       id="linearGradient5269">
      <stop
         style="stop-color:#313232;stop-opacity:1;"
         offset="0"
         id="stop5271" />
      <stop
         style="stop-color:#29292b;stop-opacity:1;"
         offset="1"
         id="stop5273" />
    </linearGradient>
    <linearGradient
       id="linearGradient4601">
      <stop
         id="stop4603"
         offset="0"
         style="stop-color:#171818;stop-opacity:1;" />
      <stop
         style="stop-color:#232424;stop-opacity:1;"
         offset="0.25"
         id="stop6558" />
      <stop
         style="stop-color:#303030;stop-opacity:1;"
         offset="0.5"
         id="stop4607" />
      <stop
         id="stop4605"
         offset="1"
         style="stop-color:#181818;stop-opacity:1;" />
    </linearGradient>
    <linearGradient
       id="linearGradient6228">
      <stop
         id="stop6230"
         offset="0"
         style="stop-color:#8a8a8a;stop-opacity:1;" />
      <stop
         style="stop-color:#e5e5e5;stop-opacity:1;"
         offset="0.5"
         id="stop6236" />
      <stop
         id="stop6232"
         offset="1"
         style="stop-color:#696969;stop-opacity:1;" />
    </linearGradient>
    <linearGradient
       id="linearGradient4015">
      <stop
         id="stop4017"
         offset="0"
         style="stop-color:#2e2e2e;stop-opacity:1;" />
      <stop
         id="stop4019"
         offset="1"
         style="stop-color:#111111;stop-opacity:1;" />
    </linearGradient>
    <linearGradient
       id="linearGradient5291">
      <stop
         id="stop5293"
         offset="0"
         style="stop-color:#8a8a8a;stop-opacity:1;" />
      <stop
         style="stop-color:#e5e5e5;stop-opacity:1;"
         offset="0.5"
         id="stop5295" />
      <stop
         id="stop5297"
         offset="1"
         style="stop-color:#696969;stop-opacity:1;" />
    </linearGradient>
    <linearGradient
       id="linearGradient5300">
      <stop
         id="stop5302"
         offset="0"
         style="stop-color:#8a8a8a;stop-opacity:1;" />
      <stop
         style="stop-color:#e5e5e5;stop-opacity:1;"
         offset="0.5"
         id="stop5304" />
      <stop
         id="stop5306"
         offset="1"
         style="stop-color:#696969;stop-opacity:1;" />
    </linearGradient>
    <linearGradient
       id="linearGradient5309">
      <stop
         id="stop5311"
         offset="0"
         style="stop-color:#8a8a8a;stop-opacity:1;" />
      <stop
         style="stop-color:#e5e5e5;stop-opacity:1;"
         offset="0.5"
         id="stop5313" />
      <stop
         id="stop5315"
         offset="1"
         style="stop-color:#696969;stop-opacity:1;" />
    </linearGradient>
    <linearGradient
       id="linearGradient5318">
      <stop
         id="stop5320"
         offset="0"
         style="stop-color:#8a8a8a;stop-opacity:1;" />
      <stop
         style="stop-color:#e5e5e5;stop-opacity:1;"
         offset="0.5"
         id="stop5322" />
      <stop
         id="stop5324"
         offset="1"
         style="stop-color:#696969;stop-opacity:1;" />
    </linearGradient>
    <linearGradient
       gradientTransform="matrix(0.703125,0,0,0.703125,14.849812,0.22062162)"
       inkscape:collect="always"
       xlink:href="#linearGradient3935"
       id="linearGradient3961"
       x1="-8.9269485"
       y1="-26.204216"
       x2="55.073051"
       y2="-26.204216"
       gradientUnits="userSpaceOnUse" />
    <linearGradient
       id="linearGradient39393"
       y2="74.938004"
       gradientUnits="userSpaceOnUse"
       y1="83"
       gradientTransform="translate(15.633,24.608)"
       x2="37"
       x1="37">
      <stop
         id="stop3854-6-7"
         style="stop-color:#fff"
         offset="0" />
      <stop
         id="stop3856-2-6"
         style="stop-color:#fff;stop-opacity:0"
         offset="1" />
    </linearGradient>
    <linearGradient
       id="linearGradient39302-8"
       y2="82"
       gradientUnits="userSpaceOnUse"
       x2="34"
       gradientTransform="translate(16.633,24.608)"
       y1="78"
       x1="34">
      <stop
         id="stop3827-9-3"
         style="stop-color:#333"
         offset="0" />
      <stop
         id="stop3829-4-3"
         style="stop-color:#494949"
         offset="1" />
    </linearGradient>
    <radialGradient
       id="radialGradient39296-1"
       gradientUnits="userSpaceOnUse"
       cy="78.199997"
       cx="32"
       gradientTransform="matrix(1.5,9.9073e-7,-9.9073e-7,1.5,1.633,-14.692)"
       r="4">
      <stop
         id="stop3865-8-8"
         style="stop-color:#ebebeb"
         offset="0" />
      <stop
         id="stop3867-90-1-9"
         style="stop-color:#c0c0c0"
         offset="1" />
    </radialGradient>
  </defs>
  <sodipodi:namedview
     id="base"
     pagecolor="#ffffff"
     bordercolor="#666666"
     borderopacity="1.0"
     inkscape:pageopacity="0"
     inkscape:pageshadow="2"
     inkscape:zoom="5.6568542"
     inkscape:cx="29.190139"
     inkscape:cy="28.16769"
     inkscape:current-layer="g3443"
     showgrid="true"
     inkscape:document-units="px"
     inkscape:grid-bbox="true"
     inkscape:window-width="1366"
     inkscape:window-height="703"
     inkscape:window-x="0"
     inkscape:window-y="0"
     inkscape:window-maximized="1"
     showguides="true"
     inkscape:guide-bbox="true"
     inkscape:showpageshadow="false">
    <inkscape:grid
       type="xygrid"
       id="grid3778"
       empspacing="5"
       visible="true"
       enabled="false"
       snapvisiblegridlinesonly="true" />
  </sodipodi:namedview>
  <metadata
     id="metadata3352">
    <rdf:RDF>
      <cc:Work
         rdf:about="">
        <dc:format>image/svg+xml</dc:format>
        <dc:type
           rdf:resource="http://purl.org/dc/dcmitype/StillImage" />
        <dc:title />
      </cc:Work>
    </rdf:RDF>
  </metadata>
  <g
     id="layer1"
     inkscape:label="Layer 1"
     inkscape:groupmode="layer"
     transform="translate(0,-16)">
    <g
       id="g3443"
       inkscape:label="Layer 1"
       transform="translate(5.7957838,8.9269487)">
      <g
         id="g5541"
         transform="matrix(2.9464106,0,0,2.9464106,-23.963863,-75.735585)" />
      <rect
         transform="matrix(0,1,-1,0,0,0)"
         style="fill:url(#linearGradient3961);fill-opacity:1;stroke:none"
         id="rect2383"
         width="45"
         height="45"
         x="8.5730515"
         y="-40.704216"
         ry="10.546875" />
      <g
         transform="matrix(0.40203766,0,0,0.40203766,-7.3786462,3.7446492)"
         id="g39440">
        <path
           inkscape:connector-curvature="0"
           id="path3848"
           style="color:#000000;opacity:0.6;fill:url(#linearGradient39393)"
           d="m 40.633,101.67 c -1.6149,0 -2.9375,1.3226 -2.9375,2.9375 0,1.6149 1.3226,2.9375 2.9375,2.9375 l 46,0 c 1.6149,0 2.9375,-1.3226 2.9375,-2.9375 0,-1.6149 -1.3226,-2.9375 -2.9375,-2.9375 l -46,0 z" />
        <rect
           id="rect3823"
           style="color:#000000;fill:url(#linearGradient39302-8)"
           rx="2"
           ry="2"
           height="4"
           width="50"
           y="102.61"
           x="38.632999" />
        <path
           inkscape:connector-curvature="0"
           id="path3893"
           style="color:#000000;opacity:0.05"
           d="m 49.633,98.604 c -3.5675,0 -6.5039,2.9364 -6.5039,6.5039 0,3.5675 2.9364,6.5039 6.5039,6.5039 3.5675,0 6.5039,-2.9364 6.5039,-6.5039 0,-3.5675 -2.9364,-6.5039 -6.5039,-6.5039 z" />
        <path
           inkscape:connector-curvature="0"
           id="path3889"
           style="color:#000000;opacity:0.15"
           d="m 49.633,99.623 c -3.0168,0 -5.4844,2.4676 -5.4844,5.4844 0,3.0168 2.4676,5.4844 5.4844,5.4844 3.0168,0 5.4844,-2.4676 5.4844,-5.4844 0,-3.0168 -2.4676,-5.4844 -5.4844,-5.4844 z" />
        <path
           inkscape:connector-curvature="0"
           id="path3875"
           style="color:#000000;opacity:0.3"
           d="m 54.133,105.11 a 4.5,4.5 0 0 1 -9,0 4.5,4.5 0 1 1 9,0 z" />
        <path
           inkscape:connector-curvature="0"
           id="path3861"
           style="color:#000000;fill:url(#radialGradient39296-1)"
           d="m 53.633,104.61 a 4,4 0 0 1 -8,0 4,4 0 1 1 8,0 z" />
        <path
           inkscape:connector-curvature="0"
           id="path3895"
           d="m 49.633,100.61 c -2.2091,0 -4,1.7909 -4,4 0,0.17012 0.0419,0.33547 0.0625,0.5 0.24707,-1.972 1.8985,-3.5 3.9375,-3.5 2.039,0 3.6904,1.528 3.9375,3.5 0.0206,-0.16453 0.0625,-0.32988 0.0625,-0.5 0,-2.2092 -1.7909,-4 -4,-4 z"
           style="color:#000000;opacity:0.6;fill:#ffffff" />
      </g>
      <g
         style="opacity:0.89499996;fill:#eaeaea;fill-opacity:1"
         transform="matrix(0.48982191,0,0,0.45835977,1.8747766,-89.230105)"
         id="g896">
        <g
           style="fill:#eaeaea;fill-opacity:1"
           transform="translate(0.39686846,-0.56696)"
           id="g1013">
          <g
             style="fill:#eaeaea;fill-opacity:1"
             id="g1054">
            <path
               style="fill:#eaeaea;fill-opacity:1;stroke:none;stroke-width:0.25416571px;stroke-linecap:butt;stroke-linejoin:miter;stroke-opacity:1"
               d="m 32.37367,238.46298 c 0,1.06821 0,49.13691 0,49.13691 l 1.511905,0 0,-49.13691 z"
               id="path1443"
               inkscape:connector-curvature="0" />
            <path
               inkscape:connector-curvature="0"
               id="path1445"
               d="m 35.529763,253.39304 c 0,0.41906 0,19.2768 0,19.2768 l 1.133929,0 0,-19.27681 z"
               style="fill:#eaeaea;fill-opacity:1;stroke:none;stroke-width:0.13786732px;stroke-linecap:butt;stroke-linejoin:miter;stroke-opacity:1" />
            <path
               inkscape:connector-curvature="0"
               id="path1447"
               d="m 38.515775,244.88856 c 0,0.78881 0,36.28575 0,36.28575 l 1.133929,0 0,-36.28575 z"
               style="fill:#eaeaea;fill-opacity:1;stroke:none;stroke-width:0.18915257px;stroke-linecap:butt;stroke-linejoin:miter;stroke-opacity:1" />
            <path
               style="fill:#eaeaea;fill-opacity:1;stroke:none;stroke-width:0.11583161px;stroke-linecap:butt;stroke-linejoin:miter;stroke-opacity:1"
               d="m 41.539585,256.22786 c 0,0.29581 0,13.60714 0,13.60714 l 1.133929,0 0,-13.60713 z"
               id="path1449"
               inkscape:connector-curvature="0" />
            <path
               inkscape:connector-curvature="0"
               id="path1451"
               d="m 44.550166,260.76357 c 0,0.0986 0,4.53572 0,4.53572 l 1.133929,0 0,-4.53572 z"
               style="fill:#eaeaea;fill-opacity:1;stroke:none;stroke-width:0.06687547px;stroke-linecap:butt;stroke-linejoin:miter;stroke-opacity:1" />
            <path
               style="fill:#eaeaea;fill-opacity:1;stroke:none;stroke-width:0.03343777px;stroke-linecap:butt;stroke-linejoin:miter;stroke-opacity:1"
               d="m 47.549407,262.46447 c 0,0.0246 0,1.13392 0,1.13392 l 1.133929,0 0,-1.13392 z"
               id="path1453"
               inkscape:connector-curvature="0" />
            <path
               inkscape:connector-curvature="0"
               id="path1514"
               d="m 29.406552,246.96744 c 0,0.69843 0,32.12798 0,32.12798 l 1.133929,0 0,-32.12798 z"
               style="fill:#eaeaea;fill-opacity:1;stroke:none;stroke-width:0.17798601px;stroke-linecap:butt;stroke-linejoin:miter;stroke-opacity:1;opacity:0.2" />
            <path
               style="opacity:0.3;fill:#eaeaea;fill-opacity:1;stroke:none;stroke-width:0.17693605px;stroke-linecap:butt;stroke-linejoin:miter;stroke-opacity:1"
               d="m 59.606848,247.15641 c 0,0.69022 0,31.75004 0,31.75004 l 1.133929,0 0,-31.75004 z"
               id="path906"
               inkscape:connector-curvature="0" />
            <path
               inkscape:connector-curvature="0"
               id="path908"
               d="m 56.596205,248.29037 c 0,0.64091 0,29.48212 0,29.48212 l 1.133929,0 0,-29.48212 z"
               style="opacity:0.5;fill:#eaeaea;fill-opacity:1;stroke:none;stroke-width:0.17049953px;stroke-linecap:butt;stroke-linejoin:miter;stroke-opacity:1" />
            <path
               style="opacity:0.75;fill:#eaeaea;fill-opacity:1;stroke:none;stroke-width:0.12511246px;stroke-linecap:butt;stroke-linejoin:miter;stroke-opacity:1"
               d="m 53.559229,255.09394 c 0,0.34511 0,15.87499 0,15.87499 l 1.133929,0 0,-15.87499 z"
               id="path910"
               inkscape:connector-curvature="0" />
            <path
               inkscape:connector-curvature="0"
               id="path912"
               d="m 50.535419,256.22785 c 0,0.29579 0,13.60716 0,13.60716 l 1.133929,0 0,-13.60716 z"
               style="opacity:0.9;fill:#eaeaea;fill-opacity:1;stroke:none;stroke-width:0.11583183px;stroke-linecap:butt;stroke-linejoin:miter;stroke-opacity:1" />
            <path
               inkscape:connector-curvature="0"
               id="path951-3"
               d="m 62.630658,238.46298 c 0,1.06821 0,49.13691 0,49.13691 l 1.133929,0 0,-49.13691 z"
               style="opacity:0.79;fill:#eaeaea;fill-opacity:1;stroke:none;stroke-width:0.22011399px;stroke-linecap:butt;stroke-linejoin:miter;stroke-opacity:1" />
            <path
               inkscape:connector-curvature="0"
               id="path953-6"
               d="m 65.61667,248.29037 c 0,0.64091 0,29.48212 0,29.48212 l 1.133929,0 0,-29.48212 z"
               style="opacity:0.74;fill:#eaeaea;fill-opacity:1;stroke:none;stroke-width:0.17049953px;stroke-linecap:butt;stroke-linejoin:miter;stroke-opacity:1" />
            <path
               style="opacity:0.71;fill:#eaeaea;fill-opacity:1;stroke:none;stroke-width:0.12511246px;stroke-linecap:butt;stroke-linejoin:miter;stroke-opacity:1"
               d="m 68.64048,255.09394 c 0,0.34511 0,15.87499 0,15.87499 l 1.133929,0 0,-15.87499 z"
               id="path955"
               inkscape:connector-curvature="0" />
            <path
               inkscape:connector-curvature="0"
               id="path957"
               d="m 71.664289,256.22785 c 0,0.29581 0,13.60716 0,13.60716 l 1.133929,0 0,-13.60716 z"
               style="opacity:0.81;fill:#eaeaea;fill-opacity:1;stroke:none;stroke-width:0.11583179px;stroke-linecap:butt;stroke-linejoin:miter;stroke-opacity:1" />
            <path
               style="opacity:0.5;fill:#eaeaea;fill-opacity:1;stroke:none;stroke-width:0.18915257px;stroke-linecap:butt;stroke-linejoin:miter;stroke-opacity:1"
               d="m 74.650301,244.88856 c 0,0.78881 0,36.28575 0,36.28575 l 1.133929,0 0,-36.28575 z"
               id="path959"
               inkscape:connector-curvature="0" />
            <path
               style="opacity:0.7;fill:#eaeaea;fill-opacity:1;stroke:none;stroke-width:0.06687547px;stroke-linecap:butt;stroke-linejoin:miter;stroke-opacity:1"
               d="m 77.674111,260.76357 c 0,0.0986 0,4.53572 0,4.53572 l 1.133929,0 0,-4.53572 z"
               id="path961"
               inkscape:connector-curvature="0" />
            <path
               style="fill:#eaeaea;fill-opacity:1;stroke:none;stroke-width:0.16718876px;stroke-linecap:butt;stroke-linejoin:miter;stroke-opacity:1;opacity:0.1"
               d="m 26.382744,248.85732 c 0,0.61625 0,28.34822 0,28.34822 l 1.133929,0 0,-28.34822 z"
               id="path963"
               inkscape:connector-curvature="0" />
            <path
               inkscape:connector-curvature="0"
               id="path965"
               d="m 23.358936,255.47191 c 0,0.32867 0,15.11905 0,15.11905 l 1.133929,0 0,-15.11905 z"
               style="fill:#eaeaea;fill-opacity:1;stroke:none;stroke-width:0.1220974px;stroke-linecap:butt;stroke-linejoin:miter;stroke-opacity:1" />
            <path
               style="fill:#eaeaea;fill-opacity:1;stroke:none;stroke-width:0.10573944px;stroke-linecap:butt;stroke-linejoin:miter;stroke-opacity:1"
               d="m 20.335128,257.36179 c 0,0.24651 0,11.33929 0,11.33929 l 1.133929,0 0,-11.33929 z"
               id="path967"
               inkscape:connector-curvature="0" />
            <path
               inkscape:connector-curvature="0"
               id="path969"
               d="m 17.31132,262.46447 c 0,0.0247 0,1.13393 0,1.13393 l 1.133929,0 0,-1.13393 z"
               style="fill:#eaeaea;fill-opacity:1;stroke:none;stroke-width:0.03343774px;stroke-linecap:butt;stroke-linejoin:miter;stroke-opacity:1" />
            <path
               style="opacity:0.9;fill:#eaeaea;fill-opacity:1;stroke:none;stroke-width:0.06104865px;stroke-linecap:butt;stroke-linejoin:miter;stroke-opacity:1"
               d="m 14.287512,261.14155 c 0,0.0823 0,3.77976 0,3.77976 l 1.133929,0 0,-3.77976 z"
               id="path971"
               inkscape:connector-curvature="0" />
            <path
               inkscape:connector-curvature="0"
               id="path973"
               d="m 11.263704,256.41685 c 0,0.28805 0,13.22917 0,13.22917 l 1.133929,0 0,-13.22917 z"
               style="opacity:0.75;fill:#eaeaea;fill-opacity:1;stroke:none;stroke-width:0.1142116px;stroke-linecap:butt;stroke-linejoin:miter;stroke-opacity:1" />
            <path
               style="opacity:0.5;fill:#eaeaea;fill-opacity:1;stroke:none;stroke-width:0.18816461px;stroke-linecap:butt;stroke-linejoin:miter;stroke-opacity:1"
               d="m 8.2398948,245.07756 c 0,0.78185 0,35.90774 0,35.90774 l 1.1339298,0 0,-35.90774 z"
               id="path975"
               inkscape:connector-curvature="0" />
            <path
               inkscape:connector-curvature="0"
               id="path977"
               d="m 5.2160852,253.58203 c 0,0.4115 0,18.89881 0,18.89881 l 1.1339298,0 0,-18.89881 z"
               style="opacity:0.5;fill:#eaeaea;fill-opacity:1;stroke:none;stroke-width:0.13650896px;stroke-linecap:butt;stroke-linejoin:miter;stroke-opacity:1" />
            <path
               style="opacity:0.5;fill:#eaeaea;fill-opacity:1;stroke:none;stroke-width:0.17798591px;stroke-linecap:butt;stroke-linejoin:miter;stroke-opacity:1"
               d="m 2.1922756,246.96744 c 0,0.69955 0,32.12798 0,32.12798 l 1.1339298,0 0,-32.12798 z"
               id="path979"
               inkscape:connector-curvature="0" />
            <path
               inkscape:connector-curvature="0"
               id="path981"
               d="m -0.83153409,238.46298 c 0,1.0699 0,49.13691 0,49.13691 l 1.13392986,0 0,-49.13691 z"
               style="opacity:0.5;fill:#eaeaea;fill-opacity:1;stroke:none;stroke-width:0.22011408px;stroke-linecap:butt;stroke-linejoin:miter;stroke-opacity:1" />
            <path
               style="fill:#eaeaea;fill-opacity:1;stroke:none;stroke-width:0.16718875px;stroke-linecap:butt;stroke-linejoin:miter;stroke-opacity:1"
               d="m -3.8553437,248.85732 c 0,0.61626 0,28.34822 0,28.34822 l 1.1339298,0 0,-28.34822 z"
               id="path983"
               inkscape:connector-curvature="0" />
            <path
               style="opacity:0.75;fill:#eaeaea;fill-opacity:1;stroke:none;stroke-width:0.1142116px;stroke-linecap:butt;stroke-linejoin:miter;stroke-opacity:1"
               d="m -6.8791533,256.41685 c 0,0.28805 0,13.22917 0,13.22917 l 1.1339298,0 0,-13.22917 z"
               id="path1015"
               inkscape:connector-curvature="0" />
            <path
               inkscape:connector-curvature="0"
               id="path1017"
               d="m -9.9029626,261.14155 c 0,0.0823 0,3.77976 0,3.77976 l 1.1339295,0 0,-3.77976 z"
               style="opacity:0.9;fill:#eaeaea;fill-opacity:1;stroke:none;stroke-width:0.06104865px;stroke-linecap:butt;stroke-linejoin:miter;stroke-opacity:1" />
            <path
               style="opacity:0.9;fill:#eaeaea;fill-opacity:1;stroke:none;stroke-width:0.03343773px;stroke-linecap:butt;stroke-linejoin:miter;stroke-opacity:1"
               d="m -12.926771,262.46447 c 0,0.0247 0,1.13393 0,1.13393 l 1.133929,0 0,-1.13393 z"
               id="path1021"
               inkscape:connector-curvature="0" />
          </g>
        </g>
      </g>
      <path
         inkscape:connector-curvature="0"
         id="path39584"
         style="fill:#ffffff"
         d="M 13.976234,41.058133 C 2.4102074,37.286713 1.5371874,20.996324 12.632611,15.987578 c 5.152571,-2.32587 10.364688,-1.466602 14.583438,2.404073 6.993789,6.41723 5.4268,17.681346 -3.03263,21.801138 -2.816553,1.37167 -7.449172,1.764322 -10.20702,0.865093 z m 9.370899,-1.712869 c 2.008236,-0.835235 4.826758,-3.482302 5.875055,-5.517791 1.113034,-2.161078 1.5022,-7.077658 0.74353,-9.393966 -2.002199,-6.112806 -8.67022,-9.752898 -14.679877,-8.013568 -6.2859813,1.81904 -9.4421795,6.301076 -9.181783,13.037826 0.055513,1.433899 0.3776989,1.45025 2.2157975,0.112504 0.7951078,-0.578659 2.2114735,-1.413311 3.1474765,-1.854723 0.935997,-0.441414 2.165985,-1.302023 2.733278,-1.912379 0.641048,-0.689776 1.48325,-1.109806 2.225232,-1.109806 0.763616,0 2.384952,-0.840774 4.49969,-2.333293 3.001099,-2.118263 3.354708,-2.266913 3.83755,-1.613072 0.726848,0.984348 0.672084,1.588919 -0.31909,3.522852 -1.228976,2.397949 -1.13224,2.662789 0.850917,2.329266 1.472937,-0.247707 1.701842,-0.181416 1.701842,0.492865 0,0.492866 -0.713341,1.155765 -1.941603,1.804403 -2.452966,1.295317 -3.099257,2.55767 -3.540425,6.914962 -0.456256,4.5064 -0.465018,4.489632 1.832335,3.534006 z M 7.8579736,32.958645 c -1.2804227,-1.356701 -1.5412419,-1.097059 -0.6402142,0.637279 0.5139167,0.989254 0.8331842,1.2317 1.1744685,0.891969 0.3413014,-0.339737 0.1960827,-0.755397 -0.5342543,-1.529248 z m 9.7784774,-6.254114 c 1.2e-5,-0.1747 -0.257501,-0.317628 -0.572239,-0.317628 -0.654893,0 -1.724737,1.127791 -2.119358,2.234119 -0.202137,0.566711 0.0963,0.462384 1.211699,-0.423509 0.813938,-0.646462 1.479858,-1.318293 1.479898,-1.492982 z" />
    </g>
  </g>
</svg>
