<?xml version="1.0" encoding="UTF-8" standalone="no"?>
<!-- Created with Inkscape (http://www.inkscape.org/) -->

<svg
   xmlns:dc="http://purl.org/dc/elements/1.1/"
   xmlns:cc="http://creativecommons.org/ns#"
   xmlns:rdf="http://www.w3.org/1999/02/22-rdf-syntax-ns#"
   xmlns:svg="http://www.w3.org/2000/svg"
   xmlns="http://www.w3.org/2000/svg"
   xmlns:xlink="http://www.w3.org/1999/xlink"
   xmlns:sodipodi="http://sodipodi.sourceforge.net/DTD/sodipodi-0.dtd"
   xmlns:inkscape="http://www.inkscape.org/namespaces/inkscape"
   width="48"
   height="48"
   id="svg3347"
   sodipodi:version="0.32"
   inkscape:version="0.91 r13725"
   sodipodi:docname="Camera_ruded.svg"
   inkscape:output_extension="org.inkscape.output.svg.inkscape"
   version="1.1">
  <defs
     id="defs3349">
    <linearGradient
       inkscape:collect="always"
       xlink:href="#linearGradient3935"
       id="linearGradient3961"
       x1="-8.9269485"
       y1="-26.204216"
       x2="55.073051"
       y2="-26.204216"
       gradientUnits="userSpaceOnUse" />
    <linearGradient
       id="linearGradient3935">
      <stop
         id="stop3937"
         offset="0"
         style="stop-color:#d3d3d3;stop-opacity:1" />
      <stop
         id="stop3939"
         offset="1"
         style="stop-color:#e6e6e6;stop-opacity:1" />
    </linearGradient>
    <linearGradient
       id="linearGradient4569">
      <stop
         id="stop4571"
         offset="0"
         style="stop-color:#ffffff;stop-opacity:1;" />
      <stop
         id="stop4573"
         offset="1"
         style="stop-color:#ffffff;stop-opacity:0.75539571;" />
    </linearGradient>
    <linearGradient
       id="linearGradient3816">
      <stop
         id="stop3818"
         offset="0"
         style="stop-color:#e5f5d9;stop-opacity:1;" />
      <stop
         id="stop3820"
         offset="1"
         style="stop-color:#ffffff;stop-opacity:1;" />
    </linearGradient>
    <linearGradient
       id="linearGradient3816-3">
      <stop
         style="stop-color:#e5f5d9;stop-opacity:1;"
         offset="0"
         id="stop3818-8" />
      <stop
         style="stop-color:#ffffff;stop-opacity:1;"
         offset="1"
         id="stop3820-2" />
    </linearGradient>
    <linearGradient
       id="linearGradient4508">
      <stop
         style="stop-color:#e5f5d9;stop-opacity:1;"
         offset="0"
         id="stop4510" />
      <stop
         style="stop-color:#ffffff;stop-opacity:1;"
         offset="1"
         id="stop4512" />
    </linearGradient>
    <linearGradient
       id="linearGradient6691">
      <stop
         id="stop6693"
         offset="0"
         style="stop-color:#68a0ed;stop-opacity:1;" />
      <stop
         id="stop6695"
         offset="1"
         style="stop-color:#2572cd;stop-opacity:0;" />
    </linearGradient>
    <linearGradient
       id="linearGradient6679">
      <stop
         id="stop6681"
         offset="0"
         style="stop-color:#000000;stop-opacity:1;" />
      <stop
         style="stop-color:#002251;stop-opacity:1;"
         offset="0.5"
         id="stop6703" />
      <stop
         id="stop6683"
         offset="1"
         style="stop-color:#0060e7;stop-opacity:1;" />
    </linearGradient>
    <linearGradient
       id="linearGradient6560">
      <stop
         style="stop-color:#171818;stop-opacity:1;"
         offset="0"
         id="stop6562" />
      <stop
         id="stop6566"
         offset="0.5"
         style="stop-color:#1d1d1d;stop-opacity:1;" />
      <stop
         style="stop-color:#181818;stop-opacity:1;"
         offset="1"
         id="stop6568" />
    </linearGradient>
    <linearGradient
       id="linearGradient4007-5">
      <stop
         style="stop-color:#313232;stop-opacity:1;"
         offset="0"
         id="stop4009-2" />
      <stop
         style="stop-color:#29292b;stop-opacity:1;"
         offset="1"
         id="stop4011-7" />
    </linearGradient>
    <linearGradient
       id="linearGradient5260">
      <stop
         style="stop-color:#313232;stop-opacity:1;"
         offset="0"
         id="stop5262" />
      <stop
         style="stop-color:#29292b;stop-opacity:1;"
         offset="1"
         id="stop5264" />
    </linearGradient>
    <linearGradient
       id="linearGradient5269">
      <stop
         style="stop-color:#313232;stop-opacity:1;"
         offset="0"
         id="stop5271" />
      <stop
         style="stop-color:#29292b;stop-opacity:1;"
         offset="1"
         id="stop5273" />
    </linearGradient>
    <linearGradient
       id="linearGradient4601">
      <stop
         id="stop4603"
         offset="0"
         style="stop-color:#171818;stop-opacity:1;" />
      <stop
         style="stop-color:#232424;stop-opacity:1;"
         offset="0.25"
         id="stop6558" />
      <stop
         style="stop-color:#303030;stop-opacity:1;"
         offset="0.5"
         id="stop4607" />
      <stop
         id="stop4605"
         offset="1"
         style="stop-color:#181818;stop-opacity:1;" />
    </linearGradient>
    <linearGradient
       id="linearGradient6228">
      <stop
         id="stop6230"
         offset="0"
         style="stop-color:#8a8a8a;stop-opacity:1;" />
      <stop
         style="stop-color:#e5e5e5;stop-opacity:1;"
         offset="0.5"
         id="stop6236" />
      <stop
         id="stop6232"
         offset="1"
         style="stop-color:#696969;stop-opacity:1;" />
    </linearGradient>
    <linearGradient
       id="linearGradient4015">
      <stop
         id="stop4017"
         offset="0"
         style="stop-color:#2e2e2e;stop-opacity:1;" />
      <stop
         id="stop4019"
         offset="1"
         style="stop-color:#111111;stop-opacity:1;" />
    </linearGradient>
    <linearGradient
       id="linearGradient5291">
      <stop
         id="stop5293"
         offset="0"
         style="stop-color:#8a8a8a;stop-opacity:1;" />
      <stop
         style="stop-color:#e5e5e5;stop-opacity:1;"
         offset="0.5"
         id="stop5295" />
      <stop
         id="stop5297"
         offset="1"
         style="stop-color:#696969;stop-opacity:1;" />
    </linearGradient>
    <linearGradient
       id="linearGradient5300">
      <stop
         id="stop5302"
         offset="0"
         style="stop-color:#8a8a8a;stop-opacity:1;" />
      <stop
         style="stop-color:#e5e5e5;stop-opacity:1;"
         offset="0.5"
         id="stop5304" />
      <stop
         id="stop5306"
         offset="1"
         style="stop-color:#696969;stop-opacity:1;" />
    </linearGradient>
    <linearGradient
       id="linearGradient5309">
      <stop
         id="stop5311"
         offset="0"
         style="stop-color:#8a8a8a;stop-opacity:1;" />
      <stop
         style="stop-color:#e5e5e5;stop-opacity:1;"
         offset="0.5"
         id="stop5313" />
      <stop
         id="stop5315"
         offset="1"
         style="stop-color:#696969;stop-opacity:1;" />
    </linearGradient>
    <linearGradient
       id="linearGradient5318">
      <stop
         id="stop5320"
         offset="0"
         style="stop-color:#8a8a8a;stop-opacity:1;" />
      <stop
         style="stop-color:#e5e5e5;stop-opacity:1;"
         offset="0.5"
         id="stop5322" />
      <stop
         id="stop5324"
         offset="1"
         style="stop-color:#696969;stop-opacity:1;" />
    </linearGradient>
    <linearGradient
       gradientTransform="matrix(1.0193681,0,0,1.019368,-441.5573,-224.91585)"
       inkscape:collect="always"
       xlink:href="#linearGradient945"
       id="linearGradient955"
       x1="200"
       y1="268"
       x2="200"
       y2="44"
       gradientUnits="userSpaceOnUse" />
    <linearGradient
       inkscape:collect="always"
       id="linearGradient945">
      <stop
         id="stop943"
         offset="0"
         style="stop-color:#e6e6e6;stop-opacity:1" />
      <stop
         id="stop941"
         offset="1"
         style="stop-color:#d3d3d3;stop-opacity:1;" />
    </linearGradient>
    <linearGradient
       gradientTransform="translate(-26.432006,-40.431995)"
       inkscape:collect="always"
       xlink:href="#linearGradient1033"
       id="linearGradient1035"
       x1="152"
       y1="100"
       x2="152"
       y2="212"
       gradientUnits="userSpaceOnUse" />
    <linearGradient
       inkscape:collect="always"
       id="linearGradient1033">
      <stop
         style="stop-color:#000000;stop-opacity:0"
         offset="0"
         id="stop1029" />
      <stop
         id="stop1037"
         offset="0.5"
         style="stop-color:#000000;stop-opacity:1" />
      <stop
         style="stop-color:#000000;stop-opacity:0;"
         offset="1"
         id="stop1031" />
    </linearGradient>
    <filter
       inkscape:collect="always"
       style="color-interpolation-filters:sRGB"
       id="filter1025"
       x="-0.024000023"
       width="1.048"
       y="-0.023999978"
       height="1.048">
      <feGaussianBlur
         inkscape:collect="always"
         stdDeviation="1.5000091"
         id="feGaussianBlur1027" />
    </filter>
    <linearGradient
       inkscape:collect="always"
       xlink:href="#linearGradient980"
       id="linearGradient982"
       x1="152"
       y1="124"
       x2="152"
       y2="236"
       gradientUnits="userSpaceOnUse" />
    <linearGradient
       inkscape:collect="always"
       id="linearGradient980">
      <stop
         style="stop-color:#000000;stop-opacity:1;"
         offset="0"
         id="stop976" />
      <stop
         style="stop-color:#000000;stop-opacity:0;"
         offset="1"
         id="stop978" />
    </linearGradient>
    <clipPath
       clipPathUnits="userSpaceOnUse"
       id="clipPath999-9">
      <path
         inkscape:connector-curvature="0"
         style="color:#000000;display:inline;overflow:visible;visibility:visible;opacity:1;fill:#5d5d5d;fill-opacity:1;fill-rule:nonzero;stroke:none;stroke-width:3.82599998;stroke-linecap:butt;stroke-linejoin:round;stroke-miterlimit:4;stroke-dasharray:none;stroke-dashoffset:0;stroke-opacity:1;marker:none;enable-background:accumulate"
         d="m 152,68 c -48.60106,0 -88,39.39894 -88,88 0,48.60106 39.39894,88 88,88 48.60106,0 88,-39.39894 88,-88 0,-48.60106 -39.39894,-88 -88,-88 z"
         id="path1001-4"
         sodipodi:nodetypes="sssss" />
    </clipPath>
    <filter
       inkscape:collect="always"
       style="color-interpolation-filters:sRGB"
       id="filter1003"
       x="-0.059999999"
       width="1.12"
       y="-0.059999999"
       height="1.12">
      <feGaussianBlur
         inkscape:collect="always"
         stdDeviation="4.4"
         id="feGaussianBlur1005" />
    </filter>
  </defs>
  <sodipodi:namedview
     id="base"
     pagecolor="#ffffff"
     bordercolor="#666666"
     borderopacity="1.0"
     inkscape:pageopacity="0.0"
     inkscape:pageshadow="2"
     inkscape:zoom="5.2375"
     inkscape:cx="-17.26381"
     inkscape:cy="25.581775"
     inkscape:current-layer="g3443"
     showgrid="true"
     inkscape:document-units="px"
     inkscape:grid-bbox="true"
     inkscape:window-width="1366"
     inkscape:window-height="703"
     inkscape:window-x="0"
     inkscape:window-y="0"
     inkscape:window-maximized="1"
     showguides="true"
     inkscape:guide-bbox="true"
     inkscape:showpageshadow="false">
    <inkscape:grid
       type="xygrid"
       id="grid3778"
       empspacing="5"
       visible="true"
       enabled="false"
       snapvisiblegridlinesonly="true" />
  </sodipodi:namedview>
  <metadata
     id="metadata3352">
    <rdf:RDF>
      <cc:Work
         rdf:about="">
        <dc:format>image/svg+xml</dc:format>
        <dc:type
           rdf:resource="http://purl.org/dc/dcmitype/StillImage" />
        <dc:title></dc:title>
      </cc:Work>
    </rdf:RDF>
  </metadata>
  <g
     id="layer1"
     inkscape:label="Layer 1"
     inkscape:groupmode="layer"
     transform="translate(0,-16)">
    <g
       id="g3443"
       inkscape:label="Layer 1"
       transform="translate(5.7957838,8.9269487)">
      <g
         id="g5541"
         transform="matrix(2.9464106,0,0,2.9464106,-23.963863,-75.735585)" />
      <g
         id="g4229"
         transform="matrix(0.625,0,0,0.625,1.8265812,16.652394)">
        <rect
           transform="matrix(0,1,-1,0,0,0)"
           style="fill:url(#linearGradient3961);fill-opacity:1;stroke:none"
           id="rect2383"
           width="64"
           height="64"
           x="-8.9269485"
           y="-58.204216"
           ry="15" />
        <g
           transform="matrix(0.27469194,0,0,0.27469194,104.9346,41.173745)"
           id="g4289">
          <ellipse
             ry="89.704376"
             rx="89.704384"
             style="color:#000000;display:inline;overflow:visible;visibility:visible;opacity:1;fill:#5d5d5d;fill-opacity:1;fill-rule:nonzero;stroke:none;stroke-width:1.03192544;stroke-linecap:butt;stroke-linejoin:miter;stroke-miterlimit:4;stroke-dasharray:3.09577632, 3.09577632;stroke-dashoffset:0;stroke-opacity:1;marker:none;enable-background:accumulate"
             id="path4238"
             cx="-286.61337"
             cy="65.894554"
             transform="scale(1,-1)" />
          <path
             style="color:#000000;display:inline;overflow:visible;visibility:visible;opacity:0.05;fill:#000000;fill-opacity:1;fill-rule:nonzero;stroke:none;stroke-width:1.03192544;stroke-linecap:butt;stroke-linejoin:miter;stroke-miterlimit:4;stroke-dasharray:3.09577632, 3.09577632;stroke-dashoffset:0;stroke-opacity:1;marker:none;enable-background:accumulate"
             d="m -376.31775,-65.894469 a 89.704384,89.70438 0 0 1 89.70438,-89.704431 89.704384,89.70438 0 0 1 89.70439,89.704431 z"
             id="circle1007"
             inkscape:connector-curvature="0" />
          <path
             transform="matrix(1.019368,0,0,1.0193679,-441.5573,-224.91588)"
             style="color:#000000;display:inline;overflow:visible;visibility:visible;opacity:0.2;fill:none;fill-opacity:1;fill-rule:nonzero;stroke:url(#linearGradient982);stroke-width:10;stroke-linecap:butt;stroke-linejoin:round;stroke-miterlimit:4;stroke-dasharray:none;stroke-dashoffset:0;stroke-opacity:1;marker:none;filter:url(#filter1003);enable-background:accumulate"
             d="m 152,70 c -48.60106,0 -88,39.39894 -88,88 0,48.60106 39.39894,88 88,88 48.60106,0 88,-39.39894 88,-88 0,-48.60106 -39.39894,-88 -88,-88 z"
             id="path962"
             clip-path="url(#clipPath999-9)"
             inkscape:connector-curvature="0"
             sodipodi:nodetypes="sssss" />
          <path
             inkscape:connector-curvature="0"
             style="color:#000000;display:inline;overflow:visible;visibility:visible;opacity:0.2;fill:#000000;fill-opacity:0.71428576;fill-rule:nonzero;stroke:none;stroke-width:16.07832336;stroke-linecap:butt;stroke-linejoin:miter;stroke-miterlimit:4;stroke-dasharray:none;stroke-dashoffset:0;stroke-opacity:1;marker:none;filter:url(#filter1025);enable-background:accumulate"
             d="m 125.56799,42.573864 c -5.39372,-0.05998 -7.28039,0.14029 -8.03906,6.66211 l -0.28906,2.304687 c -0.66573,4.22983 -0.793,6.145174 -4.79493,7.181644 -0.26817,0.0599 -0.53589,0.12007 -0.80273,0.18359 -0.0631,0.013 -0.11886,0.0282 -0.1836,0.041 l 0.008,0.002 c -1.01036,0.24375 -2.00991,0.51443 -3,0.80859 l 0.01,-0.0117 c -0.16537,0.0565 -0.31605,0.10151 -0.47265,0.15039 -0.14986,0.0458 -0.29985,0.0898 -0.44922,0.13672 -4.02147,1.12811 -5.08541,-0.46762 -7.787106,-3.810552 l -1.4043,-1.851563 c -1.95898,-2.634363 -3.36984,-3.758729 -4.87304,-3.880859 -0.18789,-0.01527 -0.37832,-0.01507 -0.57032,0 -1.3439,0.105454 -2.81717,0.930219 -4.84765,2.132813 -4.70108,2.644913 -6.23474,3.759697 -3.63086,9.787111 l 0.90039,2.14062 c 1.65637,4.30254 2.51833,5.96731 -1.30274,9.30469 l 0.10157,-0.0234 c -0.78976,0.74858 -1.55804,1.51883 -2.30665,2.3086 l 0.0215,-0.10157 c -3.33739,3.82107 -5.00215,2.95911 -9.304688,1.30274 l -2.140625,-0.90235 c -1.88356,-0.81371 -3.287448,-1.22275 -4.408203,-1.25781 -2.465666,-0.0772 -3.560523,1.65668 -5.378906,4.88867 -2.748796,4.6411 -3.520685,6.37502 1.748046,10.29297 l 1.851563,1.4043 c 3.342929,2.7017 4.938662,3.76564 3.810547,7.78711 -0.04698,0.14937 -0.09087,0.29936 -0.136719,0.449225 -0.04894,0.1566 -0.09193,0.30729 -0.148437,0.47265 l 0.0098,-0.01 c -0.294163,0.99009 -0.564847,1.98964 -0.808594,3 l -0.002,-0.008 c -0.01271,0.0647 -0.02795,0.12053 -0.04102,0.1836 -0.06352,0.26684 -0.123652,0.53456 -0.183594,0.80273 -1.036464,4.00194 -2.951806,4.1292 -7.181641,4.79493 l -2.304687,0.28906 c -6.52182,0.75868 -6.722082,2.64535 -6.66211,8.03906 -0.05998,5.39372 0.140285,7.2804 6.66211,8.03906 l 2.304687,0.28906 c 4.22983,0.66573 6.145182,0.793 7.181641,4.79493 0.05994,0.26818 0.120069,0.5359 0.183594,0.80273 0.01301,0.0631 0.02824,0.11886 0.04102,0.1836 l 0.002,-0.008 c 0.243747,1.01037 0.514431,2.00991 0.808594,3 l -0.01172,-0.01 c 0.0565,0.16537 0.101472,0.31605 0.150391,0.47265 0.04582,0.14985 0.08974,0.29986 0.136719,0.44922 1.12811,4.02147 -0.467618,5.08542 -3.810547,7.78711 l -1.851563,1.4043 c -5.268726,3.91794 -4.496841,5.6499 -1.748046,10.29101 2.644913,4.70108 3.759708,6.23474 9.787109,3.63086 l 2.140625,-0.90039 c 4.302524,-1.65637 5.967294,-2.51832 9.304684,1.30274 l -0.0234,-0.10157 c 0.74858,0.78976 1.51884,1.55807 2.3086,2.30665 l -0.10157,-0.0215 c 3.82107,3.3374 2.95911,5.00215 1.30274,9.30469 l -0.90235,2.14062 c -2.60388,6.0274 -1.07022,7.14414 3.63086,9.78907 4.6411,2.74879 6.37502,3.51873 10.29297,-1.75 l 1.4043,-1.85157 c 2.701686,-3.34294 3.765646,-4.93865 7.787106,-3.81054 0.14937,0.047 0.29936,0.0909 0.44922,0.13672 0.1566,0.0489 0.30728,0.0938 0.47265,0.15039 l -0.01,-0.0117 c 0.99009,0.29416 1.98964,0.56484 3,0.80859 l -0.008,0.002 c 0.0647,0.0128 0.12053,0.028 0.1836,0.041 0.26684,0.0635 0.53456,0.12365 0.80273,0.18359 4.00193,1.03647 4.12919,2.95182 4.79493,7.18164 l 0.28906,2.30469 c 0.75867,6.52182 2.64534,6.72209 8.03906,6.66211 5.39371,0.06 7.28039,-0.14029 8.03906,-6.66211 l 0.28906,-2.30469 c 0.66576,-4.22983 0.79299,-6.14518 4.79493,-7.18164 0.26817,-0.06 0.5359,-0.12007 0.80273,-0.18359 0.0631,-0.0131 0.11886,-0.0281 0.1836,-0.041 l -0.008,-0.002 c 1.01037,-0.24375 2.0099,-0.51443 3,-0.80859 l -0.01,0.0117 c 0.16536,-0.0565 0.31604,-0.10151 0.47265,-0.15039 0.14985,-0.0458 0.29986,-0.0897 0.44922,-0.13672 4.02147,-1.1281 5.08542,0.46761 7.78711,3.81054 l 1.4043,1.85157 c 3.91794,5.26872 5.6499,4.49685 10.29101,1.74804 4.70108,-2.64491 6.23475,-3.7597 3.63086,-9.78711 l -0.90039,-2.14062 c -1.65641,-4.30248 -2.51833,-5.96729 1.30274,-9.30469 l -0.10157,0.0234 c 0.78977,-0.74858 1.55807,-1.51884 2.30665,-2.3086 l -0.0215,0.10157 c 3.3374,-3.82106 5.00215,-2.95912 9.30469,-1.30274 l 2.14062,0.90235 c 6.0274,2.60387 7.14218,1.07022 9.78711,-3.63086 2.74879,-4.64111 3.5207,-6.37503 -1.74804,-10.29297 l -1.85157,-1.4043 c -3.34293,-2.70168 -4.93866,-3.76564 -3.81054,-7.78711 0.047,-0.14936 0.0908,-0.29937 0.13672,-0.44922 0.0489,-0.1566 0.092,-0.30728 0.14843,-0.47265 l -0.01,0.01 c 0.29416,-0.99009 0.56484,-1.98963 0.80859,-3 l 0.002,0.008 c 0.0128,-0.0647 0.028,-0.12052 0.041,-0.1836 0.0635,-0.26683 0.12365,-0.53455 0.18359,-0.80273 1.03647,-4.00193 2.9518,-4.12919 7.18164,-4.79493 l 2.30469,-0.28906 c 6.52182,-0.75867 6.72209,-2.64534 6.66211,-8.03906 0.06,-5.3937 -0.14028,-7.28038 -6.66211,-8.03906 l -2.30469,-0.28906 c -4.22984,-0.66574 -6.14517,-0.79299 -7.18164,-4.79493 -0.06,-0.26816 -0.12007,-0.53589 -0.18359,-0.80273 -0.0131,-0.0631 -0.0281,-0.11887 -0.041,-0.1836 l -0.002,0.008 c -0.24375,-1.01036 -0.51442,-2.0099 -0.80859,-3 l 0.0117,0.01 c -0.0565,-0.16536 -0.10151,-0.31604 -0.15039,-0.47265 -0.0458,-0.149865 -0.0897,-0.299855 -0.13672,-0.449225 -1.12811,-4.02147 0.46762,-5.08541 3.81054,-7.78711 l 1.85157,-1.4043 c 5.26873,-3.91794 4.49684,-5.6499 1.74804,-10.29101 -1.81838,-3.23199 -2.91322,-4.96776 -5.3789,-4.89063 -1.12074,0.0351 -2.52465,0.44605 -4.40821,1.25977 l -2.14062,0.90039 c -4.30247,1.6564 -5.9673,2.51834 -9.30469,-1.30274 l 0.0234,0.10157 c -0.74858,-0.78977 -1.51883,-1.55806 -2.3086,-2.30665 l 0.10157,0.0215 c -3.82106,-3.33739 -2.95912,-5.00215 -1.30274,-9.30469 l 0.90235,-2.14062 c 2.60387,-6.027406 1.07022,-7.142192 -3.63086,-9.787111 -2.32056,-1.374397 -3.91477,-2.254938 -5.41797,-2.132813 -1.5032,0.12213 -2.91603,1.246496 -4.875,3.880859 l -1.4043,1.851563 c -2.70169,3.342932 -3.76564,4.938652 -7.78711,3.810552 -0.14936,-0.047 -0.29937,-0.0909 -0.44922,-0.13672 -0.15661,-0.0489 -0.30729,-0.0919 -0.47265,-0.14844 l 0.01,0.01 c -0.9901,-0.29416 -1.98963,-0.56485 -3,-0.80859 l 0.008,-0.002 c -0.0647,-0.0127 -0.12052,-0.028 -0.1836,-0.041 -0.26683,-0.0635 -0.53456,-0.12366 -0.80273,-0.1836 -4.00194,-1.03647 -4.12918,-2.95181 -4.79493,-7.18164 l -0.28906,-2.304687 c -0.75844,-6.522064 -2.64512,-6.722331 -8.03883,-6.662354 z m -0.0117,30.994141 c 0.004,-1e-5 0.008,-1e-5 0.0117,0 5.06531,3e-4 9.96082,0.87493 14.53516,2.48047 a 12,12 0 0 0 5.46484,6.87891 12,12 0 0 0 8.66992,1.29101 c 7.20335,6.1907 12.42982,14.70372 14.43946,24.548835 0.50642,2.48002 -1.38873,4.80104 -3.91993,4.80078 l -12.3789,0 c -1.76926,1.5e-4 -3.32848,-1.16191 -3.83399,-2.85742 -3.03409,-10.17667 -12.3486,-17.126135 -22.96679,-17.140635 -1.86552,0.0101 -3.72427,0.23539 -5.53711,0.67578 -1.72527,0.41898 -3.52028,-0.34928 -4.40821,-1.88671 l -6.17968,-10.70118 c -1.26291,-2.1886 -0.20551,-4.98537 2.18945,-5.79101 4.48467,-1.50955 9.18217,-2.28583 13.91406,-2.29883 z m -26.306636,10.0957 c 1.361096,0.0638 2.596136,0.816 3.277336,1.9961 l 6.17969,10.70117 c 0.88545,1.53347 0.65743,3.4666 -0.56055,4.751955 -4.21283,4.44663 -6.56562,10.3318 -6.57812,16.45703 0.007,6.12872 2.3554,12.01941 6.56836,16.47071 1.21703,1.28501 1.44502,3.21699 0.56055,4.75 l -6.16211,10.67578 c -1.26486,2.19101 -4.220436,2.67243 -6.115236,0.99609 -7.35823,-6.50704 -12.25407,-15.23839 -14.0625,-24.74023 a 12,12 0 0 0 3.21094,-8.1543 12,12 0 0 0 -3.21289,-8.15039 c 1.80449,-9.506155 6.6973,-18.242465 14.05664,-24.753915 0.77978,-0.68994 1.79784,-1.0487 2.83789,-1 z m 53.138646,37.904305 12.32813,0 c 2.53119,-2.4e-4 4.42635,2.32077 3.91992,4.80078 -2.00843,9.83928 -7.23024,18.34896 -14.42774,24.53906 a 12,12 0 0 0 -2.92382,-0.30273 12,12 0 0 0 -5.7168,1.60351 12,12 0 0 0 -5.45312,6.86133 c -4.57562,1.61246 -9.47418,2.49256 -14.54297,2.49805 -0.006,2e-5 -0.0125,2e-5 -0.0195,0 -4.72985,-0.0188 -9.42516,-0.80071 -13.90626,-2.31445 -2.39212,-0.80764 -3.44709,-3.60206 -2.18554,-5.78907 l 6.16992,-10.6875 c 0.88793,-1.53742 2.68293,-2.30568 4.4082,-1.88671 1.81402,0.44068 3.67428,0.66578 5.54102,0.67578 10.62131,-0.0108 19.93962,-6.96097 22.97461,-17.14063 0.50551,-1.6955 2.06472,-2.85757 3.83398,-2.85742 z"
             id="path1039"
             transform="matrix(1.019368,0,0,1.0193679,-414.61336,-183.70082)" />
          <path
             id="path1021"
             d="m 125.56799,44.573864 c -5.39372,-0.05998 -7.28039,0.14029 -8.03906,6.66211 l -0.28906,2.304687 c -0.66573,4.22983 -0.793,6.145174 -4.79493,7.181644 -0.26817,0.0599 -0.53589,0.12007 -0.80273,0.18359 -0.0631,0.013 -0.11886,0.0282 -0.1836,0.041 l 0.008,0.002 c -1.01036,0.24375 -2.00991,0.51443 -3,0.80859 l 0.01,-0.0117 c -0.16537,0.0565 -0.31605,0.10151 -0.47265,0.15039 -0.14986,0.0458 -0.29985,0.0898 -0.44922,0.13672 -4.02147,1.12811 -5.08541,-0.46762 -7.787106,-3.810552 l -1.4043,-1.851563 c -1.95898,-2.634363 -3.36984,-3.758729 -4.87304,-3.880859 -0.18789,-0.01527 -0.37832,-0.01507 -0.57032,0 -1.3439,0.105454 -2.81717,0.930219 -4.84765,2.132813 -4.70108,2.644913 -6.23474,3.759697 -3.63086,9.787111 l 0.90039,2.14062 c 1.65637,4.30254 2.51833,5.96731 -1.30274,9.30469 l 0.10157,-0.0234 c -0.78976,0.74858 -1.55804,1.51883 -2.30665,2.3086 l 0.0215,-0.10157 c -3.33739,3.82107 -5.00215,2.95911 -9.304688,1.30274 l -2.140625,-0.90235 c -1.88356,-0.81371 -3.287448,-1.22275 -4.408203,-1.25781 -2.465666,-0.0772 -3.560523,1.65668 -5.378906,4.88867 -2.748796,4.6411 -3.520685,6.37502 1.748046,10.29297 l 1.851563,1.4043 c 3.342929,2.7017 4.938662,3.76564 3.810547,7.787115 -0.04698,0.14937 -0.09087,0.29936 -0.136719,0.44922 -0.04894,0.1566 -0.09193,0.30729 -0.148437,0.47265 l 0.0098,-0.01 c -0.294163,0.99009 -0.564847,1.98964 -0.808594,3 l -0.002,-0.008 c -0.01271,0.0647 -0.02795,0.12053 -0.04102,0.1836 -0.06352,0.26684 -0.123652,0.53456 -0.183594,0.80273 -1.036464,4.00194 -2.951806,4.1292 -7.181641,4.79493 l -2.304687,0.28906 c -6.52182,0.75868 -6.722082,2.64535 -6.66211,8.03906 -0.05998,5.39372 0.140285,7.2804 6.66211,8.03906 l 2.304687,0.28906 c 4.22983,0.66573 6.145182,0.793 7.181641,4.79493 0.05994,0.26818 0.120069,0.5359 0.183594,0.80273 0.01301,0.0631 0.02824,0.11886 0.04102,0.1836 l 0.002,-0.008 c 0.243747,1.01037 0.514431,2.00991 0.808594,3 l -0.01172,-0.01 c 0.0565,0.16537 0.101472,0.31605 0.150391,0.47265 0.04582,0.14985 0.08974,0.29986 0.136719,0.44922 1.12811,4.02147 -0.467618,5.08542 -3.810547,7.78711 l -1.851563,1.4043 c -5.268726,3.91794 -4.496841,5.6499 -1.748046,10.29101 2.644913,4.70108 3.759708,6.23474 9.787109,3.63086 l 2.140625,-0.90039 c 4.302524,-1.65637 5.967294,-2.51832 9.304684,1.30274 l -0.0234,-0.10157 c 0.74858,0.78976 1.51884,1.55807 2.3086,2.30665 l -0.10157,-0.0215 c 3.82107,3.3374 2.95911,5.00215 1.30274,9.30469 l -0.90235,2.14062 c -2.60388,6.0274 -1.07022,7.14414 3.63086,9.78907 4.6411,2.74879 6.37502,3.51873 10.29297,-1.75 l 1.4043,-1.85157 c 2.701686,-3.34294 3.765646,-4.93865 7.787106,-3.81054 0.14937,0.047 0.29936,0.0909 0.44922,0.13672 0.1566,0.0489 0.30728,0.0938 0.47265,0.15039 l -0.01,-0.0117 c 0.99009,0.29416 1.98964,0.56484 3,0.80859 l -0.008,0.002 c 0.0647,0.0128 0.12053,0.028 0.1836,0.041 0.26684,0.0635 0.53456,0.12365 0.80273,0.18359 4.00193,1.03647 4.12919,2.95182 4.79493,7.18164 l 0.28906,2.30469 c 0.75867,6.52182 2.64534,6.72209 8.03906,6.66211 5.39371,0.06 7.28039,-0.14029 8.03906,-6.66211 l 0.28906,-2.30469 c 0.66576,-4.22983 0.79299,-6.14518 4.79493,-7.18164 0.26817,-0.06 0.5359,-0.12007 0.80273,-0.18359 0.0631,-0.0131 0.11886,-0.0281 0.1836,-0.041 l -0.008,-0.002 c 1.01037,-0.24375 2.0099,-0.51443 3,-0.80859 l -0.01,0.0117 c 0.16536,-0.0565 0.31604,-0.10151 0.47265,-0.15039 0.14985,-0.0458 0.29986,-0.0897 0.44922,-0.13672 4.02147,-1.1281 5.08542,0.46761 7.78711,3.81054 l 1.4043,1.85157 c 3.91794,5.26872 5.6499,4.49685 10.29101,1.74804 4.70108,-2.64491 6.23475,-3.7597 3.63086,-9.78711 l -0.90039,-2.14062 c -1.65641,-4.30248 -2.51833,-5.96729 1.30274,-9.30469 l -0.10157,0.0234 c 0.78977,-0.74858 1.55807,-1.51884 2.30665,-2.3086 l -0.0215,0.10157 c 3.3374,-3.82106 5.00215,-2.95912 9.30469,-1.30274 l 2.14062,0.90235 c 6.0274,2.60387 7.14218,1.07022 9.78711,-3.63086 2.74879,-4.64111 3.5207,-6.37503 -1.74804,-10.29297 l -1.85157,-1.4043 c -3.34293,-2.70168 -4.93866,-3.76564 -3.81054,-7.78711 0.047,-0.14936 0.0908,-0.29937 0.13672,-0.44922 0.0489,-0.1566 0.092,-0.30728 0.14843,-0.47265 l -0.01,0.01 c 0.29416,-0.99009 0.56484,-1.98963 0.80859,-3 l 0.002,0.008 c 0.0128,-0.0647 0.028,-0.12052 0.041,-0.1836 0.0635,-0.26683 0.12365,-0.53455 0.18359,-0.80273 1.03647,-4.00193 2.9518,-4.12919 7.18164,-4.79493 l 2.30469,-0.28906 c 6.52182,-0.75867 6.72209,-2.64534 6.66211,-8.03906 0.06,-5.3937 -0.14028,-7.28038 -6.66211,-8.03906 l -2.30469,-0.28906 c -4.22984,-0.66574 -6.14517,-0.79299 -7.18164,-4.79493 -0.06,-0.26816 -0.12007,-0.53589 -0.18359,-0.80273 -0.0131,-0.0631 -0.0281,-0.11887 -0.041,-0.1836 l -0.002,0.008 c -0.24375,-1.01036 -0.51442,-2.0099 -0.80859,-3 l 0.0117,0.01 c -0.0565,-0.16536 -0.10151,-0.31604 -0.15039,-0.47265 -0.0458,-0.14986 -0.0897,-0.29985 -0.13672,-0.44922 -1.12811,-4.021475 0.46762,-5.085415 3.81054,-7.787115 l 1.85157,-1.4043 c 5.26873,-3.91794 4.49684,-5.6499 1.74804,-10.29101 -1.81838,-3.23199 -2.91322,-4.96776 -5.3789,-4.89063 -1.12074,0.0351 -2.52465,0.44605 -4.40821,1.25977 l -2.14062,0.90039 c -4.30247,1.6564 -5.9673,2.51834 -9.30469,-1.30274 l 0.0234,0.10157 c -0.74858,-0.78977 -1.51883,-1.55806 -2.3086,-2.30665 l 0.10157,0.0215 c -3.82106,-3.33739 -2.95912,-5.00215 -1.30274,-9.30469 l 0.90235,-2.14062 c 2.60387,-6.027406 1.07022,-7.142192 -3.63086,-9.787111 -2.32056,-1.374397 -3.91477,-2.254938 -5.41797,-2.132813 -1.5032,0.12213 -2.91603,1.246496 -4.875,3.880859 l -1.4043,1.851563 c -2.70169,3.342932 -3.76564,4.938652 -7.78711,3.810552 -0.14936,-0.047 -0.29937,-0.0909 -0.44922,-0.13672 -0.15661,-0.0489 -0.30729,-0.0919 -0.47265,-0.14844 l 0.01,0.01 c -0.9901,-0.29416 -1.98963,-0.56485 -3,-0.80859 l 0.008,-0.002 c -0.0647,-0.0127 -0.12052,-0.028 -0.1836,-0.041 -0.26683,-0.0635 -0.53456,-0.12366 -0.80273,-0.1836 -4.00194,-1.03647 -4.12918,-2.95181 -4.79493,-7.18164 l -0.28906,-2.304687 c -0.75844,-6.522064 -2.64512,-6.722331 -8.03883,-6.662354 z m -0.0117,30.994141 c 0.004,-1e-5 0.008,-1e-5 0.0117,0 5.06531,3e-4 9.96082,0.87493 14.53516,2.48047 a 12,12 0 0 0 5.46484,6.87891 12,12 0 0 0 8.66992,1.29101 c 7.20335,6.1907 12.42982,14.703725 14.43946,24.548835 0.50642,2.48002 -1.38873,4.80104 -3.91993,4.80078 l -12.3789,0 c -1.76926,1.5e-4 -3.32848,-1.16191 -3.83399,-2.85742 -3.03409,-10.17667 -12.3486,-17.126135 -22.96679,-17.140635 -1.86552,0.0101 -3.72427,0.23539 -5.53711,0.67578 -1.72527,0.41898 -3.52028,-0.34928 -4.40821,-1.88671 l -6.17968,-10.70118 c -1.26291,-2.1886 -0.20551,-4.98537 2.18945,-5.79101 4.48467,-1.50955 9.18217,-2.28583 13.91406,-2.29883 z m -26.306636,10.0957 c 1.361096,0.0638 2.596136,0.816 3.277336,1.9961 l 6.17969,10.70117 c 0.88545,1.53347 0.65743,3.466605 -0.56055,4.751955 -4.21283,4.44663 -6.56562,10.3318 -6.57812,16.45703 0.007,6.12872 2.3554,12.01941 6.56836,16.47071 1.21703,1.28501 1.44502,3.21699 0.56055,4.75 l -6.16211,10.67578 c -1.26486,2.19101 -4.220436,2.67243 -6.115236,0.99609 -7.35823,-6.50704 -12.25407,-15.23839 -14.0625,-24.74023 a 12,12 0 0 0 3.21094,-8.1543 12,12 0 0 0 -3.21289,-8.15039 c 1.80449,-9.50615 6.6973,-18.242465 14.05664,-24.753915 0.77978,-0.68994 1.79784,-1.0487 2.83789,-1 z m 53.138646,37.904305 12.32813,0 c 2.53119,-2.4e-4 4.42635,2.32077 3.91992,4.80078 -2.00843,9.83928 -7.23024,18.34896 -14.42774,24.53906 a 12,12 0 0 0 -2.92382,-0.30273 12,12 0 0 0 -5.7168,1.60351 12,12 0 0 0 -5.45312,6.86133 c -4.57562,1.61246 -9.47418,2.49256 -14.54297,2.49805 -0.006,2e-5 -0.0125,2e-5 -0.0195,0 -4.72985,-0.0188 -9.42516,-0.80071 -13.90626,-2.31445 -2.39212,-0.80764 -3.44709,-3.60206 -2.18554,-5.78907 l 6.16992,-10.6875 c 0.88793,-1.53742 2.68293,-2.30568 4.4082,-1.88671 1.81402,0.44068 3.67428,0.66578 5.54102,0.67578 10.62131,-0.0108 19.93962,-6.96097 22.97461,-17.14063 0.50551,-1.6955 2.06472,-2.85757 3.83398,-2.85742 z"
             style="color:#000000;display:inline;overflow:visible;visibility:visible;opacity:0.2;fill:url(#linearGradient1035);fill-opacity:1;fill-rule:nonzero;stroke:none;stroke-width:16.07832336;stroke-linecap:butt;stroke-linejoin:miter;stroke-miterlimit:4;stroke-dasharray:none;stroke-dashoffset:0;stroke-opacity:1;marker:none;filter:url(#filter1025);enable-background:accumulate"
             inkscape:connector-curvature="0"
             transform="matrix(1.019368,0,0,1.0193679,-414.61336,-183.70082)" />
          <path
             inkscape:connector-curvature="0"
             style="color:#000000;display:inline;overflow:visible;visibility:visible;opacity:1;fill:url(#linearGradient955);fill-opacity:1;fill-rule:nonzero;stroke:none;stroke-width:4.33644915;stroke-linecap:butt;stroke-linejoin:miter;stroke-miterlimit:4;stroke-dasharray:none;stroke-dashoffset:0;stroke-opacity:1;marker:none;enable-background:accumulate"
             d="m -286.61337,-142.34111 c -5.49818,-0.0612 -7.42139,0.14286 -8.19476,6.79113 l -0.29465,2.34931 c -0.67862,4.3118 -0.80836,6.26419 -4.8878,7.3208 -0.27334,0.0612 -0.54627,0.12245 -0.81828,0.18708 -0.0643,0.0113 -0.12117,0.0265 -0.18716,0.0416 l 0.008,0.002 c -1.02992,0.2487 -2.04883,0.52438 -3.0581,0.82424 l 0.01,-0.0113 c -0.16857,0.0575 -0.32217,0.10356 -0.4818,0.15345 -0.15277,0.0465 -0.30569,0.0918 -0.45792,0.13947 -4.09936,1.14996 -5.18391,-0.47664 -7.93793,-3.88434 l -1.4315,-1.88742 c -1.99692,-2.68539 -3.43511,-3.83153 -4.96742,-3.95603 -0.19151,-0.0151 -0.38565,-0.0151 -0.58136,0 -1.36994,0.10734 -2.87174,0.94825 -4.94155,2.1741 -4.79212,2.69613 -6.35549,3.83255 -3.70118,9.97667 l 0.91783,2.18207 c 1.68845,4.38588 2.5671,6.08288 -1.32797,9.48495 l 0.10352,-0.0227 c -0.80506,0.76309 -1.58822,1.54821 -2.35133,2.35328 l 0.0219,-0.10356 c -3.40203,3.89507 -5.09903,3.01641 -9.4849,1.32794 l -2.18208,-0.91978 c -1.92005,-0.8295 -3.35113,-1.24645 -4.49359,-1.28221 -2.51342,-0.0786 -3.62948,1.68877 -5.48308,4.98338 -2.80204,4.730988 -3.58887,6.498484 1.7819,10.49231 l 1.88743,1.431534 c 3.40767,2.75399 5.03431,3.838563 3.88435,7.937914 -0.0479,0.152315 -0.0926,0.305008 -0.13936,0.457928 -0.0499,0.159496 -0.0937,0.313323 -0.15129,0.481814 l 0.01,-0.01134 c -0.29987,1.009247 -0.57578,2.028208 -0.82425,3.058091 l -0.002,-0.0076 c -0.0132,0.06576 -0.0283,0.122835 -0.0418,0.187465 -0.0647,0.272126 -0.12605,0.544894 -0.18716,0.818267 -1.05654,4.079471 -3.00897,4.209184 -7.32073,4.887798 l -2.34933,0.294804 c -6.64813,0.773366 -6.85227,2.696617 -6.79114,8.19477 -0.0611,5.498192 0.14302,7.421404 6.79114,8.194733 l 2.34933,0.294804 c 4.31175,0.678614 6.2642,0.808365 7.32073,4.887797 0.0611,0.27364 0.12242,0.54626 0.18716,0.81827 0.0132,0.0643 0.0287,0.12094 0.0418,0.18708 l 0.002,-0.008 c 0.24847,1.02995 0.52439,2.04884 0.82425,3.05812 l -0.0121,-0.0113 c 0.0576,0.16818 0.10345,0.32201 0.1533,0.48177 0.0467,0.1527 0.0915,0.30539 0.13935,0.45793 1.14996,4.09935 -0.47667,5.18392 -3.88435,7.93795 l -1.88671,1.42987 c -5.37076,3.99383 -4.58393,5.75936 -1.7819,10.49034 2.69614,4.79214 3.83253,6.35551 9.97667,3.70122 l 2.18209,-0.91786 c 4.38585,-1.68846 6.08286,-2.56709 9.48489,1.32798 l -0.0238,-0.10356 c 0.76308,0.80504 1.54826,1.58823 2.35331,2.35132 l -0.10352,-0.0227 c 3.89508,3.40203 3.01642,5.09904 1.32797,9.48491 l -0.91982,2.18207 c -2.65432,6.14416 -1.09096,7.28251 3.70118,9.97867001 4.73098,2.80202999 6.49849,3.58688999 10.49232,-1.78389001 l 1.4315,-1.88742 c 2.75401,-3.4077 3.83858,-5.03433 7.93793,-3.88438 0.15228,0.0476 0.30516,0.0926 0.45792,0.13947 0.15961,0.0495 0.31321,0.0956 0.4818,0.15345 l -0.01,-0.0113 c 1.00927,0.29972 2.02817,0.57577 3.0581,0.82424 l -0.008,0.002 c 0.0659,0.0113 0.12288,0.0265 0.18717,0.042 0.27201,0.0646 0.54491,0.12586 0.81827,0.18709 4.07945,1.05657 4.20917,3.00903 4.8878,7.32075 l 0.29465,2.34932 c 0.77337,6.64815 2.69658,6.85228 8.19476,6.79113 5.49818,0.0612 7.4214,-0.14287 8.19476,-6.79113 l 0.29466,-2.34932 c 0.67865,-4.31176 0.80834,-6.26422 4.88779,-7.32075 0.27334,-0.0612 0.54628,-0.12246 0.81828,-0.18709 0.0643,-0.0113 0.12117,-0.0265 0.18716,-0.042 l -0.008,-0.002 c 1.02994,-0.24832 2.04883,-0.52441 3.05811,-0.82424 l -0.0102,0.0113 c 0.16857,-0.0575 0.32217,-0.10356 0.48181,-0.15345 0.15276,-0.0465 0.30568,-0.0915 0.45792,-0.13947 4.09935,-1.14992 5.18391,0.47668 7.93793,3.88438 l 1.43149,1.88742 c 3.99383,5.37078 5.75934,4.58392 10.49033,1.78189001 4.79213,-2.69612001 6.35551,-3.83251001 3.70118,-9.97667001 l -0.91782,-2.18207 c -1.6885,-4.38584 -2.56711,-6.08288 1.32797,-9.48491 l -0.10352,0.0227 c 0.80506,-0.76309 1.58824,-1.54829 2.35132,-2.35333 l -0.0219,0.10356 c 3.40204,-3.89506 5.09904,-3.01647 9.48491,-1.32797 l 2.18208,0.91982 c 6.14414,2.65429 7.2805,1.09093 9.97666,-3.70118 2.80203,-4.73098 3.58889,-6.49851 -1.7819,-10.49234 l -1.88742,-1.4315 c -3.40768,-2.75402 -5.03431,-3.83856 -3.88435,-7.93795 0.0479,-0.15231 0.0925,-0.30501 0.13935,-0.45789 0.0498,-0.15949 0.0938,-0.31332 0.1513,-0.48181 l -0.0102,0.0113 c 0.29987,-1.00929 0.57578,-2.02817 0.82426,-3.05813 l 0.002,0.008 c 0.0132,-0.0658 0.0284,-0.12284 0.0418,-0.18709 0.0647,-0.27213 0.12604,-0.54489 0.18716,-0.81827 1.05654,-4.07943 3.00897,-4.209182 7.32073,-4.887796 l 2.34933,-0.294803 c 6.64813,-0.773329 6.85228,-2.696541 6.79114,-8.194733 0.0612,-5.498154 -0.14302,-7.421404 -6.79114,-8.194771 l -2.34933,-0.294803 c -4.31176,-0.678652 -6.26419,-0.808327 -7.32073,-4.887798 -0.0612,-0.27326 -0.12238,-0.546293 -0.18716,-0.818305 -0.0136,-0.06425 -0.0283,-0.121323 -0.0418,-0.187087 l -0.002,0.0076 c -0.24847,-1.029959 -0.52439,-2.048844 -0.82426,-3.058091 l 0.0121,0.01134 c -0.0576,-0.168567 -0.10349,-0.322016 -0.1533,-0.481777 -0.0467,-0.152693 -0.0914,-0.305385 -0.13935,-0.457965 -1.14996,-4.099313 0.47668,-5.183886 3.88434,-7.937914 l 1.88743,-1.431496 c 5.37078,-3.993827 4.58394,-5.759319 1.7819,-10.4903 -1.8536,-3.29462 -2.96965,-5.064 -5.48308,-4.98539 -1.14245,0.034 -2.57355,0.45472 -4.49359,1.28417 l -2.18208,0.91782 c -4.3858,1.6885 -6.08287,2.56713 -9.4849,-1.32794 l 0.0238,0.10356 c -0.76308,-0.80507 -1.54825,-1.58819 -2.35331,-2.35132 l 0.10352,0.0227 c -3.89507,-3.40206 -3.01643,-5.09907 -1.32797,-9.48495 l 0.91989,-2.182 c 2.6543,-6.14412 1.09094,-7.28051 -3.70119,-9.97667 -2.3655,-1.40099 -3.99059,-2.29859 -5.5229,-2.1741 -1.53232,0.12435 -2.97251,1.27064 -4.96942,3.95603 l -1.4315,1.88742 c -2.75402,3.40766 -3.83857,5.0343 -7.93793,3.88434 -0.15224,-0.048 -0.30516,-0.0926 -0.45792,-0.13947 -0.15965,-0.0495 -0.31321,-0.0937 -0.48181,-0.15156 l 0.0102,0.0113 c -1.00928,-0.29971 -2.02817,-0.57581 -3.05811,-0.82423 l 0.008,-0.002 c -0.066,-0.0113 -0.12287,-0.0265 -0.18716,-0.0416 -0.27201,-0.0646 -0.54492,-0.12586 -0.81828,-0.18709 -4.07945,-1.05653 -4.20916,-3.00896 -4.8878,-7.32072 l -0.29465,-2.34931 c -0.77314,-6.64816 -2.69636,-6.85229 -8.19453,-6.79117 z m -0.0121,31.59443 c 0.004,0 0.008,0 0.0121,0 5.16342,3e-4 10.15374,0.89189 14.81669,2.5285 a 12.232416,12.232416 0 0 0 5.57068,7.01216 12.232416,12.232416 0 0 0 8.83784,1.316027 c 7.34286,6.310563 12.67056,14.988509 14.71912,25.024287 0.51623,2.528051 -1.41563,4.893997 -3.99585,4.89377 l -12.61866,0 c -1.80352,1.51e-4 -3.39294,-1.184428 -3.90825,-2.912768 -3.09285,-10.373782 -12.58776,-17.457825 -23.41161,-17.472641 -1.90165,0.01134 -3.7964,0.24 -5.64435,0.688857 -1.75868,0.427124 -3.58846,-0.356032 -4.49359,-1.923213 l -6.29937,-10.908429 c -1.28737,-2.23102 -0.20946,-5.08196 2.23186,-5.90321 4.57153,-1.53876 9.36001,-2.33008 14.18355,-2.34334 z m -26.81615,10.29127 c 1.38746,0.065 2.64642,0.831798 3.34082,2.034746 l 6.29937,10.908396 c 0.9026,1.563175 0.67016,3.533782 -0.5714,4.843993 -4.29443,4.532749 -6.69279,10.531917 -6.70553,16.77581 0.007,6.247369 2.40102,12.252165 6.69558,16.789675 1.2406,1.30991 1.47301,3.279309 0.5714,4.841989 l -6.28145,10.88255 c -1.28936,2.23347 -4.30218,2.72424 -6.23368,1.01537 -7.50074,-6.63303 -12.49141,-15.533479 -14.33486,-25.219387 a 12.232416,12.232416 0 0 0 3.27312,-8.312201 12.232416,12.232416 0 0 0 -3.27511,-8.30827 c 1.83944,-9.690254 6.82701,-18.595765 14.32889,-25.233333 0.79488,-0.703298 1.83266,-1.068998 2.89285,-1.019338 z m 54.16784,38.638409 12.56705,0 c 2.58022,-2.65e-4 4.51209,2.365719 3.99585,4.893769 -2.04733,10.029842 -7.37028,18.704351 -14.70718,25.014351 a 12.232416,12.232416 0 0 0 -2.98045,-0.30879 12.232416,12.232416 0 0 0 -5.82752,1.63453 12.232416,12.232416 0 0 0 -5.55874,6.9942 c -4.66424,1.64372 -9.65768,2.54087 -14.82464,2.54646 -0.006,0 -0.0129,0 -0.02,0 -4.82146,-0.0189 -9.60771,-0.81623 -14.1756,-2.35929 -2.43845,-0.82326 -3.51385,-3.67178 -2.22787,-5.90117 l 6.28942,-10.89449 c 0.90513,-1.56721 2.73489,-2.35033 4.49358,-1.92328 1.84915,0.44923 3.74544,0.67869 5.64834,0.68889 10.82703,-0.0113 20.32581,-7.095799 23.41958,-17.472601 0.5153,-1.72834 2.10471,-2.912919 3.90824,-2.912768 z"
             id="path4356" />
          <path
             inkscape:connector-curvature="0"
             style="color:#000000;display:inline;overflow:visible;visibility:visible;opacity:0.1;fill:#000000;fill-opacity:1;fill-rule:nonzero;stroke:none;stroke-width:1.06168401;stroke-linecap:butt;stroke-linejoin:miter;stroke-miterlimit:4;stroke-dasharray:3.18505209, 3.18505209;stroke-dashoffset:0;stroke-opacity:1;marker:none;enable-background:accumulate"
             d="m -286.61337,-118.90162 c -25.08567,0 -46.10047,17.4539 -51.59355,40.870258 a 12.232416,12.232416 0 0 1 7.54372,3.828623 c 1.83944,-9.690254 6.82701,-18.595765 14.32889,-25.233333 0.79488,-0.703298 1.83266,-1.068998 2.89285,-1.019338 1.38746,0.065 2.64642,0.831798 3.34082,2.034746 l 6.29937,10.908396 c 0.9026,1.563175 0.67017,3.533782 -0.57141,4.843993 -4.29442,4.532749 -6.69277,10.531917 -6.70552,16.77581 0.007,6.247369 2.40102,12.252165 6.69558,16.789675 1.2406,1.30991 1.473,3.279309 0.5714,4.841989 l -6.28145,10.88255 c -1.28936,2.23347 -4.30218,2.72424 -6.23368,1.01537 -7.50074,-6.63303 -12.49141,-15.533479 -14.33486,-25.219387 a 12.232416,12.232416 0 0 1 -7.54372,3.828628 c 5.49461,23.414279 26.50739,40.866279 51.59156,40.866279 5.31663,0 10.44756,-0.79154 15.29053,-2.24976 a 12.232416,12.232416 0 0 1 -0.4619,-8.45163 c -4.66424,1.64372 -9.65768,2.54087 -14.82464,2.54646 -0.006,0 -0.0129,0 -0.02,0 -4.82146,-0.0189 -9.60771,-0.81623 -14.1756,-2.35929 -2.43845,-0.82326 -3.51385,-3.67178 -2.22787,-5.90117 l 6.28942,-10.89449 c 0.90513,-1.56722 2.73489,-2.35033 4.49358,-1.92328 1.84915,0.44923 3.74544,0.67869 5.64834,0.68889 10.82703,-0.0113 20.32581,-7.095799 23.41958,-17.472602 0.5153,-1.72834 2.10471,-2.912919 3.90824,-2.912768 l 12.5669,0 c 2.58022,-2.65e-4 4.51208,2.365719 3.99584,4.893769 -2.04733,10.029842 -7.37027,18.704351 -14.70718,25.014351 a 12.232416,12.232416 0 0 1 7.10771,4.61102 c 10.27585,-9.66932 16.70407,-23.381709 16.70407,-38.596608 0,-15.217964 -6.4306,-28.932998 -16.71007,-38.602611 a 12.232416,12.232416 0 0 1 -7.07187,4.607087 c 7.34287,6.310563 12.67055,14.988509 14.71912,25.024287 0.51623,2.528051 -1.41562,4.893997 -3.99584,4.89377 l -12.61866,0 c -1.80353,1.51e-4 -3.39295,-1.184428 -3.90825,-2.912768 -3.09285,-10.373782 -12.58776,-17.457825 -23.41161,-17.472641 -1.90165,0.01134 -3.7964,0.24 -5.64436,0.688857 -1.75868,0.427124 -3.58845,-0.356032 -4.49358,-1.923213 l -6.29937,-10.908429 c -1.28737,-2.23102 -0.20946,-5.08196 2.23185,-5.90321 4.57153,-1.53876 9.36001,-2.33008 14.18355,-2.34334 0.004,0 0.008,0 0.0121,0 5.16342,3e-4 10.15375,0.89189 14.81668,2.5285 a 12.232416,12.232416 0 0 1 0.46787,-8.43564 c -4.84118,-1.45708 -9.97009,-2.2478 -15.28453,-2.2478 z m 0,36.697244 a 16.309888,16.309887 0 0 1 16.3099,16.309907 16.309888,16.309887 0 0 1 -16.3099,16.309869 16.309888,16.309887 0 0 1 -16.30989,-16.309869 16.309888,16.309887 0 0 1 16.30989,-16.309907 z"
             id="path4451" />
          <path
             inkscape:connector-curvature="0"
             style="display:inline;opacity:1;fill:#b3b3b3;fill-opacity:1;stroke:none;stroke-width:0.8091234;stroke-linecap:round;stroke-linejoin:round;stroke-miterlimit:4;stroke-dasharray:none;stroke-dashoffset:0;stroke-opacity:1;enable-background:new"
             d="m -260.39848,-117.91014 a 6.1162081,6.1162078 0 0 0 -5.00725,3.05212 6.1162081,6.1162078 0 0 0 2.23783,8.35408 6.1162081,6.1162078 0 0 0 8.35404,-2.23786 6.1162081,6.1162078 0 0 0 -2.23783,-8.35604 6.1162081,6.1162078 0 0 0 -3.34679,-0.8123 z m -79.22202,45.899451 a 6.1162081,6.1162078 0 0 0 -6.11621,6.11622 6.1162081,6.1162078 0 0 0 6.11621,6.116182 6.1162081,6.1162078 0 0 0 6.11621,-6.116182 6.1162081,6.1162078 0 0 0 -6.11621,-6.11622 z m 79.36736,45.907388 a 6.1162081,6.1162078 0 0 0 -2.91476,0.8183 6.1162081,6.1162078 0 0 0 -2.23783,8.354 6.1162081,6.1162078 0 0 0 8.35404,2.23786 6.1162081,6.1162078 0 0 0 2.23783,-8.35404 6.1162081,6.1162078 0 0 0 -5.43928,-3.05612 z"
             id="circle1245" />
        </g>
      </g>
    </g>
  </g>
</svg>
