<?xml version="1.0" encoding="UTF-8" standalone="no"?>
<!-- Created with Inkscape (http://www.inkscape.org/) -->

<svg
   xmlns:dc="http://purl.org/dc/elements/1.1/"
   xmlns:cc="http://creativecommons.org/ns#"
   xmlns:rdf="http://www.w3.org/1999/02/22-rdf-syntax-ns#"
   xmlns:svg="http://www.w3.org/2000/svg"
   xmlns="http://www.w3.org/2000/svg"
   xmlns:xlink="http://www.w3.org/1999/xlink"
   xmlns:sodipodi="http://sodipodi.sourceforge.net/DTD/sodipodi-0.dtd"
   xmlns:inkscape="http://www.inkscape.org/namespaces/inkscape"
   width="48"
   height="48"
   id="svg3347"
   sodipodi:version="0.32"
   inkscape:version="0.91 r13725"
   sodipodi:docname="kde.svg"
   inkscape:output_extension="org.inkscape.output.svg.inkscape"
   version="1.1">
  <defs
     id="defs3349">
    <linearGradient
       inkscape:collect="always"
       xlink:href="#linearGradient3935"
       id="linearGradient3961"
       x1="-12.191153"
       y1="7.3978882"
       x2="57.155186"
       y2="-61.948452"
       gradientUnits="userSpaceOnUse"
       gradientTransform="matrix(0.625,0,0,0.625,20.652394,2.173419)" />
    <linearGradient
       id="linearGradient3935">
      <stop
         id="stop3937"
         offset="0"
         style="stop-color:#21c9fb;stop-opacity:1" />
      <stop
         id="stop3939"
         offset="1"
         style="stop-color:#1a86f2;stop-opacity:1" />
    </linearGradient>
    <linearGradient
       id="linearGradient4569">
      <stop
         id="stop4571"
         offset="0"
         style="stop-color:#ffffff;stop-opacity:1;" />
      <stop
         id="stop4573"
         offset="1"
         style="stop-color:#ffffff;stop-opacity:0.75539571;" />
    </linearGradient>
    <linearGradient
       id="linearGradient3816">
      <stop
         id="stop3818"
         offset="0"
         style="stop-color:#e5f5d9;stop-opacity:1;" />
      <stop
         id="stop3820"
         offset="1"
         style="stop-color:#ffffff;stop-opacity:1;" />
    </linearGradient>
    <linearGradient
       id="linearGradient3816-3">
      <stop
         style="stop-color:#e5f5d9;stop-opacity:1;"
         offset="0"
         id="stop3818-8" />
      <stop
         style="stop-color:#ffffff;stop-opacity:1;"
         offset="1"
         id="stop3820-2" />
    </linearGradient>
    <linearGradient
       id="linearGradient4508">
      <stop
         style="stop-color:#e5f5d9;stop-opacity:1;"
         offset="0"
         id="stop4510" />
      <stop
         style="stop-color:#ffffff;stop-opacity:1;"
         offset="1"
         id="stop4512" />
    </linearGradient>
    <linearGradient
       id="linearGradient6691">
      <stop
         id="stop6693"
         offset="0"
         style="stop-color:#68a0ed;stop-opacity:1;" />
      <stop
         id="stop6695"
         offset="1"
         style="stop-color:#2572cd;stop-opacity:0;" />
    </linearGradient>
    <linearGradient
       id="linearGradient6679">
      <stop
         id="stop6681"
         offset="0"
         style="stop-color:#000000;stop-opacity:1;" />
      <stop
         style="stop-color:#002251;stop-opacity:1;"
         offset="0.5"
         id="stop6703" />
      <stop
         id="stop6683"
         offset="1"
         style="stop-color:#0060e7;stop-opacity:1;" />
    </linearGradient>
    <linearGradient
       id="linearGradient6560">
      <stop
         style="stop-color:#171818;stop-opacity:1;"
         offset="0"
         id="stop6562" />
      <stop
         id="stop6566"
         offset="0.5"
         style="stop-color:#1d1d1d;stop-opacity:1;" />
      <stop
         style="stop-color:#181818;stop-opacity:1;"
         offset="1"
         id="stop6568" />
    </linearGradient>
    <linearGradient
       id="linearGradient4007-5">
      <stop
         style="stop-color:#313232;stop-opacity:1;"
         offset="0"
         id="stop4009-2" />
      <stop
         style="stop-color:#29292b;stop-opacity:1;"
         offset="1"
         id="stop4011-7" />
    </linearGradient>
    <linearGradient
       id="linearGradient5260">
      <stop
         style="stop-color:#313232;stop-opacity:1;"
         offset="0"
         id="stop5262" />
      <stop
         style="stop-color:#29292b;stop-opacity:1;"
         offset="1"
         id="stop5264" />
    </linearGradient>
    <linearGradient
       id="linearGradient5269">
      <stop
         style="stop-color:#313232;stop-opacity:1;"
         offset="0"
         id="stop5271" />
      <stop
         style="stop-color:#29292b;stop-opacity:1;"
         offset="1"
         id="stop5273" />
    </linearGradient>
    <linearGradient
       id="linearGradient4601">
      <stop
         id="stop4603"
         offset="0"
         style="stop-color:#171818;stop-opacity:1;" />
      <stop
         style="stop-color:#232424;stop-opacity:1;"
         offset="0.25"
         id="stop6558" />
      <stop
         style="stop-color:#303030;stop-opacity:1;"
         offset="0.5"
         id="stop4607" />
      <stop
         id="stop4605"
         offset="1"
         style="stop-color:#181818;stop-opacity:1;" />
    </linearGradient>
    <linearGradient
       id="linearGradient6228">
      <stop
         id="stop6230"
         offset="0"
         style="stop-color:#8a8a8a;stop-opacity:1;" />
      <stop
         style="stop-color:#e5e5e5;stop-opacity:1;"
         offset="0.5"
         id="stop6236" />
      <stop
         id="stop6232"
         offset="1"
         style="stop-color:#696969;stop-opacity:1;" />
    </linearGradient>
    <linearGradient
       id="linearGradient4015">
      <stop
         id="stop4017"
         offset="0"
         style="stop-color:#2e2e2e;stop-opacity:1;" />
      <stop
         id="stop4019"
         offset="1"
         style="stop-color:#111111;stop-opacity:1;" />
    </linearGradient>
    <linearGradient
       id="linearGradient5291">
      <stop
         id="stop5293"
         offset="0"
         style="stop-color:#8a8a8a;stop-opacity:1;" />
      <stop
         style="stop-color:#e5e5e5;stop-opacity:1;"
         offset="0.5"
         id="stop5295" />
      <stop
         id="stop5297"
         offset="1"
         style="stop-color:#696969;stop-opacity:1;" />
    </linearGradient>
    <linearGradient
       id="linearGradient5300">
      <stop
         id="stop5302"
         offset="0"
         style="stop-color:#8a8a8a;stop-opacity:1;" />
      <stop
         style="stop-color:#e5e5e5;stop-opacity:1;"
         offset="0.5"
         id="stop5304" />
      <stop
         id="stop5306"
         offset="1"
         style="stop-color:#696969;stop-opacity:1;" />
    </linearGradient>
    <linearGradient
       id="linearGradient5309">
      <stop
         id="stop5311"
         offset="0"
         style="stop-color:#8a8a8a;stop-opacity:1;" />
      <stop
         style="stop-color:#e5e5e5;stop-opacity:1;"
         offset="0.5"
         id="stop5313" />
      <stop
         id="stop5315"
         offset="1"
         style="stop-color:#696969;stop-opacity:1;" />
    </linearGradient>
    <linearGradient
       id="linearGradient5318">
      <stop
         id="stop5320"
         offset="0"
         style="stop-color:#8a8a8a;stop-opacity:1;" />
      <stop
         style="stop-color:#e5e5e5;stop-opacity:1;"
         offset="0.5"
         id="stop5322" />
      <stop
         id="stop5324"
         offset="1"
         style="stop-color:#696969;stop-opacity:1;" />
    </linearGradient>
    <filter
       inkscape:collect="always"
       style="color-interpolation-filters:sRGB"
       id="filter4233"
       x="-0.048885289"
       width="1.0977706"
       y="-0.047146205"
       height="1.0942924">
      <feGaussianBlur
         inkscape:collect="always"
         stdDeviation="0.55003906"
         id="feGaussianBlur4235" />
    </filter>
  </defs>
  <sodipodi:namedview
     id="base"
     pagecolor="#ffffff"
     bordercolor="#666666"
     borderopacity="1.0"
     inkscape:pageopacity="0.0"
     inkscape:pageshadow="2"
     inkscape:zoom="7.4069436"
     inkscape:cx="8.7669912"
     inkscape:cy="16.334909"
     inkscape:current-layer="g3443"
     showgrid="true"
     inkscape:document-units="px"
     inkscape:grid-bbox="true"
     inkscape:window-width="1366"
     inkscape:window-height="700"
     inkscape:window-x="0"
     inkscape:window-y="0"
     inkscape:window-maximized="1"
     showguides="true"
     inkscape:guide-bbox="true"
     inkscape:showpageshadow="false">
    <inkscape:grid
       type="xygrid"
       id="grid3778"
       empspacing="5"
       visible="true"
       enabled="false"
       snapvisiblegridlinesonly="true" />
  </sodipodi:namedview>
  <metadata
     id="metadata3352">
    <rdf:RDF>
      <cc:Work
         rdf:about="">
        <dc:format>image/svg+xml</dc:format>
        <dc:type
           rdf:resource="http://purl.org/dc/dcmitype/StillImage" />
        <dc:title></dc:title>
      </cc:Work>
    </rdf:RDF>
  </metadata>
  <g
     id="layer1"
     inkscape:label="Layer 1"
     inkscape:groupmode="layer"
     transform="translate(0,-16)">
    <g
       id="g3443"
       inkscape:label="Layer 1"
       transform="translate(5.7957838,8.9269487)">
      <g
         id="g5541"
         transform="matrix(2.9464106,0,0,2.9464106,-23.963863,-75.735585)" />
      <g
         id="g4202"
         transform="matrix(1.125,0,0,1.125,2.2244732,-8.3841316)">
        <rect
           transform="matrix(0,1,-1,0,0,0)"
           style="fill:url(#linearGradient3961);fill-opacity:1;stroke:none"
           id="rect2383"
           width="40"
           height="40"
           x="15.073051"
           y="-34.204216"
           ry="9.375" />
      </g>
      <g
         transform="matrix(1.0399967,0,0,1.0399967,66.894351,-3.1774518)"
         id="g4215"
         style="fill:#000000;opacity:0.3;filter:url(#filter4233)">
        <path
           inkscape:connector-curvature="0"
           style="opacity:1;fill:#000000;fill-opacity:1;stroke:none;stroke-width:2;stroke-linecap:round;stroke-linejoin:round;stroke-miterlimit:4;stroke-dasharray:none;stroke-opacity:1"
           d="m -54.591289,24.088887 c -0.123062,-0.0059 -0.241909,0.03097 -0.339843,0.128906 l -2.123047,2.123047 c -0.195869,0.195869 -0.195869,0.511162 0,0.707031 l 2.193359,3.445312 c -0.175549,0.354193 -0.327571,0.719568 -0.455078,1.09375 l -3.984375,0.884766 c -0.277,0 -0.5,0.223 -0.5,0.5 l 0,3 c 0,0.277 0.229596,0.43991 0.5,0.5 l 3.986328,0.886719 c 0.12346,0.370523 0.270907,0.732616 0.441406,1.083984 l -2.197265,3.453125 c -0.148715,0.233695 -0.195869,0.511162 0,0.707031 l 2.121093,2.123047 c 0.19587,0.195869 0.511163,0.195869 0.707032,0 l 3.453125,-2.199218 c 0.357212,0.177942 0.725864,0.331927 1.103515,0.460937 l 0.884766,3.984375 c 0,0.277 0.223,0.5 0.5,0.5 l 3,0 c 0.277,0 0.43991,-0.229596 0.5,-0.5 l 0.886719,-3.986328 c 0.376029,-0.125362 0.743365,-0.275428 1.099609,-0.449219 l 3.4375,2.189453 c 0.195869,0.195869 0.511162,0.195869 0.707031,0 l 2.123047,-2.123047 c 0.195869,-0.195869 0.148715,-0.473336 0,-0.707031 l -0.9375,-1.472656 -0.699218,0.279297 -2.240235,-3.359375 c -1.128979,2.510379 -3.624392,4.126092 -6.376953,4.128906 -3.865993,0 -7,-3.134007 -7,-7 0.0031,-2.700827 1.559779,-5.15891 4,-6.316406 l 0,-2.152344 c -0.336475,0.11516 -0.665829,0.250162 -0.986328,0.404297 l -3.4375,-2.189453 c -0.116848,-0.07436 -0.244125,-0.123012 -0.367188,-0.128906 z"
           id="path4217" />
        <path
           inkscape:connector-curvature="0"
           style="opacity:1;fill:#000000;fill-opacity:1;stroke:none;stroke-width:2;stroke-linecap:round;stroke-linejoin:round;stroke-miterlimit:4;stroke-dasharray:none;stroke-opacity:1"
           d="m -43.800273,19.471699 -5,0.462891 0,19.537109 5,-1 0,-8 6,9 5,-2 -6.5,-8.414062 6.503906,-8.585938 -5.236328,-1 -5.767578,8.5 z"
           id="path4219" />
      </g>
      <g
         id="g4211"
         transform="translate(64.502536,-2.3986477)">
        <path
           id="path43"
           d="m -54.591289,24.088887 c -0.123062,-0.0059 -0.241909,0.03097 -0.339843,0.128906 l -2.123047,2.123047 c -0.195869,0.195869 -0.195869,0.511162 0,0.707031 l 2.193359,3.445312 c -0.175549,0.354193 -0.327571,0.719568 -0.455078,1.09375 l -3.984375,0.884766 c -0.277,0 -0.5,0.223 -0.5,0.5 l 0,3 c 0,0.277 0.229596,0.43991 0.5,0.5 l 3.986328,0.886719 c 0.12346,0.370523 0.270907,0.732616 0.441406,1.083984 l -2.197265,3.453125 c -0.148715,0.233695 -0.195869,0.511162 0,0.707031 l 2.121093,2.123047 c 0.19587,0.195869 0.511163,0.195869 0.707032,0 l 3.453125,-2.199218 c 0.357212,0.177942 0.725864,0.331927 1.103515,0.460937 l 0.884766,3.984375 c 0,0.277 0.223,0.5 0.5,0.5 l 3,0 c 0.277,0 0.43991,-0.229596 0.5,-0.5 l 0.886719,-3.986328 c 0.376029,-0.125362 0.743365,-0.275428 1.099609,-0.449219 l 3.4375,2.189453 c 0.195869,0.195869 0.511162,0.195869 0.707031,0 l 2.123047,-2.123047 c 0.195869,-0.195869 0.148715,-0.473336 0,-0.707031 l -0.9375,-1.472656 -0.699218,0.279297 -2.240235,-3.359375 c -1.128979,2.510379 -3.624392,4.126092 -6.376953,4.128906 -3.865993,0 -7,-3.134007 -7,-7 0.0031,-2.700827 1.559779,-5.15891 4,-6.316406 l 0,-2.152344 c -0.336475,0.11516 -0.665829,0.250162 -0.986328,0.404297 l -3.4375,-2.189453 c -0.116848,-0.07436 -0.244125,-0.123012 -0.367188,-0.128906 z"
           style="opacity:1;fill:#ffffff;fill-opacity:1;stroke:none;stroke-width:2;stroke-linecap:round;stroke-linejoin:round;stroke-miterlimit:4;stroke-dasharray:none;stroke-opacity:1"
           inkscape:connector-curvature="0" />
        <path
           id="path45"
           d="m -43.800273,19.471699 -5,0.462891 0,19.537109 5,-1 0,-8 6,9 5,-2 -6.5,-8.414062 6.503906,-8.585938 -5.236328,-1 -5.767578,8.5 z"
           style="opacity:1;fill:#ffffff;fill-opacity:1;stroke:none;stroke-width:2;stroke-linecap:round;stroke-linejoin:round;stroke-miterlimit:4;stroke-dasharray:none;stroke-opacity:1"
           inkscape:connector-curvature="0" />
      </g>
    </g>
  </g>
</svg>
