<?xml version="1.0" encoding="UTF-8" standalone="no"?>
<!-- Created with Inkscape (http://www.inkscape.org/) -->

<svg
   xmlns:dc="http://purl.org/dc/elements/1.1/"
   xmlns:cc="http://creativecommons.org/ns#"
   xmlns:rdf="http://www.w3.org/1999/02/22-rdf-syntax-ns#"
   xmlns:svg="http://www.w3.org/2000/svg"
   xmlns="http://www.w3.org/2000/svg"
   xmlns:xlink="http://www.w3.org/1999/xlink"
   xmlns:sodipodi="http://sodipodi.sourceforge.net/DTD/sodipodi-0.dtd"
   xmlns:inkscape="http://www.inkscape.org/namespaces/inkscape"
   width="48"
   height="48"
   id="svg3347"
   sodipodi:version="0.32"
   inkscape:version="0.91 r13725"
   sodipodi:docname="multimedia-volume-control.svg"
   inkscape:output_extension="org.inkscape.output.svg.inkscape"
   version="1.1">
  <defs
     id="defs3349">
    <linearGradient
       id="linearGradient3935">
      <stop
         id="stop3937"
         offset="0"
         style="stop-color:#f48b0b;stop-opacity:1" />
      <stop
         id="stop3939"
         offset="1"
         style="stop-color:#ffba6b;stop-opacity:1" />
    </linearGradient>
    <linearGradient
       id="linearGradient4569">
      <stop
         id="stop4571"
         offset="0"
         style="stop-color:#ffffff;stop-opacity:1;" />
      <stop
         id="stop4573"
         offset="1"
         style="stop-color:#ffffff;stop-opacity:0.75539571;" />
    </linearGradient>
    <linearGradient
       id="linearGradient3816">
      <stop
         id="stop3818"
         offset="0"
         style="stop-color:#e5f5d9;stop-opacity:1;" />
      <stop
         id="stop3820"
         offset="1"
         style="stop-color:#ffffff;stop-opacity:1;" />
    </linearGradient>
    <linearGradient
       id="linearGradient3816-3">
      <stop
         style="stop-color:#e5f5d9;stop-opacity:1;"
         offset="0"
         id="stop3818-8" />
      <stop
         style="stop-color:#ffffff;stop-opacity:1;"
         offset="1"
         id="stop3820-2" />
    </linearGradient>
    <linearGradient
       id="linearGradient4508">
      <stop
         style="stop-color:#e5f5d9;stop-opacity:1;"
         offset="0"
         id="stop4510" />
      <stop
         style="stop-color:#ffffff;stop-opacity:1;"
         offset="1"
         id="stop4512" />
    </linearGradient>
    <linearGradient
       id="linearGradient6691">
      <stop
         id="stop6693"
         offset="0"
         style="stop-color:#68a0ed;stop-opacity:1;" />
      <stop
         id="stop6695"
         offset="1"
         style="stop-color:#2572cd;stop-opacity:0;" />
    </linearGradient>
    <linearGradient
       id="linearGradient6679">
      <stop
         id="stop6681"
         offset="0"
         style="stop-color:#000000;stop-opacity:1;" />
      <stop
         style="stop-color:#002251;stop-opacity:1;"
         offset="0.5"
         id="stop6703" />
      <stop
         id="stop6683"
         offset="1"
         style="stop-color:#0060e7;stop-opacity:1;" />
    </linearGradient>
    <linearGradient
       id="linearGradient6560">
      <stop
         style="stop-color:#171818;stop-opacity:1;"
         offset="0"
         id="stop6562" />
      <stop
         id="stop6566"
         offset="0.5"
         style="stop-color:#1d1d1d;stop-opacity:1;" />
      <stop
         style="stop-color:#181818;stop-opacity:1;"
         offset="1"
         id="stop6568" />
    </linearGradient>
    <linearGradient
       id="linearGradient4007-5">
      <stop
         style="stop-color:#313232;stop-opacity:1;"
         offset="0"
         id="stop4009-2" />
      <stop
         style="stop-color:#29292b;stop-opacity:1;"
         offset="1"
         id="stop4011-7" />
    </linearGradient>
    <linearGradient
       id="linearGradient5260">
      <stop
         style="stop-color:#313232;stop-opacity:1;"
         offset="0"
         id="stop5262" />
      <stop
         style="stop-color:#29292b;stop-opacity:1;"
         offset="1"
         id="stop5264" />
    </linearGradient>
    <linearGradient
       id="linearGradient5269">
      <stop
         style="stop-color:#313232;stop-opacity:1;"
         offset="0"
         id="stop5271" />
      <stop
         style="stop-color:#29292b;stop-opacity:1;"
         offset="1"
         id="stop5273" />
    </linearGradient>
    <linearGradient
       id="linearGradient4601">
      <stop
         id="stop4603"
         offset="0"
         style="stop-color:#171818;stop-opacity:1;" />
      <stop
         style="stop-color:#232424;stop-opacity:1;"
         offset="0.25"
         id="stop6558" />
      <stop
         style="stop-color:#303030;stop-opacity:1;"
         offset="0.5"
         id="stop4607" />
      <stop
         id="stop4605"
         offset="1"
         style="stop-color:#181818;stop-opacity:1;" />
    </linearGradient>
    <linearGradient
       id="linearGradient6228">
      <stop
         id="stop6230"
         offset="0"
         style="stop-color:#8a8a8a;stop-opacity:1;" />
      <stop
         style="stop-color:#e5e5e5;stop-opacity:1;"
         offset="0.5"
         id="stop6236" />
      <stop
         id="stop6232"
         offset="1"
         style="stop-color:#696969;stop-opacity:1;" />
    </linearGradient>
    <linearGradient
       id="linearGradient4015">
      <stop
         id="stop4017"
         offset="0"
         style="stop-color:#2e2e2e;stop-opacity:1;" />
      <stop
         id="stop4019"
         offset="1"
         style="stop-color:#111111;stop-opacity:1;" />
    </linearGradient>
    <linearGradient
       id="linearGradient5291">
      <stop
         id="stop5293"
         offset="0"
         style="stop-color:#8a8a8a;stop-opacity:1;" />
      <stop
         style="stop-color:#e5e5e5;stop-opacity:1;"
         offset="0.5"
         id="stop5295" />
      <stop
         id="stop5297"
         offset="1"
         style="stop-color:#696969;stop-opacity:1;" />
    </linearGradient>
    <linearGradient
       id="linearGradient5300">
      <stop
         id="stop5302"
         offset="0"
         style="stop-color:#8a8a8a;stop-opacity:1;" />
      <stop
         style="stop-color:#e5e5e5;stop-opacity:1;"
         offset="0.5"
         id="stop5304" />
      <stop
         id="stop5306"
         offset="1"
         style="stop-color:#696969;stop-opacity:1;" />
    </linearGradient>
    <linearGradient
       id="linearGradient5309">
      <stop
         id="stop5311"
         offset="0"
         style="stop-color:#8a8a8a;stop-opacity:1;" />
      <stop
         style="stop-color:#e5e5e5;stop-opacity:1;"
         offset="0.5"
         id="stop5313" />
      <stop
         id="stop5315"
         offset="1"
         style="stop-color:#696969;stop-opacity:1;" />
    </linearGradient>
    <linearGradient
       id="linearGradient5318">
      <stop
         id="stop5320"
         offset="0"
         style="stop-color:#8a8a8a;stop-opacity:1;" />
      <stop
         style="stop-color:#e5e5e5;stop-opacity:1;"
         offset="0.5"
         id="stop5322" />
      <stop
         id="stop5324"
         offset="1"
         style="stop-color:#696969;stop-opacity:1;" />
    </linearGradient>
    <linearGradient
       gradientTransform="translate(-41.650041,-970.72853)"
       xlink:href="#linearGradient4198"
       id="linearGradient4204"
       x1="24"
       y1="1032.3621"
       x2="24"
       y2="1018.362"
       gradientUnits="userSpaceOnUse" />
    <linearGradient
       id="linearGradient4198">
      <stop
         style="stop-color:#272b2d;stop-opacity:1;"
         offset="0"
         id="stop12" />
      <stop
         style="stop-color:#3e4447;stop-opacity:1"
         offset="1"
         id="stop14" />
    </linearGradient>
    <radialGradient
       xlink:href="#linearGradient4185"
       id="radialGradient4191"
       cx="24"
       cy="1025.3621"
       fx="24"
       fy="1025.3621"
       r="2"
       gradientTransform="matrix(1,0,0,0.9998745,-41.650041,-970.59983)"
       gradientUnits="userSpaceOnUse" />
    <linearGradient
       id="linearGradient4185">
      <stop
         style="stop-color:#acacac;stop-opacity:1"
         offset="0"
         id="stop17" />
      <stop
         style="stop-color:#cbcbcb;stop-opacity:1"
         offset="1"
         id="stop19" />
    </linearGradient>
    <filter
       id="filter4525"
       height="1.24"
       width="1.16"
       y="-0.12"
       x="-0.079999998">
      <feGaussianBlur
         id="feGaussianBlur4527"
         stdDeviation="2.4" />
    </filter>
    <clipPath
       id="clipPath4200"
       clipPathUnits="userSpaceOnUse">
      <rect
         id="rect4202"
         style="color:#000000;fill:#ff00ff"
         height="16"
         width="104"
         y="116"
         x="128" />
    </clipPath>
    <filter
       id="filter4533"
       height="1.48"
       width="1.3200001"
       y="-0.23999999"
       x="-0.16">
      <feGaussianBlur
         id="feGaussianBlur4535"
         stdDeviation="4.8" />
    </filter>
    <linearGradient
       id="linearGradient3797">
      <stop
         id="stop3799"
         style="stop-color:#e5e2dd"
         offset="0" />
      <stop
         id="stop3801"
         style="stop-color:#f2f1ee"
         offset="1" />
    </linearGradient>
    <linearGradient
       id="linearGradient4259">
      <stop
         id="stop4261"
         style="stop-color:#d9d6d0"
         offset="0" />
      <stop
         id="stop4267"
         style="stop-color:#bdb8ad"
         offset=".73611" />
      <stop
         id="stop4263"
         style="stop-color:#938a79"
         offset="1" />
    </linearGradient>
    <linearGradient
       id="linearGradient4293">
      <stop
         id="stop4295"
         offset="0" />
      <stop
         id="stop4297"
         style="stop-opacity:0"
         offset="1" />
    </linearGradient>
    <clipPath
       id="clipPath4277"
       clipPathUnits="userSpaceOnUse">
      <path
         id="path4279"
         style="color:#000000;opacity:0.5;fill:#ff00ff"
         d="m 167.47,132 c -7.2639,0.1838 -12.351,0.78573 -15.469,2.6562 -2.1106,1.2663 -3.5148,3.0443 -4.5312,6.0938 -1.0165,3.0495 -1.5312,7.3572 -1.5312,13.25 0,5.8928 0.51476,10.201 1.5312,13.25 1.0165,3.0495 2.4207,4.8274 4.5312,6.0938 3.1659,1.8995 8.3331,2.4852 15.781,2.6562 l 2.22,0 c 3.324,0 6,-2.676 6,-6 l 0,-32 c 0,-3.324 -2.676,-6 -6,-6 l -2.5312,0 z"
         inkscape:connector-curvature="0" />
    </clipPath>
    <filter
       id="filter4289">
      <feGaussianBlur
         id="feGaussianBlur4291"
         stdDeviation="1.26" />
    </filter>
    <linearGradient
       id="linearGradient3838-0">
      <stop
         id="stop3840-4"
         style="stop-color:#d6d4cf"
         offset="0" />
      <stop
         id="stop3842-9"
         style="stop-color:#fbfaf9"
         offset="1" />
    </linearGradient>
    <clipPath
       id="clipPath4395"
       clipPathUnits="userSpaceOnUse">
      <path
         id="path4397"
         style="color:#000000;opacity:0.5;fill:#ff00ff"
         d="m 167.47,132 c -7.2639,0.1838 -12.351,0.78573 -15.469,2.6562 -2.1106,1.2663 -3.5148,3.0443 -4.5312,6.0938 -1.0165,3.0495 -1.5312,7.3572 -1.5312,13.25 0,5.8928 0.51476,10.201 1.5312,13.25 1.0165,3.0495 2.4207,4.8274 4.5312,6.0938 3.1659,1.8995 8.3331,2.4852 15.781,2.6562 l 2.22,0 c 3.324,0 6,-2.676 6,-6 l 0,-32 c 0,-3.324 -2.676,-6 -6,-6 l -2.5312,0 z"
         inkscape:connector-curvature="0" />
    </clipPath>
    <filter
       id="filter4399">
      <feGaussianBlur
         id="feGaussianBlur4401"
         stdDeviation="1.26" />
    </filter>
    <radialGradient
       id="radialGradient4519"
       gradientUnits="userSpaceOnUse"
       cy="122.09"
       cx="177.85001"
       gradientTransform="matrix(1,0,0,7.4015,0,-781.59)"
       r="2.6903999">
      <stop
         id="stop4507"
         style="stop-color:#fff"
         offset="0" />
      <stop
         id="stop4509"
         style="stop-color:#fff;stop-opacity:0"
         offset="1" />
    </radialGradient>
    <linearGradient
       id="linearGradient4989"
       y2="99.822998"
       spreadMethod="reflect"
       gradientUnits="userSpaceOnUse"
       x2="192"
       y1="124.34"
       x1="192">
      <stop
         id="stop4985"
         style="stop-color:#f18137"
         offset="0" />
      <stop
         id="stop4991"
         style="stop-color:#f18137;stop-opacity:0.15"
         offset=".5" />
      <stop
         id="stop4987"
         style="stop-color:#f1a737;stop-opacity:0"
         offset="1" />
    </linearGradient>
    <filter
       id="filter5228-9-4"
       width="1.1014"
       y="-0.89673001"
       x="-0.050714999"
       height="2.7934999"
       style="color-interpolation-filters:sRGB">
      <feGaussianBlur
         id="feGaussianBlur5230-6-6"
         stdDeviation="2.1548236" />
    </filter>
    <linearGradient
       id="linearGradient2390">
      <stop
         offset="0"
         style="stop-color:#e70b22;stop-opacity:1"
         id="stop2386" />
      <stop
         offset="1"
         style="stop-color:#f85858;stop-opacity:1"
         id="stop2388" />
    </linearGradient>
    <clipPath
       id="clipPath4022-0"
       clipPathUnits="userSpaceOnUse">
      <path
         id="path4024-4"
         style="color:#000000;fill:#ff00ff"
         d="m 96,92 c -16,0 -24,0 -24,8 0,8 8,8 24,8 l 320,0 c 16,0 24,0 24,-8 0,-8 -8,-8 -24,-8 z"
         inkscape:connector-curvature="0" />
    </clipPath>
    <filter
       id="filter4030-8">
      <feGaussianBlur
         id="feGaussianBlur4032-0"
         stdDeviation="1.04" />
    </filter>
    <linearGradient
       id="linearGradient4043">
      <stop
         id="stop4045"
         style="stop-color:#a4967d"
         offset="0" />
      <stop
         id="stop4047"
         style="stop-color:#cdc6ba"
         offset="1" />
    </linearGradient>
    <linearGradient
       id="linearGradient3822">
      <stop
         id="stop3824"
         style="stop-color:#d7d3cd"
         offset="0" />
      <stop
         id="stop3826"
         style="stop-color:#f4f3f1"
         offset="1" />
    </linearGradient>
    <clipPath
       id="clipPath4457"
       clipPathUnits="userSpaceOnUse">
      <path
         id="path4459"
         style="color:#000000;fill:#ff00ff"
         d="m 96,92 c -16,0 -24,0 -24,8 0,8 8,8 24,8 l 320,0 c 16,0 24,0 24,-8 0,-8 -8,-8 -24,-8 z"
         inkscape:connector-curvature="0" />
    </clipPath>
    <filter
       id="filter4461">
      <feGaussianBlur
         id="feGaussianBlur4463"
         stdDeviation="1.04" />
    </filter>
    <filter
       id="filter4472"
       width="1.1014"
       y="-0.89673001"
       x="-0.050714999"
       height="2.7934999"
       style="color-interpolation-filters:sRGB">
      <feGaussianBlur
         id="feGaussianBlur4474"
         stdDeviation="2.1548236" />
    </filter>
    <filter
       id="filter4476"
       height="1.24"
       width="1.16"
       y="-0.12"
       x="-0.079999998">
      <feGaussianBlur
         id="feGaussianBlur4478"
         stdDeviation="2.4" />
    </filter>
    <clipPath
       id="clipPath4480"
       clipPathUnits="userSpaceOnUse">
      <rect
         id="rect4482"
         style="color:#000000;fill:#ff00ff"
         height="16"
         width="104"
         y="116"
         x="128" />
    </clipPath>
    <filter
       id="filter4484"
       height="1.48"
       width="1.3200001"
       y="-0.23999999"
       x="-0.16">
      <feGaussianBlur
         id="feGaussianBlur4486"
         stdDeviation="4.8" />
    </filter>
    <clipPath
       id="clipPath4512"
       clipPathUnits="userSpaceOnUse">
      <path
         id="path4514"
         style="color:#000000;opacity:0.5;fill:#ff00ff"
         d="m 167.47,132 c -7.2639,0.1838 -12.351,0.78573 -15.469,2.6562 -2.1106,1.2663 -3.5148,3.0443 -4.5312,6.0938 -1.0165,3.0495 -1.5312,7.3572 -1.5312,13.25 0,5.8928 0.51476,10.201 1.5312,13.25 1.0165,3.0495 2.4207,4.8274 4.5312,6.0938 3.1659,1.8995 8.3331,2.4852 15.781,2.6562 l 2.22,0 c 3.324,0 6,-2.676 6,-6 l 0,-32 c 0,-3.324 -2.676,-6 -6,-6 l -2.5312,0 z"
         inkscape:connector-curvature="0" />
    </clipPath>
    <filter
       id="filter4516">
      <feGaussianBlur
         id="feGaussianBlur4518"
         stdDeviation="1.26" />
    </filter>
    <clipPath
       id="clipPath4543"
       clipPathUnits="userSpaceOnUse">
      <path
         id="path4545"
         style="color:#000000;opacity:0.5;fill:#ff00ff"
         d="m 167.47,132 c -7.2639,0.1838 -12.351,0.78573 -15.469,2.6562 -2.1106,1.2663 -3.5148,3.0443 -4.5312,6.0938 -1.0165,3.0495 -1.5312,7.3572 -1.5312,13.25 0,5.8928 0.51476,10.201 1.5312,13.25 1.0165,3.0495 2.4207,4.8274 4.5312,6.0938 3.1659,1.8995 8.3331,2.4852 15.781,2.6562 l 2.22,0 c 3.324,0 6,-2.676 6,-6 l 0,-32 c 0,-3.324 -2.676,-6 -6,-6 l -2.5312,0 z"
         inkscape:connector-curvature="0" />
    </clipPath>
    <filter
       id="filter4547">
      <feGaussianBlur
         id="feGaussianBlur4549"
         stdDeviation="1.26" />
    </filter>
    <radialGradient
       id="radialGradient4566"
       gradientUnits="userSpaceOnUse"
       cy="122.09"
       cx="177.85001"
       gradientTransform="matrix(1,0,0,7.4015,0,-781.59)"
       r="2.6903999">
      <stop
         id="stop4568"
         style="stop-color:#fff"
         offset="0" />
      <stop
         id="stop4570"
         style="stop-color:#fff;stop-opacity:0"
         offset="1" />
    </radialGradient>
    <filter
       id="filter4525-6"
       height="1.24"
       width="1.16"
       y="-0.12"
       x="-0.079999998">
      <feGaussianBlur
         id="feGaussianBlur4527-7"
         stdDeviation="2.4" />
    </filter>
    <clipPath
       id="clipPath4200-5"
       clipPathUnits="userSpaceOnUse">
      <rect
         id="rect4202-3"
         style="color:#000000;fill:#ff00ff"
         height="16"
         width="104"
         y="116"
         x="128" />
    </clipPath>
    <filter
       id="filter4533-5"
       height="1.48"
       width="1.3200001"
       y="-0.23999999"
       x="-0.16">
      <feGaussianBlur
         id="feGaussianBlur4535-6"
         stdDeviation="4.8" />
    </filter>
    <clipPath
       id="clipPath4277-6"
       clipPathUnits="userSpaceOnUse">
      <path
         id="path4279-2"
         style="color:#000000;opacity:0.5;fill:#ff00ff"
         d="m 167.47,132 c -7.2639,0.1838 -12.351,0.78573 -15.469,2.6562 -2.1106,1.2663 -3.5148,3.0443 -4.5312,6.0938 -1.0165,3.0495 -1.5312,7.3572 -1.5312,13.25 0,5.8928 0.51476,10.201 1.5312,13.25 1.0165,3.0495 2.4207,4.8274 4.5312,6.0938 3.1659,1.8995 8.3331,2.4852 15.781,2.6562 l 2.22,0 c 3.324,0 6,-2.676 6,-6 l 0,-32 c 0,-3.324 -2.676,-6 -6,-6 l -2.5312,0 z"
         inkscape:connector-curvature="0" />
    </clipPath>
    <filter
       id="filter4289-6">
      <feGaussianBlur
         id="feGaussianBlur4291-1"
         stdDeviation="1.26" />
    </filter>
    <clipPath
       id="clipPath4814"
       clipPathUnits="userSpaceOnUse">
      <path
         id="path4816"
         style="color:#000000;opacity:0.5;fill:#ff00ff"
         d="m 167.47,132 c -7.2639,0.1838 -12.351,0.78573 -15.469,2.6562 -2.1106,1.2663 -3.5148,3.0443 -4.5312,6.0938 -1.0165,3.0495 -1.5312,7.3572 -1.5312,13.25 0,5.8928 0.51476,10.201 1.5312,13.25 1.0165,3.0495 2.4207,4.8274 4.5312,6.0938 3.1659,1.8995 8.3331,2.4852 15.781,2.6562 l 2.22,0 c 3.324,0 6,-2.676 6,-6 l 0,-32 c 0,-3.324 -2.676,-6 -6,-6 l -2.5312,0 z"
         inkscape:connector-curvature="0" />
    </clipPath>
    <filter
       id="filter4818">
      <feGaussianBlur
         id="feGaussianBlur4820"
         stdDeviation="1.26" />
    </filter>
    <linearGradient
       inkscape:collect="always"
       xlink:href="#linearGradient4569"
       id="linearGradient5004"
       gradientUnits="userSpaceOnUse"
       gradientTransform="matrix(-1,0,0,1,360,0)"
       x1="176.67999"
       y1="102.4"
       x2="176.67999"
       y2="144.81" />
    <radialGradient
       id="radialGradient4519-9"
       gradientUnits="userSpaceOnUse"
       cy="122.09"
       cx="177.85001"
       gradientTransform="matrix(1,0,0,7.4015,0,-781.59)"
       r="2.6903999">
      <stop
         id="stop4507-2"
         style="stop-color:#fff"
         offset="0" />
      <stop
         id="stop4509-2"
         style="stop-color:#fff;stop-opacity:0"
         offset="1" />
    </radialGradient>
    <filter
       id="filter5228-9-4-6"
       width="1.1014"
       y="-0.89673001"
       x="-0.050714999"
       height="2.7934999"
       style="color-interpolation-filters:sRGB">
      <feGaussianBlur
         id="feGaussianBlur5230-6-6-1"
         stdDeviation="2.1548236" />
    </filter>
    <clipPath
       id="clipPath4022-0-1"
       clipPathUnits="userSpaceOnUse">
      <path
         id="path4024-4-9"
         style="color:#000000;fill:#ff00ff"
         d="m 96,92 c -16,0 -24,0 -24,8 0,8 8,8 24,8 l 320,0 c 16,0 24,0 24,-8 0,-8 -8,-8 -24,-8 z"
         inkscape:connector-curvature="0" />
    </clipPath>
    <filter
       id="filter4030-8-4">
      <feGaussianBlur
         id="feGaussianBlur4032-0-7"
         stdDeviation="1.04" />
    </filter>
    <linearGradient
       gradientTransform="matrix(0.30994345,0,0,0.30994345,-110.89154,22.44099)"
       inkscape:collect="always"
       xlink:href="#linearGradient4989"
       id="linearGradient8117"
       gradientUnits="userSpaceOnUse"
       x1="192"
       y1="124.34"
       x2="192"
       y2="99.822998"
       spreadMethod="reflect" />
    <radialGradient
       inkscape:collect="always"
       xlink:href="#radialGradient4519-5"
       id="radialGradient8115"
       gradientUnits="userSpaceOnUse"
       gradientTransform="matrix(0,0.21498607,-2.2940464,0,223.8071,15.511275)"
       cx="177.85001"
       cy="122.09"
       r="2.6903999" />
    <radialGradient
       id="radialGradient4519-5"
       gradientUnits="userSpaceOnUse"
       cy="122.09"
       cx="177.85001"
       gradientTransform="matrix(1,0,0,7.4015,0,-781.59)"
       r="2.6903999">
      <stop
         id="stop4507-3"
         style="stop-color:#fff"
         offset="0" />
      <stop
         id="stop4509-5"
         style="stop-color:#fff;stop-opacity:0"
         offset="1" />
    </radialGradient>
    <linearGradient
       inkscape:collect="always"
       xlink:href="#linearGradient4569"
       id="linearGradient8113"
       gradientUnits="userSpaceOnUse"
       gradientTransform="matrix(-0.30994345,0,0,0.30994345,0.68809941,22.44099)"
       x1="176.67999"
       y1="102.4"
       x2="176.67999"
       y2="144.81" />
    <linearGradient
       gradientTransform="matrix(0.30994345,0,0,0.30994345,-110.89154,22.44099)"
       inkscape:collect="always"
       xlink:href="#linearGradient4569"
       id="linearGradient8111"
       gradientUnits="userSpaceOnUse"
       x1="176.67999"
       y1="102.4"
       x2="176.67999"
       y2="144.81" />
    <linearGradient
       inkscape:collect="always"
       xlink:href="#linearGradient4259"
       id="linearGradient8107"
       gradientUnits="userSpaceOnUse"
       x1="145.94"
       y1="124"
       x2="176"
       y2="124" />
    <linearGradient
       inkscape:collect="always"
       xlink:href="#linearGradient4293"
       id="linearGradient8109"
       gradientUnits="userSpaceOnUse"
       x1="176"
       y1="162"
       x2="160"
       y2="162" />
    <clipPath
       id="clipPath4277-7"
       clipPathUnits="userSpaceOnUse">
      <path
         id="path4279-0"
         style="color:#000000;opacity:0.5;fill:#ff00ff"
         d="m 167.47,132 c -7.2639,0.1838 -12.351,0.78573 -15.469,2.6562 -2.1106,1.2663 -3.5148,3.0443 -4.5312,6.0938 -1.0165,3.0495 -1.5312,7.3572 -1.5312,13.25 0,5.8928 0.51476,10.201 1.5312,13.25 1.0165,3.0495 2.4207,4.8274 4.5312,6.0938 3.1659,1.8995 8.3331,2.4852 15.781,2.6562 l 2.22,0 c 3.324,0 6,-2.676 6,-6 l 0,-32 c 0,-3.324 -2.676,-6 -6,-6 l -2.5312,0 z"
         inkscape:connector-curvature="0" />
    </clipPath>
    <filter
       id="filter4289-9">
      <feGaussianBlur
         id="feGaussianBlur4291-3"
         stdDeviation="1.26" />
    </filter>
    <linearGradient
       gradientTransform="matrix(0.30994345,0,0,0.30994345,-110.89154,22.44099)"
       inkscape:collect="always"
       xlink:href="#linearGradient3838-0"
       id="linearGradient8105"
       gradientUnits="userSpaceOnUse"
       x1="192"
       y1="148"
       x2="192"
       y2="100" />
    <linearGradient
       inkscape:collect="always"
       xlink:href="#linearGradient4259"
       id="linearGradient8101"
       gradientUnits="userSpaceOnUse"
       x1="145.94"
       y1="124"
       x2="176"
       y2="124" />
    <linearGradient
       inkscape:collect="always"
       xlink:href="#linearGradient4293"
       id="linearGradient8103"
       gradientUnits="userSpaceOnUse"
       x1="176"
       y1="162"
       x2="160"
       y2="162" />
    <clipPath
       id="clipPath4347"
       clipPathUnits="userSpaceOnUse">
      <path
         id="path4349"
         style="color:#000000;opacity:0.5;fill:#ff00ff"
         d="m 167.47,132 c -7.2639,0.1838 -12.351,0.78573 -15.469,2.6562 -2.1106,1.2663 -3.5148,3.0443 -4.5312,6.0938 -1.0165,3.0495 -1.5312,7.3572 -1.5312,13.25 0,5.8928 0.51476,10.201 1.5312,13.25 1.0165,3.0495 2.4207,4.8274 4.5312,6.0938 3.1659,1.8995 8.3331,2.4852 15.781,2.6562 l 2.22,0 c 3.324,0 6,-2.676 6,-6 l 0,-32 c 0,-3.324 -2.676,-6 -6,-6 l -2.5312,0 z"
         inkscape:connector-curvature="0" />
    </clipPath>
    <filter
       id="filter4351">
      <feGaussianBlur
         id="feGaussianBlur4353"
         stdDeviation="1.26" />
    </filter>
    <linearGradient
       gradientTransform="matrix(0.30994345,0,0,0.30994345,-110.89154,22.44099)"
       inkscape:collect="always"
       xlink:href="#linearGradient3797"
       id="linearGradient8099"
       gradientUnits="userSpaceOnUse"
       x1="192"
       y1="148"
       x2="192"
       y2="100" />
    <clipPath
       id="clipPath4200-6"
       clipPathUnits="userSpaceOnUse">
      <rect
         id="rect4202-1"
         style="color:#000000;fill:#ff00ff"
         height="16"
         width="104"
         y="116"
         x="128" />
    </clipPath>
    <filter
       id="filter4533-8"
       height="1.48"
       width="1.3200001"
       y="-0.23999999"
       x="-0.16">
      <feGaussianBlur
         id="feGaussianBlur4535-7"
         stdDeviation="4.8" />
    </filter>
    <filter
       id="filter4525-9"
       height="1.24"
       width="1.16"
       y="-0.12"
       x="-0.079999998">
      <feGaussianBlur
         id="feGaussianBlur4527-2"
         stdDeviation="2.4" />
    </filter>
    <filter
       id="filter5228-9-4-0"
       width="1.1014"
       y="-0.89673001"
       x="-0.050714999"
       height="2.7934999"
       style="color-interpolation-filters:sRGB">
      <feGaussianBlur
         id="feGaussianBlur5230-6-6-2"
         stdDeviation="2.1548236" />
    </filter>
    <linearGradient
       inkscape:collect="always"
       xlink:href="#linearGradient2390"
       id="linearGradient7961"
       gradientUnits="userSpaceOnUse"
       gradientTransform="matrix(0.06862619,0,0,0.09732574,-82.617329,51.21219)"
       x1="176.52"
       y1="87.921997"
       x2="176.52"
       y2="111.97" />
    <clipPath
       id="clipPath4022-0-5"
       clipPathUnits="userSpaceOnUse">
      <path
         id="path4024-4-92"
         style="color:#000000;fill:#ff00ff"
         d="m 96,92 c -16,0 -24,0 -24,8 0,8 8,8 24,8 l 320,0 c 16,0 24,0 24,-8 0,-8 -8,-8 -24,-8 z"
         inkscape:connector-curvature="0" />
    </clipPath>
    <filter
       id="filter4030-8-2">
      <feGaussianBlur
         id="feGaussianBlur4032-0-8"
         stdDeviation="1.04" />
    </filter>
    <linearGradient
       inkscape:collect="always"
       xlink:href="#linearGradient4043"
       id="linearGradient7957"
       gradientUnits="userSpaceOnUse"
       gradientTransform="matrix(0.12352367,0,0,0.09732574,-86.568233,51.212193)"
       x1="176.52"
       y1="87.921997"
       x2="176.52"
       y2="111.97" />
    <linearGradient
       inkscape:collect="always"
       xlink:href="#linearGradient3822"
       id="linearGradient7955"
       gradientUnits="userSpaceOnUse"
       gradientTransform="matrix(0.12354468,0,0,0.09770679,-86.573602,51.174084)"
       x1="176.64999"
       y1="75.432999"
       x2="176.64999"
       y2="122.95" />
  </defs>
  <sodipodi:namedview
     id="base"
     pagecolor="#ffffff"
     bordercolor="#666666"
     borderopacity="1.0"
     inkscape:pageopacity="0.0"
     inkscape:pageshadow="2"
     inkscape:zoom="5.2375"
     inkscape:cx="-0.84379411"
     inkscape:cy="11.537637"
     inkscape:current-layer="g3443"
     showgrid="true"
     inkscape:document-units="px"
     inkscape:grid-bbox="true"
     inkscape:window-width="1366"
     inkscape:window-height="700"
     inkscape:window-x="0"
     inkscape:window-y="0"
     inkscape:window-maximized="1"
     showguides="true"
     inkscape:guide-bbox="true"
     inkscape:showpageshadow="false">
    <inkscape:grid
       type="xygrid"
       id="grid3778"
       empspacing="5"
       visible="true"
       enabled="false"
       snapvisiblegridlinesonly="true" />
  </sodipodi:namedview>
  <metadata
     id="metadata3352">
    <rdf:RDF>
      <cc:Work
         rdf:about="">
        <dc:format>image/svg+xml</dc:format>
        <dc:type
           rdf:resource="http://purl.org/dc/dcmitype/StillImage" />
        <dc:title />
      </cc:Work>
    </rdf:RDF>
  </metadata>
  <g
     id="layer1"
     inkscape:label="Layer 1"
     inkscape:groupmode="layer"
     transform="translate(0,-16)">
    <g
       id="g3443"
       inkscape:label="Layer 1"
       transform="translate(5.7957838,8.9269487)">
      <g
         id="g5541"
         transform="matrix(2.9464106,0,0,2.9464106,-23.963863,-75.735585)" />
      <g
         id="g4211"
         transform="matrix(1.125,0,0,1.125,-2.2755268,-3.8841316)">
        <rect
           transform="matrix(0,1,-1,0,0,0)"
           style="fill:#f1f0e9;fill-opacity:1;stroke:none"
           id="rect2383"
           width="40"
           height="40"
           x="11.073051"
           y="-38.204216"
           ry="9.375" />
        <g
           transform="matrix(0.90341705,0,0,0.90341705,6.064422,6.2613565)"
           id="g4234" />
      </g>
      <g
         id="g4555"
         transform="matrix(0.64958336,0,0,0.64958336,54.258885,-13.817359)">
        <path
           inkscape:connector-curvature="0"
           style="color:#000000;fill:url(#linearGradient7955);stroke-width:0.52770191"
           d="m -73.23078,58.599817 36.569223,0 c 4.447608,0 5.435966,0 5.435966,2.344949 0,2.344954 -0.988358,2.344954 -5.435966,2.344954 l -36.569223,0 c -4.447608,0 -5.435966,0 -5.435966,-2.344954 0,-2.344949 0.988358,-2.344949 5.435966,-2.344949 z"
           id="path7923" />
        <path
           inkscape:connector-curvature="0"
           style="color:#000000;opacity:0.6;fill:#ffffff;stroke-width:0.52770191"
           d="m -78.666746,60.871488 c -2.36e-4,0.0244 0,0.04834 0,0.07328 0,2.344954 0.988358,2.344954 5.435966,2.344954 l 36.569223,0 c 4.447608,0 5.435966,0 5.435966,-2.344954 0,-0.02494 0,-0.04887 0,-0.07328 -0.0211,2.270937 -1.035648,2.271674 -5.435966,2.271674 l -36.569223,0 c -4.400291,0 -5.414839,0 -5.435966,-2.271674 z"
           id="path7925" />
        <path
           inkscape:connector-curvature="0"
           style="color:#000000;opacity:0.05;stroke-width:0.52770191"
           d="m -73.23078,58.599817 c -4.447608,0 -5.435966,0 -5.435966,2.344949 0,0.02497 -2.36e-4,0.04887 0,0.07328 0.02113,-2.27094 1.035675,-2.271674 5.435966,-2.271674 l 36.569223,0 c 4.400295,0 5.414844,5.02e-4 5.435966,2.271674 0,-0.0244 0,-0.04834 0,-0.07328 0,-2.344949 -0.988358,-2.344949 -5.435966,-2.344949 z"
           id="path7927" />
        <path
           inkscape:connector-curvature="0"
           d="m -74.713316,59.772293 c -1.976715,0 -2.965072,0 -2.965072,1.172473 0,1.172478 0.988357,1.172478 2.965072,1.172478 l 39.534298,0 c 1.976714,0 2.965069,0 2.965069,-1.172478 0,-1.172473 -0.988355,-1.172473 -2.965069,-1.172473 z"
           style="color:#000000;opacity:0.6;fill:url(#linearGradient7957);stroke-width:0.52770191"
           id="path7929" />
        <path
           transform="matrix(0.12354468,0,0,0.14655945,-86.573605,46.288825)"
           inkscape:connector-curvature="0"
           clip-path="url(#clipPath4022-0-5)"
           d="m 108,84 c -36,0 -44,0 -44,16 0,16 8,16 44,16 l 296,0 c 36,0 44,0 44,-16 0,-16 -8,-16 -44,-16 z M 90.375,93 C 92.125,92.984 94,93 96,93 l 320,0 c 16,0 24,-0.5 24,7.5 0,8 -8,7.5 -24,7.5 l -320,0 c -16,0 -24,0.5 -24,-7.5 0,-7 6.125,-7.3906 18.375,-7.5 z"
           style="color:#000000;opacity:0.4;filter:url(#filter4030-8-2)"
           id="path7947" />
        <path
           inkscape:connector-curvature="0"
           style="color:#000000;fill:url(#linearGradient7961);stroke-width:0.39333135"
           d="m -76.417167,59.772293 c -0.840815,0.01599 -1.261221,0.146558 -1.261221,1.172473 0,1.172478 0.549103,1.172478 1.647308,1.172478 l 9.922289,0 0,-2.344951 -9.922289,0 c -0.137275,0 -0.265971,-0.0023 -0.386087,0 z"
           id="path7949" />
        <path
           inkscape:connector-curvature="0"
           transform="matrix(0.10604872,0,0,0.14655945,-85.207104,42.848189)"
           d="m 180.09,123.42 a 50.987,2.8836 0 1 1 -101.97,0 50.987,2.8836 0 1 1 101.97,0 z"
           style="color:#000000;opacity:0.3;fill:#fff229;filter:url(#filter5228-9-4-0)"
           id="path7951" />
        <path
           inkscape:connector-curvature="0"
           d="m 176,101 8,0 c 24,0 32,0 32,24 0,24 -8,24 -32,24 l -8,0 c -24,0 -32,0 -32,-24 0,-24 8,-24 32,-24 z"
           style="color:#000000;opacity:0.4;filter:url(#filter4525-9)"
           id="path8067"
           transform="matrix(0.30994345,0,0,0.30994345,-110.89154,22.44099)" />
        <path
           inkscape:connector-curvature="0"
           clip-path="url(#clipPath4200-6)"
           d="m 176,100 8,0 c 24,0 32,0 32,24 0,24 -8,24 -32,24 l -8,0 c -24,0 -32,0 -32,-24 0,-24 8,-24 32,-24 z"
           style="color:#000000;opacity:0.5;stroke:#000000;stroke-width:4;filter:url(#filter4533-8)"
           id="path8069"
           transform="matrix(0.30994345,0,0,0.30994345,-110.89154,22.44099)" />
        <path
           inkscape:connector-curvature="0"
           style="color:#000000;fill:url(#linearGradient8099)"
           d="m -56.341494,53.435335 2.479548,0 c 7.438641,0 9.918189,0 9.918189,7.438642 0,7.438643 -2.479548,7.438643 -9.918189,7.438643 l -2.479548,0 c -7.438644,0 -9.918191,0 -9.918191,-7.438643 0,-7.438642 2.479547,-7.438642 9.918191,-7.438642 z"
           id="path8073" />
        <g
           style="opacity:0.5"
           id="g8079"
           transform="matrix(0.30994345,0,0,0.30994345,-110.89154,22.44099)">
          <path
             inkscape:connector-curvature="0"
             d="m 167.47,102 c -7.27,0.18 -12.35,0.79 -15.47,2.66 -2.11,1.26 -3.51,3.04 -4.53,6.09 -1.02,3.05 -1.53,7.36 -1.53,13.25 0,5.89 0.51,10.2 1.53,13.25 1.02,3.05 2.42,4.83 4.53,6.09 3.17,1.9 8.33,2.49 15.78,2.66 l 2.22,0 c 3.32,0 6,-2.68 6,-6 l 0,-32 c 0,-3.32 -2.68,-6 -6,-6 z"
             style="color:#000000;opacity:0.5;fill:url(#linearGradient8101)"
             id="path8075" />
          <path
             inkscape:connector-curvature="0"
             transform="translate(0,-30)"
             clip-path="url(#clipPath4277-7)"
             d="m 164.65,132 c -9.6651,0.1838 -16.434,0.78573 -20.582,2.6562 -2.8082,1.2663 -4.6766,3.0443 -6.0291,6.0938 -1.36,3.05 -2.04,7.36 -2.04,13.25 0,5.8928 0.68492,10.201 2.0374,13.25 1.3525,3.0495 3.2209,4.8274 6.0291,6.0938 4.2124,1.8995 11.088,2.4852 20.998,2.6562 l 2.9522,0 c 4.43,0 7.99,-2.68 7.99,-6 l 0,-32 c 0,-3.324 -3.5606,-6 -7.9834,-6 l -3.368,0 z"
             style="color:#000000;opacity:0.2;fill:none;stroke:url(#linearGradient8103);filter:url(#filter4289-9)"
             id="path8077" />
        </g>
        <path
           inkscape:connector-curvature="0"
           d="m -56.341494,53.435335 c -7.438644,0 -9.918191,0 -9.918191,7.438642 0,7.438643 2.479547,7.438643 9.918191,7.438643 l 2.479548,0 c 7.438641,0 9.918189,0 9.918189,-7.438643 0,-7.438642 -2.479548,-7.438642 -9.918189,-7.438642 z m -1.335858,0.300645 c 0.424624,-0.0031 0.870942,0 1.335858,0 l 2.479548,0 c 3.719322,0 6.164774,0.03409 7.593615,0.889537 0.71287,0.430822 1.199479,1.050709 1.531121,2.045627 0.331639,0.994919 0.49281,2.35867 0.49281,4.202833 0,1.844164 -0.161171,3.207915 -0.49281,4.202834 -0.331642,0.994918 -0.818251,1.614805 -1.531121,2.045626 -1.428841,0.855444 -3.874293,0.889538 -7.593615,0.889538 l -2.479548,0 c -3.719322,0 -6.164776,-0.03409 -7.593615,-0.889538 -0.71287,-0.430821 -1.199482,-1.050708 -1.531121,-2.045626 -0.33164,-0.994919 -0.49281,-2.35867 -0.49281,-4.202834 0,-1.844163 0.16117,-3.207914 0.49281,-4.202833 0.331639,-0.994918 0.818251,-1.614805 1.531121,-2.045627 1.249072,-0.746963 3.276102,-0.870941 6.257757,-0.889537 z"
           style="color:#000000;fill:url(#linearGradient8105)"
           id="path8081" />
        <g
           transform="matrix(-0.30994345,0,0,0.30994345,0.66950248,22.44099)"
           style="opacity:0.8"
           id="g8087">
          <path
             inkscape:connector-curvature="0"
             style="color:#000000;opacity:0.5;fill:url(#linearGradient8107)"
             d="m 167.47,102 c -7.2639,0.1838 -12.351,0.78573 -15.469,2.6562 -2.1106,1.2663 -3.5148,3.0443 -4.5312,6.0938 -1.0165,3.0495 -1.5312,7.3572 -1.5312,13.25 0,5.8928 0.51476,10.201 1.5312,13.25 1.0165,3.0495 2.4207,4.8274 4.5312,6.0938 3.1659,1.8995 8.3331,2.4852 15.781,2.6562 l 2.22,0 c 3.324,0 6,-2.676 6,-6 l 0,-32 c 0,-3.324 -2.676,-6 -6,-6 l -2.5312,0 z"
             id="path8083" />
          <path
             inkscape:connector-curvature="0"
             transform="translate(0,-30)"
             clip-path="url(#clipPath4277-7)"
             d="m 164.65,132 c -9.6651,0.1838 -16.434,0.78573 -20.582,2.6562 -2.8082,1.2663 -4.6766,3.0443 -6.0291,6.0938 -1.36,3.05 -2.04,7.36 -2.04,13.25 0,5.8928 0.68492,10.201 2.0374,13.25 1.3525,3.0495 3.2209,4.8274 6.0291,6.0938 4.2124,1.8995 11.088,2.4852 20.998,2.6562 l 2.9522,0 c 4.43,0 7.99,-2.68 7.99,-6 l 0,-32 c 0,-3.324 -3.5606,-6 -7.9834,-6 l -3.368,0 z"
             style="color:#000000;opacity:0.2;fill:none;stroke:url(#linearGradient8109);filter:url(#filter4289-9)"
             id="path8085" />
        </g>
        <path
           inkscape:connector-curvature="0"
           d="m -58.201155,54.055222 c 1.029012,0 1.859661,0.830648 1.859661,1.85966 l 0,9.91819 c 0,1.029013 -0.830649,1.859661 -1.859661,1.859661 l 0.309941,0 c 1.029013,0 1.859664,-0.830648 1.859664,-1.859661 l 0,-9.91819 c 0,-1.029012 -0.830651,-1.85966 -1.859664,-1.85966 z"
           style="color:#000000;opacity:0.8;fill:url(#linearGradient8111)"
           id="path8089" />
        <path
           inkscape:connector-curvature="0"
           d="m -52.002287,54.055222 c -1.030251,0 -1.859659,0.829408 -1.859659,1.85966 l 0,9.91819 c 0,1.030253 0.829408,1.859661 1.859659,1.859661 l -0.309941,0 c -1.030254,0 -1.859662,-0.829408 -1.859662,-1.859661 l 0,-9.91819 c 0,-1.030252 0.829408,-1.85966 1.859662,-1.85966 z"
           style="color:#000000;opacity:0.8;fill:url(#linearGradient8113)"
           id="path8091" />
        <path
           inkscape:connector-curvature="0"
           d="m -56.282606,54.219517 a 6.0170728,0.4709165 0 1 1 0,-0.941833 6.0170728,0.4709165 0 0 1 0,0.941833 z"
           style="color:#000000;fill:url(#radialGradient8115)"
           id="path8093" />
        <path
           inkscape:connector-curvature="0"
           d="m -58.898529,53.453931 c -5.458104,0.102282 -7.361156,0.911234 -7.361156,7.420046 0,6.735071 2.076621,7.358058 7.981045,7.420047 -5.458106,-0.102282 -7.361159,-0.911234 -7.361159,-7.420047 0,-6.508812 1.903053,-7.317764 7.361159,-7.420046 -0.198366,0.0031 -0.430823,-0.0031 -0.619889,0 z"
           style="color:#000000;opacity:0.3;fill:url(#linearGradient8117)"
           id="path8095" />
        <path
           inkscape:connector-curvature="0"
           style="color:#000000;font-style:normal;font-variant:normal;font-weight:normal;font-stretch:normal;font-size:medium;line-height:normal;font-family:Sans;-inkscape-font-specification:Sans;text-indent:0;text-align:start;text-decoration:none;text-decoration-line:none;letter-spacing:normal;word-spacing:normal;text-transform:none;direction:ltr;writing-mode:lr-tb;baseline-shift:baseline;text-anchor:start;display:inline;overflow:visible;visibility:visible;fill:#444444;fill-opacity:1;fill-rule:nonzero;stroke:none;stroke-width:2.67892051;marker:none;enable-background:accumulate"
           d="m -86.201514,74.181109 0,0.341552 0,11.388708 0,0.341557 0.341555,0 1.89456,0 0.341555,0 0,-0.341557 0,-11.388708 0,-0.341552 -0.341555,0 -1.89456,0 z m 7.588916,0 0,0.341552 0,9.488813 0,0.341557 0.341554,0 1.894561,0 0.341554,0 0,-0.341557 0,-9.488813 0,-0.341552 -0.341554,0 -1.894561,0 z m 7.588915,0 0,0.341552 0,7.594253 0,0.341557 0.341555,0 1.89456,0 0.341554,0 0,-0.341557 0,-7.594253 0,-0.341552 -0.341554,0 -1.89456,0 z m 7.588915,0 0,0.341552 0,5.694355 0,0.341554 0.341555,0 1.894559,0 0.341556,0 0,-0.341554 0,-5.694355 0,-0.341552 -0.341556,0 -1.894559,0 z m 7.588917,0 0,0.341552 0,11.388708 0,0.341557 0.341556,0 1.899896,0 0.341554,0 0,-0.341557 0,-11.388708 0,-0.341552 -0.341554,0 -1.899896,0 z m 7.588915,0 0,0.341552 0,5.694355 0,0.341554 0.341554,0 1.899898,0 0.341554,0 0,-0.341554 0,-5.694355 0,-0.341552 -0.341554,0 -1.899898,0 z m 7.588915,0 0,0.341552 0,7.594253 0,0.341557 0.341557,0 1.899895,0 0.341554,0 0,-0.341557 0,-7.594253 0,-0.341552 -0.341554,0 -1.899895,0 z m 5.694356,0 0,0.341552 0,9.488813 0,0.341557 0.341554,0 1.89456,0 0.341554,0 0,-0.341557 0,-9.488813 0,-0.341552 -0.341554,0 -1.89456,0 z m 7.588915,0 0,0.341552 0,11.388708 0,0.341557 0.341552,0 1.894562,0 0.341554,0 0,-0.341557 0,-11.388708 0,-0.341552 -0.341554,0 -1.894562,0 z"
           id="path6077" />
      </g>
    </g>
  </g>
</svg>
