<?xml version="1.0" encoding="UTF-8" standalone="no"?>
<!-- Created with Inkscape (http://www.inkscape.org/) -->

<svg
   xmlns:dc="http://purl.org/dc/elements/1.1/"
   xmlns:cc="http://creativecommons.org/ns#"
   xmlns:rdf="http://www.w3.org/1999/02/22-rdf-syntax-ns#"
   xmlns:svg="http://www.w3.org/2000/svg"
   xmlns="http://www.w3.org/2000/svg"
   xmlns:xlink="http://www.w3.org/1999/xlink"
   xmlns:sodipodi="http://sodipodi.sourceforge.net/DTD/sodipodi-0.dtd"
   xmlns:inkscape="http://www.inkscape.org/namespaces/inkscape"
   width="64"
   height="64"
   viewBox="0 0 16.93375 16.933334"
   version="1.1"
   id="svg8"
   inkscape:version="0.91 r13725"
   sodipodi:docname="folder-download.svg">
  <defs
     id="defs2">
    <linearGradient
       inkscape:collect="always"
       id="linearGradient826">
      <stop
         style="stop-color:#1077f7;stop-opacity:1;"
         offset="0"
         id="stop822" />
      <stop
         style="stop-color:#22c7ff;stop-opacity:1"
         offset="1"
         id="stop824" />
    </linearGradient>
    <linearGradient
       inkscape:collect="always"
       id="linearGradient4366">
      <stop
         style="stop-color:#22c7ff;stop-opacity:1"
         offset="0"
         id="stop4362" />
      <stop
         style="stop-color:#1077f7;stop-opacity:1"
         offset="1"
         id="stop4364" />
    </linearGradient>
    <linearGradient
       inkscape:collect="always"
       xlink:href="#linearGradient4366"
       id="linearGradient4322"
       x1="92.922737"
       y1="79.173912"
       x2="93.670799"
       y2="145.21309"
       gradientUnits="userSpaceOnUse" />
    <linearGradient
       inkscape:collect="always"
       xlink:href="#linearGradient826"
       id="linearGradient828"
       x1="-3.0860579"
       y1="74.460754"
       x2="-5.2107248"
       y2="45.053696"
       gradientUnits="userSpaceOnUse" />
    <linearGradient
       gradientTransform="matrix(0.2571121,0,0,0.2571121,-96.290331,161.70393)"
       inkscape:collect="always"
       xlink:href="#linearGradient4168"
       id="linearGradient838"
       gradientUnits="userSpaceOnUse"
       x1="377.1279"
       y1="503.38635"
       x2="341.64212"
       y2="541.17389" />
    <linearGradient
       inkscape:collect="always"
       id="linearGradient4168">
      <stop
         style="stop-color:#cccccc;stop-opacity:1;"
         offset="0"
         id="stop4170" />
      <stop
         style="stop-color:#ffffff;stop-opacity:1"
         offset="1"
         id="stop4172" />
    </linearGradient>
    <linearGradient
       gradientTransform="matrix(0.2571121,0,0,0.2571121,-96.290331,161.70393)"
       inkscape:collect="always"
       xlink:href="#linearGradient4168"
       id="linearGradient840"
       gradientUnits="userSpaceOnUse"
       x1="346.86444"
       y1="535.99066"
       x2="373.74478"
       y2="507.06476" />
    <linearGradient
       inkscape:collect="always"
       xlink:href="#linearGradient4168"
       id="linearGradient1049"
       gradientUnits="userSpaceOnUse"
       gradientTransform="matrix(0.2571121,0,0,0.2571121,-96.290331,161.70393)"
       x1="377.1279"
       y1="503.38635"
       x2="341.64212"
       y2="541.17389" />
    <linearGradient
       inkscape:collect="always"
       xlink:href="#linearGradient4168"
       id="linearGradient1051"
       gradientUnits="userSpaceOnUse"
       gradientTransform="matrix(0.2571121,0,0,0.2571121,-96.290331,161.70393)"
       x1="346.86444"
       y1="535.99066"
       x2="373.74478"
       y2="507.06476" />
  </defs>
  <sodipodi:namedview
     id="base"
     pagecolor="#ffffff"
     bordercolor="#666666"
     borderopacity="1.0"
     inkscape:pageopacity="0"
     inkscape:pageshadow="2"
     inkscape:zoom="5.9808108"
     inkscape:cx="-21.285891"
     inkscape:cy="24.615456"
     inkscape:document-units="px"
     inkscape:current-layer="layer1"
     showgrid="false"
     inkscape:window-width="1366"
     inkscape:window-height="703"
     inkscape:window-x="0"
     inkscape:window-y="0"
     inkscape:window-maximized="1"
     inkscape:snap-global="false"
     showguides="true"
     inkscape:guide-bbox="true"
     units="px"
     viewbox-width="135.47"
     fit-margin-top="-2.7755576e-17" />
  <metadata
     id="metadata5">
    <rdf:RDF>
      <cc:Work
         rdf:about="">
        <dc:format>image/svg+xml</dc:format>
        <dc:type
           rdf:resource="http://purl.org/dc/dcmitype/StillImage" />
        <dc:title />
      </cc:Work>
    </rdf:RDF>
  </metadata>
  <g
     inkscape:label="Camada 1"
     inkscape:groupmode="layer"
     id="layer1"
     transform="translate(0,-280.06958)">
    <g
       id="g4337"
       transform="matrix(0.10633634,0,0,0.11433392,-0.24365378,277.01765)">
      <path
         sodipodi:nodetypes="sscccccccccccccccccccccs"
         inkscape:connector-curvature="0"
         id="path4338"
         d="m 18.755006,45.849714 c -2.880759,0 -5.199605,2.557573 -5.199605,5.734579 v 8.637744 l 0.0434,2.558463 c -0.006,2.970452 -0.0169,5.336391 0.0325,8.666342 l 0.181897,83.481538 135.705532,-0.005 -0.0744,-89.577103 0.0946,-2.970753 0.002,-0.964949 0.002,0.0057 0.0119,-4.15146 c 0.004,-1.504894 -1.23303,-2.733007 -2.76415,-2.716001 l -1.30843,0.01455 -21.46918,-0.191327 H 86.595733 C 84.369275,54.344167 82.61746,54.199067 81.617814,53.900994 78.633347,53.507838 75.983295,52.3588 72.998828,51.380483 l -8.853593,-3.629995 c -1.768315,-0.739712 -3.666968,-1.151435 -5.6125,-1.445341 -1.717005,-0.264782 -3.544809,-0.306734 -5.345333,-0.403449 0,0 -11.16025,-0.07756 -20.593794,-0.05524 l -0.175398,0.0032 z"
         style="fill:url(#linearGradient828);fill-opacity:1;stroke:none;stroke-width:0.26538485px;stroke-linecap:butt;stroke-linejoin:miter;stroke-opacity:1" />
      <path
         sodipodi:nodetypes="ccccccccccccssccccscccccccscccccc"
         inkscape:connector-curvature="0"
         id="path4336"
         d="m 149.92109,62.080845 -39.12991,0.08785 -0.0661,-5.29e-4 H 85.935385 c -3.54689,-0.0284 -7.13367,1.078891 -10.38438,2.374532 l -6.85488,2.970876 c -2.27203,1.10218 -4.69227,2.019118 -7.2161,2.806547 -2.23583,0.76908 -4.38292,0.897781 -6.68145,1.102492 l -4.30994,0.06681 -17.50093,-0.02011 v 7.4e-5 l -4.00027,-0.05733 h -15.23163 c -2.216,0 -3.9997504,1.783755 -3.9997504,3.999759 l 0.004,17.83771 0.002,-0.004 0.2682604,45.362094 0.0258,1.14774 v 8.85889 c 0,3.82259 3.07733,6.97727 6.89984,6.95047 l 7.14736,0.0164 6.9417,-0.01 -0.0253,0.003 71.143965,0.004 v -0.004 l 6.69986,0.0739 h 38.45037 c 3.7118,0 6.69985,-2.98805 6.69985,-6.69986 l -0.11007,-41.77574 5.3e-4,0.005 0.16949,-40.984581 c 1e-5,-2.27815 -1.85212,-4.111892 -4.15271,-4.111892 z"
         style="opacity:1;fill:url(#linearGradient4322);fill-opacity:1;stroke:none;stroke-width:0.26458332px;stroke-linecap:butt;stroke-linejoin:miter;stroke-opacity:0.99607843" />
    </g>
    <g
       id="g1055"
       transform="translate(12.183018,-5.5078927)">
      <path
         inkscape:connector-curvature="0"
         id="rect4147"
         d="m -4.602891,292.99987 v 1.82141 c -0.6874998,7.8e-4 -1.2238999,0.004 -1.2315104,0.0123 -0.021546,0.0222 2.0820192,2.23309 2.1248387,2.23323 0.042822,1.4e-4 2.1793902,-2.20084 2.1580833,-2.22319 -0.00748,-0.008 -0.5358884,-0.0141 -1.2157057,-0.018 v -1.82579 H -4.602891 Z"
         style="opacity:1;fill:url(#linearGradient1049);fill-opacity:1;stroke:url(#linearGradient1051);stroke-width:0.12855606;stroke-miterlimit:4;stroke-dasharray:none;stroke-opacity:1" />
      <rect
         y="297.66696"
         x="-6.2519221"
         height="0.6222772"
         width="5.071559"
         id="rect4152"
         style="opacity:1;fill:url(#linearGradient838);fill-opacity:1;stroke:url(#linearGradient840);stroke-width:0.07713363;stroke-miterlimit:4;stroke-dasharray:none;stroke-opacity:1" />
    </g>
  </g>
</svg>
