<?xml version="1.0" encoding="UTF-8" standalone="no"?>
<!-- Created with Inkscape (http://www.inkscape.org/) -->

<svg
   xmlns:osb="http://www.openswatchbook.org/uri/2009/osb"
   xmlns:dc="http://purl.org/dc/elements/1.1/"
   xmlns:cc="http://creativecommons.org/ns#"
   xmlns:rdf="http://www.w3.org/1999/02/22-rdf-syntax-ns#"
   xmlns:svg="http://www.w3.org/2000/svg"
   xmlns="http://www.w3.org/2000/svg"
   xmlns:xlink="http://www.w3.org/1999/xlink"
   xmlns:sodipodi="http://sodipodi.sourceforge.net/DTD/sodipodi-0.dtd"
   xmlns:inkscape="http://www.inkscape.org/namespaces/inkscape"
   width="32"
   version="1.1"
   height="32"
   viewBox="0 0 32 32"
   id="svg2"
   inkscape:version="0.91 r13725"
   sodipodi:docname="applications-internet.svg">
  <sodipodi:namedview
     pagecolor="#ffffff"
     bordercolor="#666666"
     borderopacity="1"
     objecttolerance="10"
     gridtolerance="10"
     guidetolerance="10"
     inkscape:pageopacity="0"
     inkscape:pageshadow="2"
     inkscape:window-width="1366"
     inkscape:window-height="700"
     id="namedview32"
     showgrid="false"
     showguides="false"
     inkscape:zoom="10.429825"
     inkscape:cx="-18.709297"
     inkscape:cy="10.044704"
     inkscape:window-x="0"
     inkscape:window-y="0"
     inkscape:window-maximized="1"
     inkscape:current-layer="layer1" />
  <defs
     id="defs5455">
    <linearGradient
       inkscape:collect="always"
       id="linearGradient4195">
      <stop
         style="stop-color:#b3b3b3;stop-opacity:1"
         offset="0"
         id="stop4197" />
      <stop
         style="stop-color:#f9f9f9;stop-opacity:1"
         offset="1"
         id="stop4199" />
    </linearGradient>
    <linearGradient
       id="linearGradient4256">
      <stop
         style="stop-color:#8cbdf8"
         id="stop4258" />
      <stop
         offset="1"
         style="stop-color:#d5e8ff"
         id="stop4260" />
    </linearGradient>
    <linearGradient
       id="linearGradient4232">
      <stop
         style="stop-color:#3889e9"
         id="stop4234-0" />
      <stop
         offset="1"
         style="stop-color:#5ea5fb"
         id="stop4236" />
    </linearGradient>
    <linearGradient
       inkscape:collect="always"
       xlink:href="#linearGradient4232"
       id="linearGradient3426"
       y1="545.79797"
       y2="517.79797"
       x2="0"
       gradientUnits="userSpaceOnUse" />
    <filter
       style="color-interpolation-filters:sRGB"
       inkscape:label="Drop Shadow"
       id="filter6454-9">
      <feFlood
         flood-opacity="0.498039"
         flood-color="rgb(0,0,0)"
         result="flood"
         id="feFlood6444-5" />
      <feComposite
         in="flood"
         in2="SourceGraphic"
         operator="out"
         result="composite1"
         id="feComposite6446-0" />
      <feGaussianBlur
         in="composite1"
         stdDeviation="12.5"
         result="blur"
         id="feGaussianBlur6448-4" />
      <feOffset
         dx="-2"
         dy="-6.38378e-016"
         result="offset"
         id="feOffset6450-5" />
      <feComposite
         in="offset"
         in2="SourceGraphic"
         operator="atop"
         result="composite2"
         id="feComposite6452-0" />
    </filter>
    <filter
       style="color-interpolation-filters:sRGB"
       inkscape:label="Drop Shadow"
       id="filter6964-8">
      <feFlood
         flood-opacity="0.498039"
         flood-color="rgb(0,0,0)"
         result="flood"
         id="feFlood6954-7" />
      <feComposite
         in="flood"
         in2="SourceGraphic"
         operator="in"
         result="composite1"
         id="feComposite6956-5" />
      <feGaussianBlur
         in="composite1"
         stdDeviation="12.5"
         result="blur"
         id="feGaussianBlur6958-1" />
      <feOffset
         dx="-11.2"
         dy="20.8333"
         result="offset"
         id="feOffset6960-3" />
      <feComposite
         in="SourceGraphic"
         in2="offset"
         operator="over"
         result="composite2"
         id="feComposite6962-8" />
    </filter>
    <linearGradient
       id="linearGradient5997"
       osb:paint="solid">
      <stop
         style="stop-color:#9c1458;stop-opacity:1;"
         offset="0"
         id="stop5995" />
    </linearGradient>
    <filter
       id="filter777"
       inkscape:label="Drop Shadow"
       style="color-interpolation-filters:sRGB;">
      <feFlood
         id="feFlood767"
         result="flood"
         flood-color="rgb(0,0,0)"
         flood-opacity="0.498039" />
      <feComposite
         id="feComposite769"
         result="composite1"
         operator="in"
         in2="SourceGraphic"
         in="flood" />
      <feGaussianBlur
         id="feGaussianBlur771"
         result="blur"
         stdDeviation="3"
         in="composite1" />
      <feOffset
         id="feOffset773"
         result="offset"
         dy="7"
         dx="1" />
      <feComposite
         id="feComposite775"
         result="composite2"
         operator="over"
         in2="offset"
         in="SourceGraphic" />
    </filter>
    <filter
       id="filter789"
       inkscape:label="Drop Shadow"
       style="color-interpolation-filters:sRGB;">
      <feFlood
         id="feFlood779"
         result="flood"
         flood-color="rgb(0,0,0)"
         flood-opacity="0.498039" />
      <feComposite
         id="feComposite781"
         result="composite1"
         operator="in"
         in2="SourceGraphic"
         in="flood" />
      <feGaussianBlur
         id="feGaussianBlur783"
         result="blur"
         stdDeviation="3"
         in="composite1" />
      <feOffset
         id="feOffset785"
         result="offset"
         dy="7"
         dx="1" />
      <feComposite
         id="feComposite787"
         result="composite2"
         operator="over"
         in2="offset"
         in="SourceGraphic" />
    </filter>
    <filter
       id="filter6454"
       inkscape:label="Drop Shadow"
       style="color-interpolation-filters:sRGB">
      <feFlood
         id="feFlood6444"
         result="flood"
         flood-color="rgb(0,0,0)"
         flood-opacity="0.498039" />
      <feComposite
         id="feComposite6446"
         result="composite1"
         operator="out"
         in2="SourceGraphic"
         in="flood" />
      <feGaussianBlur
         id="feGaussianBlur6448"
         result="blur"
         stdDeviation="12.5"
         in="composite1" />
      <feOffset
         id="feOffset6450"
         result="offset"
         dy="-6.38378e-016"
         dx="-2" />
      <feComposite
         id="feComposite6452"
         result="composite2"
         operator="atop"
         in2="SourceGraphic"
         in="offset" />
    </filter>
    <filter
       id="filter5674"
       inkscape:label="Drop Shadow"
       style="color-interpolation-filters:sRGB">
      <feFlood
         id="feFlood5664"
         result="flood"
         flood-color="rgb(0,0,0)"
         flood-opacity="0.498039" />
      <feComposite
         id="feComposite5666"
         result="composite1"
         operator="in"
         in2="SourceGraphic"
         in="flood" />
      <feGaussianBlur
         id="feGaussianBlur5668"
         result="blur"
         stdDeviation="12.5"
         in="composite1" />
      <feOffset
         id="feOffset5670"
         result="offset"
         dy="25.3"
         dx="-6.8" />
      <feComposite
         id="feComposite5672"
         result="composite2"
         operator="over"
         in2="offset"
         in="SourceGraphic" />
    </filter>
    <filter
       id="filter6964"
       inkscape:label="Drop Shadow"
       style="color-interpolation-filters:sRGB">
      <feFlood
         id="feFlood6954"
         result="flood"
         flood-color="rgb(0,0,0)"
         flood-opacity="0.498039" />
      <feComposite
         id="feComposite6956"
         result="composite1"
         operator="in"
         in2="SourceGraphic"
         in="flood" />
      <feGaussianBlur
         id="feGaussianBlur6958"
         result="blur"
         stdDeviation="12.5"
         in="composite1" />
      <feOffset
         id="feOffset6960"
         result="offset"
         dy="20.8333"
         dx="-11.2" />
      <feComposite
         id="feComposite6962"
         result="composite2"
         operator="over"
         in2="offset"
         in="SourceGraphic" />
    </filter>
    <linearGradient
       gradientTransform="translate(-49.696477,-23.809022)"
       inkscape:collect="always"
       xlink:href="#linearGradient4143"
       id="linearGradient4229"
       y1="545.79797"
       y2="517.79797"
       gradientUnits="userSpaceOnUse"
       x2="0" />
    <linearGradient
       inkscape:collect="always"
       id="linearGradient4143">
      <stop
         style="stop-color:#197cf1"
         id="stop4145" />
      <stop
         offset="1"
         style="stop-color:#2099fa;stop-opacity:1"
         id="stop4147" />
    </linearGradient>
    <filter
       inkscape:collect="always"
       style="color-interpolation-filters:sRGB"
       id="filter4204"
       x="-0.0468476"
       width="1.0936952"
       y="-0.046752494"
       height="1.093505">
      <feGaussianBlur
         inkscape:collect="always"
         stdDeviation="0.5190238"
         id="feGaussianBlur4206" />
    </filter>
    <linearGradient
       inkscape:collect="always"
       xlink:href="#linearGradient4195"
       id="linearGradient4201"
       x1="333.64362"
       y1="522.27472"
       x2="333.39798"
       y2="492.74402"
       gradientUnits="userSpaceOnUse" />
  </defs>
  <metadata
     id="metadata5458">
    <rdf:RDF>
      <cc:Work
         rdf:about="">
        <dc:format>image/svg+xml</dc:format>
        <dc:type
           rdf:resource="http://purl.org/dc/dcmitype/StillImage" />
        <dc:title></dc:title>
      </cc:Work>
    </rdf:RDF>
  </metadata>
  <g
     inkscape:label="Capa 1"
     inkscape:groupmode="layer"
     id="layer1"
     transform="matrix(1 0 0 1 -384.57143 -515.798)">
    <ellipse
       cx="400.57138"
       cy="531.79791"
       style="fill:url(#linearGradient3426);stroke-width:4"
       id="ellipse4233" />
    <g
       id="g3382"
       transform="translate(50.305085,23.186445)">
      <circle
         r="13.999958"
         id="path3377"
         style="fill:url(#linearGradient4229);stroke-width:4"
         cy="507.98889"
         cx="350.87491" />
      <path
         d="m 350.17098,495.3449 c -1.6803,0 -3.27964,0.32055 -4.75767,0.88336 -0.10747,0.0988 -0.2472,0.17464 -0.35777,0.16524 -0.0151,-0.002 -0.0302,-0.011 -0.0457,-0.0165 -0.72858,0.3048 -1.41971,0.67829 -2.07505,1.10191 0.0852,0.13823 0.11046,0.29212 -0.065,0.36689 -0.0295,0.0125 -0.40005,0.0498 -0.52948,0.0469 -1.86359,1.35413 -3.35855,3.17538 -4.31405,5.30149 0.0154,-0.003 0.0287,-0.01 0.0443,-0.0103 0.14503,-0.003 0.35379,0.0393 0.49307,0.0689 0.12854,0.0263 0.23221,0.11263 0.34344,0.12099 0.3157,0.024 0.39164,-0.22154 0.6492,-0.35906 0.26611,0.0377 0.44268,-0.0449 0.68301,-0.0181 0.16383,0.0181 0.28215,0.19313 0.40982,0.20297 0.10735,0.011 0.20182,-0.10063 0.30573,-0.0848 0.10094,0.0155 0.275,0.23568 0.29143,0.35906 0.0209,0.15357 -0.113,0.29187 -0.0689,0.46056 0.16087,0.16382 0.45315,0.19703 0.68301,0.29141 0.14971,-0.12336 0.0197,-0.35223 0,-0.5308 -0.003,-0.0786 0.011,-0.14873 0,-0.22117 -0.0138,-0.12296 -0.0667,-0.2356 -0.0676,-0.34085 -0.003,-0.48607 0.39211,-0.71355 0.71812,-0.90547 0.14113,-0.0836 0.25226,-0.23019 0.37469,-0.29143 0.17294,-0.0868 0.30174,-0.1069 0.44494,-0.18733 0.25875,-0.14536 0.48068,-0.26203 0.68301,-0.42674 0.0935,-0.22039 0.01,-0.51592 0.0169,-0.73375 0.0936,-0.0574 0.17398,0.0245 0.27322,0.0165 0.15614,-0.0324 0.1691,-0.25287 0.25758,-0.34082 0.0511,-0.0503 0.1924,-0.0865 0.25629,-0.13663 0.15557,-0.12206 0.20626,-0.30645 0.34217,-0.35906 0.0484,-0.0196 0.16122,-0.0142 0.23808,-0.035 0.10114,-0.0268 0.24506,-0.14646 0.40979,-0.20292 0.10734,-0.0377 0.35322,-0.0445 0.39419,-0.0858 0.0503,-0.0513 -6.7e-4,-0.19605 0.0168,-0.27318 0.0828,-0.38561 0.66364,-0.46733 1.00695,-0.59716 0.24066,-0.0911 0.48757,-0.25813 0.75197,-0.20687 -0.0517,0.18326 -0.29804,0.11831 -0.25629,0.34087 0.0577,0.30881 0.47115,-0.0884 0.58025,-0.134 0.20838,-0.0878 0.56569,-0.14148 0.83911,-0.24069 0.23976,-0.0878 0.66963,-0.22143 0.44366,-0.49566 -0.18849,-0.011 -0.27937,0.22118 -0.44366,0.2914 -0.11347,0.0182 -0.0918,-0.095 -0.18864,-0.10402 -0.092,-0.011 -0.14354,0.0849 -0.23809,0.0688 -0.0941,-0.0155 -0.22596,-0.16331 -0.24066,-0.27321 -0.0377,-0.28513 0.24097,-0.40269 0.35906,-0.61536 -0.0781,-0.25792 -0.43486,-0.0524 -0.65048,-0.15351 0.0208,-0.15357 0.17969,-0.25947 0.35907,-0.28882 0.14703,-0.0245 0.47706,-0.0123 0.56462,0.0662 0.0505,0.0434 0.004,0.15083 0.0858,0.22245 0.0872,0.0786 0.1941,0.0704 0.30706,0.0521 0.0404,-0.19463 -0.2531,-0.14581 -0.22118,-0.27451 0.23074,-0.15093 0.60608,-0.0271 0.88858,-0.0689 0.16262,-0.024 0.33334,-0.13877 0.47745,-0.21984 0.13706,-0.0777 0.31513,-0.21361 0.46057,-0.0859 0.0391,0.13948 -0.12666,0.18563 -0.20427,0.25499 -0.26137,0.23248 -0.5306,0.49884 -0.73375,0.76887 0.12463,0.12156 0.35114,0.0605 0.56202,0.0858 0.0824,0.011 0.18602,0.0353 0.27319,0.0508 0.10207,0.0182 0.21038,0.0129 0.29012,0.0341 0.14349,0.0352 0.18188,0.18863 0.32397,0.18863 0.23367,-4.1e-4 0.23646,-0.2532 0.10401,-0.41111 0.0419,-0.1612 0.10736,-0.24485 0.0508,-0.35777 -0.10525,-0.21055 -0.49143,-0.011 -0.51128,-0.27319 -0.0125,-0.17034 0.1425,-0.16272 0.20425,-0.29011 -0.0281,-0.32908 0.26991,-0.35292 0.23808,-0.64788 -0.0138,-0.1234 -0.11784,-0.12509 -0.20425,-0.2407 -0.0434,-0.0564 -0.0659,-0.16575 -0.11579,-0.21466 -0.39859,-0.0351 -0.80174,-0.0572 -1.20989,-0.0572 z m -6.87436,2.68782 0.002,0 c 0.0795,0.011 0.17558,0.0967 0.2719,0.10414 0.0911,0.003 0.16633,-0.0502 0.22247,-0.0351 0.14282,0.0378 0.20306,0.25335 0.0687,0.35907 -0.11166,0.0138 -0.1552,-0.0488 -0.23938,-0.0342 -0.232,0.0395 -0.32099,0.49382 -0.49438,0.47877 -0.16348,-0.0138 -0.25198,-0.41219 -0.0857,-0.53078 0.011,-0.10359 -0.0755,-0.12015 -0.0701,-0.22247 0.049,-0.0632 0.18936,-0.13064 0.32524,-0.11965 z m -0.76886,0.0534 c 0.0471,0.002 0.0831,0.0129 0.10145,0.0339 -0.0226,0.18207 -0.16512,0.17012 -0.30573,0.25498 -0.24286,0.14658 -0.38327,0.36993 -0.46054,0.68302 -0.0223,0.0911 -0.2617,0.3325 -0.37728,0.30835 -0.27087,-0.0571 0.0748,-0.55642 0.13661,-0.6323 0.0687,-0.0841 0.16014,-0.15787 0.24067,-0.25499 0.0777,-0.0941 0.12898,-0.22101 0.20425,-0.27319 0.0824,-0.0571 0.31787,-0.12517 0.46055,-0.11966 z m 2.0217,0.61405 c 0.0868,0.002 0.16476,0.0155 0.20034,0.0508 -0.0557,0.22558 -0.54171,0.16601 -0.71943,0.0844 0.011,-0.0851 0.1445,-0.10858 0.2563,-0.11966 0.0786,-0.003 0.17618,-0.0182 0.26279,-0.0155 z m -1.10581,0.41633 c 0.0577,-0.002 0.11626,0.011 0.17693,0.0271 -0.1572,0.13149 -0.3272,0.20598 -0.59716,0.2914 -0.1298,0.0408 -0.35397,0.0918 -0.37598,-0.0534 -0.0268,-0.17766 0.18981,-0.13632 0.30832,-0.15222 0.14924,-0.0205 0.31306,-0.10757 0.48789,-0.11323 z m 16.96473,1.01214 c -0.0202,0.0487 -0.035,0.0963 -0.0327,0.1431 0.011,0.0824 0.10084,0.16172 0.12098,0.27322 0.011,0.0594 -0.0277,0.18679 0,0.24071 0.0822,0.15948 0.29748,0.0448 0.45146,0.0534 -0.17492,-0.24086 -0.34959,-0.48213 -0.53992,-0.71033 z m 0.87295,1.1748 c -0.0245,0.1177 -0.10446,0.27117 -0.16911,0.36947 -0.1489,0.22647 -0.35114,0.23702 -0.56462,0.35777 -0.17805,0.10094 -0.25469,0.26938 -0.35909,0.44493 -0.11311,0.18964 -0.18317,0.30421 -0.13658,0.57897 -0.15264,0.30275 -0.38377,0.48825 -0.69993,0.63225 -0.0935,0.0423 -0.22124,0.0581 -0.30703,0.11965 -0.0684,0.049 -0.10713,0.18104 -0.20425,0.2901 -0.11977,0.1333 -0.24537,0.18954 -0.30835,0.29143 -0.0484,0.0786 -0.0658,0.23524 -0.11965,0.34085 -0.0727,0.14344 -0.22821,0.21373 -0.32397,0.35908 -0.0435,0.0675 -0.0726,0.2034 -0.12098,0.29143 -0.10824,0.19664 -0.29307,0.3383 -0.27322,0.51126 0.0196,0.16714 0.20953,0.19646 0.22246,0.34217 0.003,0.0823 -0.0543,0.1327 -0.0508,0.22246 0.003,0.13107 0.0915,0.22307 0.10146,0.32396 0.0254,0.25357 -0.0862,0.35479 -0.134,0.52817 -0.0226,0.0828 -0.0129,0.17601 -0.0351,0.2407 -0.0421,0.12695 -0.21894,0.2415 -0.22247,0.39159 -0.002,0.10669 0.10947,0.19243 0.11845,0.34216 0.003,0.10335 -0.0507,0.21343 -0.0325,0.30833 0.0364,0.18586 0.36811,0.402 0.5126,0.54641 0.19323,0.19325 0.4462,0.3428 0.52948,0.54642 0.0701,0.17291 0.0696,0.39785 0.20427,0.52819 0.0996,0.0962 0.26527,0.1562 0.39288,0.25626 0.11907,0.0934 0.24877,0.1741 0.376,0.2732 0.20789,0.16267 0.52222,0.48688 0.85343,0.46189 0.17297,-0.0125 0.35022,-0.15381 0.54643,-0.18865 0.20183,-0.0363 0.46376,-0.0549 0.66738,-0.0339 0.15597,0.0152 0.31662,0.1089 0.47876,0.10145 0.17119,-0.011 0.36751,-0.1375 0.56203,-0.22247 0.15651,-0.0682 0.3486,-0.1436 0.55941,-0.19907 0.0967,-0.64979 0.14832,-1.31553 0.14832,-1.99308 0,-2.72784 -0.81567,-5.25617 -2.21165,-7.36354 z m -22.03336,4.47665 c -0.28373,0.0154 -0.46966,0.0285 -0.63094,0.10145 -0.36961,0.16818 -0.29819,0.66763 -0.66743,0.78579 -0.12771,0.0408 -0.30305,0.0428 -0.44361,0.0688 -0.12136,0.0222 -0.26915,0.0884 -0.39422,0.0857 -0.0351,-4.5e-4 -0.0839,-0.0264 -0.12749,-0.0404 -0.0327,0.2342 -0.0601,0.47102 -0.0808,0.70904 0.35126,0.0675 0.53256,0.53289 0.84305,0.68692 0.0851,0.0422 0.19621,0.0444 0.30573,0.0688 0.0883,0.0196 0.1555,0.0571 0.24065,0.086 0.18067,0.0614 0.40193,0.0539 0.54643,0.11845 0.21773,0.0967 0.37738,0.50582 0.56462,0.61538 0.011,0.11035 -0.0215,0.25855 0.0168,0.34082 0.0884,0.12001 0.21334,0.0935 0.35909,0.17173 0.17432,0.0941 0.22766,0.33689 0.39286,0.41109 0.057,0.0253 0.20003,0.0218 0.29015,0.0495 0.22639,0.0684 0.3003,0.33045 0.49438,0.2732 0.12727,-0.0377 0.11723,-0.16846 0.13788,-0.29012 0.0841,-0.0911 0.1759,-0.23551 0.30704,-0.23808 0.21223,-0.011 0.23113,0.2193 0.30831,0.4254 0.0435,0.11651 0.15758,0.218 0.18736,0.34087 0.0528,0.21226 0.0265,0.84757 -0.0182,0.97442 -0.0534,0.15564 -0.26427,0.22165 -0.39419,0.39422 -0.0614,0.0809 -0.0905,0.19943 -0.13661,0.25627 -0.0837,0.10196 -0.208,0.12851 -0.27058,0.22248 -0.0355,0.0528 -0.0697,0.16652 -0.10414,0.23807 -0.10258,0.21735 -0.2398,0.37135 -0.15354,0.63229 0.0363,0.10736 0.20383,0.17935 0.20427,0.30572 4.7e-4,0.14873 -0.31632,0.28188 -0.34084,0.44492 -0.0182,0.12134 0.098,0.33785 0.13657,0.49569 0.0283,0.1193 0.25364,0.19385 0.32397,0.27322 0.1199,0.13459 0.2157,0.32529 0.32521,0.49437 0.2166,0.33254 0.38631,0.73811 0.59719,1.06029 0.11143,0.16876 0.26791,0.32049 0.34213,0.49568 0.0382,0.0884 0.0327,0.19376 0.0676,0.27319 0.12206,0.27552 0.66113,0.56317 0.9393,0.69993 0.13022,0.0635 0.27469,0.0858 0.39421,0.15221 0.18101,0.10094 0.53959,0.37206 0.63097,0.5308 0.0815,0.14268 0.13214,0.48999 0.17172,0.71684 0.0529,0.29981 6.1e-4,0.53001 0.0168,0.85474 0.011,0.17559 0.0671,0.35216 0.0689,0.52821 6.7e-4,0.0618 -0.0327,0.10747 -0.0353,0.17042 -9e-5,0.0103 0.004,0.0218 0.004,0.0324 1.67774,0.75928 3.53685,1.19171 5.50443,1.19171 0.35548,0 0.70678,-0.0184 1.05508,-0.0457 0.0152,-0.0262 0.0293,-0.0535 0.0482,-0.0778 0.0802,-0.10526 0.15139,-0.19743 0.20428,-0.29011 0.0503,-0.31187 -0.12439,-0.52971 -0.0508,-0.8027 0.0815,-0.30666 0.50554,-0.49394 0.80273,-0.63229 0.10217,-0.0471 0.20683,-0.12459 0.29009,-0.1535 0.20567,-0.0715 0.46247,-0.0326 0.65049,-0.10146 0.32001,-0.11711 0.35345,-0.46041 0.51128,-0.752 0.0743,-0.13804 0.17276,-0.27631 0.18736,-0.37465 0.0129,-0.0884 -0.0325,-0.17157 -0.0181,-0.27581 0.0153,-0.10314 0.10802,-0.19237 0.13661,-0.30574 0.0377,-0.14795 0.0534,-0.36469 0.0534,-0.52949 0,-0.13527 -0.0635,-0.25397 -0.0685,-0.376 -0.0221,-0.44303 0.16003,-0.4926 0.32397,-0.73372 0.0822,-0.11978 0.11299,-0.25633 0.1704,-0.34218 0.27521,-0.41057 0.75269,-0.60879 0.71815,-1.22943 -0.011,-0.20534 -0.14033,-0.66948 -0.29142,-0.73502 -0.0865,-0.0378 -0.28475,-0.003 -0.40981,-0.0508 -0.40373,-0.15058 -0.64066,-0.65104 -1.05898,-0.68301 -0.0894,-0.011 -0.17137,0.0368 -0.27192,0.0351 -0.16556,-0.011 -0.41515,-0.1159 -0.59845,-0.1366 -0.11649,-0.0125 -0.27223,0.0347 -0.34216,0 -0.10657,-0.0518 -0.11748,-0.24842 -0.20426,-0.30702 -0.0686,-0.0474 -0.20268,-0.0636 -0.30702,-0.10404 -0.16821,-0.0644 -0.30158,-0.13997 -0.49567,-0.15348 -0.06,-0.003 -0.13451,0.0285 -0.20426,0.0182 -0.10735,-0.0182 -0.19232,-0.14525 -0.2914,-0.20556 -0.12412,-0.0755 -0.23881,-0.11215 -0.29014,-0.21984 0.11214,-0.36793 -0.19778,-0.47046 -0.2732,-0.68303 -0.0362,-0.0996 -0.0193,-0.21948 -0.0508,-0.30833 -0.0444,-0.12728 -0.17038,-0.20083 -0.30835,-0.30702 -0.24714,-0.19023 -0.46639,-0.36885 -0.8196,-0.41242 -0.15531,-0.0196 -0.30937,0.0464 -0.497,0.0351 -0.19879,-0.0125 -0.44841,-0.18649 -0.59712,-0.35645 -0.14457,-0.16597 -0.2149,-0.31491 -0.34087,-0.39422 -0.11928,-0.0764 -0.27762,-0.0745 -0.35907,-0.15221 -0.0366,-0.0341 -0.0298,-0.0919 -0.0688,-0.17173 -0.06,-0.12424 -0.1607,-0.19331 -0.0857,-0.34214 -0.13612,-0.0699 -0.13987,0.12988 -0.28881,0.10402 -0.13279,-0.18847 -0.24495,-0.27773 -0.54644,-0.22248 -0.13804,0.0254 -0.21512,0.19994 -0.37596,0.20426 -0.13193,0.011 -0.23556,-0.14698 -0.40981,-0.17173 -0.13154,-0.0182 -0.28106,0.0356 -0.3747,0.0178 -0.14577,-0.0291 -0.19077,-0.15052 -0.32395,-0.23807 -0.0977,-0.0643 -0.28738,-0.17347 -0.34214,-0.17173 -0.17169,0.011 -0.29403,0.36483 -0.53079,0.23939 -0.11506,-0.14583 0.18741,-0.22267 0.0508,-0.35911 -0.10346,-0.10345 -0.19043,0.0469 -0.2732,0.10414 -0.0949,0.0657 -0.18401,0.13033 -0.28883,0.16913 -0.23463,0.0878 -0.38127,0.0421 -0.56462,0.1366 -0.16978,0.0879 -0.17701,0.23508 -0.2732,0.40981 -0.0786,0.14312 -0.2578,0.35173 -0.37597,0.36037 -0.14317,0.011 -0.27999,-0.20015 -0.40981,-0.25629 -0.39119,-0.16944 -0.58067,0.15045 -0.90547,0.15481 -0.30146,0.011 -0.73202,-0.48677 -0.71684,-0.77018 0.003,-0.17292 0.0994,-0.43525 0.11965,-0.64918 0.0182,-0.17015 0.13467,-0.27271 0.13663,-0.42803 0.003,-0.20746 -0.2752,-0.36697 -0.40983,-0.39159 -0.31911,-0.0587 -0.76219,0.12839 -1.12793,-0.0182 -0.0698,-0.11577 0.0818,-0.19576 0.121,-0.30835 0.0222,-0.0641 0.01,-0.14945 0.0326,-0.21987 0.0408,-0.10879 0.15455,-0.19308 0.20555,-0.30832 0.0381,-0.0879 0.0474,-0.21482 0.0857,-0.32393 0.0448,-0.12428 0.127,-0.20429 0.13661,-0.29144 0.0125,-0.11505 -0.0309,-0.24808 -0.121,-0.32393 z m 4.56644,3.61542 c 0.11578,0.011 0.13028,0.25007 0.0121,0.26934 -0.12771,0.0197 -0.19266,-0.20034 -0.0687,-0.25764 0.0207,-0.011 0.0409,-0.011 0.0572,-0.0103 l 0,-0.002 z"
         id="path34-7-3"
         style="opacity:0.20899999;fill:#000000;stroke-width:0.69999999;filter:url(#filter4204)"
         inkscape:connector-curvature="0" />
      <path
         inkscape:connector-curvature="0"
         style="fill:url(#linearGradient4201);stroke-width:0.69999999;fill-opacity:1"
         id="path4150"
         d="m 350.84618,493.98897 c -1.76581,0 -3.44655,0.33686 -4.99979,0.92831 -0.11294,0.10381 -0.25978,0.18353 -0.37598,0.17365 -0.0159,-0.002 -0.0317,-0.0116 -0.048,-0.0173 -0.76565,0.32032 -1.49196,0.71281 -2.18065,1.15799 0.0895,0.14527 0.11608,0.30699 -0.0683,0.38556 -0.031,0.0131 -0.4204,0.0523 -0.55642,0.0493 -1.95843,1.42304 -3.52947,3.33698 -4.5336,5.57129 0.0162,-0.003 0.0302,-0.01 0.0466,-0.0108 0.15241,-0.003 0.37179,0.0413 0.51816,0.0724 0.13508,0.0277 0.24403,0.11837 0.36092,0.12715 0.33177,0.0252 0.41157,-0.23281 0.68224,-0.37733 0.27965,0.0396 0.46521,-0.0472 0.71777,-0.019 0.17216,0.019 0.29651,0.20296 0.43067,0.2133 0.11282,0.0116 0.21209,-0.10575 0.32129,-0.0891 0.10608,0.0163 0.289,0.24768 0.30626,0.37734 0.022,0.16138 -0.11875,0.30672 -0.0724,0.48399 0.16905,0.17217 0.47621,0.20706 0.71777,0.30625 0.15733,-0.12963 0.0207,-0.37016 0,-0.55782 -0.003,-0.0826 0.0116,-0.1563 0,-0.23242 -0.0145,-0.12922 -0.0701,-0.24759 -0.071,-0.3582 -0.003,-0.51081 0.41206,-0.74986 0.75466,-0.95155 0.14832,-0.0879 0.2651,-0.24191 0.39376,-0.30626 0.18174,-0.0912 0.3171,-0.11234 0.46759,-0.19687 0.27191,-0.15275 0.50514,-0.27536 0.71777,-0.44845 0.0983,-0.23161 0.01,-0.54218 0.0177,-0.77109 0.0984,-0.0603 0.18284,0.0258 0.28713,0.0173 0.16408,-0.0341 0.1777,-0.26574 0.27069,-0.35816 0.0537,-0.0529 0.20219,-0.0909 0.26933,-0.14358 0.16349,-0.12828 0.21676,-0.32205 0.35958,-0.37734 0.0509,-0.0206 0.16943,-0.0149 0.2502,-0.0368 0.10629,-0.0282 0.25753,-0.15391 0.43064,-0.21325 0.11281,-0.0396 0.3712,-0.0468 0.41425,-0.0902 0.0529,-0.0539 -7e-4,-0.20603 0.0177,-0.28709 0.087,-0.40523 0.69742,-0.49111 1.0582,-0.62755 0.2529,-0.0957 0.51238,-0.27126 0.79024,-0.2174 -0.0543,0.19259 -0.31321,0.12434 -0.26934,0.35822 0.0606,0.32453 0.49513,-0.0929 0.60978,-0.14082 0.21899,-0.0923 0.59448,-0.14868 0.88182,-0.25294 0.25196,-0.0923 0.7037,-0.2327 0.46623,-0.52088 -0.19808,-0.0116 -0.29358,0.23243 -0.46623,0.30623 -0.11925,0.0191 -0.0965,-0.0998 -0.19824,-0.10932 -0.0967,-0.0116 -0.15085,0.0892 -0.25021,0.0723 -0.0989,-0.0163 -0.23746,-0.17163 -0.25291,-0.28712 -0.0396,-0.29964 0.25323,-0.42318 0.37733,-0.64668 -0.0821,-0.27104 -0.45699,-0.0551 -0.68358,-0.16132 0.0219,-0.16138 0.18883,-0.27267 0.37734,-0.30352 0.15452,-0.0258 0.50134,-0.0129 0.59336,0.0696 0.0531,0.0456 0.004,0.15851 0.0902,0.23378 0.0916,0.0826 0.20397,0.074 0.32268,0.0547 0.0425,-0.20453 -0.26598,-0.15323 -0.23243,-0.28847 0.24248,-0.15862 0.63692,-0.0285 0.9338,-0.0724 0.17089,-0.0252 0.3503,-0.14583 0.50175,-0.23103 0.14403,-0.0817 0.33116,-0.22448 0.484,-0.0903 0.0411,0.14658 -0.1331,0.19508 -0.21466,0.26796 -0.27467,0.24432 -0.5576,0.52423 -0.77109,0.808 0.13097,0.12775 0.36901,0.0636 0.59062,0.0902 0.0866,0.0116 0.19549,0.0371 0.28709,0.0534 0.10727,0.0191 0.22109,0.0136 0.30489,0.0358 0.15079,0.037 0.19113,0.19823 0.34045,0.19823 0.24557,-4.3e-4 0.2485,-0.26609 0.10931,-0.43203 0.044,-0.16941 0.11282,-0.25731 0.0534,-0.37598 -0.1106,-0.22126 -0.51644,-0.0116 -0.5373,-0.28709 -0.0131,-0.17901 0.14976,-0.171 0.21465,-0.30488 -0.0295,-0.34582 0.28365,-0.37088 0.25019,-0.68085 -0.0145,-0.12968 -0.12383,-0.13145 -0.21464,-0.25295 -0.0456,-0.0593 -0.0693,-0.17418 -0.12168,-0.22558 -0.41888,-0.0369 -0.84254,-0.0601 -1.27147,-0.0601 z m -7.2242,2.8246 0.002,0 c 0.0835,0.0116 0.18452,0.10166 0.28574,0.10944 0.0957,0.003 0.17479,-0.0527 0.23379,-0.0369 0.15009,0.0397 0.2134,0.26624 0.0722,0.37734 -0.11734,0.0145 -0.1631,-0.0513 -0.25156,-0.0359 -0.24381,0.0415 -0.33733,0.51895 -0.51954,0.50314 -0.1718,-0.0145 -0.26481,-0.43317 -0.0901,-0.5578 0.0116,-0.10886 -0.0793,-0.12626 -0.0737,-0.23379 0.0515,-0.0664 0.199,-0.13729 0.3418,-0.12574 z m -0.80799,0.0561 c 0.0495,0.002 0.0873,0.0136 0.10661,0.0356 -0.0237,0.19134 -0.17352,0.17878 -0.32129,0.26796 -0.25522,0.15404 -0.40277,0.38876 -0.48398,0.71778 -0.0234,0.0957 -0.27501,0.34942 -0.39648,0.32404 -0.28465,-0.06 0.0786,-0.58473 0.14356,-0.66447 0.0722,-0.0884 0.1683,-0.16591 0.25292,-0.26797 0.0817,-0.0989 0.13555,-0.23226 0.21465,-0.28709 0.0866,-0.06 0.33404,-0.13155 0.48399,-0.12575 z m 2.12458,0.6453 c 0.0912,0.002 0.17315,0.0163 0.21054,0.0534 -0.0585,0.23706 -0.56928,0.17446 -0.75604,0.0887 0.0116,-0.0894 0.15185,-0.1141 0.26934,-0.12575 0.0826,-0.003 0.18515,-0.0191 0.27616,-0.0163 z m -1.16208,0.43752 c 0.0606,-0.002 0.12217,0.0116 0.18593,0.0285 -0.1652,0.13818 -0.34385,0.21646 -0.62755,0.30623 -0.1364,0.0429 -0.37198,0.0965 -0.39511,-0.0561 -0.0282,-0.1867 0.19947,-0.14326 0.32401,-0.15996 0.15683,-0.0216 0.32899,-0.11305 0.51272,-0.119 z m 17.82809,1.06365 c -0.0212,0.0512 -0.0368,0.10123 -0.0344,0.15038 0.0116,0.0866 0.10597,0.16995 0.12714,0.28712 0.0116,0.0624 -0.0291,0.1963 0,0.25296 0.0864,0.1676 0.31262,0.0471 0.47443,0.0561 -0.18382,-0.25312 -0.36738,-0.50666 -0.5674,-0.74648 z m 0.91737,1.23458 c -0.0257,0.12369 -0.10978,0.28498 -0.17771,0.38828 -0.15648,0.23799 -0.36901,0.24908 -0.59336,0.37598 -0.18711,0.10607 -0.26765,0.28308 -0.37736,0.46757 -0.11887,0.19929 -0.1925,0.31969 -0.14353,0.60843 -0.16041,0.31816 -0.4033,0.5131 -0.73555,0.66443 -0.0983,0.0444 -0.2325,0.061 -0.32266,0.12574 -0.0719,0.0515 -0.11258,0.19025 -0.21464,0.30486 -0.12587,0.1401 -0.25786,0.1992 -0.32405,0.30626 -0.0509,0.0826 -0.0691,0.24722 -0.12574,0.35821 -0.0764,0.15074 -0.23982,0.22459 -0.34045,0.37733 -0.0457,0.0709 -0.0763,0.21376 -0.12714,0.30627 -0.11375,0.20665 -0.30799,0.35552 -0.28713,0.53728 0.0206,0.17566 0.2202,0.20646 0.23379,0.35958 0.003,0.0865 -0.0571,0.13946 -0.0534,0.23379 0.003,0.13774 0.0961,0.23442 0.10662,0.34044 0.0267,0.26649 -0.0906,0.37285 -0.14082,0.55505 -0.0237,0.087 -0.0135,0.18497 -0.0369,0.25296 -0.0442,0.13341 -0.23008,0.25378 -0.23379,0.41152 -0.002,0.11211 0.11504,0.20222 0.12447,0.35956 0.003,0.10862 -0.0533,0.22429 -0.0341,0.32403 0.0383,0.19532 0.38685,0.42245 0.53869,0.57421 0.20306,0.20308 0.46891,0.36025 0.55642,0.57423 0.0737,0.1817 0.0731,0.4181 0.21467,0.55508 0.10468,0.10112 0.27877,0.16413 0.41288,0.26929 0.12512,0.0982 0.26142,0.18297 0.39513,0.28712 0.21847,0.17094 0.5488,0.51164 0.89686,0.48538 0.18177,-0.0131 0.36805,-0.16162 0.57424,-0.19825 0.2121,-0.0381 0.48736,-0.0577 0.70134,-0.0356 0.16391,0.016 0.33274,0.11444 0.50313,0.1066 0.1799,-0.0116 0.38621,-0.14448 0.59063,-0.23377 0.16448,-0.0717 0.36634,-0.15093 0.58788,-0.2092 0.10167,-0.68287 0.15587,-1.38248 0.15587,-2.09452 0,-2.86666 -0.85718,-5.52366 -2.32421,-7.73828 z m -23.15467,4.70448 c -0.29817,0.0162 -0.49356,0.0299 -0.66305,0.10662 -0.38842,0.17674 -0.31336,0.7016 -0.70139,0.82578 -0.13421,0.0429 -0.31847,0.045 -0.46619,0.0723 -0.12753,0.0233 -0.28285,0.0929 -0.41428,0.0901 -0.0369,-4.8e-4 -0.0882,-0.0278 -0.13398,-0.0425 -0.0344,0.24612 -0.0631,0.49499 -0.0849,0.74512 0.36914,0.0709 0.55966,0.56 0.88595,0.72188 0.0894,0.0443 0.2062,0.0467 0.32129,0.0723 0.0928,0.0206 0.16342,0.06 0.2529,0.0904 0.18986,0.0645 0.42238,0.0566 0.57424,0.12447 0.22881,0.10155 0.39658,0.53156 0.59335,0.6467 0.0116,0.11595 -0.0226,0.2717 0.0177,0.35816 0.0929,0.12612 0.2242,0.0983 0.37736,0.18047 0.1832,0.0989 0.23925,0.35403 0.41286,0.43201 0.0599,0.0266 0.21021,0.0229 0.30491,0.052 0.23792,0.0719 0.31559,0.34726 0.51954,0.2871 0.13375,-0.0396 0.1232,-0.17704 0.1449,-0.30489 0.0884,-0.0957 0.18485,-0.2475 0.32267,-0.25019 0.22303,-0.0116 0.24289,0.23046 0.324,0.44706 0.0457,0.12243 0.1656,0.22908 0.19689,0.35821 0.0555,0.22306 0.0279,0.8907 -0.0191,1.02401 -0.0561,0.16357 -0.27772,0.23293 -0.41426,0.41427 -0.0645,0.085 -0.0951,0.20959 -0.14356,0.26933 -0.0879,0.10714 -0.21858,0.13503 -0.28435,0.2338 -0.0373,0.0555 -0.0732,0.17498 -0.10944,0.25018 -0.1078,0.22841 -0.252,0.39026 -0.16135,0.66448 0.0381,0.11281 0.2142,0.18846 0.21466,0.32128 5e-4,0.15628 -0.33241,0.29621 -0.35818,0.46755 -0.0191,0.12751 0.10296,0.35504 0.14352,0.52091 0.0297,0.12538 0.26655,0.20373 0.34046,0.28713 0.126,0.14144 0.22667,0.34185 0.34176,0.51953 0.22762,0.34945 0.40597,0.77567 0.62758,1.11425 0.1171,0.17734 0.28154,0.33681 0.35954,0.52089 0.0401,0.0929 0.0344,0.20363 0.071,0.28711 0.12827,0.28953 0.69477,0.59182 0.9871,0.73555 0.13685,0.0667 0.28867,0.0902 0.41427,0.15995 0.19022,0.10607 0.56705,0.39101 0.66308,0.55782 0.0856,0.14993 0.13887,0.51492 0.18046,0.75332 0.0556,0.31507 6.4e-4,0.55699 0.0177,0.89824 0.0116,0.18452 0.0705,0.37008 0.0724,0.5551 7e-4,0.0649 -0.0344,0.11293 -0.0371,0.17908 -1e-4,0.0108 0.004,0.0229 0.004,0.0341 1.76313,0.79794 3.71685,1.25238 5.78456,1.25238 0.37357,0 0.74275,-0.0193 1.10878,-0.048 0.016,-0.0275 0.0308,-0.0562 0.0507,-0.0818 0.0843,-0.1106 0.1591,-0.20746 0.21468,-0.30486 0.0529,-0.32774 -0.13072,-0.55667 -0.0534,-0.84356 0.0857,-0.32226 0.53127,-0.51906 0.84358,-0.66445 0.10737,-0.0495 0.21736,-0.13095 0.30486,-0.16133 0.21613,-0.0751 0.486,-0.0343 0.68359,-0.10662 0.3363,-0.12307 0.37144,-0.48384 0.5373,-0.79026 0.0781,-0.14508 0.18155,-0.29039 0.1969,-0.39371 0.0135,-0.0929 -0.0342,-0.18032 -0.019,-0.28987 0.0161,-0.10838 0.11351,-0.20215 0.14356,-0.3213 0.0396,-0.15546 0.0561,-0.38324 0.0561,-0.55642 0,-0.14216 -0.0667,-0.26689 -0.072,-0.39513 -0.0232,-0.46558 0.16817,-0.51768 0.34045,-0.77107 0.0864,-0.12586 0.11874,-0.26937 0.17908,-0.35959 0.28921,-0.43147 0.79099,-0.63977 0.75469,-1.292 -0.0116,-0.2158 -0.14747,-0.70355 -0.30625,-0.77243 -0.0909,-0.0397 -0.29924,-0.003 -0.43066,-0.0534 -0.42428,-0.15824 -0.67327,-0.68417 -1.11288,-0.71777 -0.0939,-0.0116 -0.18009,0.0387 -0.28575,0.0369 -0.17399,-0.0116 -0.43628,-0.1218 -0.62891,-0.14355 -0.12242,-0.0131 -0.28608,0.0365 -0.35957,0 -0.112,-0.0544 -0.12346,-0.26107 -0.21466,-0.32266 -0.0721,-0.0498 -0.21299,-0.0668 -0.32264,-0.10932 -0.17677,-0.0677 -0.31693,-0.14709 -0.5209,-0.1613 -0.063,-0.003 -0.14135,0.0299 -0.21465,0.0191 -0.11282,-0.0191 -0.20211,-0.15264 -0.30623,-0.21603 -0.13044,-0.0793 -0.25097,-0.11785 -0.30491,-0.23104 0.11785,-0.38663 -0.20784,-0.49438 -0.2871,-0.71777 -0.0381,-0.10469 -0.0203,-0.23066 -0.0534,-0.32403 -0.0467,-0.13376 -0.17905,-0.21105 -0.32404,-0.32265 -0.25972,-0.19991 -0.49013,-0.38762 -0.86131,-0.43339 -0.16321,-0.0206 -0.32511,0.0488 -0.52229,0.0369 -0.20891,-0.0131 -0.47123,-0.19597 -0.62751,-0.3746 -0.15193,-0.1744 -0.22584,-0.33092 -0.35822,-0.41426 -0.12535,-0.0803 -0.29175,-0.0783 -0.37734,-0.15998 -0.0385,-0.0358 -0.0313,-0.0966 -0.0723,-0.18047 -0.0631,-0.13055 -0.16888,-0.20313 -0.0901,-0.35955 -0.14304,-0.0735 -0.14699,0.13651 -0.30351,0.10932 -0.13954,-0.19805 -0.25741,-0.29187 -0.57424,-0.2338 -0.14507,0.0267 -0.22607,0.21012 -0.3951,0.21466 -0.13864,0.0116 -0.24755,-0.15446 -0.43066,-0.18047 -0.13824,-0.0191 -0.29537,0.0374 -0.39377,0.0187 -0.15319,-0.0306 -0.20048,-0.15818 -0.34044,-0.25018 -0.10263,-0.0676 -0.302,-0.18231 -0.35955,-0.18047 -0.18043,0.0116 -0.30899,0.38339 -0.5578,0.25157 -0.12092,-0.15326 0.19695,-0.23401 0.0534,-0.37738 -0.10872,-0.10874 -0.20012,0.0493 -0.2871,0.10943 -0.0997,0.069 -0.19337,0.13697 -0.30353,0.17773 -0.24657,0.0923 -0.40067,0.0442 -0.59335,0.14355 -0.17842,0.0924 -0.18602,0.24706 -0.28711,0.43066 -0.0826,0.15043 -0.27092,0.36964 -0.3951,0.37872 -0.15046,0.0116 -0.29424,-0.21033 -0.43067,-0.26932 -0.41109,-0.17807 -0.61022,0.1581 -0.95155,0.16269 -0.3168,0.0116 -0.76927,-0.51156 -0.75332,-0.80939 0.003,-0.18173 0.10446,-0.4574 0.12574,-0.68222 0.0191,-0.17881 0.14152,-0.28659 0.14359,-0.4498 0.003,-0.21803 -0.28921,-0.38567 -0.43069,-0.41154 -0.33535,-0.0617 -0.80098,0.13494 -1.18533,-0.0191 -0.0734,-0.12167 0.086,-0.20571 0.12715,-0.32404 0.0233,-0.0674 0.01,-0.15706 0.0343,-0.23105 0.0429,-0.11433 0.16242,-0.2029 0.21602,-0.32402 0.04,-0.0924 0.0498,-0.22574 0.0901,-0.34042 0.0471,-0.13059 0.13346,-0.21468 0.14356,-0.30627 0.0131,-0.12091 -0.0325,-0.26069 -0.12716,-0.34042 z m 4.79884,3.79941 c 0.12167,0.0116 0.13691,0.26279 0.0127,0.28305 -0.13421,0.0207 -0.20246,-0.21055 -0.0722,-0.27075 0.0218,-0.0116 0.043,-0.0116 0.0601,-0.0108 l 0,-0.002 z" />
    </g>
  </g>
</svg>
