<?xml version="1.0" encoding="UTF-8" standalone="no"?>
<svg
   xmlns:dc="http://purl.org/dc/elements/1.1/"
   xmlns:cc="http://creativecommons.org/ns#"
   xmlns:rdf="http://www.w3.org/1999/02/22-rdf-syntax-ns#"
   xmlns:svg="http://www.w3.org/2000/svg"
   xmlns="http://www.w3.org/2000/svg"
   xmlns:sodipodi="http://sodipodi.sourceforge.net/DTD/sodipodi-0.dtd"
   xmlns:inkscape="http://www.inkscape.org/namespaces/inkscape"
   height="32"
   width="32"
   version="1"
   id="svg14"
   sodipodi:docname="applications-office.svg"
   inkscape:version="0.92.3 (unknown)">
  <metadata
     id="metadata20">
    <rdf:RDF>
      <cc:Work
         rdf:about="">
        <dc:format>image/svg+xml</dc:format>
        <dc:type
           rdf:resource="http://purl.org/dc/dcmitype/StillImage" />
        <dc:title></dc:title>
      </cc:Work>
    </rdf:RDF>
  </metadata>
  <defs
     id="defs18" />
  <sodipodi:namedview
     pagecolor="#ffffff"
     bordercolor="#666666"
     borderopacity="1"
     objecttolerance="10"
     gridtolerance="10"
     guidetolerance="10"
     inkscape:pageopacity="0"
     inkscape:pageshadow="2"
     inkscape:window-width="1366"
     inkscape:window-height="700"
     id="namedview16"
     showgrid="false"
     inkscape:zoom="4.9166667"
     inkscape:cx="24"
     inkscape:cy="24"
     inkscape:window-x="0"
     inkscape:window-y="0"
     inkscape:window-maximized="1"
     inkscape:current-layer="svg14" />
  <polygon
     display="none"
     points="732.5,497.5 664,430.5 588,333 517.5,214 500,192 386,355 328,328 304,332.5 299.5,366 318.5,403.5 338,431 309.5,462 275.5,507 300,533 304,551 318.5,569.5 340.5,583 351.5,604.5 373.5,617 395,637.5 452.5,723 488.5,788.5 502,812.5 551.5,721.5 612.5,637 628.5,616 668,619.5 707,615 713,603 688.5,578 676.5,569.5 693.5,560.5 693.5,540 "
     transform="matrix(0.063142,0,0,0.063142,-131,-24.0295)"
     id="polygon2"
     style="display:none;fill:#5a0e00" />
  <g
     id="g832"
     transform="matrix(0.66666032,0,0,0.66666032,1.5232e-4,10.666851)">
    <rect
       style="fill:#cccccc"
       id="rect4"
       x="-28"
       y="-44"
       width="40"
       height="40"
       ry="2"
       rx="2"
       transform="matrix(0,-1,-1,0,0,0)" />
    <path
       style="opacity:0.1"
       inkscape:connector-curvature="0"
       id="path6"
       d="m 44,26 v -36 c 0,-1.108 -0.892,-2 -2,-2 H 24 v 40 h 18 c 1.108,0 2,-0.892 2,-2 z" />
    <path
       style="opacity:0.2;fill:#ffffff"
       inkscape:connector-curvature="0"
       id="path8"
       d="m 6,-12 c -1.108,0 -2,0.892 -2,2 v 1 c 0,-1.108 0.892,-2 2,-2 h 36 c 1.108,0 2,0.892 2,2 v -1 c 0,-1.108 -0.892,-2 -2,-2 z" />
    <path
       style="opacity:0.2"
       inkscape:connector-curvature="0"
       id="path10"
       d="M 6,29 C 4.892,29 4,28.108 4,27 v -1 c 0,1.108 0.892,2 2,2 h 36 c 1.108,0 2,-0.892 2,-2 v 1 c 0,1.108 -0.892,2 -2,2 z" />
    <path
       inkscape:connector-curvature="0"
       id="path12"
       style="fill:#c2352a;enable-background:new"
       d="m 20,-13 c -1,0 -1,1.0286 -1,1.0286 v 16.971 l 2.5,-1.543 2.5,1.543 v -16.971 c 0,-1.029 -1,-1.029 -1,-1.029 z" />
  </g>
</svg>
