<?xml version="1.0" encoding="UTF-8" standalone="no"?>
<!-- Created with Inkscape (http://www.inkscape.org/) -->

<svg
   xmlns:dc="http://purl.org/dc/elements/1.1/"
   xmlns:cc="http://creativecommons.org/ns#"
   xmlns:rdf="http://www.w3.org/1999/02/22-rdf-syntax-ns#"
   xmlns:svg="http://www.w3.org/2000/svg"
   xmlns="http://www.w3.org/2000/svg"
   xmlns:xlink="http://www.w3.org/1999/xlink"
   xmlns:sodipodi="http://sodipodi.sourceforge.net/DTD/sodipodi-0.dtd"
   xmlns:inkscape="http://www.inkscape.org/namespaces/inkscape"
   width="64"
   version="1.1"
   height="64"
   id="svg37"
   sodipodi:docname="input-mouse.svg"
   inkscape:version="0.92.3 (unknown)">
  <sodipodi:namedview
     pagecolor="#ffffff"
     bordercolor="#666666"
     borderopacity="1"
     objecttolerance="10"
     gridtolerance="10"
     guidetolerance="10"
     inkscape:pageopacity="0"
     inkscape:pageshadow="2"
     inkscape:window-width="1366"
     inkscape:window-height="700"
     id="namedview39"
     showgrid="false"
     inkscape:zoom="5.2149125"
     inkscape:cx="-18.555994"
     inkscape:cy="25.652041"
     inkscape:window-x="0"
     inkscape:window-y="0"
     inkscape:window-maximized="1"
     inkscape:current-layer="layer1" />
  <defs
     id="defs5455">
    <linearGradient
       inkscape:collect="always"
       id="linearGradient4191">
      <stop
         style="stop-color:#18222a"
         id="stop4193" />
      <stop
         offset="1"
         style="stop-color:#566069"
         id="stop4195" />
    </linearGradient>
    <linearGradient
       inkscape:collect="always"
       id="linearGradient4303-7">
      <stop
         style="stop-color:#197cf1"
         id="stop4305-83" />
      <stop
         offset="1"
         style="stop-color:#21c9fb"
         id="stop4307-4" />
    </linearGradient>
    <linearGradient
       inkscape:collect="always"
       id="linearGradient4353"
       xlink:href="#linearGradient4355"
       x1="7.00001"
       gradientUnits="userSpaceOnUse"
       x2="9"
       gradientTransform="matrix(2,0,0,2,376.57141,491.7976)" />
    <linearGradient
       inkscape:collect="always"
       id="linearGradient4355">
      <stop
         style="stop-color:#283845"
         id="stop4357" />
      <stop
         offset="1"
         style="stop-color:#4e575f"
         id="stop4359" />
    </linearGradient>
    <linearGradient
       inkscape:collect="always"
       id="linearGradient4339"
       xlink:href="#linearGradient4191"
       y1="18"
       y2="24"
       x1="11"
       gradientUnits="userSpaceOnUse"
       x2="9"
       gradientTransform="matrix(2,0,0,2,376.57142,491.79831)" />
    <linearGradient
       inkscape:collect="always"
       id="linearGradient4367"
       xlink:href="#linearGradient4369"
       x1="24"
       gradientUnits="userSpaceOnUse"
       x2="25.00001"
       gradientTransform="matrix(2,0,0,2,376.5715,491.79791)" />
    <linearGradient
       inkscape:collect="always"
       id="linearGradient4369">
      <stop
         style="stop-color:#253440"
         id="stop4371" />
      <stop
         offset="1"
         style="stop-color:#566069;stop-opacity:0.463277"
         id="stop4373" />
    </linearGradient>
    <linearGradient
       inkscape:collect="always"
       id="linearGradient4483"
       xlink:href="#linearGradient4303-7"
       y1="15.999729"
       y2="7"
       x2="0"
       gradientUnits="userSpaceOnUse"
       gradientTransform="matrix(2,0,0,2,376.57145,491.798)" />
    <linearGradient
       inkscape:collect="always"
       id="linearGradient4467-6"
       xlink:href="#linearGradient4303-7"
       y1="524.79797"
       y2="520.79797"
       gradientUnits="userSpaceOnUse"
       x2="0"
       gradientTransform="matrix(2,0,0,2,-392.57149,-539.79836)" />
    <linearGradient
       inkscape:collect="always"
       id="linearGradient4337-2"
       xlink:href="#linearGradient4303-7"
       y1="527.79797"
       y2="525.79797"
       gradientUnits="userSpaceOnUse"
       x2="0"
       gradientTransform="matrix(2,0,0,2,-392.57146,-539.79804)" />
    <linearGradient
       inkscape:collect="always"
       id="linearGradient4335-9"
       xlink:href="#linearGradient4303-7"
       y1="14"
       y2="12"
       gradientUnits="userSpaceOnUse"
       x2="0"
       gradientTransform="matrix(2,0,0,2,376.57144,491.79803)" />
    <linearGradient
       inkscape:collect="always"
       xlink:href="#linearGradient1416"
       id="linearGradient1418"
       x1="-15.119047"
       y1="180.16756"
       x2="-15.119048"
       y2="165.88007"
       gradientUnits="userSpaceOnUse"
       gradientTransform="matrix(3.7795276,0,0,3.7795276,465.71429,-129.15026)" />
    <linearGradient
       inkscape:collect="always"
       id="linearGradient1416">
      <stop
         style="stop-color:#b0b8b8;stop-opacity:1"
         offset="0"
         id="stop1412" />
      <stop
         style="stop-color:#eff1f1;stop-opacity:1"
         offset="1"
         id="stop1414" />
    </linearGradient>
  </defs>
  <metadata
     id="metadata5458">
    <rdf:RDF>
      <cc:Work
         rdf:about="">
        <dc:format>image/svg+xml</dc:format>
        <dc:type
           rdf:resource="http://purl.org/dc/dcmitype/StillImage" />
        <dc:title />
      </cc:Work>
    </rdf:RDF>
  </metadata>
  <g
     inkscape:label="Capa 1"
     inkscape:groupmode="layer"
     id="layer1"
     transform="matrix(1 0 0 1 -376.57144 -491.79797)">
    <g
       id="g1761">
      <path
         d="m 406.57113,495.79798 -0.0625,0.1251 a 3.9999999,5.0000263 0 0 1 0.0625,0.875 3.9999999,5.0000263 0 0 1 -0.80469,2.99989 h 2.21875 a 6.0000001,6.9999999 0 0 0 0.58594,-3 6.0000001,6.9999999 0 0 0 -0.0703,-0.99999 h -1.92969 z"
         id="path4296"
         style="fill:#cccccc;stroke-width:0.99999994"
         inkscape:connector-curvature="0" />
      <path
         d="m 408.57143,497.79796 c -5.77592,1.7559 -7.83918,2.20396 -14,3.99999 -1.88838,6.6785 -2.56637,11.74084 -1.65625,19.40625 -0.0931,0.37002 -0.18542,0.77964 -0.28124,1.16017 l -0.0625,-0.5664 v 0.8242 c -0.20991,0.83799 -0.42087,1.6659 -0.60938,2.54687 -0.58921,1.30772 -1.39062,3.2383 -1.39062,4.62894 0,1.50489 0.28074,2.62885 1.13281,5.27731 0.20912,0.90649 0.4729,1.81316 0.86719,2.72266 0.5,4.04663 1.11355,5.07391 3.46875,7.96876 4.991,2.86976 7.80053,5.02756 12.53125,6.03126 4.16574,-0.7239 8.35401,-3.3478 10.91797,-6.04298 l 1.08203,0.0431 c 2.09022,-2.2362 3.47644,-5.29077 4,-8.00001 2.00002,-8.00002 2.00002,-6 2,-8.00002 -10e-6,-1.06337 -0.53295,-3.6681 -1.0625,-6.0195 -0.30939,-2.04661 -0.7721,-4.12437 -1.35938,-6.39844 l 0.0234,-3.58204 0.33203,-0.40233 c -0.0212,-2.63596 -0.24086,-4.04244 -0.72264,-6.16797 l -0.26173,-0.85549 -0.70703,-0.39451 c -0.24204,-1.90719 -0.71327,-3.79124 -1.84375,-5.37891 -4.7193,0.18746 -9.42802,-2.56365 -12.39844,-2.80078 z"
         id="path4289-1"
         style="fill:url(#linearGradient1418);fill-opacity:1;fill-rule:evenodd;stroke-width:0.99999994"
         inkscape:connector-curvature="0" />
      <path
         d="m 408.57144,497.7981 c -0.21059,0.0639 -0.29888,0.0839 -0.5,0.14438 v 25.35546 c 0,0.27703 0.22299,0.50003 0.5,0.50003 0.27701,0 0.5,-0.223 0.5,-0.50003 v -25.41797 c -0.16516,-0.0265 -0.34416,-0.0695 -0.5,-0.082 z"
         id="rect4375-2"
         style="fill:#1b252d;fill-opacity:0.384181;stroke-width:0.99999994"
         inkscape:connector-curvature="0" />
      <path
         d="m 406.17144,516.79797 v 2.00002 l 2.4,0.99998 2.4,-0.99998 v -2.00002 l -2.4,1.00003 z"
         id="path4261-7"
         style="fill:url(#linearGradient4335-9);fill-rule:evenodd;stroke-width:0.99999994"
         inkscape:connector-curvature="0" />
      <path
         d="m 406.17144,514.79797 v -2.00001 l 2.4,-0.99999 2.4,0.99999 v 2.00001 l -2.4,-1.00003 z"
         id="path4266-0"
         style="fill:url(#linearGradient4337-2);fill-rule:evenodd;stroke-width:0.99999994"
         inkscape:connector-curvature="0" />
      <rect
         id="rect4380-9"
         style="fill:url(#linearGradient4467-6);fill-opacity:1;stroke-width:0.99999994"
         height="7.9999995"
         rx="0.49999997"
         y="501.99698"
         x="406.57144"
         width="3.9999521" />
      <path
         d="m 396.57139,537.79778 1.20017,-1.39997 0.60009,-0.70001 0.30003,-0.34998 c 0.40992,-0.52649 0.3438,-0.7999 0.3438,-1.25 -0.02,-0.71785 -0.0408,-1.35277 -0.0648,-1.93078 -0.0238,-0.57804 -0.0514,-1.09912 -0.0848,-1.5894 -0.0333,-0.49024 -0.0728,-0.94964 -0.1208,-1.40425 -0.13503,-1.52806 -0.43287,-2.23139 -0.87333,-2.44097 l -0.7001,-0.31634 -0.70011,-0.31635 -0.7001,-0.31635 c 0.48205,3.87565 0.73453,7.88901 0.79996,12.01459 z"
         id="path4268"
         style="opacity:0.6;fill:#1a1a1a;fill-rule:evenodd;stroke-width:1.00007331"
         inkscape:connector-curvature="0" />
      <path
         d="m 424.39572,518.41504 -1.61328,24.21093 c 0.85581,-1.57931 1.4848,-3.25368 1.78906,-4.82812 2.00003,-8.00001 2.00003,-6 2,-8.00001 -1e-5,-1.06337 -0.53294,-3.66811 -1.0625,-6.01954 -0.26067,-1.72422 -0.65217,-3.49602 -1.11328,-5.36326 z"
         id="path4278"
         style="fill:url(#linearGradient4367);fill-rule:evenodd;stroke-width:0.99999994"
         inkscape:connector-curvature="0" />
      <path
         d="m 394.57142,527.79827 -0.26563,0.79298 c 0.1581,3.1011 -0.11319,6.76086 -1.5078,10.56639 -0.0782,-0.42301 -0.15984,-0.81933 -0.22655,-1.35939 0.4534,3.66951 1.0677,4.91381 2.92187,7.26172 0.97884,-5.29927 0.68666,-16.18 -0.92187,-17.2617 z"
         id="path4283"
         style="fill:url(#linearGradient4339);fill-rule:evenodd;stroke-width:0.99999994"
         inkscape:connector-curvature="0" />
      <path
         d="m 392.86438,520.69602 c 0.0163,0.16894 0.0299,0.33146 0.0508,0.50782 -0.0931,0.37001 -0.18543,0.77964 -0.28124,1.16016 l -0.0625,-0.56644 v 0.82424 c -0.20992,0.838 -0.42087,1.6659 -0.60938,2.54687 -0.58921,1.30768 -1.39062,3.2383 -1.39062,4.6289 0,1.50494 0.28074,2.62889 1.13281,5.27736 0.20912,0.90644 0.4729,1.81311 0.86719,2.72266 0.0667,0.54005 0.14834,0.93634 0.22654,1.35938 3.10611,-8.47574 0.77895,-16.39019 0.0664,-18.46095 z"
         id="path4270"
         style="fill:url(#linearGradient4353);fill-rule:evenodd;stroke-width:0.99999994"
         inkscape:connector-curvature="0" />
      <path
         d="m 422.76676,505.70031 -0.19532,0.0975 c 0.84038,1.68075 1.31514,5.12337 1.59766,8.55469 l 0.004,-0.55468 0.33203,-0.40237 c -0.0212,-2.63596 -0.24087,-4.04239 -0.72265,-6.16796 l -0.26178,-0.85546 -0.70703,-0.39454 c -0.0117,-0.093 -0.034,-0.18445 -0.0469,-0.27742 z m 1.64453,12.77733 c 0.12439,2.90264 0.16018,5.32033 0.16018,5.32033 l 0.51562,-2.31251 c -0.19442,-0.9722 -0.42257,-1.9793 -0.67578,-3.00782 z"
         id="path4481"
         style="fill:url(#linearGradient4483);fill-rule:evenodd;stroke-width:0.99999994"
         inkscape:connector-curvature="0" />
    </g>
  </g>
</svg>
