<?xml version="1.0" encoding="UTF-8" standalone="no"?>
<!-- Created with Inkscape (http://www.inkscape.org/) -->

<svg
   xmlns:i="&amp;#38;#38;#38;#38;#38;ns_ai;"
   xmlns:a="http://ns.adobe.com/AdobeSVGViewerExtensions/3.0/"
   xmlns:dc="http://purl.org/dc/elements/1.1/"
   xmlns:cc="http://creativecommons.org/ns#"
   xmlns:rdf="http://www.w3.org/1999/02/22-rdf-syntax-ns#"
   xmlns:svg="http://www.w3.org/2000/svg"
   xmlns="http://www.w3.org/2000/svg"
   xmlns:xlink="http://www.w3.org/1999/xlink"
   xmlns:sodipodi="http://sodipodi.sourceforge.net/DTD/sodipodi-0.dtd"
   xmlns:inkscape="http://www.inkscape.org/namespaces/inkscape"
   width="64"
   height="64"
   viewBox="0 0 64.000001 64.000001"
   id="svg8102"
   version="1.1"
   inkscape:version="0.91 r13725"
   sodipodi:docname="preferences-desktop-wallpaper.svg">
  <defs
     id="defs8104">
    <radialGradient
       inkscape:collect="always"
       xlink:href="#linearGradient8020"
       id="radialGradient8028"
       cx="-975.42603"
       cy="420.07324"
       fx="-975.42603"
       fy="420.07324"
       r="1163.6958"
       gradientTransform="matrix(-1.1849184,1.0408818,-1.0528876,-1.1985857,-1325.8319,2887.8811)"
       gradientUnits="userSpaceOnUse" />
    <linearGradient
       inkscape:collect="always"
       id="linearGradient8020">
      <stop
         style="stop-color:#ffffff;stop-opacity:1"
         offset="0"
         id="stop8022" />
      <stop
         style="stop-color:#afaeb3;stop-opacity:1"
         offset="1"
         id="stop8024" />
    </linearGradient>
    <linearGradient
       id="linearGradient3930">
      <stop
         id="stop3932"
         style="stop-color:#e6e6e8;stop-opacity:1"
         offset="0" />
      <stop
         id="stop3934"
         style="stop-color:#6e6e6e;stop-opacity:1"
         offset="1" />
    </linearGradient>
    <linearGradient
       id="linearGradient3943">
      <stop
         id="stop3945"
         style="stop-color:#000000;stop-opacity:0.39215687"
         offset="0" />
      <stop
         id="stop3947"
         style="stop-color:#000000;stop-opacity:0"
         offset="1" />
    </linearGradient>
    <clipPath
       id="clipPath4169">
      <path
         d="m 993.05907,1560.3197 c -0.8242,10.6337 5.5299,17.0775 48.19583,16.3224 l 238.7451,0 0,-22.795 z"
         id="path4171"
         style="display:inline;fill:url(#linearGradient4173);fill-opacity:1;stroke:none"
         inkscape:connector-curvature="0" />
    </clipPath>
    <clipPath
       id="clipPath4175">
      <path
         d="m -1566.9409,1560.3197 c -0.8242,10.6337 5.5299,17.0775 48.1958,16.3224 l 238.7451,0 0,-22.795 z"
         id="path4177"
         style="display:inline;fill:url(#linearGradient4179);fill-opacity:1;stroke:none"
         inkscape:connector-curvature="0" />
    </clipPath>
    <linearGradient
       id="linearGradient3832">
      <stop
         id="stop3834"
         style="stop-color:#808185;stop-opacity:1"
         offset="0" />
      <stop
         id="stop3850"
         style="stop-color:#c2c3c7;stop-opacity:1"
         offset="0.3413752" />
      <stop
         id="stop3846"
         style="stop-color:#9c9da1;stop-opacity:1"
         offset="0.67257553" />
      <stop
         id="stop3844"
         style="stop-color:#7a7b7f;stop-opacity:1"
         offset="0.77451015" />
      <stop
         id="stop3842"
         style="stop-color:#a2a3a7;stop-opacity:1"
         offset="0.91250002" />
      <stop
         id="stop3836"
         style="stop-color:#b8b9bd;stop-opacity:1"
         offset="1" />
    </linearGradient>
    <clipPath
       id="clipPath4299">
      <path
         d="m 1280,1269.2812 -189.1875,5.875 c 1.4926,55.4493 -3.8888,117.8485 -11.5625,174.4376 -1.6327,12.0158 -3.2125,25.0932 -6,37.8124 -3.662,14.5826 -9.5395,23.8105 -17.875,30.625 -6.9834,5.645 -15.9967,9.3791 -24.3438,14.0313 -12.3476,6.7808 -22.4742,13.5746 -29.1874,18.9687 -2.82255,2.2745 -5.95235,4.8861 -8.31255,8.0938 -0.3378,0.5287 -0.4717,1.0068 -0.4687,1.4375 0.012,1.744 2.4696,2.769 4.625,3.5625 6.95335,2.2628 19.96295,3.0294 35.59365,3.1562 8.4285,0.064 18.628,-0.1244 27.9376,-0.062 l 218.7812,0 218.7812,0 c 9.3096,-0.062 19.5091,0.1261 27.9376,0.062 15.6306,-0.1268 28.6403,-0.8934 35.5937,-3.1562 2.1554,-0.7935 4.6133,-1.8185 4.625,-3.5625 0,-0.4307 -0.1309,-0.9088 -0.4687,-1.4375 -2.3603,-3.2077 -5.49,-5.8193 -8.3126,-8.0938 -6.7131,-5.3941 -16.8398,-12.1879 -29.1874,-18.9687 -8.3471,-4.6522 -17.3604,-8.3863 -24.3438,-14.0313 -8.3355,-6.8145 -14.213,-16.0424 -17.875,-30.625 -2.7875,-12.7192 -4.3673,-25.7966 -6,-37.8124 -7.6737,-56.5891 -13.0551,-118.9883 -11.5625,-174.4376 L 1280,1269.2812 Z"
         id="path4301"
         style="fill:#000000;fill-opacity:0.78431373;stroke:none"
         inkscape:connector-curvature="0" />
    </clipPath>
    <filter
       style="color-interpolation-filters:sRGB"
       x="-0.34091958"
       y="-0.30084389"
       width="1.6818392"
       height="1.6016878"
       id="filter4281">
      <feGaussianBlur
         id="feGaussianBlur4283"
         stdDeviation="15.692135" />
    </filter>
    <clipPath
       id="clipPath4295">
      <path
         d="m 1175.3375,1251.2019 189.1875,5.875 c -1.4926,55.4493 3.8888,117.8485 11.5625,174.4376 1.6327,12.0158 3.2125,25.0932 6,37.8124 3.662,14.5826 9.5395,23.8105 17.875,30.625 6.9834,5.645 15.9967,9.3791 24.3438,14.0313 12.3476,6.7808 22.4742,13.5746 29.1874,18.9687 2.8226,2.2745 5.9524,4.8861 8.3126,8.0938 0.3378,0.5287 0.4717,1.0068 0.4687,1.4375 -0.012,1.744 -2.4696,2.769 -4.625,3.5625 -6.9534,2.2628 -19.963,3.0294 -35.5937,3.1562 -8.4285,0.064 -18.628,-0.1244 -27.9376,-0.062 l -218.7812,0 -218.7812,0 c -9.3096,-0.062 -19.5091,0.1261 -27.9376,0.062 -15.6306,-0.1268 -28.6403,-0.8934 -35.5937,-3.1562 -2.1554,-0.7935 -4.6133,-1.8185 -4.625,-3.5625 0,-0.4307 0.1309,-0.9088 0.4687,-1.4375 2.3603,-3.2077 5.49,-5.8193 8.3126,-8.0938 6.7131,-5.3941 16.8398,-12.1879 29.1874,-18.9687 8.3471,-4.6522 17.3604,-8.3863 24.3438,-14.0313 8.3355,-6.8145 14.213,-16.0424 17.875,-30.625 2.7875,-12.7192 4.3673,-25.7966 6,-37.8124 7.6737,-56.5891 13.0551,-118.9883 11.5625,-174.4376 l 189.1875,-5.875 z"
         id="path4297"
         style="fill:#000000;fill-opacity:0.78431373;stroke:none"
         inkscape:connector-curvature="0" />
    </clipPath>
    <filter
       style="color-interpolation-filters:sRGB"
       x="-0.34091958"
       y="-0.30084389"
       width="1.6818392"
       height="1.6016878"
       id="filter4285">
      <feGaussianBlur
         id="feGaussianBlur4287"
         stdDeviation="15.692135" />
    </filter>
    <clipPath
       id="clipPath3923">
      <path
         d="m 1280,1275.0977 -148.8643,5.875 c 1.1745,55.4493 -3.0599,117.8485 -9.0981,174.4376 -1.2847,12.0158 -2.5277,25.0932 -4.7211,37.8124 -2.8815,14.5826 -7.5063,23.8105 -14.0652,30.625 -5.4949,5.645 -12.5871,9.3791 -19.1552,14.0313 -9.7158,6.7808 -17.684,13.5746 -22.9664,18.9687 -2.2209,2.2745 -4.6837,4.8861 -6.5408,8.0938 -0.2658,0.5287 -0.3712,1.0068 -0.3688,1.4375 0.01,1.744 1.9432,2.769 3.6392,3.5625 5.4713,2.2628 15.7081,3.0294 28.0073,3.1562 6.632,0.064 14.6576,-0.1244 21.983,-0.062 l 172.1504,0 172.1504,0 c 7.3254,-0.062 15.351,0.1261 21.983,0.062 12.2992,-0.1268 22.536,-0.8934 28.0073,-3.1562 1.696,-0.7935 3.6301,-1.8185 3.6393,-3.5625 0,-0.4307 -0.103,-0.9088 -0.3688,-1.4375 -1.8573,-3.2077 -4.3199,-5.8193 -6.5409,-8.0938 -5.2823,-5.3941 -13.2506,-12.1879 -22.9664,-18.9687 -6.568,-4.6522 -13.6602,-8.3863 -19.1552,-14.0313 -6.5589,-6.8145 -11.1837,-16.0424 -14.0652,-30.625 -2.1933,-12.7192 -3.4364,-25.7966 -4.7211,-37.8124 -6.0382,-56.5891 -10.2726,-118.9883 -9.0981,-174.4376 L 1280,1275.0977 Z"
         id="path3925"
         style="fill:#000000;fill-opacity:1;stroke:none"
         inkscape:connector-curvature="0" />
    </clipPath>
    <filter
       style="color-interpolation-filters:sRGB"
       x="-0.11108017"
       y="-0.9217872"
       width="1.2221603"
       height="2.8435745"
       id="filter3867">
      <feGaussianBlur
         id="feGaussianBlur3869"
         stdDeviation="18.422615" />
    </filter>
    <clipPath
       id="clipPath3919">
      <path
         d="m 1280,1269.2812 -189.1875,5.875 c 1.4926,55.4493 -3.8888,117.8485 -11.5625,174.4376 -1.6327,12.0158 -3.2125,25.0932 -6,37.8124 -3.662,14.5826 -9.5395,23.8105 -17.875,30.625 -6.9834,5.645 -15.9967,9.3791 -24.3438,14.0313 -12.3476,6.7808 -22.4742,13.5746 -29.1874,18.9687 -2.82255,2.2745 -5.95235,4.8861 -8.31255,8.0938 -0.3378,0.5287 -0.4717,1.0068 -0.4687,1.4375 0.012,1.744 2.4696,2.769 4.625,3.5625 6.95335,2.2628 19.96295,3.0294 35.59365,3.1562 8.4285,0.064 18.628,-0.1244 27.9376,-0.062 l 218.7812,0 218.7812,0 c 9.3096,-0.062 19.5091,0.1261 27.9376,0.062 15.6306,-0.1268 28.6403,-0.8934 35.5937,-3.1562 2.1554,-0.7935 4.6133,-1.8185 4.625,-3.5625 0,-0.4307 -0.1309,-0.9088 -0.4687,-1.4375 -2.3603,-3.2077 -5.49,-5.8193 -8.3126,-8.0938 -6.7131,-5.3941 -16.8398,-12.1879 -29.1874,-18.9687 -8.3471,-4.6522 -17.3604,-8.3863 -24.3438,-14.0313 -8.3355,-6.8145 -14.213,-16.0424 -17.875,-30.625 -2.7875,-12.7192 -4.3673,-25.7966 -6,-37.8124 -7.6737,-56.5891 -13.0551,-118.9883 -11.5625,-174.4376 L 1280,1269.2812 Z"
         id="path3921"
         style="fill:#000000;fill-opacity:1;stroke:none"
         inkscape:connector-curvature="0" />
    </clipPath>
    <filter
       style="color-interpolation-filters:sRGB"
       x="-0.35466763"
       y="-1.9463127"
       width="1.7093352"
       height="4.8926253"
       id="filter3909">
      <feGaussianBlur
         id="feGaussianBlur3911"
         stdDeviation="74.754651" />
    </filter>
    <linearGradient
       gradientTransform="matrix(0.0991376,0,0,0.1338271,2.3247005,976.35896)"
       y2="431.8125"
       x2="299.3345"
       y1="517.70697"
       x1="299.3345"
       gradientUnits="userSpaceOnUse"
       id="SVGID_1_">
      <stop
         id="stop14"
         style="stop-color:#7f8084;stop-opacity:1"
         offset="0" />
      <stop
         id="stop16"
         style="stop-color:#a1a2a5;stop-opacity:1"
         offset="0.24037501" />
      <stop
         id="stop18"
         style="stop-color:#d3d3d3;stop-opacity:1"
         offset="0.43347022" />
      <stop
         id="stop20"
         style="stop-color:#818286;stop-opacity:1"
         offset="0.83837295" />
      <stop
         id="stop22"
         style="stop-color:#808185;stop-opacity:1"
         offset="1" />
      <a:midPointStop
         style="stop-color:#BEBEBE"
         offset="0" />
      <a:midPointStop
         style="stop-color:#BEBEBE"
         offset="0.5" />
      <a:midPointStop
         style="stop-color:#DCDCDC"
         offset="0.2638" />
      <a:midPointStop
         style="stop-color:#DCDCDC"
         offset="0.5" />
      <a:midPointStop
         style="stop-color:#DCDCDC"
         offset="0.4233" />
      <a:midPointStop
         style="stop-color:#DCDCDC"
         offset="0.5" />
      <a:midPointStop
         style="stop-color:#B3B3B3"
         offset="0.7914" />
      <a:midPointStop
         style="stop-color:#B3B3B3"
         offset="0.5" />
      <a:midPointStop
         style="stop-color:#B8B8B8"
         offset="1" />
    </linearGradient>
    <filter
       inkscape:collect="always"
       style="color-interpolation-filters:sRGB"
       id="filter8098"
       x="-0.019320635"
       width="1.0386413"
       y="-0.031670425"
       height="1.0633408">
      <feGaussianBlur
         inkscape:collect="always"
         stdDeviation="17.495686"
         id="feGaussianBlur8100" />
    </filter>
    <linearGradient
       id="linearGradient3897-9">
      <stop
         style="stop-color:#fcfcfc;stop-opacity:1"
         offset="0"
         id="stop3899-5" />
      <stop
         id="stop3901-0"
         offset="0.52275378"
         style="stop-color:#f8f8f8;stop-opacity:1" />
      <stop
         style="stop-color:#f0efef;stop-opacity:1;"
         offset="0.72337759"
         id="stop3903-4" />
      <stop
         style="stop-color:#e3e1e1;stop-opacity:1;"
         offset="0.89024991"
         id="stop3905-8" />
      <stop
         style="stop-color:#cecbcb;stop-opacity:1"
         offset="1"
         id="stop3907-7" />
    </linearGradient>
    <clipPath
       clipPathUnits="userSpaceOnUse"
       id="clipPath3889-9">
      <path
         sodipodi:nodetypes="cscscssc"
         inkscape:connector-curvature="0"
         id="path3891-2"
         d="m 112,82.502986 c 0,4.465301 -2.79749,6.409952 -5.27972,8.093625 -5.10854,3.46508 -14.939114,3.32536 -20.720284,3.40638 -0.081,5.781159 0.16586,15.504599 -3.29922,20.613139 -1.68367,2.48224 -5.29051,5.38687 -8.20078,5.38687 2.31803,0 4.74284,-1.33476 7.58402,-4.08481 9.14197,-8.84873 17.36714,-16.13535 25.673154,-25.297529 C 109.67612,88.503916 112,86.97878 112,82.502986 Z"
         style="fill:url(#linearGradient3893);fill-opacity:1;stroke:none" />
    </clipPath>
    <clipPath
       clipPathUnits="userSpaceOnUse"
       id="clipPath6093-1">
      <path
         inkscape:connector-curvature="0"
         sodipodi:nodetypes="cccssccc"
         id="path6095-7"
         d="M 17.000001,8 17,120 l 57.5,0 c 1.675283,0 3.914297,-0.56468 7,-3.6 8.870045,-8.72523 20.24047,-19.851805 27.49904,-27.175957 C 111.4396,86.761431 112,84.752873 112,82.5 L 112,8 Z"
         style="fill:#ffffff;fill-opacity:1" />
    </clipPath>
    <clipPath
       clipPathUnits="userSpaceOnUse"
       id="clipPath4452">
      <path
         inkscape:connector-curvature="0"
         sodipodi:nodetypes="cccssccc"
         id="path4454"
         d="M 17.000001,8 17,120 l 57.5,0 c 1.675283,0 3.914297,-0.56468 7,-3.6 8.870045,-8.72523 20.24047,-19.851805 27.49904,-27.175957 C 111.4396,86.761431 112,84.752873 112,82.5 L 112,8 Z"
         style="fill:#ffffff;fill-opacity:1" />
    </clipPath>
  </defs>
  <sodipodi:namedview
     id="base"
     pagecolor="#ffffff"
     bordercolor="#666666"
     borderopacity="1.0"
     inkscape:pageopacity="0.0"
     inkscape:pageshadow="2"
     inkscape:zoom="11.2"
     inkscape:cx="31.96691"
     inkscape:cy="35.255005"
     inkscape:document-units="px"
     inkscape:current-layer="layer1"
     showgrid="false"
     units="px"
     inkscape:window-width="1366"
     inkscape:window-height="700"
     inkscape:window-x="0"
     inkscape:window-y="0"
     inkscape:window-maximized="1" />
  <metadata
     id="metadata8107">
    <rdf:RDF>
      <cc:Work
         rdf:about="">
        <dc:format>image/svg+xml</dc:format>
        <dc:type
           rdf:resource="http://purl.org/dc/dcmitype/StillImage" />
        <dc:title />
      </cc:Work>
    </rdf:RDF>
  </metadata>
  <g
     inkscape:label="Camada 1"
     inkscape:groupmode="layer"
     id="layer1"
     transform="translate(0,-988.36216)">
    <path
       inkscape:connector-curvature="0"
       style="fill:url(#SVGID_1_)"
       id="path24"
       d="m 40.110794,1045.6422 c 0.616637,0 1.350353,-0.094 1.710818,-0.2109 0.360464,-0.1173 0.412611,-0.2169 0.412611,-0.295 0,-0.053 -0.02191,-0.1271 -0.09567,-0.2206 -0.07158,-0.092 -1.806286,-2.2333 -1.806286,-2.2333 -0.538417,-0.6565 -0.79905,-1.5238 -0.903045,-2.3446 -0.104293,-0.8208 -0.468921,-6.1906 -0.468921,-6.1906 l -13.920703,0 c 0,0 -0.364727,5.3698 -0.46892,6.1906 -0.104095,0.8208 -0.364728,1.6879 -0.903143,2.3446 0,0 -1.734612,2.1421 -1.806289,2.2333 -0.07376,0.094 -0.09547,0.1681 -0.09547,0.2206 0,0.079 0.05205,0.1777 0.412512,0.295 0.360366,0.1172 1.094181,0.2109 1.710718,0.2109 l 16.221787,0 z"
       i:knockout="Off" />
    <g
       id="g8884"
       transform="matrix(0.61262544,0,0,0.61262544,12.395986,395.08144)">
      <g
         transform="matrix(0.05912925,0,0,0.05912925,-43.685347,968.10271)"
         style="display:inline"
         id="layer2">
        <g
           style="display:inline"
           id="layer5" />
        <g
           style="display:inline"
           id="layer6" />
        <g
           style="display:inline"
           id="layer3" />
        <g
           id="layer8" />
        <g
           style="display:inline"
           id="layer4" />
        <g
           style="display:inline"
           id="g3887" />
        <g
           style="display:inline"
           id="g3913" />
      </g>
      <g
         transform="matrix(0.042578,0,0,0.042578,58.550153,918.22721)"
         id="g8034">
        <rect
           style="opacity:1;fill:url(#radialGradient8028);fill-opacity:1;stroke:none;stroke-width:71.64499664;stroke-miterlimit:4;stroke-dasharray:none;stroke-opacity:1"
           id="rect8018"
           width="2327.3916"
           height="1517.864"
           x="-1787.2609"
           y="1436.5444" />
      </g>
      <path
         d="m 33.008361,1041.0852 a 1.2270925,1.2270925 0 0 1 -0.309014,1.7077 1.2270925,1.2270925 0 0 1 -1.707624,-0.309 1.2270925,1.2270925 0 0 1 0.30894,-1.7076 1.2270925,1.2270925 0 0 1 1.707637,0.3089 l -1.008273,0.6993 z"
         sodipodi:end="5.6767358"
         sodipodi:start="5.676823"
         sodipodi:ry="1.2270925"
         sodipodi:rx="1.2270925"
         sodipodi:cy="1041.7845"
         sodipodi:cx="32.000027"
         sodipodi:type="arc"
         id="path8032"
         style="opacity:1;fill:#1a1a1a;fill-opacity:1;stroke:none;stroke-width:71.64499664;stroke-miterlimit:4;stroke-dasharray:none;stroke-opacity:1" />
    </g>
    <g
       id="g4253"
       transform="translate(5.9375446,-1.7114447)">
      <g
         id="g16413"
         inkscape:label="ink_ext_XXXXXX"
         transform="matrix(0.08736437,0,0,-0.05371172,-2.6785441,1033.6285)">
        <g
           id="g16415"
           transform="scale(0.1,0.1)">
          <path
             d="m 0,0 6579.57,0 0,6579.57 L 0,6579.57 0,0 Z"
             style="fill:#a2c8ec;fill-opacity:1;fill-rule:evenodd;stroke:none"
             id="path16417"
             inkscape:connector-curvature="0" />
          <path
             d="m 6579.57,3672.1 c -1093.1,-80.13 -1618.54,-69 -2715.37,257.42 -497.38,148.02 -524.95,159.76 -1049.92,109.54 -166.6,-16.26 -332.82,-33.94 -499.19,-52.51 -168.27,-16.91 -351.59,-24.79 -514.89,-66.99 -234.11,-60.48 -245.41,-121.37 -317.05,-320.45 l -19.55,-41.13 c -72.89,-89.3 -126.89,-99.06 -234.33,-134.76 C 1122.75,3386 1013.67,3337.56 907.402,3305.37 605.715,3213.96 389.574,3425.46 170.273,3252.11 99.457,3196.12 54.6914,3073.71 0,2982.93 l 0,-415.06 c 68.2813,35.64 145.941,45.08 238.09,-39.76 233.64,-215.08 355.836,-329.58 665.797,-440.77 142.603,-51.16 537.083,-118.53 579.133,-257.88 36.16,-119.87 -244.81,-443.4 332.64,-240.64 0.66,27.05 3.77,46.26 -20.03,62.46 -112.7,76.81 192,282.02 6.51,451.66 -155.9,142.56 -705.29,175.03 -978.722,329.68 -299.91,169.64 -281.871,322.24 -399.469,590.68 -27.519,58.27 -131.863,168.56 -104.469,196 80.95,81.01 303.247,-91.04 365.817,-140.41 112.668,-86.71 188.004,-152.5 332.903,-173.97 184.03,-27.27 450.48,-136 635.37,-202.97 715.66,-259.15 508.3,-478.11 1406.16,-453.28 891.35,24.65 -435.56,445.44 -591.49,498.26 -571.21,193.44 519.84,135.57 585.09,133.96 878.82,-15.05 1706.21,-39.31 2571.85,-204.15 305.94,-58.26 589.21,-153.08 897.77,-95.32 10.89,2.21 30.92,6.49 56.62,12.53 l 0,307.09 c -153.43,16.92 -311.75,24.63 -393.29,29.32 -552.44,31.77 -1047.24,110.32 -1589.72,169.59 -278.23,30.4 -841.53,50.58 -1047.64,222.08 -86.13,71.66 556.29,43.82 583.61,42.3 611.59,-33.96 1140.36,-99.01 1762.26,-86.41 215.6,5.04 452.75,10.21 684.78,19.53 l 0,374.65 z m 0,498.04 0,-125.33 c -163.09,53.68 -232.62,104.87 0,125.33 l 0,0"
             style="fill:#c1dff5;fill-opacity:1;fill-rule:evenodd;stroke:none"
             id="path16419"
             inkscape:connector-curvature="0" />
          <path
             d="m 0,2808.02 418.496,418.49 1066.894,-1066.88 0,-2036.278 L 0,167.852 0,2808.02"
             style="fill:#6e9dd9;fill-opacity:1;fill-rule:evenodd;stroke:none"
             id="path16421"
             inkscape:connector-curvature="0" />
          <path
             d="M 0,722.48 54.3789,697.352 0,668.73 0,722.48 Z M 0,1862.41 251.199,1740.5 0,1626.87 0,1862.41 Z M 418.496,3226.51 93.7383,2665.57 516.902,2439.23 0,2232.46 l 0,575.56 418.496,418.49 0,0"
             style="fill:#dfeefa;fill-opacity:1;fill-rule:evenodd;stroke:none"
             id="path16423"
             inkscape:connector-curvature="0" />
          <path
             d="m 2530.82,845.668 2981.87,2981.852 1066.88,-1066.89 0,-2036.271 -4048.75,121.309"
             style="fill:#6e9dd9;fill-opacity:1;fill-rule:evenodd;stroke:none"
             id="path16425"
             inkscape:connector-curvature="0" />
          <path
             d="m 6579.57,1813.54 0,-81.95 -1106.84,109.18 317.5,188.81 -345.43,154.65 332.15,63.06 -398.57,252.22 188.65,36.62 -196.63,161.49 390.6,-197.59 -100.97,-68.89 488.93,-274.34 -167.42,-8.72 598.03,-334.54"
             style="fill:#5580bc;fill-opacity:1;fill-rule:evenodd;stroke:none"
             id="path16427"
             inkscape:connector-curvature="0" />
          <path
             d="M 5512.69,3827.52 5187.93,3266.57 5611.09,3040.23 4676.19,2666.27 5345.38,2341.5 4105.41,1780.58 5148.55,1298.36 3465.74,412.66 2580.04,894.871 5512.69,3827.52"
             style="fill:#dfeefa;fill-opacity:1;fill-rule:evenodd;stroke:none"
             id="path16429"
             inkscape:connector-curvature="0" />
          <path
             d="m 281.703,6579.57 6297.867,0 0,-105.04 c -409.9,-36.05 -792.31,-66.14 -925.89,-80.33 -64.43,-6.7 -944.45,-89.4 -821.88,-207.69 242.58,-194.6 1326.51,-190.16 1701.35,-221 15.64,-1.28 31.08,-2.57 46.42,-3.86 l 0,-460.18 c -585.39,-16.39 -1033.88,-88.35 -1642.46,-289.18 -656.93,-216.79 -837.55,-180 -1531.43,-159.69 -453.64,13.46 -369.86,7.32 -780.01,-95.99 C 2021.4,4808.19 1032.78,4694.93 415.242,4801.72 297.004,4822.16 152.438,4857.88 0,4896.16 l 0,122.95 c 299.238,-71.39 568.344,-125.36 970.48,-101 527.34,31.66 1388.02,217.49 1827.19,447.55 497.5,260.62 556.41,201.6 1133.05,160.53 177.35,-12.63 351.96,-23.52 529.92,-28.11 68.79,-1.47 522.55,19.91 521.03,85.43 -100.16,28.07 -262.2,58.41 -374.28,83.83 -329.81,72.39 -1099.1,190.98 -1415.06,138.56 -320.55,-53.19 -550.58,-240.26 -874.29,-331.15 -76.88,-21.6 -530.06,-134.04 -564.52,-42.55 -16.45,43.67 278.31,384.42 -48.53,424.18 C 1353.62,5877.95 445.293,5558.16 15.7773,5526.87 L 0,5525.75 0,6049.46 c 27.4375,-4.41 54.9648,-8.76 82.5938,-13.07 389.6332,-58.99 827.6762,-20.89 1199.3262,100.32 137.46,44.84 -125.37,92.48 -197.3,119.22 -130.819,48.66 -270.952,128.6 -414.722,185.08 -122.757,48.21 -254.515,94.88 -388.195,138.56"
             style="fill:#85b2e3;fill-opacity:1;fill-rule:evenodd;stroke:none"
             id="path16431"
             inkscape:connector-curvature="0" />
          <path
             d="M 198.223,1352.75 3014,4107.03 3180.07,4334.61 6346.15,1168.53 198.223,1352.75"
             style="fill:#5c89c5;fill-opacity:1;fill-rule:evenodd;stroke:none"
             id="path16433"
             inkscape:connector-curvature="0" />
          <path
             d="m 5803.05,1711.64 125.6,-125.61 -2258.93,222.8 587.97,349.7 -639.67,286.35 615.07,116.78 -738.09,467.06 349.36,67.82 -364.13,299.05 723.33,-365.91 -186.99,-127.57 905.39,-508.05 -310,-16.1 1191.09,-666.32"
             style="fill:#3f669f;fill-opacity:1;fill-rule:evenodd;stroke:none"
             id="path16435"
             inkscape:connector-curvature="0" />
          <path
             d="M 3180.07,4334.61 2855.33,3773.66 3278.48,3547.32 2343.57,3173.36 3012.78,2848.6 1772.8,2287.66 2815.96,1805.44 1133.13,919.742 247.434,1401.95 3180.07,4334.61"
             style="fill:#dfeefa;fill-opacity:1;fill-rule:evenodd;stroke:none"
             id="path16437"
             inkscape:connector-curvature="0" />
          <path
             d="m 515.609,1394.57 624.911,378.9 -152.532,285.38 774.972,568.33 -451.1,-600.45 443.73,-272.97 -167.3,-526.48 -1072.681,167.29"
             style="fill:#a0bde2;fill-opacity:1;fill-rule:evenodd;stroke:none"
             id="path16439"
             inkscape:connector-curvature="0" />
          <path
             d="M 6579.57,1997.25 6579.57,0 1987.95,0 c 142.11,1068.35 2116.72,1925.26 4591.62,1997.25"
             style="fill:#6fbb39;fill-opacity:1;fill-rule:evenodd;stroke:none"
             id="path16441"
             inkscape:connector-curvature="0" />
          <path
             d="m 6579.57,1797.25 0,-1738.1992 -2544.66,0 C 4134.59,808.52 5136.16,1453.89 6579.57,1797.25"
             style="fill:#68b231;fill-opacity:1;fill-rule:evenodd;stroke:none"
             id="path16443"
             inkscape:connector-curvature="0" />
          <path
             d="M 6579.57,526.621 6579.57,0 0,0 0,1495.13 c 379.543,22.73 771.441,34.77 1172.5,34.77 2343.04,0 4378.26,-406.42 5407.07,-1003.279"
             style="fill:#549d34;fill-opacity:1;fill-rule:evenodd;stroke:none"
             id="path16445"
             inkscape:connector-curvature="0" />
          <path
             d="M 6008.78,0 3889.74,0 c -131.83,593.449 -388.78,1061.75 -746.06,1429.73 579.4,-60.8 1119.64,-147.71 1606.33,-256.12 C 5199.79,837.32 5613.95,436.219 6008.78,0"
             style="fill:#5fab32;fill-opacity:1;fill-rule:evenodd;stroke:none"
             id="path16447"
             inkscape:connector-curvature="0" />
          <path
             d="M 6579.57,340.07 6579.57,0 0,0 0,794.98 c 425.289,17.649 859.246,26.829 1300.19,26.829 1947.04,0 3759.84,-177.067 5279.38,-481.739"
             style="fill:#4e9434;fill-opacity:1;fill-rule:evenodd;stroke:none"
             id="path16449"
             inkscape:connector-curvature="0" />
          <path
             d="M 6008.78,0 3889.74,0 c -59.97,269.961 -145.82,514.008 -255.23,734.512 650.7,-49.621 1275.5,-119.5 1867.07,-207.34 C 5674.82,359.039 5843.51,182.621 6008.78,0"
             style="fill:#549d34;fill-opacity:1;fill-rule:evenodd;stroke:none"
             id="path16451"
             inkscape:connector-curvature="0" />
          <path
             d="m 753.57,4487.14 c 611.83,0 1223.65,0 1835.49,0 -5.19,139.1 -297.93,185.99 -389.55,80.13 -95.83,259.57 -502.79,230.42 -574.41,-5.53 -1.59,301.28 -432.98,282.97 -508.4,16.59 -86.4,92.92 -303.04,-2.84 -363.13,-91.19"
             style="fill:#ffffff;fill-opacity:1;fill-rule:evenodd;stroke:none"
             id="path16453"
             inkscape:connector-curvature="0" />
          <path
             d="m 3322.11,5254.76 c 611.82,0 1223.65,0 1835.49,0 -5.22,139.09 -189.69,195.82 -281.3,89.96 78.37,656.74 -383.4,591.01 -608.86,4.31 -1.58,301.27 -432.99,282.97 -508.4,16.58 -86.4,92.92 -376.85,-22.51 -436.93,-110.85"
             style="fill:#ffffff;fill-opacity:1;fill-rule:evenodd;stroke:none"
             id="path16455"
             inkscape:connector-curvature="0" />
          <path
             d="M 2002.63,874.488 2241.49,1507.24 2472.23,958.391 2305.12,1047.07 2707.57,286.5 2417.36,389.109 2768.96,0 l -859.21,0 0,295.16 135.31,122.668 -135.31,-16.758 0,75.051 207.78,383.359 -114.9,15.008"
             style="fill:#356028;fill-opacity:1;fill-rule:evenodd;stroke:none"
             id="path16457"
             inkscape:connector-curvature="0" />
          <path
             d="M 1016.18,1664.13 1470.73,2868.29 1909.83,1823.83 1591.8,1992.58 2357.67,545.199 1805.41,740.469 2474.5,0 839.418,0 l 0,561.68 257.492,233.461 -257.492,-31.879 0,142.777 395.402,729.551 -218.64,28.54"
             style="fill:#447d30;fill-opacity:1;fill-rule:evenodd;stroke:none"
             id="path16459"
             inkscape:connector-curvature="0" />
          <path
             d="m 4242.25,4369.05 c 344.82,0 780.67,0 1125.47,0 -2.91,78.4 -197.93,110.36 -249.57,50.71 -118.25,163.01 -316.83,204.58 -343.13,2.42 -76.36,237.19 -352.43,256.28 -286.52,9.35 -189.96,141.17 -301.37,43.25 -246.25,-62.48"
             style="fill:#ffffff;fill-opacity:1;fill-rule:evenodd;stroke:none"
             id="path16461"
             inkscape:connector-curvature="0" />
          <path
             d="M 210.445,1981.26 751.609,3414.87 1274.38,2171.37 895.758,2372.29 1807.57,649.102 1150.08,881.578 1946.66,0 0,0 0,668.73 306.559,946.66 0,908.699 0,1078.71 588.848,2321.24 210.445,1981.26"
             style="fill:#356028;fill-opacity:1;fill-rule:evenodd;stroke:none"
             id="path16463"
             inkscape:connector-curvature="0" />
        </g>
      </g>
    </g>
    <rect
       transform="matrix(0.02608437,0,0,0.02608437,48.301959,957.51621)"
       y="1511.9822"
       x="-1711.6233"
       height="1325.8315"
       width="2173.3057"
       id="rect8038"
       style="opacity:0.25500039;fill:none;fill-opacity:1;stroke:#000000;stroke-width:28.53351784;stroke-miterlimit:4;stroke-dasharray:none;stroke-opacity:1;filter:url(#filter8098)" />
  </g>
</svg>
